<?xml version="1.0" encoding="utf-8" ?>
<svg baseProfile="full" height="720.0" version="1.1" width="1280.0" xmlns="http://www.w3.org/2000/svg" xmlns:ev="http://www.w3.org/2001/xml-events" xmlns:xlink="http://www.w3.org/1999/xlink">
  <defs>
    <style type="text/css">
<![CDATA[.non-scaling-stroke { vector-effect: non-scaling-stroke; }]]>    </style>
  </defs>
  <svg id="dynamic">
    <defs/>
    <path class="non-scaling-stroke" d="M 0.0 48.0 A 48.0 48.0 0 0 1 47.99999999999999 -6.111040515849597e-15 A 48.0 48.0 0 0 1 96.0 47.99999999999998 A 48.0 48.0 0 0 1 48.0 95.99999999999997 A 48.0 48.0 0 0 1 0.0 47.99999999999998 Z M 74.41413299766526 62.22299469105052 A 30.0 30.0 0 0 1 33.77700530894948 21.585867002334737 Z M 21.58586700233474 33.77700530894948 A 30.0 30.0 0 0 1 62.2229946910505 74.41413299766526 Z" fill="#5b9bd5" stroke="#41719c" stroke-width="3" transform="matrix(1.0,0.0,0.0,1.0,568.3298687664042,508.02929133858265)"/>
  </svg>
  <svg id="static_1">
    <defs/>
    <path class="non-scaling-stroke" d="M 0.0 48.0 A 48.0 48.0 0 0 1 47.99999999999999 -6.111040515849597e-15 A 48.0 48.0 0 0 1 96.0 47.99999999999998 A 48.0 48.0 0 0 1 48.0 95.99999999999997 A 48.0 48.0 0 0 1 0.0 47.99999999999998 Z M 74.41413299766526 62.22299469105052 A 30.0 30.0 0 0 1 33.77700530894948 21.585867002334737 Z M 21.58586700233474 33.77700530894948 A 30.0 30.0 0 0 1 62.2229946910505 74.41413299766526 Z" fill="#5b9bd5" stroke="#41719c" stroke-width="3" transform="matrix(1.0,0.0,0.0,1.0,368.1649343832021,292.81238845144355)"/>
  </svg>
  <svg id="static_2">
    <defs/>
    <path class="non-scaling-stroke" d="M 0.0 48.0 A 48.0 48.0 0 0 1 47.99999999999999 -6.111040515849597e-15 A 48.0 48.0 0 0 1 96.0 47.99999999999998 A 48.0 48.0 0 0 1 48.0 95.99999999999997 A 48.0 48.0 0 0 1 0.0 47.99999999999998 Z M 74.41413299766526 62.22299469105052 A 30.0 30.0 0 0 1 33.77700530894948 21.585867002334737 Z M 21.58586700233474 33.77700530894948 A 30.0 30.0 0 0 1 62.2229946910505 74.41413299766526 Z" fill="#5b9bd5" stroke="#41719c" stroke-width="3" transform="matrix(-1.8369701987210297e-16,-1.0,1.0,-1.8369701987210297e-16,272.1649343832021,388.8123884514436)"/>
  </svg>
  <svg id="static_3">
    <defs/>
    <path class="non-scaling-stroke" d="M 0.0 48.0 A 48.0 48.0 0 0 1 47.99999999999999 -6.111040515849597e-15 A 48.0 48.0 0 0 1 96.0 47.99999999999998 A 48.0 48.0 0 0 1 48.0 95.99999999999997 A 48.0 48.0 0 0 1 0.0 47.99999999999998 Z M 74.41413299766526 62.22299469105052 A 30.0 30.0 0 0 1 33.77700530894948 21.585867002334737 Z M 21.58586700233474 33.77700530894948 A 30.0 30.0 0 0 1 62.2229946910505 74.41413299766526 Z" fill="#5b9bd5" stroke="#41719c" stroke-width="3" transform="matrix(6.123233995736766e-17,1.0,-1.0,6.123233995736766e-17,560.1649343832021,292.8122834645669)"/>
  </svg>
  <svg id="static_4">
    <defs/>
    <path class="non-scaling-stroke" d="M 0.0 48.0 A 48.0 48.0 0 0 1 47.99999999999999 -6.111040515849597e-15 A 48.0 48.0 0 0 1 96.0 47.99999999999998 A 48.0 48.0 0 0 1 48.0 95.99999999999997 A 48.0 48.0 0 0 1 0.0 47.99999999999998 Z M 74.41413299766526 62.22299469105052 A 30.0 30.0 0 0 1 33.77700530894948 21.585867002334737 Z M 21.58586700233474 33.77700530894948 A 30.0 30.0 0 0 1 62.2229946910505 74.41413299766526 Z" fill="#5b9bd5" stroke="#41719c" stroke-width="3" transform="matrix(6.123233995736766e-17,1.0,-1.0,6.123233995736766e-17,952.3298687664042,292.8122834645669)"/>
  </svg>
  <svg id="static_5">
    <defs/>
    <path class="non-scaling-stroke" d="M 0.0 48.0 A 48.0 48.0 0 0 1 47.99999999999999 -6.111040515849597e-15 A 48.0 48.0 0 0 1 96.0 47.99999999999998 A 48.0 48.0 0 0 1 48.0 95.99999999999997 A 48.0 48.0 0 0 1 0.0 47.99999999999998 Z M 74.41413299766526 62.22299469105052 A 30.0 30.0 0 0 1 33.77700530894948 21.585867002334737 Z M 21.58586700233474 33.77700530894948 A 30.0 30.0 0 0 1 62.2229946910505 74.41413299766526 Z" fill="#5b9bd5" stroke="#41719c" stroke-width="3" transform="matrix(6.123233995736766e-17,1.0,-1.0,6.123233995736766e-17,856.3298687664042,292.8122834645669)"/>
  </svg>
  <svg id="static_6">
    <defs/>
    <path class="non-scaling-stroke" d="M 0.0 48.0 A 48.0 48.0 0 0 1 47.99999999999999 -6.111040515849597e-15 A 48.0 48.0 0 0 1 96.0 47.99999999999998 A 48.0 48.0 0 0 1 48.0 95.99999999999997 A 48.0 48.0 0 0 1 0.0 47.99999999999998 Z M 74.41413299766526 62.22299469105052 A 30.0 30.0 0 0 1 33.77700530894948 21.585867002334737 Z M 21.58586700233474 33.77700530894948 A 30.0 30.0 0 0 1 62.2229946910505 74.41413299766526 Z" fill="#5b9bd5" stroke="#41719c" stroke-width="3" transform="matrix(6.123233995736766e-17,1.0,-1.0,6.123233995736766e-17,760.3298687664042,292.8122834645669)"/>
  </svg>
</svg>
