<?xml version="1.0" encoding="utf-8" ?>
<svg baseProfile="full" height="720.0" version="1.1" width="1280.0" xmlns="http://www.w3.org/2000/svg" xmlns:ev="http://www.w3.org/2001/xml-events" xmlns:xlink="http://www.w3.org/1999/xlink">
  <defs>
    <style type="text/css">
<![CDATA[.non-scaling-stroke { vector-effect: non-scaling-stroke; }]]>    </style>
  </defs>
  <svg id="dynamic">
    <defs/>
    <path class="non-scaling-stroke" d="M 0.0 0.0 L 62.09511811023622 0.0 L 62.09511811023622 59.42855643044619 L 0.0 59.42855643044619 Z" fill="#0070c0" stroke="#41719c" stroke-width="3" transform="matrix(1.0,0.0,0.0,1.0,433.23853018372705,197.33312335958004)"/>
  </svg>
  <svg id="static_1">
    <defs/>
    <path class="non-scaling-stroke" d="M 0.0 0.0 L 62.09511811023622 0.0 L 62.09511811023622 59.42855643044619 L 0.0 59.42855643044619 Z" fill="#0070c0" stroke="#41719c" stroke-width="3" transform="matrix(1.0,0.0,0.0,1.0,352.0,352.7617847769029)"/>
  </svg>
  <svg id="static_2">
    <defs/>
    <path class="non-scaling-stroke" d="M 0.0 0.0 L 62.09511811023622 0.0 L 62.09511811023622 59.42855643044619 L 0.0 59.42855643044619 Z" fill="#0070c0" stroke="#41719c" stroke-width="3" transform="matrix(1.0,0.0,0.0,1.0,352.0,195.80955380577427)"/>
  </svg>
  <svg id="static_3">
    <defs/>
    <path class="non-scaling-stroke" d="M 0.0 0.0 L 62.09511811023622 0.0 L 62.09511811023622 59.42855643044619 L 0.0 59.42855643044619 Z" fill="#0070c0" stroke="#41719c" stroke-width="3" transform="matrix(1.0,0.0,0.0,1.0,511.1433070866142,195.80944881889764)"/>
  </svg>
  <svg id="static_4">
    <defs/>
    <path class="non-scaling-stroke" d="M 0.0 0.0 L 62.09511811023622 0.0 L 62.09511811023622 59.42855643044619 L 0.0 59.42855643044619 Z" fill="#0070c0" stroke="#41719c" stroke-width="3" transform="matrix(1.0,0.0,0.0,1.0,512.8101837270341,351.2384251968504)"/>
  </svg>
  <svg id="static_5">
    <defs/>
    <path class="non-scaling-stroke" d="M 0.0 0.0 L 62.09511811023622 0.0 L 62.09511811023622 59.42855643044619 L 0.0 59.42855643044619 Z" fill="#0070c0" stroke="#41719c" stroke-width="3" transform="matrix(1.0,0.0,0.0,1.0,433.23853018372705,274.28577427821523)"/>
  </svg>
  <svg id="static_6">
    <defs/>
    <path class="non-scaling-stroke" d="M 0.0 0.0 L 62.09511811023622 0.0 L 62.09511811023622 59.42855643044619 L 0.0 59.42855643044619 Z" fill="#0070c0" stroke="#41719c" stroke-width="3" transform="matrix(1.0,0.0,0.0,1.0,352.0,274.28577427821523)"/>
  </svg>
  <svg id="static_7">
    <defs/>
    <path class="non-scaling-stroke" d="M 0.0 0.0 L 62.09511811023622 0.0 L 62.09511811023622 59.42855643044619 L 0.0 59.42855643044619 Z" fill="#0070c0" stroke="#41719c" stroke-width="3" transform="matrix(1.0,0.0,0.0,1.0,592.3818372703412,198.3809973753281)"/>
  </svg>
  <svg id="static_8">
    <defs/>
    <path class="non-scaling-stroke" d="M 0.0 0.0 L 62.09511811023622 0.0 L 62.09511811023622 59.42855643044619 L 0.0 59.42855643044619 Z" fill="#2e75b6" stroke="#41719c" stroke-width="3" transform="matrix(1.0,0.0,0.0,1.0,592.3818372703412,274.28577427821523)"/>
  </svg>
  <svg id="static_9">
    <defs/>
    <path class="non-scaling-stroke" d="M 0.0 0.0 L 62.09511811023622 0.0 L 62.09511811023622 59.42855643044619 L 0.0 59.42855643044619 Z" fill="#0070c0" stroke="#41719c" stroke-width="3" transform="matrix(1.0,0.0,0.0,1.0,592.3818372703412,352.7616797900262)"/>
  </svg>
  <svg id="static_10">
    <defs/>
    <path class="non-scaling-stroke" d="M 0.0 0.0 L 62.09511811023622 0.0 L 62.09511811023622 59.42855643044619 L 0.0 59.42855643044619 Z" fill="#0070c0" stroke="#41719c" stroke-width="3" transform="matrix(1.0,0.0,0.0,1.0,433.23853018372705,351.2384251968504)"/>
  </svg>
  <svg id="static_11">
    <defs/>
    <path class="non-scaling-stroke" d="M 0.0 0.0 L 62.09511811023622 0.0 L 62.09511811023622 59.42855643044619 L 0.0 59.42855643044619 Z" fill="#0070c0" stroke="#41719c" stroke-width="3" transform="matrix(1.0,0.0,0.0,1.0,782.3818372703412,581.1665091863517)"/>
  </svg>
</svg>
