<?xml version="1.0" encoding="utf-8" ?>
<svg baseProfile="full" height="720.0" version="1.1" width="1280.0" xmlns="http://www.w3.org/2000/svg" xmlns:ev="http://www.w3.org/2001/xml-events" xmlns:xlink="http://www.w3.org/1999/xlink">
  <defs>
    <style type="text/css">
<![CDATA[.non-scaling-stroke { vector-effect: non-scaling-stroke; }]]>    </style>
  </defs>
  <svg id="dynamic">
    <defs/>
    <path class="non-scaling-stroke" d="M 0.0 0.00010498687664041995 L 0.00010498687664041995 0.0 L 0.0002099737532808399 0.00010498687664041995 L 0.00010498687664041995 0.0002099737532808399 Z" fill="#bdd7ee" stroke="#41719c" stroke-width="3" transform="matrix(457200.0,0.0,0.0,306323.99999999994,592.0,584.1800524934383)"/>
  </svg>
  <svg id="static_1">
    <defs/>
    <path class="non-scaling-stroke" d="M 0.0 0.00010498687664041995 L 0.00010498687664041995 0.0 L 0.0002099737532808399 0.00010498687664041995 L 0.00010498687664041995 0.0002099737532808399 Z" fill="#bdd7ee" stroke="#41719c" stroke-width="3" transform="matrix(457200.0,0.0,0.0,306323.99999999994,194.9690288713911,165.74225721784777)"/>
  </svg>
  <svg id="static_2">
    <defs/>
    <path class="non-scaling-stroke" d="M 0.0 0.00010498687664041995 L 0.00010498687664041995 0.0 L 0.0002099737532808399 0.00010498687664041995 L 0.00010498687664041995 0.0002099737532808399 Z" fill="#bdd7ee" stroke="#41719c" stroke-width="3" transform="matrix(457200.0,0.0,0.0,306323.99999999994,301.9380577427822,165.74225721784777)"/>
  </svg>
  <svg id="static_3">
    <defs/>
    <path class="non-scaling-stroke" d="M 0.0 0.00010498687664041995 L 0.00010498687664041995 0.0 L 0.0002099737532808399 0.00010498687664041995 L 0.00010498687664041995 0.0002099737532808399 Z" fill="#bdd7ee" stroke="#41719c" stroke-width="3" transform="matrix(457200.0,0.0,0.0,306323.99999999994,408.90708661417324,245.01984251968503)"/>
  </svg>
  <svg id="static_4">
    <defs/>
    <path class="non-scaling-stroke" d="M 0.0 0.00010498687664041995 L 0.00010498687664041995 0.0 L 0.0002099737532808399 0.00010498687664041995 L 0.00010498687664041995 0.0002099737532808399 Z" fill="#bdd7ee" stroke="#41719c" stroke-width="3" transform="matrix(457200.0,0.0,0.0,306323.99999999994,843.9590551181102,164.25280839895012)"/>
  </svg>
  <svg id="static_5">
    <defs/>
    <path class="non-scaling-stroke" d="M 0.0 0.00010498687664041995 L 0.00010498687664041995 0.0 L 0.0002099737532808399 0.00010498687664041995 L 0.00010498687664041995 0.0002099737532808399 Z" fill="#bdd7ee" stroke="#41719c" stroke-width="3" transform="matrix(457200.0,0.0,0.0,306323.99999999994,956.5781627296587,166.5332283464567)"/>
  </svg>
  <svg id="static_6">
    <defs/>
    <path class="non-scaling-stroke" d="M 0.0 0.00010498687664041995 L 0.00010498687664041995 0.0 L 0.0002099737532808399 0.00010498687664041995 L 0.00010498687664041995 0.0002099737532808399 Z" fill="#bdd7ee" stroke="#41719c" stroke-width="3" transform="matrix(457200.0,0.0,0.0,306323.99999999994,408.90708661417324,166.5332283464567)"/>
  </svg>
  <svg id="static_7">
    <defs/>
    <path class="non-scaling-stroke" d="M 0.0 0.00010498687664041995 L 0.00010498687664041995 0.0 L 0.0002099737532808399 0.00010498687664041995 L 0.00010498687664041995 0.0002099737532808399 Z" fill="#bdd7ee" stroke="#41719c" stroke-width="3" transform="matrix(457200.0,0.0,0.0,306323.99999999994,408.90708661417324,323.5064566929134)"/>
  </svg>
  <svg id="static_8">
    <defs/>
    <path class="non-scaling-stroke" d="M 0.0 0.00010498687664041995 L 0.00010498687664041995 0.0 L 0.0002099737532808399 0.00010498687664041995 L 0.00010498687664041995 0.0002099737532808399 Z" fill="#bdd7ee" stroke="#41719c" stroke-width="3" transform="matrix(457200.0,0.0,0.0,306323.99999999994,731.3399475065617,164.25280839895012)"/>
  </svg>
  <svg id="static_9">
    <defs/>
    <path class="non-scaling-stroke" d="M 0.0 0.00010498687664041995 L 0.00010498687664041995 0.0 L 0.0002099737532808399 0.00010498687664041995 L 0.00010498687664041995 0.0002099737532808399 Z" fill="#bdd7ee" stroke="#41719c" stroke-width="3" transform="matrix(457200.0,0.0,0.0,306323.99999999994,731.3399475065617,245.01984251968503)"/>
  </svg>
</svg>
