<?xml version="1.0" encoding="utf-8" ?>
<svg baseProfile="full" height="720.0" version="1.1" width="1280.0" xmlns="http://www.w3.org/2000/svg" xmlns:ev="http://www.w3.org/2001/xml-events" xmlns:xlink="http://www.w3.org/1999/xlink">
  <defs>
    <style type="text/css">
<![CDATA[.non-scaling-stroke { vector-effect: non-scaling-stroke; }]]>    </style>
  </defs>
  <svg id="dynamic">
    <defs/>
    <path class="non-scaling-stroke" d="M 34.5 17.0 C 48.875 -22.666666666666668 104.9375 17.0 34.5 68.0 C -35.9375 17.0 20.125 -22.666666666666668 34.5 17.0 Z" fill="#ff0000" stroke="#41719c" stroke-width="3" transform="matrix(1.0,0.0,0.0,1.0,567.4999475065616,623.5223097112861)"/>
  </svg>
  <svg id="static_1">
    <defs/>
    <path class="non-scaling-stroke" d="M 34.5 17.0 C 48.875 -22.666666666666668 104.9375 17.0 34.5 68.0 C -35.9375 17.0 20.125 -22.666666666666668 34.5 17.0 Z" fill="#ff0000" stroke="#41719c" stroke-width="3" transform="matrix(1.0,0.0,0.0,1.0,739.4407349081365,401.2403149606299)"/>
  </svg>
  <svg id="static_2">
    <defs/>
    <path class="non-scaling-stroke" d="M 34.5 17.0 C 48.875 -22.666666666666668 104.9375 17.0 34.5 68.0 C -35.9375 17.0 20.125 -22.666666666666668 34.5 17.0 Z" fill="#ff0000" stroke="#41719c" stroke-width="3" transform="matrix(1.0,0.0,0.0,1.0,375.4999475065617,401.2403149606299)"/>
  </svg>
  <svg id="static_3">
    <defs/>
    <path class="non-scaling-stroke" d="M 34.5 17.0 C 48.875 -22.666666666666668 104.9375 17.0 34.5 68.0 C -35.9375 17.0 20.125 -22.666666666666668 34.5 17.0 Z" fill="#ff0000" stroke="#41719c" stroke-width="3" transform="matrix(1.0,0.0,0.0,1.0,567.499842519685,282.0)"/>
  </svg>
  <svg id="static_4">
    <defs/>
    <path class="non-scaling-stroke" d="M 34.5 17.0 C 48.875 -22.666666666666668 104.9375 17.0 34.5 68.0 C -35.9375 17.0 20.125 -22.666666666666668 34.5 17.0 Z" fill="#ff0000" stroke="#41719c" stroke-width="3" transform="matrix(1.0,0.0,0.0,1.0,739.9703937007874,154.52230971128608)"/>
  </svg>
</svg>
