<?xml version="1.0" encoding="utf-8" ?>
<svg xmlns="http://www.w3.org/2000/svg" xmlns:ev="http://www.w3.org/2001/xml-events" xmlns:xlink="http://www.w3.org/1999/xlink" baseProfile="full" height="100%" version="1.1" viewBox="0,0,1280.0,720.0" width="100%">
  <defs>
    <style type="text/css"><![CDATA[.non-scaling-stroke { vector-effect: non-scaling-stroke; }]]></style>
  </defs>
  <svg id="static_1">
    <defs/>
    <path class="non-scaling-stroke" d="M 8.344787499913824e-05 25.94859955041405 L 30.135941145580166 25.948782179102356 L 39.448241469816274 0.0 L 48.76054179405238 25.948782179102356 L 78.89639949175753 25.94859955041405 L 54.515859907876965 41.98564627507856 L 63.8285439209528 67.93431558344423 L 39.448241469816274 51.8969733593547 L 15.067939018679754 67.93431558344423 L 24.380623031755587 41.98564627507856 Z" fill="#c00000" stroke="#41719c" stroke-width="3" transform="matrix(1.0,0.0,0.0,1.0,236.68965879265093,272.76188976377955)"/>
  </svg>
  <svg id="static_2">
    <defs/>
    <path class="non-scaling-stroke" d="M 8.344787499913824e-05 25.94859955041405 L 30.135941145580166 25.948782179102356 L 39.448241469816274 0.0 L 48.76054179405238 25.948782179102356 L 78.89639949175753 25.94859955041405 L 54.515859907876965 41.98564627507856 L 63.8285439209528 67.93431558344423 L 39.448241469816274 51.8969733593547 L 15.067939018679754 67.93431558344423 L 24.380623031755587 41.98564627507856 Z" fill="#5b9bd5" stroke="#41719c" stroke-width="3" transform="matrix(1.0,0.0,0.0,1.0,964.4138582677166,272.76188976377955)"/>
  </svg>
  <svg id="static_3">
    <defs/>
  </svg>
  <svg id="dynamic">
    <defs/>
    <path class="non-scaling-stroke" d="M 8.344787499913824e-05 25.94859955041405 L 30.135941145580166 25.948782179102356 L 39.448241469816274 0.0 L 48.76054179405238 25.948782179102356 L 78.89639949175753 25.94859955041405 L 54.515859907876965 41.98564627507856 L 63.8285439209528 67.93431558344423 L 39.448241469816274 51.8969733593547 L 15.067939018679754 67.93431558344423 L 24.380623031755587 41.98564627507856 Z" fill="#5b9bd5" stroke="#41719c" stroke-width="3" transform="matrix(1.0,0.0,0.0,1.0,276.1378477690289,645.0655118110236)">
      <animateMotion dur="5s" fill="freeze" id="entrance_motion" path="M 0.0 0.0 L 91.0 -2.0 L 161.0 -9.0 L 257.0 -28.0 L 335.0 -51.0 L 395.0 -70.0 L 443.0 -100.0 L 460.0 -133.0 L 464.0 -151.0 L 451.0 -192.0 L 427.0 -236.0 L 390.0 -263.0 L 365.0 -274.0 L 329.0 -282.0"/>
    </path>
    <animate attributeName="opacity" dur="1s" repeatCount="5" values="1;0;1"/>
  </svg>
</svg>
