<?xml version="1.0" encoding="utf-8" ?>
<svg xmlns="http://www.w3.org/2000/svg" xmlns:ev="http://www.w3.org/2001/xml-events" xmlns:xlink="http://www.w3.org/1999/xlink" baseProfile="full" height="100%" version="1.1" viewBox="0,0,1280.0,720.0" width="100%">
  <defs>
    <style type="text/css"><![CDATA[.non-scaling-stroke { vector-effect: non-scaling-stroke; }]]></style>
  </defs>
  <svg id="static_1">
    <defs/>
    <path class="non-scaling-stroke" d="M 0.0 27.428556430446193 A 26.746666666666666 27.428556430446193 0 0 1 26.74666666666666 -3.0555202579247984e-15 A 26.746666666666666 27.428556430446193 0 0 1 53.49333333333333 27.428556430446186 A 26.746666666666666 27.428556430446193 0 0 1 26.74666666666667 54.85711286089238 A 26.746666666666666 27.428556430446193 0 0 1 0.0 27.428556430446186 Z" fill="#00cc99" stroke="#5b9bd5" stroke-width="3" transform="matrix(1.0,0.0,0.0,1.0,511.13511811023625,234.06950131233594)"/>
  </svg>
  <svg id="static_2">
    <defs/>
    <path class="non-scaling-stroke" d="M 0.0 27.428556430446193 A 26.746666666666666 27.428556430446193 0 0 1 26.74666666666666 -3.0555202579247984e-15 A 26.746666666666666 27.428556430446193 0 0 1 53.49333333333333 27.428556430446186 A 26.746666666666666 27.428556430446193 0 0 1 26.74666666666667 54.85711286089238 A 26.746666666666666 27.428556430446193 0 0 1 0.0 27.428556430446186 Z" fill="#00cc99" stroke="#5b9bd5" stroke-width="3" transform="matrix(1.0,0.0,0.0,1.0,578.0978477690288,297.10456692913385)"/>
  </svg>
  <svg id="static_3">
    <defs/>
    <path class="non-scaling-stroke" d="M 0.0 27.428556430446193 A 26.746666666666666 27.428556430446193 0 0 1 26.74666666666666 -3.0555202579247984e-15 A 26.746666666666666 27.428556430446193 0 0 1 53.49333333333333 27.428556430446186 A 26.746666666666666 27.428556430446193 0 0 1 26.74666666666667 54.85711286089238 A 26.746666666666666 27.428556430446193 0 0 1 0.0 27.428556430446186 Z" fill="#ff99cc" stroke="#5b9bd5" stroke-width="3" transform="matrix(1.0,0.0,0.0,1.0,578.0978477690288,234.26656167979002)"/>
  </svg>
  <svg id="static_4">
    <defs/>
    <path class="non-scaling-stroke" d="M 0.0 27.428556430446193 A 26.746666666666666 27.428556430446193 0 0 1 26.74666666666666 -3.0555202579247984e-15 A 26.746666666666666 27.428556430446193 0 0 1 53.49333333333333 27.428556430446186 A 26.746666666666666 27.428556430446193 0 0 1 26.74666666666667 54.85711286089238 A 26.746666666666666 27.428556430446193 0 0 1 0.0 27.428556430446186 Z" fill="#00cc99" stroke="#5b9bd5" stroke-width="3" transform="matrix(1.0,0.0,0.0,1.0,645.0605774278215,234.06950131233594)"/>
  </svg>
  <svg id="dynamic">
    <defs/>
    <path class="non-scaling-stroke" d="M 0.0 27.428556430446193 A 26.746666666666666 27.428556430446193 0 0 1 26.74666666666666 -3.0555202579247984e-15 A 26.746666666666666 27.428556430446193 0 0 1 53.49333333333333 27.428556430446186 A 26.746666666666666 27.428556430446193 0 0 1 26.74666666666667 54.85711286089238 A 26.746666666666666 27.428556430446193 0 0 1 0.0 27.428556430446186 Z" fill="#00cc99" stroke="#5b9bd5" stroke-width="3" transform="matrix(1.0,0.0,0.0,1.0,578.0978477690288,594.7181102362205)"/>
    <animate attributeName="opacity" dur="1s" repeatCount="5" values="1;0;1"/>
  </svg>
</svg>
