<?xml version="1.0" encoding="utf-8" ?>
<svg xmlns="http://www.w3.org/2000/svg" xmlns:ev="http://www.w3.org/2001/xml-events" xmlns:xlink="http://www.w3.org/1999/xlink" baseProfile="full" height="100%" version="1.1" viewBox="0,0,1280.0,720.0" width="100%">
  <defs>
    <style type="text/css"><![CDATA[.non-scaling-stroke { vector-effect: non-scaling-stroke; }]]></style>
  </defs>
  <svg id="static_1">
    <defs/>
    <path class="non-scaling-stroke" d="M 8.983431263579901e-05 32.79044558348333 L 32.44230675187081 32.79067636572861 L 42.46729658792651 0.0 L 52.49228642398221 32.79067636572861 L 84.93450334154038 32.79044558348333 L 58.688070879536866 53.05596730935623 L 68.71347376892895 85.84650104381326 L 42.46729658792651 65.58060590442352 L 16.221119406924064 85.84650104381326 L 26.246522296316154 53.05596730935623 Z" fill="#00b050" stroke="#41719c" stroke-width="3" transform="matrix(1.0,0.0,0.0,1.0,189.0657217847769,101.6137532808399)"/>
  </svg>
  <svg id="static_2">
    <defs/>
    <path class="non-scaling-stroke" d="M 5.515035856307394e-05 19.53800307622989 L 19.916719986053373 19.538140586536255 L 26.071181102362203 0.0 L 32.22564221867104 19.538140586536255 L 52.142307054365844 19.53800307622989 L 36.02930837098952 31.613100525376733 L 42.18402306567991 51.15115612586986 L 26.071181102362203 39.0758361803735 L 9.9583391390445 51.15115612586986 L 16.113053833734895 31.613100525376733 Z" fill="#00b050" stroke="#41719c" stroke-width="3" transform="matrix(1.0,0.0,0.0,1.0,221.8579527559055,588.7832020997375)"/>
  </svg>
  <svg id="static_3">
    <defs/>
  </svg>
  <svg id="dynamic">
    <defs/>
    <path class="non-scaling-stroke" d="M 8.983431263579901e-05 32.79044558348333 L 32.44230675187081 32.79067636572861 L 42.46729658792651 0.0 L 52.49228642398221 32.79067636572861 L 84.93450334154038 32.79044558348333 L 58.688070879536866 53.05596730935623 L 68.71347376892895 85.84650104381326 L 42.46729658792651 65.58060590442352 L 16.221119406924064 85.84650104381326 L 26.246522296316154 53.05596730935623 Z" fill="#00b050" stroke="#41719c" stroke-width="3" transform="matrix(1.0,0.0,0.0,1.0,1002.8154330708661,443.8929133858268)">
      <animateMotion dur="5s" fill="freeze" id="entrance_motion" path="M 0.0 0.0 L -77.7142257217848 -3.657112860892383 L -73.14278215223098 -68.5714435695538 L -158.17144356955384 -65.82855643044618 L -160.9142257217848 -126.1714435695538 L -263.3142257217848 -126.1714435695538"/>
    </path>
    <animate attributeName="opacity" dur="1s" repeatCount="5" values="1;0;1"/>
  </svg>
</svg>
