<?xml version="1.0" encoding="utf-8" ?>
<svg xmlns="http://www.w3.org/2000/svg" xmlns:ev="http://www.w3.org/2001/xml-events" xmlns:xlink="http://www.w3.org/1999/xlink" baseProfile="full" height="100%" version="1.1" viewBox="0,0,1280.0,720.0" width="100%">
  <defs>
    <style type="text/css"><![CDATA[.non-scaling-stroke { vector-effect: non-scaling-stroke; }]]></style>
  </defs>
  <svg id="static_1">
    <defs/>
    <path class="non-scaling-stroke" d="M 0.0 0.0 L 146.28577427821523 0.0 L 146.28577427821523 171.92860892388452 L 0.0 171.92860892388452 Z" fill="#5b9bd5" stroke="#5b9bd5" stroke-width="3" transform="matrix(1.0,0.0,0.0,1.0,433.0386351706037,179.5034120734908)"/>
  </svg>
  <svg id="static_2">
    <defs/>
    <path class="non-scaling-stroke" d="M 0.0 0.0 L 147.4558530183727 0.0 L 147.4558530183727 171.92860892388452 L 0.0 171.92860892388452 Z" fill="#5b9bd5" stroke="#5b9bd5" stroke-width="3" transform="matrix(1.0,0.0,0.0,1.0,726.1730183727034,179.06771653543308)"/>
  </svg>
  <svg id="static_3">
    <defs/>
    <path class="non-scaling-stroke" d="M 0.0 25.242782152230973 L 12.621391076115486 1.1769449921921287e-05 L 42.894304461942255 1.1769449921921287e-05 L 55.51569553805774 25.242782152230973 L 42.894304461942255 50.48555253501202 L 12.621391076115486 50.48555253501202 Z" fill="#ffffff" stroke="#5b9bd5" stroke-width="3" transform="matrix(1.0,0.0,0.0,1.0,772.4022047244094,239.23517060367453)"/>
  </svg>
  <svg id="static_4">
    <defs/>
    <path class="non-scaling-stroke" d="M 0.0 41.697007874015746 L 20.848503937007873 1.9441234458756103e-05 L 79.03023622047245 1.9441234458756103e-05 L 99.87874015748031 41.697007874015746 L 79.03023622047245 83.39399630679704 L 20.848503937007873 83.39399630679704 Z" fill="#ffffff" stroke="#5b9bd5" stroke-width="3" transform="matrix(1.0,0.0,0.0,1.0,453.302782152231,223.33501312335957)"/>
  </svg>
  <svg id="static_5">
    <defs/>
    <path class="non-scaling-stroke" d="M 0.0 0.0 L 146.28577427821523 0.0 L 146.28577427821523 171.92860892388452 L 0.0 171.92860892388452 Z" fill="#5b9bd5" stroke="#5b9bd5" stroke-width="3" transform="matrix(1.0,0.0,0.0,1.0,579.948031496063,178.99916010498688)"/>
  </svg>
  <svg id="static_6">
    <defs/>
    <path class="non-scaling-stroke" d="M 0.0 41.697007874015746 L 20.848503937007873 1.9441234458756103e-05 L 79.03023622047245 1.9441234458756103e-05 L 99.87874015748031 41.697007874015746 L 79.03023622047245 83.39399630679704 L 20.848503937007873 83.39399630679704 Z" fill="#ffffff" stroke="#5b9bd5" stroke-width="3" transform="matrix(1.0,0.0,0.0,1.0,603.121154855643,224.7901312335958)"/>
  </svg>
  <svg id="static_7">
    <defs/>
  </svg>
  <svg id="dynamic">
    <defs/>
    <path class="non-scaling-stroke" d="M 0.0 25.242782152230973 L 12.621391076115486 1.1769449921921287e-05 L 42.894304461942255 1.1769449921921287e-05 L 55.51569553805774 25.242782152230973 L 42.894304461942255 50.48555253501202 L 12.621391076115486 50.48555253501202 Z" fill="#5b9bd5" stroke="#5b9bd5" stroke-width="3" transform="matrix(1.0,0.0,0.0,1.0,603.121154855643,650.487034120735)">
      <animateMotion dur="5s" fill="freeze" id="entrance_motion" path="M -0.0 -0.0 L -0.0 -124.34288713910762"/>
    </path>
    <animate attributeName="opacity" dur="1s" repeatCount="5" values="1;0;1"/>
  </svg>
</svg>
