<?xml version="1.0" encoding="utf-8" ?>
<svg xmlns="http://www.w3.org/2000/svg" xmlns:ev="http://www.w3.org/2001/xml-events" xmlns:xlink="http://www.w3.org/1999/xlink" baseProfile="full" height="100%" version="1.1" viewBox="0,0,1280.0,720.0" width="100%">
  <defs>
    <style type="text/css"><![CDATA[.non-scaling-stroke { vector-effect: non-scaling-stroke; }]]></style>
  </defs>
  <svg id="static_1">
    <defs/>
    <path class="non-scaling-stroke" d="M 0.0 77.71433070866142 L 45.714330708661414 0.0 L 91.42866141732283 77.71433070866142 Z" fill="#ef41ce" stroke="#5b9bd5" stroke-width="3" transform="matrix(0.5234191690652193,0.8520753332042158,-0.8520753332042158,0.5234191690652193,896.000267773681,135.7676814371897)"/>
  </svg>
  <svg id="static_2">
    <defs/>
    <path class="non-scaling-stroke" d="M 0.0 77.71433070866142 L 45.714330708661414 0.0 L 91.42866141732283 77.71433070866142 Z" fill="#ef41ce" stroke="#5b9bd5" stroke-width="3" transform="matrix(0.5077363533904937,0.8615125045208128,-0.8615125045208128,0.5077363533904937,1019.3968648014697,132.69536851465205)"/>
  </svg>
  <svg id="static_3">
    <defs/>
    <path class="non-scaling-stroke" d="M 0.0 77.71433070866142 L 45.714330708661414 0.0 L 91.42866141732283 77.71433070866142 Z" fill="#ef41ce" stroke="#5b9bd5" stroke-width="3" transform="matrix(1.0,0.0,0.0,1.0,366.22456692913386,173.20640419947506)"/>
  </svg>
  <svg id="static_4">
    <defs/>
    <path class="non-scaling-stroke" d="M 0.0 77.71433070866142 L 45.714330708661414 0.0 L 91.42866141732283 77.71433070866142 Z" fill="#ef41ce" stroke="#5b9bd5" stroke-width="3" transform="matrix(1.0,0.0,0.0,1.0,244.15643044619424,173.20629921259842)"/>
  </svg>
  <svg id="static_5">
    <defs/>
    <path class="non-scaling-stroke" d="M 0.0 77.71433070866142 L 45.714330708661414 0.0 L 91.42866141732283 77.71433070866142 Z" fill="#ef41ce" stroke="#5b9bd5" stroke-width="3" transform="matrix(1.0,0.0,0.0,1.0,122.0882939632546,173.2061942257218)"/>
  </svg>
  <svg id="static_6">
    <defs/>
    <path class="non-scaling-stroke" d="M 0.0 77.71433070866142 L 45.714330708661414 0.0 L 91.42866141732283 77.71433070866142 Z" fill="#ef41ce" stroke="#5b9bd5" stroke-width="3" transform="matrix(0.5234191690652193,0.8520753332042158,-0.8520753332042158,0.5234191690652193,1140.6263045190879,135.76778642406634)"/>
  </svg>
  <svg id="dynamic">
    <defs/>
    <path class="non-scaling-stroke" d="M 0.0 77.71433070866142 L 45.714330708661414 0.0 L 91.42866141732283 77.71433070866142 Z" fill="#ef41ce" stroke="#5b9bd5" stroke-width="3" transform="matrix(1.0,0.0,0.0,1.0,594.2856692913385,529.8503937007874)"/>
    <animate attributeName="opacity" dur="1s" repeatCount="5" values="1;0;1"/>
  </svg>
</svg>
