<?xml version="1.0" encoding="utf-8" ?>
<svg xmlns="http://www.w3.org/2000/svg" xmlns:ev="http://www.w3.org/2001/xml-events" xmlns:xlink="http://www.w3.org/1999/xlink" baseProfile="full" height="100%" version="1.1" viewBox="0,0,1280.0,720.0" width="100%">
  <defs>
    <style type="text/css"><![CDATA[.non-scaling-stroke { vector-effect: non-scaling-stroke; }]]></style>
  </defs>
  <svg id="static_1">
    <defs/>
    <path class="non-scaling-stroke" d="M 0.0 48.0 A 48.0 48.0 0 0 1 47.99999999999999 -6.111040515849597e-15 A 48.0 48.0 0 0 1 96.0 47.99999999999998 A 48.0 48.0 0 0 1 48.0 95.99999999999997 A 48.0 48.0 0 0 1 0.0 47.99999999999998 Z" fill="#5b9bd5" stroke="#41719c" stroke-width="3" transform="matrix(1.0,0.0,0.0,1.0,148.10950131233596,200.55464566929135)"/>
  </svg>
  <svg id="static_2">
    <defs/>
    <path class="non-scaling-stroke" d="M 0.0 48.0 A 48.0 48.0 0 0 1 47.99999999999999 -6.111040515849597e-15 A 48.0 48.0 0 0 1 96.0 47.99999999999998 A 48.0 48.0 0 0 1 48.0 95.99999999999997 A 48.0 48.0 0 0 1 0.0 47.99999999999998 Z" fill="#5b9bd5" stroke="#41719c" stroke-width="3" transform="matrix(1.0,0.0,0.0,1.0,916.0433595800525,200.55464566929135)"/>
  </svg>
  <svg id="static_3">
    <defs/>
  </svg>
  <svg id="dynamic">
    <defs/>
    <path class="non-scaling-stroke" d="M 0.0 48.0 A 48.0 48.0 0 0 1 47.99999999999999 -6.111040515849597e-15 A 48.0 48.0 0 0 1 96.0 47.99999999999998 A 48.0 48.0 0 0 1 48.0 95.99999999999997 A 48.0 48.0 0 0 1 0.0 47.99999999999998 Z" fill="#5b9bd5" stroke="#41719c" stroke-width="3" transform="matrix(1.0,0.0,0.0,1.0,251.51496062992126,592.2038845144357)">
      <animateMotion dur="5s" fill="freeze" id="entrance_motion" path="M 0.0 0.0 L 1.8286614173228346 -64.91433070866142 L 62.17144356955381 -28.34288713910763 L 61.25721784776903 -90.51433070866143 L 120.68577427821522 -61.25711286089239 L 124.34288713910762 -119.77144356955381 L 179.2 -91.4285564304462 L 185.6 -139.88577427821522 L 235.88577427821522 -105.14288713910761 L 244.1143307086614 -163.6571128608924"/>
    </path>
    <animate attributeName="opacity" dur="1s" repeatCount="5" values="1;0;1"/>
  </svg>
</svg>
