<?xml version="1.0" encoding="utf-8" ?>
<svg xmlns="http://www.w3.org/2000/svg" xmlns:ev="http://www.w3.org/2001/xml-events" xmlns:xlink="http://www.w3.org/1999/xlink" baseProfile="full" height="100%" version="1.1" viewBox="0,0,1280.0,720.0" width="100%">
  <defs>
    <style type="text/css"><![CDATA[.non-scaling-stroke { vector-effect: non-scaling-stroke; }]]></style>
  </defs>
  <svg id="static_1">
    <defs/>
    <path class="non-scaling-stroke" d="M 46.5 22.5 C 65.875 -30.0 141.4375 22.5 46.5 90.0 C -48.4375 22.5 27.125 -30.0 46.5 22.5 Z" fill="#ffffff" stroke="#5b9bd5" stroke-width="3" transform="matrix(1.0,0.0,0.0,1.0,180.0595275590551,221.37616797900262)"/>
  </svg>
  <svg id="static_2">
    <defs/>
    <path class="non-scaling-stroke" d="M 46.5 22.5 C 65.875 -30.0 141.4375 22.5 46.5 90.0 C -48.4375 22.5 27.125 -30.0 46.5 22.5 Z" fill="#ffffff" stroke="#5b9bd5" stroke-width="3" transform="matrix(1.0,0.0,0.0,1.0,1006.9404724409449,221.37616797900262)"/>
  </svg>
  <svg id="static_3">
    <defs/>
  </svg>
  <svg id="dynamic">
    <defs/>
    <path class="non-scaling-stroke" d="M 46.5 22.5 C 65.875 -30.0 141.4375 22.5 46.5 90.0 C -48.4375 22.5 27.125 -30.0 46.5 22.5 Z" fill="#ffffff" stroke="#5b9bd5" stroke-width="3" transform="matrix(1.0,0.0,0.0,1.0,11.521259842519685,609.6285564304462)">
      <animateMotion dur="5s" fill="freeze" id="entrance_motion" path="M 0.0 -0.0 L 351.02015748031494 -101.25280839895014"/>
    </path>
    <animate attributeName="opacity" dur="1s" repeatCount="5" values="1;0;1"/>
  </svg>
</svg>
