<?xml version="1.0" encoding="utf-8" ?>
<svg xmlns="http://www.w3.org/2000/svg" xmlns:ev="http://www.w3.org/2001/xml-events" xmlns:xlink="http://www.w3.org/1999/xlink" baseProfile="full" height="100%" version="1.1" viewBox="0,0,1280.0,720.0" width="100%">
  <defs>
    <style type="text/css"><![CDATA[.non-scaling-stroke { vector-effect: non-scaling-stroke; }]]></style>
  </defs>
  <svg id="static_1">
    <defs/>
    <path class="non-scaling-stroke" d="M 0.0 0.0 L 251.15149606299212 0.0 L 251.15149606299212 96.0 L 0.0 96.0 Z" fill="#ff0000" stroke="#ff0000" stroke-width="3" transform="matrix(1.0,0.0,0.0,1.0,223.38950131233597,151.76188976377952)"/>
  </svg>
  <svg id="static_2">
    <defs/>
    <path class="non-scaling-stroke" d="M 0.0 0.0 L 251.15149606299212 0.0 L 251.15149606299212 96.0 L 0.0 96.0 Z" fill="#44546a" stroke="#44546a" stroke-width="3" transform="matrix(1.0,0.0,0.0,1.0,772.9417322834646,151.76188976377952)"/>
  </svg>
  <svg id="static_3">
    <defs/>
    <path class="non-scaling-stroke" d="M 0.0 30.060629921259842 L 17.03517060367454 0.0 L 34.07034120734908 30.060629921259842 L 17.03517060367454 60.121259842519684 Z" fill="#ffffff" stroke="#ff0000" stroke-width="3" transform="matrix(1.0,0.0,0.0,1.0,278.2749606299213,169.70120734908136)"/>
  </svg>
  <svg id="static_4">
    <defs/>
    <path class="non-scaling-stroke" d="M 0.0 30.060629921259842 L 17.03517060367454 0.0 L 34.07034120734908 30.060629921259842 L 17.03517060367454 60.121259842519684 Z" fill="#ffffff" stroke="#ff0000" stroke-width="3" transform="matrix(1.0,0.0,0.0,1.0,384.92556430446194,169.701312335958)"/>
  </svg>
  <svg id="static_5">
    <defs/>
    <path class="non-scaling-stroke" d="M 0.0 30.060629921259842 L 17.03517060367454 0.0 L 34.07034120734908 30.060629921259842 L 17.03517060367454 60.121259842519684 Z" fill="#ffffff" stroke="#44546a" stroke-width="3" transform="matrix(1.0,0.0,0.0,1.0,937.4426246719161,169.70110236220472)"/>
  </svg>
  <svg id="dynamic">
    <defs/>
    <path class="non-scaling-stroke" d="M 0.0 30.060629921259842 L 17.03517060367454 0.0 L 34.07034120734908 30.060629921259842 L 17.03517060367454 60.121259842519684 Z" fill="#ff0000" stroke="#ff0000" stroke-width="3" transform="matrix(1.0,0.0,0.0,1.0,622.9648293963255,517.9393175853019)"/>
    <animate attributeName="opacity" dur="1s" repeatCount="5" values="1;0;1"/>
  </svg>
</svg>
