<?xml version="1.0" encoding="utf-8" ?>
<svg xmlns="http://www.w3.org/2000/svg" xmlns:ev="http://www.w3.org/2001/xml-events" xmlns:xlink="http://www.w3.org/1999/xlink" baseProfile="full" height="100%" version="1.1" viewBox="0,0,1280.0,720.0" width="100%">
  <defs>
    <style type="text/css"><![CDATA[.non-scaling-stroke { vector-effect: non-scaling-stroke; }]]></style>
  </defs>
  <svg id="static_1">
    <defs/>
    <path class="non-scaling-stroke" d="M 0.0 0.0 L 62.09511811023622 0.0 L 62.09511811023622 59.42855643044619 L 0.0 59.42855643044619 Z" fill="#ffc000" stroke="#000000" stroke-width="3" transform="matrix(1.0,0.0,0.0,1.0,967.1362729658792,557.0764304461942)"/>
  </svg>
  <svg id="static_2">
    <defs/>
    <path class="non-scaling-stroke" d="M 0.0 0.0 L 62.09511811023622 0.0 L 62.09511811023622 59.42855643044619 L 0.0 59.42855643044619 Z" fill="#ffc000" stroke="#000000" stroke-width="3" transform="matrix(1.0,0.0,0.0,1.0,967.2202624671916,476.43853018372704)"/>
  </svg>
  <svg id="static_3">
    <defs/>
    <path class="non-scaling-stroke" d="M 0.0 0.0 L 62.09511811023622 0.0 L 62.09511811023622 59.42855643044619 L 0.0 59.42855643044619 Z" fill="#ffc000" stroke="#000000" stroke-width="3" transform="matrix(1.0,0.0,0.0,1.0,967.1362729658792,257.3997900262467)"/>
  </svg>
  <svg id="static_4">
    <defs/>
    <path class="non-scaling-stroke" d="M 0.0 0.0 L 62.09511811023622 0.0 L 62.09511811023622 59.42855643044619 L 0.0 59.42855643044619 Z" fill="#ffc000" stroke="#000000" stroke-width="3" transform="matrix(1.0,0.0,0.0,1.0,967.1362729658792,176.76188976377952)"/>
  </svg>
  <svg id="dynamic">
    <defs/>
    <path class="non-scaling-stroke" d="M 0.0 0.0 L 62.09511811023622 0.0 L 62.09511811023622 59.42855643044619 L 0.0 59.42855643044619 Z" fill="#ffc000" stroke="#000000" stroke-width="3" transform="matrix(1.0,0.0,0.0,1.0,431.9048818897638,542.7380577427822)"/>
    <animate attributeName="opacity" dur="1s" repeatCount="5" values="1;0;1"/>
  </svg>
</svg>
