<?xml version="1.0" encoding="utf-8" ?>
<svg xmlns="http://www.w3.org/2000/svg" xmlns:ev="http://www.w3.org/2001/xml-events" xmlns:xlink="http://www.w3.org/1999/xlink" baseProfile="full" height="100%" version="1.1" viewBox="0,0,1280.0,720.0" width="100%">
  <defs>
    <style type="text/css"><![CDATA[.non-scaling-stroke { vector-effect: non-scaling-stroke; }]]></style>
  </defs>
  <svg id="static_1">
    <defs/>
    <path class="non-scaling-stroke" d="M 0.0 30.981417322834645 A 29.773700787401573 30.981417322834645 0 0 1 29.77370078740157 -6.111040515849597e-15 A 29.773700787401573 30.981417322834645 0 0 1 59.547401574803146 30.981417322834634 A 29.773700787401573 30.981417322834645 0 0 1 29.773700787401573 61.96283464566928 A 29.773700787401573 30.981417322834645 0 0 1 0.0 30.98141732283464 Z" fill="#ffffff" stroke="#5a9ed6" stroke-width="3" transform="matrix(1.0,0.0,0.0,1.0,481.0262467191601,148.60944881889765)"/>
  </svg>
  <svg id="static_2">
    <defs/>
    <path class="non-scaling-stroke" d="M 0.0 30.981417322834645 A 29.773700787401573 30.981417322834645 0 0 1 29.77370078740157 -6.111040515849597e-15 A 29.773700787401573 30.981417322834645 0 0 1 59.547401574803146 30.981417322834634 A 29.773700787401573 30.981417322834645 0 0 1 29.773700787401573 61.96283464566928 A 29.773700787401573 30.981417322834645 0 0 1 0.0 30.98141732283464 Z" fill="#ffffff" stroke="#5a9ed6" stroke-width="3" transform="matrix(1.0,0.0,0.0,1.0,515.2866141732284,206.43317585301838)"/>
  </svg>
  <svg id="static_3">
    <defs/>
    <path class="non-scaling-stroke" d="M 0.0 30.981417322834645 A 29.773700787401573 30.981417322834645 0 0 1 29.77370078740157 -6.111040515849597e-15 A 29.773700787401573 30.981417322834645 0 0 1 59.547401574803146 30.981417322834634 A 29.773700787401573 30.981417322834645 0 0 1 29.773700787401573 61.96283464566928 A 29.773700787401573 30.981417322834645 0 0 1 0.0 30.98141732283464 Z" fill="#ffffff" stroke="#5a9ed6" stroke-width="3" transform="matrix(1.0,0.0,0.0,1.0,450.8389501312336,208.50278215223096)"/>
  </svg>
  <svg id="static_4">
    <defs/>
    <path class="non-scaling-stroke" d="M 0.0 30.981417322834645 A 29.773700787401573 30.981417322834645 0 0 1 29.77370078740157 -6.111040515849597e-15 A 29.773700787401573 30.981417322834645 0 0 1 59.547401574803146 30.981417322834634 A 29.773700787401573 30.981417322834645 0 0 1 29.773700787401573 61.96283464566928 A 29.773700787401573 30.981417322834645 0 0 1 0.0 30.98141732283464 Z" fill="#ffffff" stroke="#5a9ed6" stroke-width="3" transform="matrix(1.0,0.0,0.0,1.0,418.6151181102362,264.2569028871391)"/>
  </svg>
  <svg id="static_5">
    <defs/>
    <path class="non-scaling-stroke" d="M 0.0 30.981417322834645 A 29.773700787401573 30.981417322834645 0 0 1 29.77370078740157 -6.111040515849597e-15 A 29.773700787401573 30.981417322834645 0 0 1 59.547401574803146 30.981417322834634 A 29.773700787401573 30.981417322834645 0 0 1 29.773700787401573 61.96283464566928 A 29.773700787401573 30.981417322834645 0 0 1 0.0 30.98141732283464 Z" fill="#ffffff" stroke="#5a9ed6" stroke-width="3" transform="matrix(1.0,0.0,0.0,1.0,483.06278215223097,264.2569028871391)"/>
  </svg>
  <svg id="dynamic">
    <defs/>
    <path class="non-scaling-stroke" d="M 0.0 30.981417322834645 A 29.773700787401573 30.981417322834645 0 0 1 29.77370078740157 -6.111040515849597e-15 A 29.773700787401573 30.981417322834645 0 0 1 59.547401574803146 30.981417322834634 A 29.773700787401573 30.981417322834645 0 0 1 29.773700787401573 61.96283464566928 A 29.773700787401573 30.981417322834645 0 0 1 0.0 30.98141732283464 Z" fill="#ffffff" stroke="#5a9ed6" stroke-width="3" transform="matrix(1.0,0.0,0.0,1.0,1007.6756955380578,220.96451443569555)"/>
    <animate attributeName="opacity" dur="1s" repeatCount="5" values="1;0;1"/>
  </svg>
</svg>
