<?xml version="1.0" encoding="utf-8" ?>
<svg xmlns="http://www.w3.org/2000/svg" xmlns:ev="http://www.w3.org/2001/xml-events" xmlns:xlink="http://www.w3.org/1999/xlink" baseProfile="full" height="100%" version="1.1" viewBox="0,0,1280.0,720.0" width="100%">
  <defs>
    <style type="text/css"><![CDATA[.non-scaling-stroke { vector-effect: non-scaling-stroke; }]]></style>
  </defs>
  <svg id="static_1">
    <defs/>
    <path class="non-scaling-stroke" d="M 6.930372507856508e-05 23.863732099564338 L 25.02799478386592 23.863900054759107 L 32.76188976377953 0.0 L 40.49578474369313 23.863900054759107 L 65.52371022383397 23.863732099564338 L 45.27559470670192 38.61226548234117 L 53.00980834141488 62.47606173508133 L 32.76188976377953 47.72725659509077 L 12.513971186144166 62.47606173508133 L 20.24818482085713 38.61226548234117 Z" fill="#5b9bd5" stroke="#41719c" stroke-width="3" transform="matrix(1.0,0.0,0.0,1.0,658.1426771653544,178.52377952755904)"/>
  </svg>
  <svg id="static_2">
    <defs/>
    <path class="non-scaling-stroke" d="M 6.930372507856508e-05 23.863732099564338 L 25.02799478386592 23.863900054759107 L 32.76188976377953 0.0 L 40.49578474369313 23.863900054759107 L 65.52371022383397 23.863732099564338 L 45.27559470670192 38.61226548234117 L 53.00980834141488 62.47606173508133 L 32.76188976377953 47.72725659509077 L 12.513971186144166 62.47606173508133 L 20.24818482085713 38.61226548234117 Z" fill="#5b9bd5" stroke="#41719c" stroke-width="3" transform="matrix(1.0,0.0,0.0,1.0,576.7618897637795,180.4927034120735)"/>
  </svg>
  <svg id="static_3">
    <defs/>
    <path class="non-scaling-stroke" d="M 6.930372507856508e-05 23.863732099564338 L 25.02799478386592 23.863900054759107 L 32.76188976377953 0.0 L 40.49578474369313 23.863900054759107 L 65.52371022383397 23.863732099564338 L 45.27559470670192 38.61226548234117 L 53.00980834141488 62.47606173508133 L 32.76188976377953 47.72725659509077 L 12.513971186144166 62.47606173508133 L 20.24818482085713 38.61226548234117 Z" fill="#5b9bd5" stroke="#41719c" stroke-width="3" transform="matrix(1.0,0.0,0.0,1.0,219.23443569553805,519.0)"/>
  </svg>
  <svg id="static_4">
    <defs/>
    <path class="non-scaling-stroke" d="M 6.930372507856508e-05 23.863732099564338 L 25.02799478386592 23.863900054759107 L 32.76188976377953 0.0 L 40.49578474369313 23.863900054759107 L 65.52371022383397 23.863732099564338 L 45.27559470670192 38.61226548234117 L 53.00980834141488 62.47606173508133 L 32.76188976377953 47.72725659509077 L 12.513971186144166 62.47606173508133 L 20.24818482085713 38.61226548234117 Z" fill="#5b9bd5" stroke="#41719c" stroke-width="3" transform="matrix(1.0,0.0,0.0,1.0,219.23443569553805,597.2181627296588)"/>
  </svg>
  <svg id="static_5">
    <defs/>
  </svg>
  <svg id="dynamic">
    <defs/>
    <path class="non-scaling-stroke" d="M 6.930372507856508e-05 23.863732099564338 L 25.02799478386592 23.863900054759107 L 32.76188976377953 0.0 L 40.49578474369313 23.863900054759107 L 65.52371022383397 23.863732099564338 L 45.27559470670192 38.61226548234117 L 53.00980834141488 62.47606173508133 L 32.76188976377953 47.72725659509077 L 12.513971186144166 62.47606173508133 L 20.24818482085713 38.61226548234117 Z" fill="#5b9bd5" stroke="#41719c" stroke-width="3" transform="matrix(1.0,0.0,0.0,1.0,1083.5644094488189,267.6783202099738)">
      <animateMotion dur="5s" fill="freeze" id="entrance_motion" path="M -0.0 0.0 L -216.35821522309712 126.82645669291338"/>
    </path>
    <animate attributeName="opacity" dur="1s" repeatCount="5" values="1;0;1"/>
  </svg>
</svg>
