<?xml version="1.0" encoding="utf-8" ?>
<svg xmlns="http://www.w3.org/2000/svg" xmlns:ev="http://www.w3.org/2001/xml-events" xmlns:xlink="http://www.w3.org/1999/xlink" baseProfile="full" height="100%" version="1.1" viewBox="0,0,1280.0,720.0" width="100%">
  <defs>
    <style type="text/css"><![CDATA[.non-scaling-stroke { vector-effect: non-scaling-stroke; }]]></style>
  </defs>
  <svg id="static_1">
    <defs/>
    <path class="non-scaling-stroke" d="M 2.2380005218714396e-05 24.0 L 31.999737792 23.99959549780879 L 48.0 0.0 L 64.00026220800001 23.99959549780879 L 95.99997761999478 24.0 L 80.000524416 48.0 L 95.99997761999478 72.0 L 64.00026220800001 72.00040450219122 L 48.0 96.0 L 31.999737792 72.00040450219122 L 2.2380005218714396e-05 72.0 L 15.999475583999999 48.0 Z" fill="#5b9bd5" stroke="#41719c" stroke-width="3" transform="matrix(1.0,0.0,0.0,1.0,498.80398950131234,280.2895538057743)"/>
  </svg>
  <svg id="static_2">
    <defs/>
    <path class="non-scaling-stroke" d="M 2.2380005218714396e-05 24.0 L 31.999737792 23.99959549780879 L 48.0 0.0 L 64.00026220800001 23.99959549780879 L 95.99997761999478 24.0 L 80.000524416 48.0 L 95.99997761999478 72.0 L 64.00026220800001 72.00040450219122 L 48.0 96.0 L 31.999737792 72.00040450219122 L 2.2380005218714396e-05 72.0 L 15.999475583999999 48.0 Z" fill="#5b9bd5" stroke="#41719c" stroke-width="3" transform="matrix(1.0,0.0,0.0,1.0,423.97910761154856,342.4561679790026)"/>
  </svg>
  <svg id="static_3">
    <defs/>
    <path class="non-scaling-stroke" d="M 2.2380005218714396e-05 24.0 L 31.999737792 23.99959549780879 L 48.0 0.0 L 64.00026220800001 23.99959549780879 L 95.99997761999478 24.0 L 80.000524416 48.0 L 95.99997761999478 72.0 L 64.00026220800001 72.00040450219122 L 48.0 96.0 L 31.999737792 72.00040450219122 L 2.2380005218714396e-05 72.0 L 15.999475583999999 48.0 Z" fill="#5b9bd5" stroke="#41719c" stroke-width="3" transform="matrix(1.0,0.0,0.0,1.0,612.8245669291339,280.2895538057743)"/>
  </svg>
  <svg id="static_4">
    <defs/>
    <path class="non-scaling-stroke" d="M 2.2380005218714396e-05 24.0 L 31.999737792 23.99959549780879 L 48.0 0.0 L 64.00026220800001 23.99959549780879 L 95.99997761999478 24.0 L 80.000524416 48.0 L 95.99997761999478 72.0 L 64.00026220800001 72.00040450219122 L 48.0 96.0 L 31.999737792 72.00040450219122 L 2.2380005218714396e-05 72.0 L 15.999475583999999 48.0 Z" fill="#5b9bd5" stroke="#41719c" stroke-width="3" transform="matrix(1.0,0.0,0.0,1.0,685.1962204724409,342.4561679790026)"/>
  </svg>
  <svg id="static_5">
    <defs/>
    <path class="non-scaling-stroke" d="M 2.2380005218714396e-05 24.0 L 31.999737792 23.99959549780879 L 48.0 0.0 L 64.00026220800001 23.99959549780879 L 95.99997761999478 24.0 L 80.000524416 48.0 L 95.99997761999478 72.0 L 64.00026220800001 72.00040450219122 L 48.0 96.0 L 31.999737792 72.00040450219122 L 2.2380005218714396e-05 72.0 L 15.999475583999999 48.0 Z" fill="#5b9bd5" stroke="#41719c" stroke-width="3" transform="matrix(1.0,0.0,0.0,1.0,349.15422572178477,409.4903937007874)"/>
  </svg>
  <svg id="static_6">
    <defs/>
  </svg>
  <svg id="dynamic">
    <defs/>
    <path class="non-scaling-stroke" d="M 2.2380005218714396e-05 24.0 L 31.999737792 23.99959549780879 L 48.0 0.0 L 64.00026220800001 23.99959549780879 L 95.99997761999478 24.0 L 80.000524416 48.0 L 95.99997761999478 72.0 L 64.00026220800001 72.00040450219122 L 48.0 96.0 L 31.999737792 72.00040450219122 L 2.2380005218714396e-05 72.0 L 15.999475583999999 48.0 Z" fill="#5b9bd5" stroke="#41719c" stroke-width="3" transform="matrix(1.0,0.0,0.0,1.0,789.7387926509186,528.249028871391)">
      <animateMotion dur="5s" fill="freeze" id="entrance_motion" path="M -0.0 0.0 L -189.2389501312336 0.0"/>
    </path>
    <animate attributeName="opacity" dur="1s" repeatCount="5" values="1;0;1"/>
  </svg>
</svg>
