<?xml version="1.0" encoding="utf-8" ?>
<svg xmlns="http://www.w3.org/2000/svg" xmlns:ev="http://www.w3.org/2001/xml-events" xmlns:xlink="http://www.w3.org/1999/xlink" baseProfile="full" height="100%" version="1.1" viewBox="0,0,1280.0,720.0" width="100%">
  <defs>
    <style type="text/css"><![CDATA[.non-scaling-stroke { vector-effect: non-scaling-stroke; }]]></style>
  </defs>
  <svg id="static_1">
    <defs/>
    <path class="non-scaling-stroke" d="M 0.0 0.0 L 503.7525459317585 0.0 L 503.7525459317585 174.68052493438321 L 0.0 174.68052493438321 Z" fill="#5b9bd5" stroke="#5b9bd5" stroke-width="3" transform="matrix(1.0,0.0,0.0,1.0,58.23695538057743,117.77301837270342)"/>
  </svg>
  <svg id="static_2">
    <defs/>
    <path class="non-scaling-stroke" d="M 0.0 77.19590551181102 L 44.536062992125984 0.0 L 89.07212598425197 77.19590551181102 Z" fill="#ffffff" stroke="#ffffff" stroke-width="3" transform="matrix(-1.0,1.2246467991473532e-16,-1.2246467991473532e-16,-1.0,214.36073490813652,193.8588976377953)"/>
  </svg>
  <svg id="static_3">
    <defs/>
    <path class="non-scaling-stroke" d="M 0.0 77.19590551181102 L 44.536062992125984 0.0 L 89.07212598425197 77.19590551181102 Z" fill="#ffffff" stroke="#ffffff" stroke-width="3" transform="matrix(-1.0,1.2246467991473532e-16,-1.2246467991473532e-16,-1.0,491.2266666666667,193.85889763779528)"/>
  </svg>
  <svg id="static_4">
    <defs/>
    <path class="non-scaling-stroke" d="M 0.0 0.0 L 503.7525459317585 0.0 L 503.7525459317585 174.68052493438321 L 0.0 174.68052493438321 Z" fill="#3cfa3c" stroke="#ffffff" stroke-width="3" transform="matrix(1.0,0.0,0.0,1.0,691.2369553805775,119.25763779527558)"/>
  </svg>
  <svg id="static_5">
    <defs/>
    <path class="non-scaling-stroke" d="M 0.0 77.19590551181102 L 44.536062992125984 0.0 L 89.07212598425197 77.19590551181102 Z" fill="#ffffff" stroke="#ffffff" stroke-width="3" transform="matrix(-1.0,1.2246467991473532e-16,-1.2246467991473532e-16,-1.0,1124.226666666667,195.93816272965876)"/>
  </svg>
  <svg id="dynamic">
    <defs/>
    <path class="non-scaling-stroke" d="M 0.0 77.19590551181102 L 44.536062992125984 0.0 L 89.07212598425197 77.19590551181102 Z" fill="#5b9bd5" stroke="#5b9bd5" stroke-width="3" transform="matrix(-1.0,1.2246467991473532e-16,-1.2246467991473532e-16,-1.0,669.8312860892389,662.7849868766407)"/>
    <animate attributeName="opacity" dur="1s" repeatCount="5" values="1;0;1"/>
  </svg>
</svg>
