<?xml version="1.0" encoding="utf-8" ?>
<svg xmlns="http://www.w3.org/2000/svg" xmlns:ev="http://www.w3.org/2001/xml-events" xmlns:xlink="http://www.w3.org/1999/xlink" baseProfile="full" height="100%" version="1.1" viewBox="0,0,1280.0,720.0" width="100%">
  <defs>
    <style type="text/css"><![CDATA[.non-scaling-stroke { vector-effect: non-scaling-stroke; }]]></style>
  </defs>
  <svg id="static_1">
    <defs/>
    <path class="non-scaling-stroke" d="M 8.703257723557432e-05 29.00207420279913 L 31.430502279624196 29.00227832212971 L 41.14283464566929 0.0 L 50.855167011714386 29.00227832212971 L 82.28558225876135 29.00207420279913 L 56.857718523965936 46.926263837728975 L 66.57045106111877 75.92841600717463 L 41.14283464566929 58.00389610023013 L 15.715218230219802 75.92841600717463 L 25.42795076737265 46.926263837728975 Z" fill="#4cc452" stroke="#deebf7" stroke-width="3" transform="matrix(1.0,0.0,0.0,1.0,982.8571128608924,234.79758530183727)"/>
  </svg>
  <svg id="static_2">
    <defs/>
    <path class="non-scaling-stroke" d="M 8.703257723557432e-05 29.00207420279913 L 31.430502279624196 29.00227832212971 L 41.14283464566929 0.0 L 50.855167011714386 29.00227832212971 L 82.28558225876135 29.00207420279913 L 56.857718523965936 46.926263837728975 L 66.57045106111877 75.92841600717463 L 41.14283464566929 58.00389610023013 L 15.715218230219802 75.92841600717463 L 25.42795076737265 46.926263837728975 Z" fill="#5b9bd5" stroke="#41719c" stroke-width="3" transform="matrix(1.0,0.0,0.0,1.0,214.85721784776902,234.79758530183727)"/>
  </svg>
  <svg id="static_3">
    <defs/>
  </svg>
  <svg id="dynamic">
    <defs/>
    <path class="non-scaling-stroke" d="M 8.703257723557432e-05 29.00207420279913 L 31.430502279624196 29.00227832212971 L 41.14283464566929 0.0 L 50.855167011714386 29.00227832212971 L 82.28558225876135 29.00207420279913 L 56.857718523965936 46.926263837728975 L 66.57045106111877 75.92841600717463 L 41.14283464566929 58.00389610023013 L 15.715218230219802 75.92841600717463 L 25.42795076737265 46.926263837728975 Z" fill="#5b9bd5" stroke="#41719c" stroke-width="3" transform="matrix(1.0,0.0,0.0,1.0,256.0,631.3474015748031)">
      <animateMotion dur="5s" fill="freeze" id="entrance_motion" path="M 0.0 0.0 L 60.0 -1.0 L 95.0 0.0 L 154.0 -10.0 L 197.0 -15.0 L 262.0 -27.0 L 303.0 -39.0 L 350.0 -55.0 L 400.0 -74.0 L 440.0 -96.0 L 469.0 -122.0 L 478.0 -143.0 L 476.0 -168.0 L 468.0 -194.0 L 451.0 -238.0 L 435.0 -261.0 L 408.0 -285.0 L 366.0 -299.0"/>
    </path>
    <animate attributeName="opacity" dur="1s" repeatCount="5" values="1;0;1"/>
  </svg>
</svg>
