<?xml version="1.0" encoding="utf-8" ?>
<svg xmlns="http://www.w3.org/2000/svg" xmlns:ev="http://www.w3.org/2001/xml-events" xmlns:xlink="http://www.w3.org/1999/xlink" baseProfile="full" height="100%" version="1.1" viewBox="0,0,1280.0,720.0" width="100%">
  <defs>
    <style type="text/css"><![CDATA[.non-scaling-stroke { vector-effect: non-scaling-stroke; }]]></style>
  </defs>
  <svg id="static_1">
    <defs/>
    <path class="non-scaling-stroke" d="M 20.024932111925892 37.461194411696006 L 38.5777678880741 17.77905558830399 L 61.0 38.914766185611185 L 83.4222321119259 17.77905558830399 L 101.97506788807411 37.461194411696006 L 80.7165089161342 57.5 L 101.97506788807411 77.538805588304 L 83.4222321119259 97.22094441169601 L 61.0 76.08523381438881 L 38.5777678880741 97.22094441169601 L 20.024932111925892 77.538805588304 L 41.28349108386578 57.5 Z" fill="#000000" stroke="#41719c" stroke-width="3" transform="matrix(1.0,0.0,0.0,1.0,85.75863517060367,277.0)"/>
  </svg>
  <svg id="static_2">
    <defs/>
    <path class="non-scaling-stroke" d="M 20.024932111925892 37.461194411696006 L 38.5777678880741 17.77905558830399 L 61.0 38.914766185611185 L 83.4222321119259 17.77905558830399 L 101.97506788807411 37.461194411696006 L 80.7165089161342 57.5 L 101.97506788807411 77.538805588304 L 83.4222321119259 97.22094441169601 L 61.0 76.08523381438881 L 38.5777678880741 97.22094441169601 L 20.024932111925892 77.538805588304 L 41.28349108386578 57.5 Z" fill="#000000" stroke="#41719c" stroke-width="3" transform="matrix(1.0,0.0,0.0,1.0,85.75863517060367,375.2729658792651)"/>
  </svg>
  <svg id="static_3">
    <defs/>
    <path class="non-scaling-stroke" d="M 20.024932111925892 37.461194411696006 L 38.5777678880741 17.77905558830399 L 61.0 38.914766185611185 L 83.4222321119259 17.77905558830399 L 101.97506788807411 37.461194411696006 L 80.7165089161342 57.5 L 101.97506788807411 77.538805588304 L 83.4222321119259 97.22094441169601 L 61.0 76.08523381438881 L 38.5777678880741 97.22094441169601 L 20.024932111925892 77.538805588304 L 41.28349108386578 57.5 Z" fill="#000000" stroke="#41719c" stroke-width="3" transform="matrix(1.0,0.0,0.0,1.0,1072.2413648293964,375.2729658792651)"/>
  </svg>
  <svg id="static_4">
    <defs/>
  </svg>
  <svg id="dynamic">
    <defs/>
    <path class="non-scaling-stroke" d="M 20.024932111925892 37.461194411696006 L 38.5777678880741 17.77905558830399 L 61.0 38.914766185611185 L 83.4222321119259 17.77905558830399 L 101.97506788807411 37.461194411696006 L 80.7165089161342 57.5 L 101.97506788807411 77.538805588304 L 83.4222321119259 97.22094441169601 L 61.0 76.08523381438881 L 38.5777678880741 97.22094441169601 L 20.024932111925892 77.538805588304 L 41.28349108386578 57.5 Z" fill="#000000" stroke="#41719c" stroke-width="3" transform="matrix(1.0,0.0,0.0,1.0,744.361154855643,0.0)">
      <animateMotion dur="5s" fill="freeze" id="entrance_motion" path="M -0.0 0.0 L -126.28367454068241 126.01763779527559"/>
    </path>
    <animate attributeName="opacity" dur="1s" repeatCount="5" values="1;0;1"/>
  </svg>
</svg>
