<?xml version="1.0" encoding="utf-8" ?>
<svg xmlns="http://www.w3.org/2000/svg" xmlns:ev="http://www.w3.org/2001/xml-events" xmlns:xlink="http://www.w3.org/1999/xlink" baseProfile="full" height="100%" version="1.1" viewBox="0,0,1280.0,720.0" width="100%">
  <defs>
    <style type="text/css"><![CDATA[.non-scaling-stroke { vector-effect: non-scaling-stroke; }]]></style>
  </defs>
  <svg id="static_1">
    <defs/>
    <path class="non-scaling-stroke" d="M 0.0 14.896377952755905 L 14.896377952755905 14.896377952755905 L 14.896377952755905 0.0 L 50.20703412073491 0.0 L 50.20703412073491 14.896377952755905 L 65.10341207349082 14.896377952755905 L 65.10341207349082 44.68913385826772 L 50.20703412073491 44.68913385826772 L 50.20703412073491 59.58551181102362 L 14.896377952755905 59.58551181102362 L 14.896377952755905 44.68913385826772 L 0.0 44.68913385826772 Z" fill="#fc6c68" stroke="#41719c" stroke-width="3" transform="matrix(1.0,0.0,0.0,1.0,895.4482939632546,252.79601049868765)"/>
  </svg>
  <svg id="static_2">
    <defs/>
    <path class="non-scaling-stroke" d="M 0.0 14.896377952755905 L 14.896377952755905 14.896377952755905 L 14.896377952755905 0.0 L 50.20703412073491 0.0 L 50.20703412073491 14.896377952755905 L 65.10341207349082 14.896377952755905 L 65.10341207349082 44.68913385826772 L 50.20703412073491 44.68913385826772 L 50.20703412073491 59.58551181102362 L 14.896377952755905 59.58551181102362 L 14.896377952755905 44.68913385826772 L 0.0 44.68913385826772 Z" fill="#fc6c68" stroke="#41719c" stroke-width="3" transform="matrix(1.0,0.0,0.0,1.0,319.44829396325457,252.74299212598424)"/>
  </svg>
  <svg id="static_3">
    <defs/>
  </svg>
  <svg id="dynamic">
    <defs/>
    <path class="non-scaling-stroke" d="M 0.0 14.896377952755905 L 14.896377952755905 14.896377952755905 L 14.896377952755905 0.0 L 50.20703412073491 0.0 L 50.20703412073491 14.896377952755905 L 65.10341207349082 14.896377952755905 L 65.10341207349082 44.68913385826772 L 50.20703412073491 44.68913385826772 L 50.20703412073491 59.58551181102362 L 14.896377952755905 59.58551181102362 L 14.896377952755905 44.68913385826772 L 0.0 44.68913385826772 Z" fill="#fc6c68" stroke="#41719c" stroke-width="3" transform="matrix(1.0,0.0,0.0,1.0,1021.7404724409449,584.6292913385827)">
      <animateMotion dur="5s" fill="freeze" id="entrance_motion" path="M -0.0 0.0 L -443.75622047244093 0.0"/>
    </path>
    <animate attributeName="opacity" dur="1s" repeatCount="5" values="1;0;1"/>
  </svg>
</svg>
