<?xml version="1.0" encoding="utf-8" ?>
<svg xmlns="http://www.w3.org/2000/svg" xmlns:ev="http://www.w3.org/2001/xml-events" xmlns:xlink="http://www.w3.org/1999/xlink" baseProfile="full" height="100%" version="1.1" viewBox="0,0,1280.0,720.0" width="100%">
  <defs>
    <style type="text/css"><![CDATA[.non-scaling-stroke { vector-effect: non-scaling-stroke; }]]></style>
  </defs>
  <svg id="static_1">
    <defs/>
    <path class="non-scaling-stroke" d="M 0.0 32.23490813648294 A 62.3449343832021 32.23490813648294 0 0 1 62.3449343832021 -6.111040515849597e-15 A 62.3449343832021 32.23490813648294 0 0 1 124.6898687664042 32.23490813648292 A 62.3449343832021 32.23490813648294 0 0 1 62.3449343832021 64.46981627296586 A 62.3449343832021 32.23490813648294 0 0 1 0.0 32.23490813648292 Z" fill="#a9d18e" stroke="#41719c" stroke-width="3" transform="matrix(1.0,0.0,0.0,1.0,943.4480839895014,580.235905511811)"/>
  </svg>
  <svg id="static_2">
    <defs/>
    <path class="non-scaling-stroke" d="M 0.0 32.23490813648294 A 62.3449343832021 32.23490813648294 0 0 1 62.3449343832021 -6.111040515849597e-15 A 62.3449343832021 32.23490813648294 0 0 1 124.6898687664042 32.23490813648292 A 62.3449343832021 32.23490813648294 0 0 1 62.3449343832021 64.46981627296586 A 62.3449343832021 32.23490813648294 0 0 1 0.0 32.23490813648292 Z" fill="#a9d18e" stroke="#41719c" stroke-width="3" transform="matrix(1.0,0.0,0.0,1.0,193.65501312335957,559.7271391076115)"/>
  </svg>
  <svg id="static_3">
    <defs/>
  </svg>
  <svg id="dynamic">
    <defs/>
    <path class="non-scaling-stroke" d="M 0.0 32.23490813648294 A 62.3449343832021 32.23490813648294 0 0 1 62.3449343832021 -6.111040515849597e-15 A 62.3449343832021 32.23490813648294 0 0 1 124.6898687664042 32.23490813648292 A 62.3449343832021 32.23490813648294 0 0 1 62.3449343832021 64.46981627296586 A 62.3449343832021 32.23490813648294 0 0 1 0.0 32.23490813648292 Z" fill="#a9d18e" stroke="#41719c" stroke-width="3" transform="matrix(1.0,0.0,0.0,1.0,503.00818897637794,12.061417322834645)">
      <animateMotion dur="5s" fill="freeze" id="entrance_motion" path="M 0.0 0.0 L 55.77133858267716 44.8 L 3.6571128608923864 73.14278215223096 L 49.371338582677154 127.08566929133858 L -7.314330708661419 149.0285564304462 L 42.97133858267716 202.9714435695538 L -23.771443569553806 237.71422572178477 L 45.71422572178477 291.65711286089237"/>
    </path>
    <animate attributeName="opacity" dur="1s" repeatCount="5" values="1;0;1"/>
  </svg>
</svg>
