<?xml version="1.0" encoding="utf-8" ?>
<svg xmlns="http://www.w3.org/2000/svg" xmlns:ev="http://www.w3.org/2001/xml-events" xmlns:xlink="http://www.w3.org/1999/xlink" baseProfile="full" height="100%" version="1.1" viewBox="0,0,1280.0,720.0" width="100%">
  <defs>
    <style type="text/css"><![CDATA[.non-scaling-stroke { vector-effect: non-scaling-stroke; }]]></style>
  </defs>
  <svg id="static_1">
    <defs/>
    <path class="non-scaling-stroke" d="M 0.0 37.8 L 39.6 0.0 L 79.2 37.8 L 39.6 75.6 Z" fill="#6c96c4" stroke="#6c96c4" stroke-width="3" transform="matrix(1.0,0.0,0.0,1.0,457.69154855643046,90.61280839895014)"/>
  </svg>
  <svg id="static_2">
    <defs/>
    <path class="non-scaling-stroke" d="M 0.0 37.8 L 39.6 0.0 L 79.2 37.8 L 39.6 75.6 Z" fill="#6c96c4" stroke="#6c96c4" stroke-width="3" transform="matrix(1.0,0.0,0.0,1.0,725.1542257217848,90.61280839895014)"/>
  </svg>
  <svg id="static_3">
    <defs/>
    <path class="non-scaling-stroke" d="M 0.0 37.8 L 39.6 0.0 L 79.2 37.8 L 39.6 75.6 Z" fill="#6c96c4" stroke="#6c96c4" stroke-width="3" transform="matrix(1.0,0.0,0.0,1.0,546.8457742782152,90.61280839895014)"/>
  </svg>
  <svg id="static_4">
    <defs/>
    <path class="non-scaling-stroke" d="M 0.0 37.8 L 39.6 0.0 L 79.2 37.8 L 39.6 75.6 Z" fill="#6c96c4" stroke="#6c96c4" stroke-width="3" transform="matrix(1.0,0.0,0.0,1.0,814.3084514435695,90.61280839895014)"/>
  </svg>
  <svg id="static_5">
    <defs/>
    <path class="non-scaling-stroke" d="M 0.0 37.8 L 39.6 0.0 L 79.2 37.8 L 39.6 75.6 Z" fill="#6c96c4" stroke="#6c96c4" stroke-width="3" transform="matrix(1.0,0.0,0.0,1.0,636.0,90.61280839895014)"/>
  </svg>
  <svg id="static_6">
    <defs/>
    <path class="non-scaling-stroke" d="M 0.0 37.8 L 39.6 0.0 L 79.2 37.8 L 39.6 75.6 Z" fill="#6c96c4" stroke="#6c96c4" stroke-width="3" transform="matrix(1.0,0.0,0.0,1.0,814.3084514435695,260.42561679790026)"/>
  </svg>
  <svg id="static_7">
    <defs/>
    <path class="non-scaling-stroke" d="M 0.0 37.8 L 39.6 0.0 L 79.2 37.8 L 39.6 75.6 Z" fill="#6c96c4" stroke="#6c96c4" stroke-width="3" transform="matrix(1.0,0.0,0.0,1.0,814.3084514435695,174.81280839895012)"/>
  </svg>
  <svg id="static_8">
    <defs/>
    <path class="non-scaling-stroke" d="M 0.0 37.8 L 39.6 0.0 L 79.2 37.8 L 39.6 75.6 Z" fill="#6c96c4" stroke="#6c96c4" stroke-width="3" transform="matrix(1.0,0.0,0.0,1.0,814.3084514435695,342.82561679790024)"/>
  </svg>
  <svg id="static_9">
    <defs/>
    <path class="non-scaling-stroke" d="M 0.0 37.8 L 39.6 0.0 L 79.2 37.8 L 39.6 75.6 Z" fill="#4ee267" stroke="#4ee267" stroke-width="3" transform="matrix(1.0,0.0,0.0,1.0,368.67464566929135,260.42561679790026)"/>
  </svg>
  <svg id="static_10">
    <defs/>
    <path class="non-scaling-stroke" d="M 0.0 37.8 L 39.6 0.0 L 79.2 37.8 L 39.6 75.6 Z" fill="#4ee267" stroke="#4ee267" stroke-width="3" transform="matrix(1.0,0.0,0.0,1.0,368.5373228346457,180.7851968503937)"/>
  </svg>
  <svg id="static_11">
    <defs/>
    <path class="non-scaling-stroke" d="M 0.0 37.8 L 39.6 0.0 L 79.2 37.8 L 39.6 75.6 Z" fill="#4ee267" stroke="#4ee267" stroke-width="3" transform="matrix(1.0,0.0,0.0,1.0,368.5373228346457,94.34488188976378)"/>
  </svg>
  <svg id="dynamic">
    <defs/>
    <path class="non-scaling-stroke" d="M 0.0 37.8 L 39.6 0.0 L 79.2 37.8 L 39.6 75.6 Z" fill="#6c96c4" stroke="#6c96c4" stroke-width="3" transform="matrix(1.0,0.0,0.0,1.0,600.4,577.5400524934383)"/>
    <animate attributeName="opacity" dur="1s" repeatCount="5" values="1;0;1"/>
  </svg>
</svg>
