<?xml version="1.0" encoding="utf-8" ?>
<svg xmlns="http://www.w3.org/2000/svg" xmlns:ev="http://www.w3.org/2001/xml-events" xmlns:xlink="http://www.w3.org/1999/xlink" baseProfile="full" height="100%" version="1.1" viewBox="0,0,1280.0,720.0" width="100%">
  <defs>
    <style type="text/css"><![CDATA[.non-scaling-stroke { vector-effect: non-scaling-stroke; }]]></style>
  </defs>
  <svg id="static_1">
    <defs/>
    <path class="non-scaling-stroke" d="M 0.0 46.2 A 68.6903937007874 46.2 0 0 1 68.6903937007874 -6.111040515849597e-15 A 68.6903937007874 46.2 0 0 1 137.3807874015748 46.199999999999974 A 68.6903937007874 46.2 0 0 1 68.6903937007874 92.39999999999998 A 68.6903937007874 46.2 0 0 1 0.0 46.19999999999998 Z" fill="#ffffff" stroke="#41719c" stroke-width="3" transform="matrix(1.0,0.0,0.0,1.0,989.1749081364829,204.26719160104986)"/>
  </svg>
  <svg id="static_2">
    <defs/>
    <path class="non-scaling-stroke" d="M 0.0 46.2 A 68.6903937007874 46.2 0 0 1 68.6903937007874 -6.111040515849597e-15 A 68.6903937007874 46.2 0 0 1 137.3807874015748 46.199999999999974 A 68.6903937007874 46.2 0 0 1 68.6903937007874 92.39999999999998 A 68.6903937007874 46.2 0 0 1 0.0 46.19999999999998 Z" fill="#ffffff" stroke="#41719c" stroke-width="3" transform="matrix(1.0,0.0,0.0,1.0,829.4903937007874,204.26719160104986)"/>
  </svg>
  <svg id="static_3">
    <defs/>
    <path class="non-scaling-stroke" d="M 0.0 46.2 A 44.4 46.2 0 0 1 44.39999999999999 -6.111040515849597e-15 A 44.4 46.2 0 0 1 88.8 46.19999999999998 A 44.4 46.2 0 0 1 44.4 92.39999999999998 A 44.4 46.2 0 0 1 0.0 46.19999999999998 Z" fill="#ffffff" stroke="#41719c" stroke-width="3" transform="matrix(1.0,0.0,0.0,1.0,258.0635170603675,204.26719160104986)"/>
  </svg>
  <svg id="static_4">
    <defs/>
    <path class="non-scaling-stroke" d="M 0.0 46.2 A 44.4 46.2 0 0 1 44.39999999999999 -6.111040515849597e-15 A 44.4 46.2 0 0 1 88.8 46.19999999999998 A 44.4 46.2 0 0 1 44.4 92.39999999999998 A 44.4 46.2 0 0 1 0.0 46.19999999999998 Z" fill="#ffffff" stroke="#41719c" stroke-width="3" transform="matrix(1.0,0.0,0.0,1.0,153.44430446194227,204.26719160104986)"/>
  </svg>
  <svg id="dynamic">
    <defs/>
    <path class="non-scaling-stroke" d="M 0.0 46.2 A 44.4 46.2 0 0 1 44.39999999999999 -6.111040515849597e-15 A 44.4 46.2 0 0 1 88.8 46.19999999999998 A 44.4 46.2 0 0 1 44.4 92.39999999999998 A 44.4 46.2 0 0 1 0.0 46.19999999999998 Z" fill="#ffffff" stroke="#41719c" stroke-width="3" transform="matrix(1.0,0.0,0.0,1.0,595.6,588.0671916010499)"/>
    <animate attributeName="opacity" dur="1s" repeatCount="5" values="1;0;1"/>
  </svg>
</svg>
