<?xml version="1.0" encoding="utf-8" ?>
<svg xmlns="http://www.w3.org/2000/svg" xmlns:ev="http://www.w3.org/2001/xml-events" xmlns:xlink="http://www.w3.org/1999/xlink" baseProfile="full" height="100%" version="1.1" viewBox="0,0,1280.0,720.0" width="100%">
  <defs>
    <style type="text/css"><![CDATA[.non-scaling-stroke { vector-effect: non-scaling-stroke; }]]></style>
  </defs>
  <svg id="static_1">
    <defs/>
    <path class="non-scaling-stroke" d="M 8.983431263579901e-05 32.79044558348333 L 32.44230675187081 32.79067636572861 L 42.46729658792651 0.0 L 52.49228642398221 32.79067636572861 L 84.93450334154038 32.79044558348333 L 58.688070879536866 53.05596730935623 L 68.71347376892895 85.84650104381326 L 42.46729658792651 65.58060590442352 L 16.221119406924064 85.84650104381326 L 26.246522296316154 53.05596730935623 Z" fill="#00b050" stroke="#41719c" stroke-width="3" transform="matrix(1.0,0.0,0.0,1.0,171.06540682414698,544.0048293963255)"/>
  </svg>
  <svg id="static_2">
    <defs/>
    <path class="non-scaling-stroke" d="M 8.983431263579901e-05 32.79044558348333 L 32.44230675187081 32.79067636572861 L 42.46729658792651 0.0 L 52.49228642398221 32.79067636572861 L 84.93450334154038 32.79044558348333 L 58.688070879536866 53.05596730935623 L 68.71347376892895 85.84650104381326 L 42.46729658792651 65.58060590442352 L 16.221119406924064 85.84650104381326 L 26.246522296316154 53.05596730935623 Z" fill="#00b050" stroke="#41719c" stroke-width="3" transform="matrix(1.0,0.0,0.0,1.0,171.06540682414698,175.99517060367455)"/>
  </svg>
  <svg id="static_3">
    <defs/>
    <path class="non-scaling-stroke" d="M 8.983431263579901e-05 32.79044558348333 L 32.44230675187081 32.79067636572861 L 42.46729658792651 0.0 L 52.49228642398221 32.79067636572861 L 84.93450334154038 32.79044558348333 L 58.688070879536866 53.05596730935623 L 68.71347376892895 85.84650104381326 L 42.46729658792651 65.58060590442352 L 16.221119406924064 85.84650104381326 L 26.246522296316154 53.05596730935623 Z" fill="#00b050" stroke="#41719c" stroke-width="3" transform="matrix(1.0,0.0,0.0,1.0,267.065406824147,176.76188976377952)"/>
  </svg>
  <svg id="static_4">
    <defs/>
  </svg>
  <svg id="dynamic">
    <defs/>
    <path class="non-scaling-stroke" d="M 8.983431263579901e-05 32.79044558348333 L 32.44230675187081 32.79067636572861 L 42.46729658792651 0.0 L 52.49228642398221 32.79067636572861 L 84.93450334154038 32.79044558348333 L 58.688070879536866 53.05596730935623 L 68.71347376892895 85.84650104381326 L 42.46729658792651 65.58060590442352 L 16.221119406924064 85.84650104381326 L 26.246522296316154 53.05596730935623 Z" fill="#00b050" stroke="#41719c" stroke-width="3" transform="matrix(1.0,0.0,0.0,1.0,1024.0,501.08146981627294)">
      <animateMotion dur="5s" fill="freeze" id="entrance_motion" path="M 0.0 0.0 L -85.94278215223096 -3.657112860892397 L -89.6 -68.57144356955382 L -178.28566929133856 -70.4 L -182.85711286089236 -127.08566929133859 L -280.68566929133857 -131.6571128608924"/>
    </path>
    <animate attributeName="opacity" dur="1s" repeatCount="5" values="1;0;1"/>
  </svg>
</svg>
