<?xml version="1.0" encoding="utf-8" ?>
<svg xmlns="http://www.w3.org/2000/svg" xmlns:ev="http://www.w3.org/2001/xml-events" xmlns:xlink="http://www.w3.org/1999/xlink" baseProfile="full" height="100%" version="1.1" viewBox="0,0,1280.0,720.0" width="100%">
  <defs>
    <style type="text/css"><![CDATA[.non-scaling-stroke { vector-effect: non-scaling-stroke; }]]></style>
  </defs>
  <svg id="static_1">
    <defs/>
    <path class="non-scaling-stroke" d="M 0.0 48.0 A 48.0 48.0 0 0 1 47.99999999999999 -6.111040515849597e-15 A 48.0 48.0 0 0 1 96.0 47.99999999999998 A 48.0 48.0 0 0 1 48.0 95.99999999999997 A 48.0 48.0 0 0 1 0.0 47.99999999999998 Z" fill="#cf1203" stroke="#000000" stroke-width="3" transform="matrix(1.0,0.0,0.0,1.0,301.71422572178477,234.66656167979002)"/>
  </svg>
  <svg id="static_2">
    <defs/>
    <path class="non-scaling-stroke" d="M 0.0 48.0 A 48.0 48.0 0 0 1 47.99999999999999 -6.111040515849597e-15 A 48.0 48.0 0 0 1 96.0 47.99999999999998 A 48.0 48.0 0 0 1 48.0 95.99999999999997 A 48.0 48.0 0 0 1 0.0 47.99999999999998 Z" fill="#cf1203" stroke="#000000" stroke-width="3" transform="matrix(1.0,0.0,0.0,1.0,839.7616797900263,363.9526509186352)"/>
  </svg>
  <svg id="static_3">
    <defs/>
  </svg>
  <svg id="dynamic">
    <defs/>
    <path class="non-scaling-stroke" d="M 0.0 48.0 A 48.0 48.0 0 0 1 47.99999999999999 -6.111040515849597e-15 A 48.0 48.0 0 0 1 96.0 47.99999999999998 A 48.0 48.0 0 0 1 48.0 95.99999999999997 A 48.0 48.0 0 0 1 0.0 47.99999999999998 Z" fill="#cf1203" stroke="#000000" stroke-width="3" transform="matrix(1.0,0.0,0.0,1.0,766.942782152231,616.3075065616798)">
      <animateMotion dur="5s" fill="freeze" id="entrance_motion" path="M -0.0 -0.0 L -138.05711286089237 -131.1143307086614"/>
    </path>
    <animate attributeName="opacity" dur="1s" repeatCount="5" values="1;0;1"/>
  </svg>
</svg>
