<?xml version="1.0" encoding="utf-8" ?>
<svg xmlns="http://www.w3.org/2000/svg" xmlns:ev="http://www.w3.org/2001/xml-events" xmlns:xlink="http://www.w3.org/1999/xlink" baseProfile="full" height="100%" version="1.1" viewBox="0,0,1280.0,720.0" width="100%">
  <defs>
    <style type="text/css"><![CDATA[.non-scaling-stroke { vector-effect: non-scaling-stroke; }]]></style>
  </defs>
  <svg id="static_1">
    <defs/>
    <path class="non-scaling-stroke" d="M 0.0 37.8 L 39.6 0.0 L 79.2 37.8 L 39.6 75.6 Z" fill="#6c96c4" stroke="#6c96c4" stroke-width="3" transform="matrix(1.0,0.0,0.0,1.0,358.5379527559055,251.31769028871392)"/>
  </svg>
  <svg id="static_2">
    <defs/>
    <path class="non-scaling-stroke" d="M 0.0 37.8 L 39.6 0.0 L 79.2 37.8 L 39.6 75.6 Z" fill="#6c96c4" stroke="#6c96c4" stroke-width="3" transform="matrix(1.0,0.0,0.0,1.0,806.9090813648294,336.2165879265092)"/>
  </svg>
  <svg id="static_3">
    <defs/>
    <path class="non-scaling-stroke" d="M 0.0 37.8 L 39.6 0.0 L 79.2 37.8 L 39.6 75.6 Z" fill="#6c96c4" stroke="#6c96c4" stroke-width="3" transform="matrix(1.0,0.0,0.0,1.0,358.5379527559055,158.14225721784777)"/>
  </svg>
  <svg id="static_4">
    <defs/>
    <path class="non-scaling-stroke" d="M 0.0 37.8 L 39.6 0.0 L 79.2 37.8 L 39.6 75.6 Z" fill="#6c96c4" stroke="#6c96c4" stroke-width="3" transform="matrix(1.0,0.0,0.0,1.0,537.886404199475,155.74225721784777)"/>
  </svg>
  <svg id="static_5">
    <defs/>
    <path class="non-scaling-stroke" d="M 0.0 37.8 L 39.6 0.0 L 79.2 37.8 L 39.6 75.6 Z" fill="#6c96c4" stroke="#6c96c4" stroke-width="3" transform="matrix(1.0,0.0,0.0,1.0,448.2121784776903,155.67548556430447)"/>
  </svg>
  <svg id="static_6">
    <defs/>
    <path class="non-scaling-stroke" d="M 0.0 37.8 L 39.6 0.0 L 79.2 37.8 L 39.6 75.6 Z" fill="#6c96c4" stroke="#6c96c4" stroke-width="3" transform="matrix(1.0,0.0,0.0,1.0,806.9090813648294,245.94603674540681)"/>
  </svg>
  <svg id="static_7">
    <defs/>
    <path class="non-scaling-stroke" d="M 0.0 37.8 L 39.6 0.0 L 79.2 37.8 L 39.6 75.6 Z" fill="#6c96c4" stroke="#6c96c4" stroke-width="3" transform="matrix(1.0,0.0,0.0,1.0,806.9090813648294,155.67548556430447)"/>
  </svg>
  <svg id="static_8">
    <defs/>
    <path class="non-scaling-stroke" d="M 0.0 37.8 L 39.6 0.0 L 79.2 37.8 L 39.6 75.6 Z" fill="#6c96c4" stroke="#6c96c4" stroke-width="3" transform="matrix(1.0,0.0,0.0,1.0,717.2348556430446,155.74225721784777)"/>
  </svg>
  <svg id="static_9">
    <defs/>
    <path class="non-scaling-stroke" d="M 0.0 37.8 L 39.6 0.0 L 79.2 37.8 L 39.6 75.6 Z" fill="#6c96c4" stroke="#6c96c4" stroke-width="3" transform="matrix(1.0,0.0,0.0,1.0,627.5606299212599,155.74225721784777)"/>
  </svg>
  <svg id="static_10">
    <defs/>
    <path class="non-scaling-stroke" d="M 0.0 37.8 L 39.6 0.0 L 79.2 37.8 L 39.6 75.6 Z" fill="#6c96c4" stroke="#6c96c4" stroke-width="3" transform="matrix(1.0,0.0,0.0,1.0,806.9090813648294,426.48713910761154)"/>
  </svg>
  <svg id="static_11">
    <defs/>
    <path class="non-scaling-stroke" d="M 0.0 37.8 L 39.6 0.0 L 79.2 37.8 L 39.6 75.6 Z" fill="#6c96c4" stroke="#6c96c4" stroke-width="3" transform="matrix(1.0,0.0,0.0,1.0,358.5379527559055,338.68335958005247)"/>
  </svg>
  <svg id="dynamic">
    <defs/>
    <path class="non-scaling-stroke" d="M 0.0 37.8 L 39.6 0.0 L 79.2 37.8 L 39.6 75.6 Z" fill="#6c96c4" stroke="#6c96c4" stroke-width="3" transform="matrix(1.0,0.0,0.0,1.0,600.4,566.7245144356955)"/>
    <animate attributeName="opacity" dur="1s" repeatCount="5" values="1;0;1"/>
  </svg>
</svg>
