<?xml version="1.0" encoding="utf-8" ?>
<svg xmlns="http://www.w3.org/2000/svg" xmlns:ev="http://www.w3.org/2001/xml-events" xmlns:xlink="http://www.w3.org/1999/xlink" baseProfile="full" height="100%" version="1.1" viewBox="0,0,1280.0,720.0" width="100%">
  <defs>
    <style type="text/css"><![CDATA[.non-scaling-stroke { vector-effect: non-scaling-stroke; }]]></style>
  </defs>
  <svg id="static_1">
    <defs/>
    <path class="non-scaling-stroke" d="M 0.0 27.428556430446193 A 26.746666666666666 27.428556430446193 0 0 1 26.74666666666666 -3.0555202579247984e-15 A 26.746666666666666 27.428556430446193 0 0 1 53.49333333333333 27.428556430446186 A 26.746666666666666 27.428556430446193 0 0 1 26.74666666666667 54.85711286089238 A 26.746666666666666 27.428556430446193 0 0 1 0.0 27.428556430446186 Z" fill="#ffffff" stroke="#5b9bd5" stroke-width="3" transform="matrix(1.0,0.0,0.0,1.0,108.99811023622047,138.79643044619422)"/>
  </svg>
  <svg id="static_2">
    <defs/>
    <path class="non-scaling-stroke" d="M 0.0 27.428556430446193 A 26.746666666666666 27.428556430446193 0 0 1 26.74666666666666 -3.0555202579247984e-15 A 26.746666666666666 27.428556430446193 0 0 1 53.49333333333333 27.428556430446186 A 26.746666666666666 27.428556430446193 0 0 1 26.74666666666667 54.85711286089238 A 26.746666666666666 27.428556430446193 0 0 1 0.0 27.428556430446186 Z" fill="#ffffff" stroke="#5b9bd5" stroke-width="3" transform="matrix(1.0,0.0,0.0,1.0,1117.508556430446,138.79643044619422)"/>
  </svg>
  <svg id="static_3">
    <defs/>
    <path class="non-scaling-stroke" d="M 0.0 27.428556430446193 A 26.746666666666666 27.428556430446193 0 0 1 26.74666666666666 -3.0555202579247984e-15 A 26.746666666666666 27.428556430446193 0 0 1 53.49333333333333 27.428556430446186 A 26.746666666666666 27.428556430446193 0 0 1 26.74666666666667 54.85711286089238 A 26.746666666666666 27.428556430446193 0 0 1 0.0 27.428556430446186 Z" fill="#ffffff" stroke="#5b9bd5" stroke-width="3" transform="matrix(1.0,0.0,0.0,1.0,177.92115485564304,138.79643044619422)"/>
  </svg>
  <svg id="static_4">
    <defs/>
  </svg>
  <svg id="dynamic">
    <defs/>
    <path class="non-scaling-stroke" d="M 0.0 27.428556430446193 A 26.746666666666666 27.428556430446193 0 0 1 26.74666666666666 -3.0555202579247984e-15 A 26.746666666666666 27.428556430446193 0 0 1 53.49333333333333 27.428556430446186 A 26.746666666666666 27.428556430446193 0 0 1 26.74666666666667 54.85711286089238 A 26.746666666666666 27.428556430446193 0 0 1 0.0 27.428556430446186 Z" fill="#ffffff" stroke="#5b9bd5" stroke-width="3" transform="matrix(1.0,0.0,0.0,1.0,613.2533333333333,604.9032020997375)">
      <animateMotion dur="5s" fill="freeze" id="entrance_motion" path="M 0.0 -0.0 L 0.0 -138.44167979002626"/>
    </path>
    <animate attributeName="opacity" dur="1s" repeatCount="5" values="1;0;1"/>
  </svg>
</svg>
