<?xml version="1.0" encoding="utf-8" ?>
<svg xmlns="http://www.w3.org/2000/svg" xmlns:ev="http://www.w3.org/2001/xml-events" xmlns:xlink="http://www.w3.org/1999/xlink" baseProfile="full" height="100%" version="1.1" viewBox="0,0,1280.0,720.0" width="100%">
  <defs>
    <style type="text/css"><![CDATA[.non-scaling-stroke { vector-effect: non-scaling-stroke; }]]></style>
  </defs>
  <svg id="static_1">
    <defs/>
    <path class="non-scaling-stroke" d="M 45.0 21.0 C 63.75 -28.0 136.875 21.0 45.0 84.0 C -46.875 21.0 26.25 -28.0 45.0 21.0 Z" fill="#000000" stroke="#5b9bd5" stroke-width="3" transform="matrix(1.0,0.0,0.0,1.0,110.47811023622047,199.75002624671916)"/>
  </svg>
  <svg id="static_2">
    <defs/>
    <path class="non-scaling-stroke" d="M 45.0 21.0 C 63.75 -28.0 136.875 21.0 45.0 84.0 C -46.875 21.0 26.25 -28.0 45.0 21.0 Z" fill="#000000" stroke="#5b9bd5" stroke-width="3" transform="matrix(1.0,0.0,0.0,1.0,118.9875065616798,288.2500787401575)"/>
  </svg>
  <svg id="static_3">
    <defs/>
    <path class="non-scaling-stroke" d="M 45.0 21.0 C 63.75 -28.0 136.875 21.0 45.0 84.0 C -46.875 21.0 26.25 -28.0 45.0 21.0 Z" fill="#000000" stroke="#5b9bd5" stroke-width="3" transform="matrix(1.0,0.0,0.0,1.0,200.47811023622046,236.50005249343832)"/>
  </svg>
  <svg id="static_4">
    <defs/>
    <path class="non-scaling-stroke" d="M 45.0 21.0 C 63.75 -28.0 136.875 21.0 45.0 84.0 C -46.875 21.0 26.25 -28.0 45.0 21.0 Z" fill="#000000" stroke="#5b9bd5" stroke-width="3" transform="matrix(1.0,0.0,0.0,1.0,1079.9399475065616,327.7500262467192)"/>
  </svg>
  <svg id="static_5">
    <defs/>
    <path class="non-scaling-stroke" d="M 45.0 21.0 C 63.75 -28.0 136.875 21.0 45.0 84.0 C -46.875 21.0 26.25 -28.0 45.0 21.0 Z" fill="#000000" stroke="#5b9bd5" stroke-width="3" transform="matrix(1.0,0.0,0.0,1.0,1016.6410498687665,260.5000524934383)"/>
  </svg>
  <svg id="static_6">
    <defs/>
    <path class="non-scaling-stroke" d="M 45.0 21.0 C 63.75 -28.0 136.875 21.0 45.0 84.0 C -46.875 21.0 26.25 -28.0 45.0 21.0 Z" fill="#000000" stroke="#5b9bd5" stroke-width="3" transform="matrix(1.0,0.0,0.0,1.0,1115.8307611548557,236.50005249343832)"/>
  </svg>
  <svg id="dynamic">
    <defs/>
    <path class="non-scaling-stroke" d="M 45.0 21.0 C 63.75 -28.0 136.875 21.0 45.0 84.0 C -46.875 21.0 26.25 -28.0 45.0 21.0 Z" fill="#000000" stroke="#5b9bd5" stroke-width="3" transform="matrix(1.0,0.0,0.0,1.0,594.9998950131234,432.99989501312336)"/>
    <animate attributeName="opacity" dur="1s" repeatCount="5" values="1;0;1"/>
  </svg>
</svg>
