<?xml version="1.0" encoding="utf-8" ?>
<svg xmlns="http://www.w3.org/2000/svg" xmlns:ev="http://www.w3.org/2001/xml-events" xmlns:xlink="http://www.w3.org/1999/xlink" baseProfile="full" height="100%" version="1.1" viewBox="0,0,1280.0,720.0" width="100%">
  <defs>
    <style type="text/css"><![CDATA[.non-scaling-stroke { vector-effect: non-scaling-stroke; }]]></style>
  </defs>
  <svg id="static_1">
    <defs/>
    <path class="non-scaling-stroke" d="M 0.0 37.8 L 39.6 0.0 L 79.2 37.8 L 39.6 75.6 Z" fill="#6c96c4" stroke="#6c96c4" stroke-width="3" transform="matrix(1.0,0.0,0.0,1.0,237.95863517060369,339.5048818897638)"/>
  </svg>
  <svg id="static_2">
    <defs/>
    <path class="non-scaling-stroke" d="M 0.0 37.8 L 39.6 0.0 L 79.2 37.8 L 39.6 75.6 Z" fill="#6c96c4" stroke="#6c96c4" stroke-width="3" transform="matrix(1.0,0.0,0.0,1.0,237.95863517060369,251.94603674540681)"/>
  </svg>
  <svg id="static_3">
    <defs/>
    <path class="non-scaling-stroke" d="M 0.0 37.8 L 39.6 0.0 L 79.2 37.8 L 39.6 75.6 Z" fill="#6c96c4" stroke="#6c96c4" stroke-width="3" transform="matrix(1.0,0.0,0.0,1.0,237.95863517060369,164.9332283464567)"/>
  </svg>
  <svg id="static_4">
    <defs/>
    <path class="non-scaling-stroke" d="M 0.0 37.8 L 39.6 0.0 L 79.2 37.8 L 39.6 75.6 Z" fill="#6c96c4" stroke="#6c96c4" stroke-width="3" transform="matrix(1.0,0.0,0.0,1.0,417.3070866141732,161.53774278215224)"/>
  </svg>
  <svg id="static_5">
    <defs/>
    <path class="non-scaling-stroke" d="M 0.0 37.8 L 39.6 0.0 L 79.2 37.8 L 39.6 75.6 Z" fill="#6c96c4" stroke="#6c96c4" stroke-width="3" transform="matrix(1.0,0.0,0.0,1.0,327.63286089238846,163.8)"/>
  </svg>
  <svg id="static_6">
    <defs/>
    <path class="non-scaling-stroke" d="M 0.0 37.8 L 39.6 0.0 L 79.2 37.8 L 39.6 75.6 Z" fill="#6c96c4" stroke="#6c96c4" stroke-width="3" transform="matrix(1.0,0.0,0.0,1.0,918.7181102362205,251.94603674540681)"/>
  </svg>
  <svg id="static_7">
    <defs/>
    <path class="non-scaling-stroke" d="M 0.0 37.8 L 39.6 0.0 L 79.2 37.8 L 39.6 75.6 Z" fill="#6c96c4" stroke="#6c96c4" stroke-width="3" transform="matrix(1.0,0.0,0.0,1.0,916.9781627296588,164.9332283464567)"/>
  </svg>
  <svg id="static_8">
    <defs/>
    <path class="non-scaling-stroke" d="M 0.0 37.8 L 39.6 0.0 L 79.2 37.8 L 39.6 75.6 Z" fill="#6c96c4" stroke="#6c96c4" stroke-width="3" transform="matrix(1.0,0.0,0.0,1.0,827.3399475065617,164.9332283464567)"/>
  </svg>
  <svg id="static_9">
    <defs/>
    <path class="non-scaling-stroke" d="M 0.0 37.8 L 39.6 0.0 L 79.2 37.8 L 39.6 75.6 Z" fill="#6c96c4" stroke="#6c96c4" stroke-width="3" transform="matrix(1.0,0.0,0.0,1.0,738.5399475065617,161.53774278215224)"/>
  </svg>
  <svg id="dynamic">
    <defs/>
    <path class="non-scaling-stroke" d="M 0.0 37.8 L 39.6 0.0 L 79.2 37.8 L 39.6 75.6 Z" fill="#6c96c4" stroke="#6c96c4" stroke-width="3" transform="matrix(1.0,0.0,0.0,1.0,600.4,578.5400524934383)"/>
    <animate attributeName="opacity" dur="1s" repeatCount="5" values="1;0;1"/>
  </svg>
</svg>
