<?xml version="1.0" encoding="utf-8" ?>
<svg xmlns="http://www.w3.org/2000/svg" xmlns:ev="http://www.w3.org/2001/xml-events" xmlns:xlink="http://www.w3.org/1999/xlink" baseProfile="full" height="100%" version="1.1" viewBox="0,0,1280.0,720.0" width="100%">
  <defs>
    <style type="text/css"><![CDATA[.non-scaling-stroke { vector-effect: non-scaling-stroke; }]]></style>
  </defs>
  <svg id="static_1">
    <defs/>
    <path class="non-scaling-stroke" d="M 0.0 32.65984251968504 L 19.793858267716537 0.0 L 39.587716535433074 32.65984251968504 Z" fill="#5b9bd5" stroke="#41719c" stroke-width="3" transform="matrix(0.5137713656739332,0.8579271436512202,-0.8579271436512202,0.5137713656739332,191.16482705060227,192.95282272290433)"/>
  </svg>
  <svg id="static_2">
    <defs/>
    <path class="non-scaling-stroke" d="M 0.0 32.65984251968504 L 19.793858267716537 0.0 L 39.587716535433074 32.65984251968504 Z" fill="#5b9bd5" stroke="#41719c" stroke-width="3" transform="matrix(1.0,0.0,0.0,1.0,130.82708661417323,209.8537532808399)"/>
  </svg>
  <svg id="static_3">
    <defs/>
    <path class="non-scaling-stroke" d="M 0.0 32.65984251968504 L 19.793858267716537 0.0 L 39.587716535433074 32.65984251968504 Z" fill="#5b9bd5" stroke="#41719c" stroke-width="3" transform="matrix(1.0,0.0,0.0,1.0,214.09207349081365,164.70372703412073)"/>
  </svg>
  <svg id="static_4">
    <defs/>
    <path class="non-scaling-stroke" d="M 0.0 32.65984251968504 L 19.793858267716537 0.0 L 39.587716535433074 32.65984251968504 Z" fill="#5b9bd5" stroke="#41719c" stroke-width="3" transform="matrix(1.0,0.0,0.0,1.0,161.2820997375328,166.1799475065617)"/>
  </svg>
  <svg id="static_5">
    <defs/>
    <path class="non-scaling-stroke" d="M 0.0 32.65984251968504 L 19.793858267716537 0.0 L 39.587716535433074 32.65984251968504 Z" fill="#5b9bd5" stroke="#41719c" stroke-width="3" transform="matrix(1.0,0.0,0.0,1.0,187.57291338582678,125.23937007874015)"/>
  </svg>
  <svg id="static_6">
    <defs/>
    <path class="non-scaling-stroke" d="M 0.0 32.65984251968504 L 19.793858267716537 0.0 L 39.587716535433074 32.65984251968504 Z" fill="#5b9bd5" stroke="#41719c" stroke-width="3" transform="matrix(1.0,0.0,0.0,1.0,243.42068241469815,204.16808398950133)"/>
  </svg>
  <svg id="static_7">
    <defs/>
    <path class="non-scaling-stroke" d="M 0.0 32.65984251968504 L 19.793858267716537 0.0 L 39.587716535433074 32.65984251968504 Z" fill="#5b9bd5" stroke="#41719c" stroke-width="3" transform="matrix(1.0,0.0,0.0,1.0,192.8272965879265,208.61207349081366)"/>
  </svg>
  <svg id="static_8">
    <defs/>
    <path class="non-scaling-stroke" d="M 0.0 32.65984251968504 L 19.793858267716537 0.0 L 39.587716535433074 32.65984251968504 Z" fill="#5b9bd5" stroke="#41719c" stroke-width="3" transform="matrix(0.5137713656739332,0.8579271436512202,-0.8579271436512202,0.5137713656739332,980.7366905676627,190.5287807281536)"/>
  </svg>
  <svg id="static_9">
    <defs/>
    <path class="non-scaling-stroke" d="M 0.0 32.65984251968504 L 19.793858267716537 0.0 L 39.587716535433074 32.65984251968504 Z" fill="#5b9bd5" stroke="#41719c" stroke-width="3" transform="matrix(1.0,0.0,0.0,1.0,922.0087139107611,208.61207349081366)"/>
  </svg>
  <svg id="static_10">
    <defs/>
    <path class="non-scaling-stroke" d="M 0.0 32.65984251968504 L 19.793858267716537 0.0 L 39.587716535433074 32.65984251968504 Z" fill="#5b9bd5" stroke="#41719c" stroke-width="3" transform="matrix(1.0,0.0,0.0,1.0,1011.8010498687664,164.4449343832021)"/>
  </svg>
  <svg id="static_11">
    <defs/>
    <path class="non-scaling-stroke" d="M 0.0 32.65984251968504 L 19.793858267716537 0.0 L 39.587716535433074 32.65984251968504 Z" fill="#5b9bd5" stroke="#41719c" stroke-width="3" transform="matrix(1.0,0.0,0.0,1.0,951.9910761154856,165.92115485564304)"/>
  </svg>
  <svg id="static_12">
    <defs/>
    <path class="non-scaling-stroke" d="M 0.0 32.65984251968504 L 19.793858267716537 0.0 L 39.587716535433074 32.65984251968504 Z" fill="#5b9bd5" stroke="#41719c" stroke-width="3" transform="matrix(1.0,0.0,0.0,1.0,981.2818897637795,123.98057742782152)"/>
  </svg>
  <svg id="static_13">
    <defs/>
    <path class="non-scaling-stroke" d="M 0.0 32.65984251968504 L 19.793858267716537 0.0 L 39.587716535433074 32.65984251968504 Z" fill="#5b9bd5" stroke="#41719c" stroke-width="3" transform="matrix(1.0,0.0,0.0,1.0,1040.2556430446193,211.0361154855643)"/>
  </svg>
  <svg id="static_14">
    <defs/>
    <path class="non-scaling-stroke" d="M 0.0 32.65984251968504 L 19.793858267716537 0.0 L 39.587716535433074 32.65984251968504 Z" fill="#5b9bd5" stroke="#41719c" stroke-width="3" transform="matrix(0.5263336394349866,0.8502781309660513,-0.8502781309660513,0.5263336394349866,1042.2903710209398,188.95703801042544)"/>
  </svg>
  <svg id="static_15">
    <defs/>
    <path class="non-scaling-stroke" d="M 0.0 32.65984251968504 L 19.793858267716537 0.0 L 39.587716535433074 32.65984251968504 Z" fill="#5b9bd5" stroke="#41719c" stroke-width="3" transform="matrix(1.0,0.0,0.0,1.0,984.1182152230971,210.38813648293964)"/>
  </svg>
  <svg id="dynamic">
    <defs/>
    <path class="non-scaling-stroke" d="M 0.0 32.65984251968504 L 19.793858267716537 0.0 L 39.587716535433074 32.65984251968504 Z" fill="#5b9bd5" stroke="#41719c" stroke-width="3" transform="matrix(0.5082988506807516,0.8611807466476634,-0.8611807466476634,0.5082988506807516,201.871687141635,334.65337765644637)"/>
    <animate attributeName="opacity" dur="1s" repeatCount="5" values="1;0;1"/>
  </svg>
</svg>
