<?xml version="1.0" encoding="utf-8" ?>
<svg xmlns="http://www.w3.org/2000/svg" xmlns:ev="http://www.w3.org/2001/xml-events" xmlns:xlink="http://www.w3.org/1999/xlink" baseProfile="full" height="100%" version="1.1" viewBox="0,0,1280.0,720.0" width="100%">
  <defs>
    <style type="text/css"><![CDATA[.non-scaling-stroke { vector-effect: non-scaling-stroke; }]]></style>
  </defs>
  <svg id="static_1">
    <defs/>
    <path class="non-scaling-stroke" d="M 0.0 48.0 A 48.0 48.0 0 0 1 47.99999999999999 -6.111040515849597e-15 A 48.0 48.0 0 0 1 96.0 47.99999999999998 A 48.0 48.0 0 0 1 48.0 95.99999999999997 A 48.0 48.0 0 0 1 0.0 47.99999999999998 Z" fill="#ffff00" stroke="#ffff00" stroke-width="3" transform="matrix(1.0,0.0,0.0,1.0,940.1379527559055,262.57438320209974)"/>
  </svg>
  <svg id="static_2">
    <defs/>
    <path class="non-scaling-stroke" d="M 0.0 48.0 A 48.0 48.0 0 0 1 47.99999999999999 -6.111040515849597e-15 A 48.0 48.0 0 0 1 96.0 47.99999999999998 A 48.0 48.0 0 0 1 48.0 95.99999999999997 A 48.0 48.0 0 0 1 0.0 47.99999999999998 Z" fill="#5b9bd5" stroke="#41719c" stroke-width="3" transform="matrix(1.0,0.0,0.0,1.0,243.8620472440945,248.63097112860893)"/>
  </svg>
  <svg id="static_3">
    <defs/>
  </svg>
  <svg id="static_4">
    <defs/>
  </svg>
  <svg id="dynamic">
    <defs/>
    <path class="non-scaling-stroke" d="M 0.0 48.0 A 48.0 48.0 0 0 1 47.99999999999999 -6.111040515849597e-15 A 48.0 48.0 0 0 1 96.0 47.99999999999998 A 48.0 48.0 0 0 1 48.0 95.99999999999997 A 48.0 48.0 0 0 1 0.0 47.99999999999998 Z" fill="#5b9bd5" stroke="#41719c" stroke-width="3" transform="matrix(1.0,0.0,0.0,1.0,273.4286614173228,607.630971128609)">
      <animateMotion dur="5s" fill="freeze" id="entrance_motion" path="M -0.0 -0.0 C -2.041077998578922e-17 -0.0 -4.082155997157844e-17 -2.041077998578922e-17 -4.082155997157844e-17 -4.082155997157844e-17 C -4.082155997157844e-17 -6.123233995736766e-17 -6.123233995736766e-17 -8.164311994315688e-17 -8.164311994315688e-17 -8.164311994315688e-17"/>
      <animateMotion dur="5s" fill="freeze" id="entrance_motion" path="M 0.0 0.0 L 67.0 -1.0 L 157.0 -11.0 L 229.0 -26.0 L 327.0 -59.0 L 385.0 -81.0 L 435.0 -115.0 L 456.0 -142.0 L 462.0 -157.0 L 456.0 -204.0 L 430.0 -257.0 L 385.0 -299.0 L 338.0 -316.0"/>
    </path>
    <animate attributeName="opacity" dur="1s" repeatCount="5" values="1;0;1"/>
  </svg>
</svg>
