<?xml version="1.0" encoding="utf-8" ?>
<svg xmlns="http://www.w3.org/2000/svg" xmlns:ev="http://www.w3.org/2001/xml-events" xmlns:xlink="http://www.w3.org/1999/xlink" baseProfile="full" height="100%" version="1.1" viewBox="0,0,1280.0,720.0" width="100%">
  <defs>
    <style type="text/css"><![CDATA[.non-scaling-stroke { vector-effect: non-scaling-stroke; }]]></style>
  </defs>
  <svg id="static_1">
    <defs/>
    <path class="non-scaling-stroke" d="M 36.5 17.003963254593177 C 51.708333333333336 -22.671951006124235 111.02083333333333 17.003963254593177 36.5 68.01585301837271 C -38.020833333333336 17.003963254593177 21.291666666666668 -22.671951006124235 36.5 17.003963254593177 Z" fill="#000000" stroke="#41719c" stroke-width="3" transform="matrix(1.0,0.0,0.0,1.0,1159.4045144356955,613.5141207349081)"/>
  </svg>
  <svg id="static_2">
    <defs/>
    <path class="non-scaling-stroke" d="M 36.5 17.003963254593177 C 51.708333333333336 -22.671951006124235 111.02083333333333 17.003963254593177 36.5 68.01585301837271 C -38.020833333333336 17.003963254593177 21.291666666666668 -22.671951006124235 36.5 17.003963254593177 Z" fill="#000000" stroke="#41719c" stroke-width="3" transform="matrix(1.0,0.0,0.0,1.0,47.59548556430446,612.0282414698163)"/>
  </svg>
  <svg id="static_3">
    <defs/>
    <path class="non-scaling-stroke" d="M 36.5 17.003963254593177 C 51.708333333333336 -22.671951006124235 111.02083333333333 17.003963254593177 36.5 68.01585301837271 C -38.020833333333336 17.003963254593177 21.291666666666668 -22.671951006124235 36.5 17.003963254593177 Z" fill="#000000" stroke="#41719c" stroke-width="3" transform="matrix(1.0,0.0,0.0,1.0,47.59538057742782,59.514225721784776)"/>
  </svg>
  <svg id="static_4">
    <defs/>
  </svg>
  <svg id="dynamic">
    <defs/>
    <path class="non-scaling-stroke" d="M 36.5 17.003963254593177 C 51.708333333333336 -22.671951006124235 111.02083333333333 17.003963254593177 36.5 68.01585301837271 C -38.020833333333336 17.003963254593177 21.291666666666668 -22.671951006124235 36.5 17.003963254593177 Z" fill="#000000" stroke="#41719c" stroke-width="3" transform="matrix(1.0,0.0,0.0,1.0,762.7537007874016,607.3648293963255)">
      <animateMotion dur="5s" fill="freeze" id="entrance_motion" path="M -0.0 0.0 L -171.58929133858268 0.0"/>
    </path>
    <animate attributeName="opacity" dur="1s" repeatCount="5" values="1;0;1"/>
  </svg>
</svg>
