<?xml version="1.0" encoding="utf-8" ?>
<svg xmlns="http://www.w3.org/2000/svg" xmlns:ev="http://www.w3.org/2001/xml-events" xmlns:xlink="http://www.w3.org/1999/xlink" baseProfile="full" height="100%" version="1.1" viewBox="0,0,1280.0,720.0" width="100%">
  <defs>
    <style type="text/css"><![CDATA[.non-scaling-stroke { vector-effect: non-scaling-stroke; }]]></style>
  </defs>
  <svg id="static_1">
    <defs/>
    <path class="non-scaling-stroke" d="M 0.0 0.0 L 594.002624671916 0.0 L 594.002624671916 96.0 L 0.0 96.0 Z" fill="#afabab" stroke="#afabab" stroke-width="3" transform="matrix(1.0,0.0,0.0,1.0,327.5758530183727,123.76188976377952)"/>
  </svg>
  <svg id="static_2">
    <defs/>
    <path class="non-scaling-stroke" d="M 0.0 22.13774278215223 L 33.8 0.0 L 67.6 22.13774278215223 L 33.8 44.27548556430446 Z" fill="#ffffff" stroke="#afabab" stroke-width="3" transform="matrix(1.0,0.0,0.0,1.0,361.84839895013124,152.5055118110236)"/>
  </svg>
  <svg id="static_3">
    <defs/>
    <path class="non-scaling-stroke" d="M 0.0 22.13774278215223 L 33.8 0.0 L 67.6 22.13774278215223 L 33.8 44.27548556430446 Z" fill="#ffffff" stroke="#afabab" stroke-width="3" transform="matrix(1.0,0.0,0.0,1.0,463.72094488188975,149.62393700787402)"/>
  </svg>
  <svg id="static_4">
    <defs/>
    <path class="non-scaling-stroke" d="M 0.0 22.13774278215223 L 33.8 0.0 L 67.6 22.13774278215223 L 33.8 44.27548556430446 Z" fill="#ffffff" stroke="#afabab" stroke-width="3" transform="matrix(1.0,0.0,0.0,1.0,577.9540157480315,152.36776902887138)"/>
  </svg>
  <svg id="static_5">
    <defs/>
    <path class="non-scaling-stroke" d="M 0.0 22.13774278215223 L 33.8 0.0 L 67.6 22.13774278215223 L 33.8 44.27548556430446 Z" fill="#ffffff" stroke="#afabab" stroke-width="3" transform="matrix(1.0,0.0,0.0,1.0,693.4564829396326,149.62393700787402)"/>
  </svg>
  <svg id="static_6">
    <defs/>
    <path class="non-scaling-stroke" d="M 0.0 22.13774278215223 L 33.8 0.0 L 67.6 22.13774278215223 L 33.8 44.27548556430446 Z" fill="#ffffff" stroke="#afabab" stroke-width="3" transform="matrix(1.0,0.0,0.0,1.0,808.9589501312336,149.62393700787402)"/>
  </svg>
  <svg id="dynamic">
    <defs/>
    <path class="non-scaling-stroke" d="M 0.0 22.13774278215223 L 33.8 0.0 L 67.6 22.13774278215223 L 33.8 44.27548556430446 Z" fill="#afabab" stroke="#afabab" stroke-width="3" transform="matrix(1.0,0.0,0.0,1.0,1018.2007349081365,517.1003674540682)"/>
    <animate attributeName="opacity" dur="1s" repeatCount="5" values="1;0;1"/>
  </svg>
</svg>
