<?xml version="1.0" encoding="utf-8" ?>
<svg xmlns="http://www.w3.org/2000/svg" xmlns:ev="http://www.w3.org/2001/xml-events" xmlns:xlink="http://www.w3.org/1999/xlink" baseProfile="full" height="100%" version="1.1" viewBox="0,0,1280.0,720.0" width="100%">
  <defs>
    <style type="text/css"><![CDATA[.non-scaling-stroke { vector-effect: non-scaling-stroke; }]]></style>
  </defs>
  <svg id="static_1">
    <defs/>
    <path class="non-scaling-stroke" d="M 0.0 32.23490813648294 A 62.3449343832021 32.23490813648294 0 0 1 62.3449343832021 -6.111040515849597e-15 A 62.3449343832021 32.23490813648294 0 0 1 124.6898687664042 32.23490813648292 A 62.3449343832021 32.23490813648294 0 0 1 62.3449343832021 64.46981627296586 A 62.3449343832021 32.23490813648294 0 0 1 0.0 32.23490813648292 Z" fill="#a9d18e" stroke="#41719c" stroke-width="3" transform="matrix(1.0,0.0,0.0,1.0,943.4480839895014,577.235905511811)"/>
  </svg>
  <svg id="static_2">
    <defs/>
    <path class="non-scaling-stroke" d="M 96.0 48.0 L 76.6300048828125 54.888427734375 L 76.6300048828125 41.111572265625 Z M 81.93777777777778 14.057777777777778 L 73.1144848828125 32.627092265624995 L 63.372907734375005 22.885515117187502 Z M 48.0 0.0 L 54.888427734375 19.3699951171875 L 41.111572265625 19.3699951171875 Z M 14.057777777777778 14.057777777777778 L 32.627092265624995 22.885515117187502 L 22.885515117187502 32.627092265624995 Z M 0.0 48.0 L 19.3699951171875 41.111572265625 L 19.3699951171875 54.888427734375 Z M 14.057777777777778 81.93777777777778 L 22.885515117187502 63.372907734375005 L 32.627092265624995 73.1144848828125 Z M 48.0 96.0 L 41.111572265625 76.6300048828125 L 54.888427734375 76.6300048828125 Z M 81.93777777777778 81.93777777777778 L 63.372907734375005 73.1144848828125 L 73.1144848828125 63.372907734375005 Z M 24.0 48.0 A 24.0 24.0 0 1 1 24.0 48.00000000000001 Z" fill="#a9d18e" stroke="#41719c" stroke-width="3" transform="matrix(1.0,0.0,0.0,1.0,211.8620472440945,554.1666141732284)"/>
  </svg>
  <svg id="static_3">
    <defs/>
  </svg>
  <svg id="dynamic">
    <defs/>
    <path class="non-scaling-stroke" d="M 0.0 32.23490813648294 A 62.3449343832021 32.23490813648294 0 0 1 62.3449343832021 -6.111040515849597e-15 A 62.3449343832021 32.23490813648294 0 0 1 124.6898687664042 32.23490813648292 A 62.3449343832021 32.23490813648294 0 0 1 62.3449343832021 64.46981627296586 A 62.3449343832021 32.23490813648294 0 0 1 0.0 32.23490813648292 Z" fill="#a9d18e" stroke="#41719c" stroke-width="3" transform="matrix(1.0,0.0,0.0,1.0,548.9649343832021,29.343937007874015)">
      <animateMotion dur="5s" fill="freeze" id="entrance_motion" path="M 0.0 0.0 L 0.0 174.07191601049868"/>
    </path>
    <animate attributeName="opacity" dur="1s" repeatCount="5" values="1;0;1"/>
  </svg>
</svg>
