<?xml version="1.0" encoding="utf-8" ?>
<svg xmlns="http://www.w3.org/2000/svg" xmlns:ev="http://www.w3.org/2001/xml-events" xmlns:xlink="http://www.w3.org/1999/xlink" baseProfile="full" height="100%" version="1.1" viewBox="0,0,1280.0,720.0" width="100%">
  <defs>
    <style type="text/css"><![CDATA[.non-scaling-stroke { vector-effect: non-scaling-stroke; }]]></style>
  </defs>
  <svg id="static_1">
    <defs/>
    <path class="non-scaling-stroke" d="M 0.0 29.837847769028873 A 48.0 29.837847769028873 0 0 1 47.99999999999999 -6.111040515849597e-15 A 48.0 29.837847769028873 0 0 1 96.0 29.837847769028855 A 48.0 29.837847769028873 0 0 1 48.0 59.67569553805772 A 48.0 29.837847769028873 0 0 1 0.0 29.837847769028855 Z" fill="#ffffff" stroke="#5b9bd5" stroke-width="3" transform="matrix(1.0,0.0,0.0,1.0,304.7823622047244,241.29543307086615)"/>
  </svg>
  <svg id="static_2">
    <defs/>
    <path class="non-scaling-stroke" d="M 0.0 29.837847769028873 A 48.0 29.837847769028873 0 0 1 47.99999999999999 -6.111040515849597e-15 A 48.0 29.837847769028873 0 0 1 96.0 29.837847769028855 A 48.0 29.837847769028873 0 0 1 48.0 59.67569553805772 A 48.0 29.837847769028873 0 0 1 0.0 29.837847769028855 Z" fill="#ffffff" stroke="#5b9bd5" stroke-width="3" transform="matrix(1.0,0.0,0.0,1.0,196.75674540682414,241.29543307086615)"/>
  </svg>
  <svg id="static_3">
    <defs/>
    <path class="non-scaling-stroke" d="M 0.0 29.837847769028873 A 48.0 29.837847769028873 0 0 1 47.99999999999999 -6.111040515849597e-15 A 48.0 29.837847769028873 0 0 1 96.0 29.837847769028855 A 48.0 29.837847769028873 0 0 1 48.0 59.67569553805772 A 48.0 29.837847769028873 0 0 1 0.0 29.837847769028855 Z" fill="#ffffff" stroke="#5b9bd5" stroke-width="3" transform="matrix(1.0,0.0,0.0,1.0,1042.1622047244095,531.8900787401575)"/>
  </svg>
  <svg id="static_4">
    <defs/>
    <path class="non-scaling-stroke" d="M 0.0 29.837847769028873 A 48.0 29.837847769028873 0 0 1 47.99999999999999 -6.111040515849597e-15 A 48.0 29.837847769028873 0 0 1 96.0 29.837847769028855 A 48.0 29.837847769028873 0 0 1 48.0 59.67569553805772 A 48.0 29.837847769028873 0 0 1 0.0 29.837847769028855 Z" fill="#ffffff" stroke="#5b9bd5" stroke-width="3" transform="matrix(1.0,0.0,0.0,1.0,1151.0527034120735,531.8900787401575)"/>
  </svg>
  <svg id="dynamic">
    <defs/>
    <path class="non-scaling-stroke" d="M 0.0 29.837847769028873 A 48.0 29.837847769028873 0 0 1 47.99999999999999 -6.111040515849597e-15 A 48.0 29.837847769028873 0 0 1 96.0 29.837847769028855 A 48.0 29.837847769028873 0 0 1 48.0 59.67569553805772 A 48.0 29.837847769028873 0 0 1 0.0 29.837847769028855 Z" fill="#ffffff" stroke="#5b9bd5" stroke-width="3" transform="matrix(1.0,0.0,0.0,1.0,290.16220472440943,531.8900787401575)"/>
    <animate attributeName="opacity" dur="1s" repeatCount="5" values="1;0;1"/>
  </svg>
</svg>
