<?xml version="1.0" encoding="utf-8" ?>
<svg xmlns="http://www.w3.org/2000/svg" xmlns:ev="http://www.w3.org/2001/xml-events" xmlns:xlink="http://www.w3.org/1999/xlink" baseProfile="full" height="720.0" version="1.1" width="1280.0">
  <defs>
    <style type="text/css"><![CDATA[.non-scaling-stroke { vector-effect: non-scaling-stroke; }]]></style>
  </defs>
  <svg id="static_1">
    <defs/>
    <path class="non-scaling-stroke" d="M 0.0 0.0 L 146.28577427821523 0.0 L 146.28577427821523 171.92860892388452 L 0.0 171.92860892388452 Z" fill="#5b9bd5" stroke="#5b9bd5" stroke-width="3" transform="matrix(1.0,0.0,0.0,1.0,394.06897637795277,136.44514435695538)"/>
  </svg>
  <svg id="static_2">
    <defs/>
    <path class="non-scaling-stroke" d="M 0.0 0.0 L 146.28577427821523 0.0 L 146.28577427821523 171.92860892388452 L 0.0 171.92860892388452 Z" fill="#5b9bd5" stroke="#5b9bd5" stroke-width="3" transform="matrix(1.0,0.0,0.0,1.0,540.9795275590551,136.09511811023623)"/>
  </svg>
  <svg id="static_3">
    <defs/>
    <path class="non-scaling-stroke" d="M 0.0 25.242782152230973 L 12.621391076115486 1.1769449921921287e-05 L 42.894304461942255 1.1769449921921287e-05 L 55.51569553805774 25.242782152230973 L 42.894304461942255 50.48555253501202 L 12.621391076115486 50.48555253501202 Z" fill="#ffffff" stroke="#5b9bd5" stroke-width="3" transform="matrix(1.0,0.0,0.0,1.0,586.0689763779527,195.26257217847768)"/>
  </svg>
  <svg id="static_4">
    <defs/>
    <path class="non-scaling-stroke" d="M 0.0 41.697007874015746 L 20.848503937007873 1.9441234458756103e-05 L 79.03023622047245 1.9441234458756103e-05 L 99.87874015748031 41.697007874015746 L 79.03023622047245 83.39399630679704 L 20.848503937007873 83.39399630679704 Z" fill="#ffffff" stroke="#5b9bd5" stroke-width="3" transform="matrix(1.0,0.0,0.0,1.0,416.302782152231,179.36241469816272)"/>
  </svg>
  <svg id="static_5">
    <defs/>
    <path class="non-scaling-stroke" d="M 0.0 0.0 L 146.28577427821523 0.0 L 146.28577427821523 171.92860892388452 L 0.0 171.92860892388452 Z" fill="#5b9bd5" stroke="#5b9bd5" stroke-width="3" transform="matrix(1.0,0.0,0.0,1.0,687.3818372703412,136.01627296587927)"/>
  </svg>
  <svg id="static_6">
    <defs/>
    <path class="non-scaling-stroke" d="M 0.0 41.697007874015746 L 20.848503937007873 1.9441234458756103e-05 L 79.03023622047245 1.9441234458756103e-05 L 99.87874015748031 41.697007874015746 L 79.03023622047245 83.39399630679704 L 20.848503937007873 83.39399630679704 Z" fill="#ffffff" stroke="#5b9bd5" stroke-width="3" transform="matrix(1.0,0.0,0.0,1.0,712.5446719160105,180.81753280839894)"/>
  </svg>
  <svg id="static_7">
    <defs/>
  </svg>
  <svg id="dynamic">
    <defs/>
    <path class="non-scaling-stroke" d="M 0.0 25.242782152230973 L 12.621391076115486 1.1769449921921287e-05 L 42.894304461942255 1.1769449921921287e-05 L 55.51569553805774 25.242782152230973 L 42.894304461942255 50.48555253501202 L 12.621391076115486 50.48555253501202 Z" fill="#5b9bd5" stroke="#41719c" stroke-width="3" transform="matrix(1.0,0.0,0.0,1.0,100.38708661417323,643.1860367454068)">
      <animateMotion dur="5s" fill="freeze" id="entrance_motion" path="M 0.0 0.0 L 21.942782152230972 -62.17133858267715 L 78.6285564304462 -23.771338582677146 L 84.11422572178478 -91.42855643044618 L 138.9714435695538 -56.68566929133857 L 149.0285564304462 -117.02855643044619 L 191.08566929133858 -78.62855643044618 L 194.74278215223097 -133.48566929133858 L 244.11422572178478 -103.31422572178477 L 256.91422572178476 -161.82855643044618"/>
    </path>
    <animate attributeName="opacity" dur="1s" repeatCount="5" values="1;0;1"/>
  </svg>
</svg>
