<?xml version="1.0" encoding="utf-8" ?>
<svg xmlns="http://www.w3.org/2000/svg" xmlns:ev="http://www.w3.org/2001/xml-events" xmlns:xlink="http://www.w3.org/1999/xlink" baseProfile="full" height="720.0" version="1.1" width="1280.0">
  <defs>
    <style type="text/css"><![CDATA[.non-scaling-stroke { vector-effect: non-scaling-stroke; }]]></style>
  </defs>
  <svg id="static_1">
    <defs/>
    <path class="non-scaling-stroke" d="M 0.0 0.0 L 146.28577427821523 0.0 L 146.28577427821523 171.92860892388452 L 0.0 171.92860892388452 Z" fill="#5b9bd5" stroke="#5b9bd5" stroke-width="3" transform="matrix(1.0,0.0,0.0,1.0,278.8571128608924,196.5714435695538)"/>
  </svg>
  <svg id="static_2">
    <defs/>
    <path class="non-scaling-stroke" d="M 0.0 48.0 A 48.0 48.0 0 0 1 47.99999999999999 -6.111040515849597e-15 A 48.0 48.0 0 0 1 96.0 47.99999999999998 A 48.0 48.0 0 0 1 48.0 95.99999999999997 A 48.0 48.0 0 0 1 0.0 47.99999999999998 Z" fill="#ffffff" stroke="#5b9bd5" stroke-width="3" transform="matrix(1.0,0.0,0.0,1.0,301.71422572178477,234.66656167979002)"/>
  </svg>
  <svg id="static_3">
    <defs/>
    <path class="non-scaling-stroke" d="M 0.0 0.0 L 146.28577427821523 0.0 L 146.28577427821523 171.92860892388452 L 0.0 171.92860892388452 Z" fill="#ff0000" stroke="#ff0000" stroke-width="3" transform="matrix(1.0,0.0,0.0,1.0,840.5239895013124,196.5714435695538)"/>
  </svg>
  <svg id="static_4">
    <defs/>
    <path class="non-scaling-stroke" d="M 0.0 48.0 A 48.0 48.0 0 0 1 47.99999999999999 -6.111040515849597e-15 A 48.0 48.0 0 0 1 96.0 47.99999999999998 A 48.0 48.0 0 0 1 48.0 95.99999999999997 A 48.0 48.0 0 0 1 0.0 47.99999999999998 Z" fill="#ffffff" stroke="#ff0000" stroke-width="3" transform="matrix(1.0,0.0,0.0,1.0,865.6668766404199,239.2023097112861)"/>
  </svg>
  <svg id="static_5">
    <defs/>
  </svg>
  <svg id="dynamic">
    <defs/>
    <path class="non-scaling-stroke" d="M 0.0 48.0 A 48.0 48.0 0 0 1 47.99999999999999 -6.111040515849597e-15 A 48.0 48.0 0 0 1 96.0 47.99999999999998 A 48.0 48.0 0 0 1 48.0 95.99999999999997 A 48.0 48.0 0 0 1 0.0 47.99999999999998 Z" fill="#5b9bd5" stroke="#5b9bd5" stroke-width="3" transform="matrix(1.0,0.0,0.0,1.0,592.0,572.0082939632546)">
      <animateMotion dur="5s" fill="freeze" id="entrance_motion" path="M 0.0 0.0 L 62.27023622047244 -1.7296587926509233 L 142.70267716535434 -6.053963254593157 L 188.54047244094488 -17.297217847769048 L 249.94593175853018 -28.540472440944882 L 303.5675590551181 -41.513490813648275 L 365.83779527559057 -58.81081364829396 L 422.05396325459316 -82.1620997375328 L 456.6486089238845 -104.64860892388452 L 492.108031496063 -139.2431496062992 L 505.9459317585302 -165.18918635170604 L 503.35128608923884 -206.70267716535432 L 492.108031496063 -246.48640419947506 L 464.4324409448819 -290.5945406824147 L 438.4864041994751 -320.8647769028871 L 400.4324409448819 -344.21616797900265 L 380.5404724409449 -345.0810498687664"/>
    </path>
    <animate attributeName="opacity" dur="1s" repeatCount="5" values="1;0;1"/>
  </svg>
</svg>
