<?xml version="1.0" encoding="utf-8" ?>
<svg xmlns="http://www.w3.org/2000/svg" xmlns:ev="http://www.w3.org/2001/xml-events" xmlns:xlink="http://www.w3.org/1999/xlink" baseProfile="full" height="720.0" version="1.1" width="1280.0">
  <defs>
    <style type="text/css"><![CDATA[.non-scaling-stroke { vector-effect: non-scaling-stroke; }]]></style>
  </defs>
  <svg id="static_1">
    <defs/>
    <path class="non-scaling-stroke" d="M 0.0 37.8 L 39.6 0.0 L 79.2 37.8 L 39.6 75.6 Z" fill="#6c96c4" stroke="#6c96c4" stroke-width="3" transform="matrix(1.0,0.0,0.0,1.0,202.38530183727033,474.1015223097113)"/>
  </svg>
  <svg id="static_2">
    <defs/>
    <path class="non-scaling-stroke" d="M 0.0 37.8 L 39.6 0.0 L 79.2 37.8 L 39.6 75.6 Z" fill="#6c96c4" stroke="#6c96c4" stroke-width="3" transform="matrix(1.0,0.0,0.0,1.0,201.64892388451443,390.6018897637795)"/>
  </svg>
  <svg id="static_3">
    <defs/>
    <path class="non-scaling-stroke" d="M 0.0 37.8 L 39.6 0.0 L 79.2 37.8 L 39.6 75.6 Z" fill="#6c96c4" stroke="#6c96c4" stroke-width="3" transform="matrix(1.0,0.0,0.0,1.0,201.64892388451443,307.10225721784775)"/>
  </svg>
  <svg id="static_4">
    <defs/>
    <path class="non-scaling-stroke" d="M 0.0 37.8 L 39.6 0.0 L 79.2 37.8 L 39.6 75.6 Z" fill="#6c96c4" stroke="#6c96c4" stroke-width="3" transform="matrix(1.0,0.0,0.0,1.0,286.5688188976378,305.5584251968504)"/>
  </svg>
  <svg id="static_5">
    <defs/>
    <path class="non-scaling-stroke" d="M 0.0 37.8 L 39.6 0.0 L 79.2 37.8 L 39.6 75.6 Z" fill="#6c96c4" stroke="#6c96c4" stroke-width="3" transform="matrix(1.0,0.0,0.0,1.0,373.220157480315,305.6128083989501)"/>
  </svg>
  <svg id="static_6">
    <defs/>
    <path class="non-scaling-stroke" d="M 0.0 37.8 L 39.6 0.0 L 79.2 37.8 L 39.6 75.6 Z" fill="#eca2e7" stroke="#eca2e7" stroke-width="3" transform="matrix(1.0,0.0,0.0,1.0,911.5466666666666,393.161469816273)"/>
  </svg>
  <svg id="static_7">
    <defs/>
    <path class="non-scaling-stroke" d="M 0.0 37.8 L 39.6 0.0 L 79.2 37.8 L 39.6 75.6 Z" fill="#eca2e7" stroke="#eca2e7" stroke-width="3" transform="matrix(1.0,0.0,0.0,1.0,911.5466666666666,311.91685039370077)"/>
  </svg>
  <svg id="static_8">
    <defs/>
    <path class="non-scaling-stroke" d="M 0.0 37.8 L 39.6 0.0 L 79.2 37.8 L 39.6 75.6 Z" fill="#eca2e7" stroke="#eca2e7" stroke-width="3" transform="matrix(1.0,0.0,0.0,1.0,824.8953280839895,307.10225721784775)"/>
  </svg>
  <svg id="static_9">
    <defs/>
    <path class="non-scaling-stroke" d="M 0.0 37.8 L 39.6 0.0 L 79.2 37.8 L 39.6 75.6 Z" fill="#eca2e7" stroke="#eca2e7" stroke-width="3" transform="matrix(1.0,0.0,0.0,1.0,738.2439895013123,308.04787401574805)"/>
  </svg>
  <svg id="dynamic">
    <defs/>
    <path class="non-scaling-stroke" d="M 0.0 37.8 L 39.6 0.0 L 79.2 37.8 L 39.6 75.6 Z" fill="#6c96c4" stroke="#6c96c4" stroke-width="3" transform="matrix(1.0,0.0,0.0,1.0,600.4,578.5400524934383)"/>
    <animate attributeName="opacity" dur="1s" repeatCount="5" values="1;0;1"/>
  </svg>
</svg>
