<?xml version="1.0" encoding="utf-8" ?>
<svg xmlns="http://www.w3.org/2000/svg" xmlns:ev="http://www.w3.org/2001/xml-events" xmlns:xlink="http://www.w3.org/1999/xlink" baseProfile="full" height="720.0" version="1.1" width="1280.0">
  <defs>
    <style type="text/css"><![CDATA[.non-scaling-stroke { vector-effect: non-scaling-stroke; }]]></style>
  </defs>
  <svg id="static_1">
    <defs/>
    <path class="non-scaling-stroke" d="M 0.0 0.00010498687664041995 L 0.00010498687664041995 0.0 L 0.0002099737532808399 0.00010498687664041995 L 0.00010498687664041995 0.0002099737532808399 Z" fill="#bdd7ee" stroke="#41719c" stroke-width="3" transform="matrix(457200.0,0.0,0.0,306323.99999999994,194.9690288713911,161.74225721784777)"/>
  </svg>
  <svg id="static_2">
    <defs/>
    <path class="non-scaling-stroke" d="M 0.0 0.00010498687664041995 L 0.00010498687664041995 0.0 L 0.0002099737532808399 0.00010498687664041995 L 0.00010498687664041995 0.0002099737532808399 Z" fill="#bdd7ee" stroke="#41719c" stroke-width="3" transform="matrix(457200.0,0.0,0.0,306323.99999999994,301.9380577427822,161.74225721784777)"/>
  </svg>
  <svg id="static_3">
    <defs/>
    <path class="non-scaling-stroke" d="M 0.0 0.00010498687664041995 L 0.00010498687664041995 0.0 L 0.0002099737532808399 0.00010498687664041995 L 0.00010498687664041995 0.0002099737532808399 Z" fill="#bdd7ee" stroke="#41719c" stroke-width="3" transform="matrix(457200.0,0.0,0.0,306323.99999999994,408.90708661417324,241.01984251968503)"/>
  </svg>
  <svg id="static_4">
    <defs/>
    <path class="non-scaling-stroke" d="M 0.0 0.00010498687664041995 L 0.00010498687664041995 0.0 L 0.0002099737532808399 0.00010498687664041995 L 0.00010498687664041995 0.0002099737532808399 Z" fill="#bdd7ee" stroke="#41719c" stroke-width="3" transform="matrix(457200.0,0.0,0.0,306323.99999999994,881.3411023622048,165.30089238845144)"/>
  </svg>
  <svg id="static_5">
    <defs/>
    <path class="non-scaling-stroke" d="M 0.0 0.00010498687664041995 L 0.00010498687664041995 0.0 L 0.0002099737532808399 0.00010498687664041995 L 0.00010498687664041995 0.0002099737532808399 Z" fill="#bdd7ee" stroke="#41719c" stroke-width="3" transform="matrix(457200.0,0.0,0.0,306323.99999999994,988.3101312335958,163.88808398950133)"/>
  </svg>
  <svg id="static_6">
    <defs/>
    <path class="non-scaling-stroke" d="M 0.0 0.00010498687664041995 L 0.00010498687664041995 0.0 L 0.0002099737532808399 0.00010498687664041995 L 0.00010498687664041995 0.0002099737532808399 Z" fill="#bdd7ee" stroke="#41719c" stroke-width="3" transform="matrix(457200.0,0.0,0.0,306323.99999999994,408.90708661417324,162.5332283464567)"/>
  </svg>
  <svg id="static_7">
    <defs/>
    <path class="non-scaling-stroke" d="M 0.0 0.00010498687664041995 L 0.00010498687664041995 0.0 L 0.0002099737532808399 0.00010498687664041995 L 0.00010498687664041995 0.0002099737532808399 Z" fill="#bdd7ee" stroke="#41719c" stroke-width="3" transform="matrix(457200.0,0.0,0.0,306323.99999999994,408.90708661417324,319.5064566929134)"/>
  </svg>
  <svg id="static_8">
    <defs/>
    <path class="non-scaling-stroke" d="M 0.0 0.00010498687664041995 L 0.00010498687664041995 0.0 L 0.0002099737532808399 0.00010498687664041995 L 0.00010498687664041995 0.0002099737532808399 Z" fill="#bdd7ee" stroke="#41719c" stroke-width="3" transform="matrix(457200.0,0.0,0.0,306323.99999999994,775.0931233595801,163.88808398950133)"/>
  </svg>
  <svg id="static_9">
    <defs/>
    <path class="non-scaling-stroke" d="M 0.0 0.00010498687664041995 L 0.00010498687664041995 0.0 L 0.0002099737532808399 0.00010498687664041995 L 0.00010498687664041995 0.0002099737532808399 Z" fill="#bdd7ee" stroke="#41719c" stroke-width="3" transform="matrix(457200.0,0.0,0.0,306323.99999999994,775.1862467191601,241.01984251968503)"/>
  </svg>
  <svg id="static_10">
    <defs/>
  </svg>
  <svg id="dynamic">
    <defs/>
    <path class="non-scaling-stroke" d="M787.5 685.5 835.5 653.5 883.5 685.5 835.5 717.5Z" stroke="#41719C" stroke-width="3" fill="#BDD7EE">
      <animateMotion dur="5s" fill="freeze" id="entrance_motion" path="M -0.0 -0.0 L -138.05721784776904 -93.60713910761154"/>
    </path>
    <animate attributeName="opacity" dur="1s" repeatCount="5" values="1;0;1"/>
  </svg>
</svg>
