<?xml version="1.0" encoding="utf-8" ?>
<svg xmlns="http://www.w3.org/2000/svg" xmlns:ev="http://www.w3.org/2001/xml-events" xmlns:xlink="http://www.w3.org/1999/xlink" baseProfile="full" height="720.0" version="1.1" width="1280.0">
  <defs>
    <style type="text/css"><![CDATA[.non-scaling-stroke { vector-effect: non-scaling-stroke; }]]></style>
  </defs>
  <svg id="static_1">
    <defs/>
    <path class="non-scaling-stroke" d="M 0.0 26.82272965879265 A 27.996850393700786 26.82272965879265 0 0 1 27.996850393700782 -3.0555202579247984e-15 A 27.996850393700786 26.82272965879265 0 0 1 55.99370078740157 26.822729658792642 A 27.996850393700786 26.82272965879265 0 0 1 27.996850393700786 53.64545931758529 A 27.996850393700786 26.82272965879265 0 0 1 0.0 26.822729658792642 Z" fill="#5b9bd5" stroke="#41719c" stroke-width="3" transform="matrix(1.0,0.0,0.0,1.0,367.8130183727034,34.9407874015748)"/>
  </svg>
  <svg id="static_2">
    <defs/>
    <path class="non-scaling-stroke" d="M 0.0 48.0 A 48.0 48.0 0 0 1 47.99999999999999 -6.111040515849597e-15 A 48.0 48.0 0 0 1 96.0 47.99999999999998 A 48.0 48.0 0 0 1 48.0 95.99999999999997 A 48.0 48.0 0 0 1 0.0 47.99999999999998 Z" fill="#5b9bd5" stroke="#41719c" stroke-width="3" transform="matrix(1.0,0.0,0.0,1.0,916.0433595800525,200.55464566929135)"/>
  </svg>
  <svg id="static_3">
    <defs/>
  </svg>
  <svg id="dynamic">
    <defs/>
    <path class="non-scaling-stroke" d="M 0.0 48.0 A 48.0 48.0 0 0 1 47.99999999999999 -6.111040515849597e-15 A 48.0 48.0 0 0 1 96.0 47.99999999999998 A 48.0 48.0 0 0 1 48.0 95.99999999999997 A 48.0 48.0 0 0 1 0.0 47.99999999999998 Z" fill="#5b9bd5" stroke="#41719c" stroke-width="3" transform="matrix(1.0,0.0,0.0,1.0,99.65711286089238,621.581627296588)">
      <animateMotion dur="5s" fill="freeze" id="entrance_motion" path="M 0.0 0.0 L 7.3143307086614175 -53.0285564304462 L 56.68577427821522 -21.942887139107626 L 58.51433070866142 -75.88566929133859 L 111.5428871391076 -47.54288713910762 L 110.62866141732283 -100.57144356955381 L 157.25721784776903 -73.14288713910761 L 157.25721784776903 -128.9142257217848 L 205.7143307086614 -97.8285564304462 L 213.94288713910763 -166.4"/>
    </path>
    <animate attributeName="opacity" dur="1s" repeatCount="5" values="1;0;1"/>
  </svg>
</svg>
