<?xml version="1.0" encoding="utf-8" ?>
<svg xmlns="http://www.w3.org/2000/svg" xmlns:ev="http://www.w3.org/2001/xml-events" xmlns:xlink="http://www.w3.org/1999/xlink" baseProfile="full" height="720.0" version="1.1" width="1280.0">
  <defs>
    <style type="text/css"><![CDATA[.non-scaling-stroke { vector-effect: non-scaling-stroke; }]]></style>
  </defs>
  <svg id="static_1">
    <defs/>
    <path class="non-scaling-stroke" d="M 0.0 48.0 L 48.0 0.0 L 96.0 48.0 L 48.0 96.0 Z" fill="#bcbcc0" stroke="#bcbcc0" stroke-width="3" transform="matrix(1.0,0.0,0.0,1.0,877.4181627296588,354.50740157480317)"/>
  </svg>
  <svg id="static_2">
    <defs/>
    <path class="non-scaling-stroke" d="M 0.0 48.0 L 48.0 0.0 L 96.0 48.0 L 48.0 96.0 Z" fill="#bcbcc0" stroke="#bcbcc0" stroke-width="3" transform="matrix(1.0,0.0,0.0,1.0,1035.969343832021,427.98099737532806)"/>
  </svg>
  <svg id="static_3">
    <defs/>
    <path class="non-scaling-stroke" d="M 0.0 48.0 L 48.0 0.0 L 96.0 48.0 L 48.0 96.0 Z" fill="#bcbcc0" stroke="#bcbcc0" stroke-width="3" transform="matrix(1.0,0.0,0.0,1.0,930.1314435695538,432.8512335958005)"/>
  </svg>
  <svg id="static_4">
    <defs/>
    <path class="non-scaling-stroke" d="M 0.0 48.0 L 48.0 0.0 L 96.0 48.0 L 48.0 96.0 Z" fill="#bcbcc0" stroke="#bcbcc0" stroke-width="3" transform="matrix(1.0,0.0,0.0,1.0,981.6251968503936,352.16850393700787)"/>
  </svg>
  <svg id="static_5">
    <defs/>
    <path class="non-scaling-stroke" d="M 0.0 48.0 L 48.0 0.0 L 96.0 48.0 L 48.0 96.0 Z" fill="#bcbcc0" stroke="#bcbcc0" stroke-width="3" transform="matrix(1.0,0.0,0.0,1.0,117.12094488188977,463.6257217847769)"/>
  </svg>
  <svg id="static_6">
    <defs/>
    <path class="non-scaling-stroke" d="M 0.0 48.0 L 48.0 0.0 L 96.0 48.0 L 48.0 96.0 Z" fill="#bcbcc0" stroke="#bcbcc0" stroke-width="3" transform="matrix(1.0,0.0,0.0,1.0,218.03989501312336,494.29049868766407)"/>
  </svg>
  <svg id="static_7">
    <defs/>
    <path class="non-scaling-stroke" d="M 0.0 48.0 L 48.0 0.0 L 96.0 48.0 L 48.0 96.0 Z" fill="#bcbcc0" stroke="#bcbcc0" stroke-width="3" transform="matrix(1.0,0.0,0.0,1.0,184.3841469816273,588.846719160105)"/>
  </svg>
  <svg id="static_8">
    <defs/>
    <path class="non-scaling-stroke" d="M 0.0 48.0 L 48.0 0.0 L 96.0 48.0 L 48.0 96.0 Z" fill="#bcbcc0" stroke="#bcbcc0" stroke-width="3" transform="matrix(1.0,0.0,0.0,1.0,89.13784776902887,558.9038320209974)"/>
  </svg>
  <svg id="dynamic">
    <defs/>
    <path class="non-scaling-stroke" d="M 0.0 48.0 L 48.0 0.0 L 96.0 48.0 L 48.0 96.0 Z" fill="#bcbcc0" stroke="#bcbcc0" stroke-width="3" transform="matrix(1.0,0.0,0.0,1.0,665.1572703412073,270.4445144356955)"/>
    <animate attributeName="opacity" dur="1s" repeatCount="5" values="1;0;1"/>
  </svg>
</svg>
