<?xml version="1.0" encoding="utf-8" ?>
<svg xmlns="http://www.w3.org/2000/svg" xmlns:ev="http://www.w3.org/2001/xml-events" xmlns:xlink="http://www.w3.org/1999/xlink" baseProfile="full" height="720.0" version="1.1" width="1280.0">
  <defs>
    <style type="text/css"><![CDATA[.non-scaling-stroke { vector-effect: non-scaling-stroke; }]]></style>
  </defs>
  <svg id="static_1">
    <defs/>
    <path class="non-scaling-stroke" d="M 0.0 0.0 L 146.28577427821523 0.0 L 146.28577427821523 171.92860892388452 L 0.0 171.92860892388452 Z" fill="#fc6c68" stroke="#fc6c68" stroke-width="3" transform="matrix(1.0,0.0,0.0,1.0,278.8571128608924,196.5714435695538)"/>
  </svg>
  <svg id="static_2">
    <defs/>
    <path class="non-scaling-stroke" d="M 0.0 0.0 L 146.28577427821523 0.0 L 146.28577427821523 171.92860892388452 L 0.0 171.92860892388452 Z" fill="#fc6c68" stroke="#fc6c68" stroke-width="3" transform="matrix(1.0,0.0,0.0,1.0,814.2659317585302,196.5714435695538)"/>
  </svg>
  <svg id="static_3">
    <defs/>
    <path class="non-scaling-stroke" d="M 0.0 14.896377952755905 L 14.896377952755905 14.896377952755905 L 14.896377952755905 0.0 L 50.20703412073491 0.0 L 50.20703412073491 14.896377952755905 L 65.10341207349082 14.896377952755905 L 65.10341207349082 44.68913385826772 L 50.20703412073491 44.68913385826772 L 50.20703412073491 59.58551181102362 L 14.896377952755905 59.58551181102362 L 14.896377952755905 44.68913385826772 L 0.0 44.68913385826772 Z" fill="#ffffff" stroke="#fc6c68" stroke-width="3" transform="matrix(1.0,0.0,0.0,1.0,854.8571128608924,252.74299212598424)"/>
  </svg>
  <svg id="static_4">
    <defs/>
    <path class="non-scaling-stroke" d="M 0.0 14.896377952755905 L 14.896377952755905 14.896377952755905 L 14.896377952755905 0.0 L 50.20703412073491 0.0 L 50.20703412073491 14.896377952755905 L 65.10341207349082 14.896377952755905 L 65.10341207349082 44.68913385826772 L 50.20703412073491 44.68913385826772 L 50.20703412073491 59.58551181102362 L 14.896377952755905 59.58551181102362 L 14.896377952755905 44.68913385826772 L 0.0 44.68913385826772 Z" fill="#ffffff" stroke="#fc6c68" stroke-width="3" transform="matrix(1.0,0.0,0.0,1.0,319.44829396325457,252.74299212598424)"/>
  </svg>
  <svg id="static_5">
    <defs/>
  </svg>
  <svg id="dynamic">
    <defs/>
    <path class="non-scaling-stroke" d="M 0.0 14.896377952755905 L 14.896377952755905 14.896377952755905 L 14.896377952755905 0.0 L 50.20703412073491 0.0 L 50.20703412073491 14.896377952755905 L 65.10341207349082 14.896377952755905 L 65.10341207349082 44.68913385826772 L 50.20703412073491 44.68913385826772 L 50.20703412073491 59.58551181102362 L 14.896377952755905 59.58551181102362 L 14.896377952755905 44.68913385826772 L 0.0 44.68913385826772 Z" fill="#fc6c68" stroke="#fc6c68" stroke-width="3" transform="matrix(1.0,0.0,0.0,1.0,217.75370078740158,580.2154330708662)">
      <animateMotion dur="5s" fill="freeze" id="entrance_motion" path="M 0.0 0.0 L 414.93396325459315 0.0"/>
    </path>
    <animate attributeName="opacity" dur="1s" repeatCount="5" values="1;0;1"/>
  </svg>
</svg>
