<?xml version="1.0" encoding="utf-8" ?>
<svg xmlns="http://www.w3.org/2000/svg" xmlns:ev="http://www.w3.org/2001/xml-events" xmlns:xlink="http://www.w3.org/1999/xlink" baseProfile="full" height="720.0" version="1.1" width="1280.0">
  <defs>
    <style type="text/css"><![CDATA[.non-scaling-stroke { vector-effect: non-scaling-stroke; }]]></style>
  </defs>
  <svg id="static_1">
    <defs/>
    <path class="non-scaling-stroke" d="M 0.4094488188976378 1.5086614173228345 A 0.7089763779527559 0.9648293963254593 0 0 1 1.4703548986173922 0.5461468836940274 A 0.5598950131233595 0.7629396325459318 0 0 1 2.3575859997759343 0.36032395281884694 A 0.4582677165354331 0.6241469816272965 0 0 1 3.132066889813457 0.26045917254120105 A 0.5099212598425197 0.6923884514435695 0 0 1 4.022895708532597 0.5854067740293922 A 0.5598950131233595 0.7635695538057743 0 0 1 4.3903816480491455 1.6230686643457002 A 0.7112860892388452 0.967979002624672 0 0 1 3.926965203682421 3.170923753236923 A 0.6073490813648293 0.8259317585301837 0 0 1 2.998006181621133 3.8649121151398242 A 0.7088713910761155 0.9674540682414698 0 0 1 1.7302331345249315 4.12222419144129 A 0.810498687664042 1.1068766404199475 0 0 1 0.6094424340940581 3.72388726744247 A 0.45774278215223096 0.6213123359580053 0 0 1 0.22189407267049005 2.6822307832937584 A 0.4561679790026247 0.6241469816272965 0 0 1 0.4056284382493316 1.5227878964524202 Z" fill="#e7e6e6" stroke="#41719c" stroke-width="3" transform="matrix(21.166666666666668,0.0,0.0,21.166666666666668,873.4532283464567,360.0)"/>
  </svg>
  <svg id="static_2">
    <defs/>
    <path class="non-scaling-stroke" d="M 0.4094488188976378 1.5086614173228345 A 0.7089763779527559 0.9648293963254593 0 0 1 1.4703548986173922 0.5461468836940274 A 0.5598950131233595 0.7629396325459318 0 0 1 2.3575859997759343 0.36032395281884694 A 0.4582677165354331 0.6241469816272965 0 0 1 3.132066889813457 0.26045917254120105 A 0.5099212598425197 0.6923884514435695 0 0 1 4.022895708532597 0.5854067740293922 A 0.5598950131233595 0.7635695538057743 0 0 1 4.3903816480491455 1.6230686643457002 A 0.7112860892388452 0.967979002624672 0 0 1 3.926965203682421 3.170923753236923 A 0.6073490813648293 0.8259317585301837 0 0 1 2.998006181621133 3.8649121151398242 A 0.7088713910761155 0.9674540682414698 0 0 1 1.7302331345249315 4.12222419144129 A 0.810498687664042 1.1068766404199475 0 0 1 0.6094424340940581 3.72388726744247 A 0.45774278215223096 0.6213123359580053 0 0 1 0.22189407267049005 2.6822307832937584 A 0.4561679790026247 0.6241469816272965 0 0 1 0.4056284382493316 1.5227878964524202 Z" fill="#e7e6e6" stroke="#41719c" stroke-width="3" transform="matrix(21.166666666666668,0.0,0.0,21.166666666666668,1002.2167979002625,339.63958005249344)"/>
  </svg>
  <svg id="static_3">
    <defs/>
    <path class="non-scaling-stroke" d="M 0.4094488188976378 1.5086614173228345 A 0.7089763779527559 0.9648293963254593 0 0 1 1.4703548986173922 0.5461468836940274 A 0.5598950131233595 0.7629396325459318 0 0 1 2.3575859997759343 0.36032395281884694 A 0.4582677165354331 0.6241469816272965 0 0 1 3.132066889813457 0.26045917254120105 A 0.5099212598425197 0.6923884514435695 0 0 1 4.022895708532597 0.5854067740293922 A 0.5598950131233595 0.7635695538057743 0 0 1 4.3903816480491455 1.6230686643457002 A 0.7112860892388452 0.967979002624672 0 0 1 3.926965203682421 3.170923753236923 A 0.6073490813648293 0.8259317585301837 0 0 1 2.998006181621133 3.8649121151398242 A 0.7088713910761155 0.9674540682414698 0 0 1 1.7302331345249315 4.12222419144129 A 0.810498687664042 1.1068766404199475 0 0 1 0.6094424340940581 3.72388726744247 A 0.45774278215223096 0.6213123359580053 0 0 1 0.22189407267049005 2.6822307832937584 A 0.4561679790026247 0.6241469816272965 0 0 1 0.4056284382493316 1.5227878964524202 Z" fill="#e7e6e6" stroke="#41719c" stroke-width="3" transform="matrix(21.166666666666668,0.0,0.0,21.166666666666668,933.7192650918635,442.59181102362203)"/>
  </svg>
  <svg id="static_4">
    <defs/>
    <path class="non-scaling-stroke" d="M 0.4094488188976378 1.5086614173228345 A 0.7089763779527559 0.9648293963254593 0 0 1 1.4703548986173922 0.5461468836940274 A 0.5598950131233595 0.7629396325459318 0 0 1 2.3575859997759343 0.36032395281884694 A 0.4582677165354331 0.6241469816272965 0 0 1 3.132066889813457 0.26045917254120105 A 0.5099212598425197 0.6923884514435695 0 0 1 4.022895708532597 0.5854067740293922 A 0.5598950131233595 0.7635695538057743 0 0 1 4.3903816480491455 1.6230686643457002 A 0.7112860892388452 0.967979002624672 0 0 1 3.926965203682421 3.170923753236923 A 0.6073490813648293 0.8259317585301837 0 0 1 2.998006181621133 3.8649121151398242 A 0.7088713910761155 0.9674540682414698 0 0 1 1.7302331345249315 4.12222419144129 A 0.810498687664042 1.1068766404199475 0 0 1 0.6094424340940581 3.72388726744247 A 0.45774278215223096 0.6213123359580053 0 0 1 0.22189407267049005 2.6822307832937584 A 0.4561679790026247 0.6241469816272965 0 0 1 0.4056284382493316 1.5227878964524202 Z" fill="#e7e6e6" stroke="#41719c" stroke-width="3" transform="matrix(21.166666666666668,0.0,0.0,21.166666666666668,1034.9803674540683,435.63958005249344)"/>
  </svg>
  <svg id="static_5">
    <defs/>
    <path class="non-scaling-stroke" d="M 0.4094488188976378 1.5086614173228345 A 0.7089763779527559 0.9648293963254593 0 0 1 1.4703548986173922 0.5461468836940274 A 0.5598950131233595 0.7629396325459318 0 0 1 2.3575859997759343 0.36032395281884694 A 0.4582677165354331 0.6241469816272965 0 0 1 3.132066889813457 0.26045917254120105 A 0.5099212598425197 0.6923884514435695 0 0 1 4.022895708532597 0.5854067740293922 A 0.5598950131233595 0.7635695538057743 0 0 1 4.3903816480491455 1.6230686643457002 A 0.7112860892388452 0.967979002624672 0 0 1 3.926965203682421 3.170923753236923 A 0.6073490813648293 0.8259317585301837 0 0 1 2.998006181621133 3.8649121151398242 A 0.7088713910761155 0.9674540682414698 0 0 1 1.7302331345249315 4.12222419144129 A 0.810498687664042 1.1068766404199475 0 0 1 0.6094424340940581 3.72388726744247 A 0.45774278215223096 0.6213123359580053 0 0 1 0.22189407267049005 2.6822307832937584 A 0.4561679790026247 0.6241469816272965 0 0 1 0.4056284382493316 1.5227878964524202 Z" fill="#e7e6e6" stroke="#41719c" stroke-width="3" transform="matrix(21.166666666666668,0.0,0.0,21.166666666666668,89.75359580052493,569.4497637795275)"/>
  </svg>
  <svg id="static_6">
    <defs/>
    <path class="non-scaling-stroke" d="M 0.4094488188976378 1.5086614173228345 A 0.7089763779527559 0.9648293963254593 0 0 1 1.4703548986173922 0.5461468836940274 A 0.5598950131233595 0.7629396325459318 0 0 1 2.3575859997759343 0.36032395281884694 A 0.4582677165354331 0.6241469816272965 0 0 1 3.132066889813457 0.26045917254120105 A 0.5099212598425197 0.6923884514435695 0 0 1 4.022895708532597 0.5854067740293922 A 0.5598950131233595 0.7635695538057743 0 0 1 4.3903816480491455 1.6230686643457002 A 0.7112860892388452 0.967979002624672 0 0 1 3.926965203682421 3.170923753236923 A 0.6073490813648293 0.8259317585301837 0 0 1 2.998006181621133 3.8649121151398242 A 0.7088713910761155 0.9674540682414698 0 0 1 1.7302331345249315 4.12222419144129 A 0.810498687664042 1.1068766404199475 0 0 1 0.6094424340940581 3.72388726744247 A 0.45774278215223096 0.6213123359580053 0 0 1 0.22189407267049005 2.6822307832937584 A 0.4561679790026247 0.6241469816272965 0 0 1 0.4056284382493316 1.5227878964524202 Z" fill="#e7e6e6" stroke="#41719c" stroke-width="3" transform="matrix(21.166666666666668,0.0,0.0,21.166666666666668,112.95569553805774,462.90383202099736)"/>
  </svg>
  <svg id="static_7">
    <defs/>
    <path class="non-scaling-stroke" d="M 0.4094488188976378 1.5086614173228345 A 0.7089763779527559 0.9648293963254593 0 0 1 1.4703548986173922 0.5461468836940274 A 0.5598950131233595 0.7629396325459318 0 0 1 2.3575859997759343 0.36032395281884694 A 0.4582677165354331 0.6241469816272965 0 0 1 3.132066889813457 0.26045917254120105 A 0.5099212598425197 0.6923884514435695 0 0 1 4.022895708532597 0.5854067740293922 A 0.5598950131233595 0.7635695538057743 0 0 1 4.3903816480491455 1.6230686643457002 A 0.7112860892388452 0.967979002624672 0 0 1 3.926965203682421 3.170923753236923 A 0.6073490813648293 0.8259317585301837 0 0 1 2.998006181621133 3.8649121151398242 A 0.7088713910761155 0.9674540682414698 0 0 1 1.7302331345249315 4.12222419144129 A 0.810498687664042 1.1068766404199475 0 0 1 0.6094424340940581 3.72388726744247 A 0.45774278215223096 0.6213123359580053 0 0 1 0.22189407267049005 2.6822307832937584 A 0.4561679790026247 0.6241469816272965 0 0 1 0.4056284382493316 1.5227878964524202 Z" fill="#e7e6e6" stroke="#41719c" stroke-width="3" transform="matrix(21.166666666666668,0.0,0.0,21.166666666666668,208.20199475065616,492.846719160105)"/>
  </svg>
  <svg id="static_8">
    <defs/>
    <path class="non-scaling-stroke" d="M 0.4094488188976378 1.5086614173228345 A 0.7089763779527559 0.9648293963254593 0 0 1 1.4703548986173922 0.5461468836940274 A 0.5598950131233595 0.7629396325459318 0 0 1 2.3575859997759343 0.36032395281884694 A 0.4582677165354331 0.6241469816272965 0 0 1 3.132066889813457 0.26045917254120105 A 0.5099212598425197 0.6923884514435695 0 0 1 4.022895708532597 0.5854067740293922 A 0.5598950131233595 0.7635695538057743 0 0 1 4.3903816480491455 1.6230686643457002 A 0.7112860892388452 0.967979002624672 0 0 1 3.926965203682421 3.170923753236923 A 0.6073490813648293 0.8259317585301837 0 0 1 2.998006181621133 3.8649121151398242 A 0.7088713910761155 0.9674540682414698 0 0 1 1.7302331345249315 4.12222419144129 A 0.810498687664042 1.1068766404199475 0 0 1 0.6094424340940581 3.72388726744247 A 0.45774278215223096 0.6213123359580053 0 0 1 0.22189407267049005 2.6822307832937584 A 0.4561679790026247 0.6241469816272965 0 0 1 0.4056284382493316 1.5227878964524202 Z" fill="#e7e6e6" stroke="#41719c" stroke-width="3" transform="matrix(21.166666666666668,0.0,0.0,21.166666666666668,199.9851968503937,603.2475590551181)"/>
  </svg>
  <svg id="dynamic">
    <defs/>
    <path class="non-scaling-stroke" d="M 0.4094488188976378 1.5086614173228345 A 0.7089763779527559 0.9648293963254593 0 0 1 1.4703548986173922 0.5461468836940274 A 0.5598950131233595 0.7629396325459318 0 0 1 2.3575859997759343 0.36032395281884694 A 0.4582677165354331 0.6241469816272965 0 0 1 3.132066889813457 0.26045917254120105 A 0.5099212598425197 0.6923884514435695 0 0 1 4.022895708532597 0.5854067740293922 A 0.5598950131233595 0.7635695538057743 0 0 1 4.3903816480491455 1.6230686643457002 A 0.7112860892388452 0.967979002624672 0 0 1 3.926965203682421 3.170923753236923 A 0.6073490813648293 0.8259317585301837 0 0 1 2.998006181621133 3.8649121151398242 A 0.7088713910761155 0.9674540682414698 0 0 1 1.7302331345249315 4.12222419144129 A 0.810498687664042 1.1068766404199475 0 0 1 0.6094424340940581 3.72388726744247 A 0.45774278215223096 0.6213123359580053 0 0 1 0.22189407267049005 2.6822307832937584 A 0.4561679790026247 0.6241469816272965 0 0 1 0.4056284382493316 1.5227878964524202 Z" fill="#e7e6e6" stroke="#41719c" stroke-width="3" transform="matrix(21.166666666666668,0.0,0.0,21.166666666666668,637.9851968503937,257.54393700787404)"/>
    <animate attributeName="opacity" dur="1s" repeatCount="5" values="1;0;1"/>
  </svg>
</svg>
