<?xml version="1.0" encoding="utf-8" ?>
<svg xmlns="http://www.w3.org/2000/svg" xmlns:ev="http://www.w3.org/2001/xml-events" xmlns:xlink="http://www.w3.org/1999/xlink" baseProfile="full" height="720.0" version="1.1" width="1280.0">
  <defs>
    <style type="text/css"><![CDATA[.non-scaling-stroke { vector-effect: non-scaling-stroke; }]]></style>
  </defs>
  <svg id="static_1">
    <defs/>
    <path class="non-scaling-stroke" d="M 0.0 38.103097112860894 L 38.103097112860894 0.0 L 76.20619422572179 38.103097112860894 L 38.103097112860894 76.20619422572179 Z" fill="#5b9bd5" stroke="#41719c" stroke-width="3" transform="matrix(1.0,0.0,0.0,1.0,549.5569553805774,243.0)"/>
  </svg>
  <svg id="static_2">
    <defs/>
    <path class="non-scaling-stroke" d="M 0.0 38.103097112860894 L 38.103097112860894 0.0 L 76.20619422572179 38.103097112860894 L 38.103097112860894 76.20619422572179 Z" fill="#5b9bd5" stroke="#41719c" stroke-width="3" transform="matrix(1.0,0.0,0.0,1.0,625.4845144356956,243.0)"/>
  </svg>
  <svg id="static_3">
    <defs/>
    <path class="non-scaling-stroke" d="M 0.0 38.103097112860894 L 38.103097112860894 0.0 L 76.20619422572179 38.103097112860894 L 38.103097112860894 76.20619422572179 Z" fill="#5b9bd5" stroke="#41719c" stroke-width="3" transform="matrix(1.0,0.0,0.0,1.0,473.07212598425195,243.0)"/>
  </svg>
  <svg id="static_4">
    <defs/>
    <path class="non-scaling-stroke" d="M 0.0 38.103097112860894 L 38.103097112860894 0.0 L 76.20619422572179 38.103097112860894 L 38.103097112860894 76.20619422572179 Z" fill="#5b9bd5" stroke="#41719c" stroke-width="3" transform="matrix(1.0,0.0,0.0,1.0,625.4845144356956,166.7938057742782)"/>
  </svg>
  <svg id="static_5">
    <defs/>
    <path class="non-scaling-stroke" d="M 0.0 38.103097112860894 L 38.103097112860894 0.0 L 76.20619422572179 38.103097112860894 L 38.103097112860894 76.20619422572179 Z" fill="#5b9bd5" stroke="#41719c" stroke-width="3" transform="matrix(1.0,0.0,0.0,1.0,549.2783202099738,166.7938057742782)"/>
  </svg>
  <svg id="static_6">
    <defs/>
  </svg>
  <svg id="dynamic">
    <defs/>
    <path class="non-scaling-stroke" d="M 0.0 38.103097112860894 L 38.103097112860894 0.0 L 76.20619422572179 38.103097112860894 L 38.103097112860894 76.20619422572179 Z" fill="#5b9bd5" stroke="#41719c" stroke-width="3" transform="matrix(1.0,0.0,0.0,1.0,578.309501312336,643.7938057742782)">
      <animateMotion dur="5s" fill="freeze" id="entrance_motion" path="M 0.0 -0.0 L 0.0 -128.0"/>
    </path>
    <animate attributeName="opacity" dur="1s" repeatCount="5" values="1;0;1"/>
  </svg>
</svg>
