<?xml version="1.0" encoding="utf-8" ?>
<svg xmlns="http://www.w3.org/2000/svg" xmlns:ev="http://www.w3.org/2001/xml-events" xmlns:xlink="http://www.w3.org/1999/xlink" baseProfile="full" height="720.0" version="1.1" width="1280.0">
  <defs>
    <style type="text/css"><![CDATA[.non-scaling-stroke { vector-effect: non-scaling-stroke; }]]></style>
  </defs>
  <svg id="static_1">
    <defs/>
    <path class="non-scaling-stroke" d="M 8.703257723557432e-05 29.00207420279913 L 31.430502279624196 29.00227832212971 L 41.14283464566929 0.0 L 50.855167011714386 29.00227832212971 L 82.28558225876135 29.00207420279913 L 56.857718523965936 46.926263837728975 L 66.57045106111877 75.92841600717463 L 41.14283464566929 58.00389610023013 L 15.715218230219802 75.92841600717463 L 25.42795076737265 46.926263837728975 Z" fill="#deebf7" stroke="#deebf7" stroke-width="3" transform="matrix(1.0,0.0,0.0,1.0,314.4760104986877,238.84283464566929)"/>
  </svg>
  <svg id="static_2">
    <defs/>
    <path class="non-scaling-stroke" d="M 8.703257723557432e-05 29.00207420279913 L 31.430502279624196 29.00227832212971 L 41.14283464566929 0.0 L 50.855167011714386 29.00227832212971 L 82.28558225876135 29.00207420279913 L 56.857718523965936 46.926263837728975 L 66.57045106111877 75.92841600717463 L 41.14283464566929 58.00389610023013 L 15.715218230219802 75.92841600717463 L 25.42795076737265 46.926263837728975 Z" fill="#5b9bd5" stroke="#41719c" stroke-width="3" transform="matrix(1.0,0.0,0.0,1.0,883.2383202099737,238.84283464566929)"/>
  </svg>
  <svg id="static_3">
    <defs/>
  </svg>
  <svg id="dynamic">
    <defs/>
    <path class="non-scaling-stroke" d="M 8.703257723557432e-05 29.00207420279913 L 31.430502279624196 29.00227832212971 L 41.14283464566929 0.0 L 50.855167011714386 29.00227832212971 L 82.28558225876135 29.00207420279913 L 56.857718523965936 46.926263837728975 L 66.57045106111877 75.92841600717463 L 41.14283464566929 58.00389610023013 L 15.715218230219802 75.92841600717463 L 25.42795076737265 46.926263837728975 Z" fill="#5b9bd5" stroke="#41719c" stroke-width="3" transform="matrix(1.0,0.0,0.0,1.0,270.59023622047243,644.0713910761154)">
      <animateMotion dur="5s" fill="freeze" id="entrance_motion" path="M 0.0 0.0 L 49.0 1.0 L 116.0 -3.0 L 197.0 -17.0 L 274.0 -34.0 L 349.0 -60.0 L 394.0 -81.0 L 447.0 -122.0 L 462.0 -143.0 L 463.0 -166.0 L 458.0 -209.0 L 441.0 -256.0 L 421.0 -283.0 L 396.0 -306.0 L 374.0 -315.0"/>
    </path>
    <animate attributeName="opacity" dur="1s" repeatCount="5" values="1;0;1"/>
  </svg>
</svg>
