<?xml version="1.0" encoding="utf-8" ?>
<svg xmlns="http://www.w3.org/2000/svg" xmlns:ev="http://www.w3.org/2001/xml-events" xmlns:xlink="http://www.w3.org/1999/xlink" baseProfile="full" height="720.0" version="1.1" width="1280.0">
  <defs>
    <style type="text/css"><![CDATA[.non-scaling-stroke { vector-effect: non-scaling-stroke; }]]></style>
  </defs>
  <svg id="static_1">
    <defs/>
    <path class="non-scaling-stroke" d="M 0.0 48.0 A 48.0 48.0 0 0 1 47.99999999999999 -6.111040515849597e-15 A 48.0 48.0 0 0 1 96.0 47.99999999999998 A 48.0 48.0 0 0 1 48.0 95.99999999999997 A 48.0 48.0 0 0 1 0.0 47.99999999999998 Z" fill="#ff0000" stroke="#fc6c68" stroke-width="3" transform="matrix(1.0,0.0,0.0,1.0,919.382467191601,235.6903937007874)"/>
  </svg>
  <svg id="static_2">
    <defs/>
    <path class="non-scaling-stroke" d="M 0.0 0.00010498687664041995 L 0.00010498687664041995 0.0 L 0.0002099737532808399 0.00010498687664041995 L 0.00010498687664041995 0.0002099737532808399 Z" fill="#5b9bd5" stroke="#41719c" stroke-width="3" transform="matrix(614854.9999999999,0.0,0.0,404648.0,240.4482939632546,235.6903937007874)"/>
  </svg>
  <svg id="static_3">
    <defs/>
  </svg>
  <svg id="dynamic">
    <defs/>
    <path class="non-scaling-stroke" d="M 0.0 48.0 A 48.0 48.0 0 0 1 47.99999999999999 -6.111040515849597e-15 A 48.0 48.0 0 0 1 96.0 47.99999999999998 A 48.0 48.0 0 0 1 48.0 95.99999999999997 A 48.0 48.0 0 0 1 0.0 47.99999999999998 Z" fill="#ff0000" stroke="#fc6c68" stroke-width="3" transform="matrix(1.0,0.0,0.0,1.0,417.37144356955383,608.0789501312336)">
      <animateMotion dur="5s" fill="freeze" id="entrance_motion" path="M 0.0 -0.0 L 232.5550656167979 -151.2299212598425"/>
    </path>
    <animate attributeName="opacity" dur="1s" repeatCount="5" values="1;0;1"/>
  </svg>
</svg>
