<?xml version="1.0" encoding="utf-8" ?>
<svg xmlns="http://www.w3.org/2000/svg" xmlns:ev="http://www.w3.org/2001/xml-events" xmlns:xlink="http://www.w3.org/1999/xlink" baseProfile="full" height="720.0" version="1.1" width="1280.0">
  <defs>
    <style type="text/css"><![CDATA[.non-scaling-stroke { vector-effect: non-scaling-stroke; }]]></style>
  </defs>
  <svg id="static_1">
    <defs/>
    <path class="non-scaling-stroke" d="M 48.0 24.0 C 68.0 -32.0 146.0 24.0 48.0 96.0 C -50.0 24.0 28.0 -32.0 48.0 24.0 Z" fill="#000000" stroke="#41719c" stroke-width="3" transform="matrix(1.0,0.0,0.0,1.0,202.0,186.341312335958)"/>
  </svg>
  <svg id="static_2">
    <defs/>
    <path class="non-scaling-stroke" d="M 48.0 24.0 C 68.0 -32.0 146.0 24.0 48.0 96.0 C -50.0 24.0 28.0 -32.0 48.0 24.0 Z" fill="#000000" stroke="#41719c" stroke-width="3" transform="matrix(1.0,0.0,0.0,1.0,198.64535433070867,290.4457742782152)"/>
  </svg>
  <svg id="static_3">
    <defs/>
    <path class="non-scaling-stroke" d="M 48.0 24.0 C 68.0 -32.0 146.0 24.0 48.0 96.0 C -50.0 24.0 28.0 -32.0 48.0 24.0 Z" fill="#a6a6a6" stroke="#41719c" stroke-width="3" transform="matrix(1.0,0.0,0.0,1.0,982.0,186.341312335958)"/>
  </svg>
  <svg id="static_4">
    <defs/>
    <path class="non-scaling-stroke" d="M 48.0 24.0 C 68.0 -32.0 146.0 24.0 48.0 96.0 C -50.0 24.0 28.0 -32.0 48.0 24.0 Z" fill="#a6a6a6" stroke="#41719c" stroke-width="3" transform="matrix(1.0,0.0,0.0,1.0,985.3546456692914,290.4457742782152)"/>
  </svg>
  <svg id="static_5">
    <defs/>
  </svg>
  <svg id="dynamic">
    <defs/>
    <path class="non-scaling-stroke" d="M 48.0 24.0 C 68.0 -32.0 146.0 24.0 48.0 96.0 C -50.0 24.0 28.0 -32.0 48.0 24.0 Z" fill="#000000" stroke="#41719c" stroke-width="3" transform="matrix(1.0,0.0,0.0,1.0,333.257217847769,595.5710236220473)">
      <animateMotion dur="5s" fill="freeze" id="entrance_motion" path="M 0.0 -0.0 L 318.3397375328084 -124.30183727034121"/>
    </path>
    <animate attributeName="opacity" dur="1s" repeatCount="5" values="1;0;1"/>
  </svg>
</svg>
