<?xml version="1.0" encoding="utf-8" ?>
<svg xmlns="http://www.w3.org/2000/svg" xmlns:ev="http://www.w3.org/2001/xml-events" xmlns:xlink="http://www.w3.org/1999/xlink" baseProfile="full" height="720.0" version="1.1" width="1280.0">
  <defs>
    <style type="text/css"><![CDATA[.non-scaling-stroke { vector-effect: non-scaling-stroke; }]]></style>
  </defs>
  <svg id="static_1">
    <defs/>
    <path class="non-scaling-stroke" d="M 45.0 21.0 C 63.75 -28.0 136.875 21.0 45.0 84.0 C -46.875 21.0 26.25 -28.0 45.0 21.0 Z" fill="#000000" stroke="#5b9bd5" stroke-width="3" transform="matrix(1.0,0.0,0.0,1.0,115.63517060367454,205.87622047244093)"/>
  </svg>
  <svg id="static_2">
    <defs/>
    <path class="non-scaling-stroke" d="M 45.0 21.0 C 63.75 -28.0 136.875 21.0 45.0 84.0 C -46.875 21.0 26.25 -28.0 45.0 21.0 Z" fill="#000000" stroke="#5b9bd5" stroke-width="3" transform="matrix(1.0,0.0,0.0,1.0,44.83286089238845,255.61648293963253)"/>
  </svg>
  <svg id="static_3">
    <defs/>
    <path class="non-scaling-stroke" d="M 45.0 21.0 C 63.75 -28.0 136.875 21.0 45.0 84.0 C -46.875 21.0 26.25 -28.0 45.0 21.0 Z" fill="#c0c0c0" stroke="#5b9bd5" stroke-width="3" transform="matrix(1.0,0.0,0.0,1.0,920.905406824147,233.87622047244093)"/>
  </svg>
  <svg id="static_4">
    <defs/>
    <path class="non-scaling-stroke" d="M 45.0 21.0 C 63.75 -28.0 136.875 21.0 45.0 84.0 C -46.875 21.0 26.25 -28.0 45.0 21.0 Z" fill="#c0c0c0" stroke="#5b9bd5" stroke-width="3" transform="matrix(1.0,0.0,0.0,1.0,1010.905406824147,268.87622047244093)"/>
  </svg>
  <svg id="static_5">
    <defs/>
    <path class="non-scaling-stroke" d="M 30.75926509186352 13.625616797900262 C 43.57562554680665 -18.167489063867016 93.55943132108487 13.625616797900262 30.75926509186352 54.50246719160105 C -32.040901137357835 13.625616797900262 17.942904636920385 -18.167489063867016 30.75926509186352 13.625616797900262 Z" fill="#000000" stroke="#5b9bd5" stroke-width="3" transform="matrix(1.0,0.0,0.0,1.0,998.2197375328084,574.2292913385827)"/>
  </svg>
  <svg id="static_6">
    <defs/>
    <path class="non-scaling-stroke" d="M 30.75926509186352 13.625616797900262 C 43.57562554680665 -18.167489063867016 93.55943132108487 13.625616797900262 30.75926509186352 54.50246719160105 C -32.040901137357835 13.625616797900262 17.942904636920385 -18.167489063867016 30.75926509186352 13.625616797900262 Z" fill="#000000" stroke="#5b9bd5" stroke-width="3" transform="matrix(1.0,0.0,0.0,1.0,1055.905406824147,542.2377952755905)"/>
  </svg>
  <svg id="dynamic">
    <defs/>
    <path class="non-scaling-stroke" d="M 45.0 21.0 C 63.75 -28.0 136.875 21.0 45.0 84.0 C -46.875 21.0 26.25 -28.0 45.0 21.0 Z" fill="#000000" stroke="#5b9bd5" stroke-width="3" transform="matrix(1.0,0.0,0.0,1.0,685.4054593175853,554.7402624671917)"/>
    <animate attributeName="opacity" dur="1s" repeatCount="5" values="1;0;1"/>
  </svg>
</svg>
