<?xml version="1.0" encoding="utf-8" ?>
<svg xmlns="http://www.w3.org/2000/svg" xmlns:ev="http://www.w3.org/2001/xml-events" xmlns:xlink="http://www.w3.org/1999/xlink" baseProfile="full" height="720.0" version="1.1" width="1280.0">
  <defs>
    <style type="text/css"><![CDATA[.non-scaling-stroke { vector-effect: non-scaling-stroke; }]]></style>
  </defs>
  <svg id="static_1">
    <defs/>
    <path class="non-scaling-stroke" d="M 20.024932111925892 37.461194411696006 L 38.5777678880741 17.77905558830399 L 61.0 38.914766185611185 L 83.4222321119259 17.77905558830399 L 101.97506788807411 37.461194411696006 L 80.7165089161342 57.5 L 101.97506788807411 77.538805588304 L 83.4222321119259 97.22094441169601 L 61.0 76.08523381438881 L 38.5777678880741 97.22094441169601 L 20.024932111925892 77.538805588304 L 41.28349108386578 57.5 Z" fill="#000000" stroke="#41719c" stroke-width="3" transform="matrix(1.0,0.0,0.0,1.0,85.75863517060367,263.92535433070867)"/>
  </svg>
  <svg id="static_2">
    <defs/>
    <path class="non-scaling-stroke" d="M 20.024932111925892 37.461194411696006 L 38.5777678880741 17.77905558830399 L 61.0 38.914766185611185 L 83.4222321119259 17.77905558830399 L 101.97506788807411 37.461194411696006 L 80.7165089161342 57.5 L 101.97506788807411 77.538805588304 L 83.4222321119259 97.22094441169601 L 61.0 76.08523381438881 L 38.5777678880741 97.22094441169601 L 20.024932111925892 77.538805588304 L 41.28349108386578 57.5 Z" fill="#000000" stroke="#41719c" stroke-width="3" transform="matrix(1.0,0.0,0.0,1.0,85.75863517060367,360.0)"/>
  </svg>
  <svg id="static_3">
    <defs/>
    <path class="non-scaling-stroke" d="M 20.024932111925892 37.461194411696006 L 38.5777678880741 17.77905558830399 L 61.0 38.914766185611185 L 83.4222321119259 17.77905558830399 L 101.97506788807411 37.461194411696006 L 80.7165089161342 57.5 L 101.97506788807411 77.538805588304 L 83.4222321119259 97.22094441169601 L 61.0 76.08523381438881 L 38.5777678880741 97.22094441169601 L 20.024932111925892 77.538805588304 L 41.28349108386578 57.5 Z" fill="#000000" stroke="#41719c" stroke-width="3" transform="matrix(1.0,0.0,0.0,1.0,1072.2413648293964,360.0)"/>
  </svg>
  <svg id="static_4">
    <defs/>
  </svg>
  <svg id="dynamic">
    <defs/>
    <path class="non-scaling-stroke" d="M 20.024932111925892 37.461194411696006 L 38.5777678880741 17.77905558830399 L 61.0 38.914766185611185 L 83.4222321119259 17.77905558830399 L 101.97506788807411 37.461194411696006 L 80.7165089161342 57.5 L 101.97506788807411 77.538805588304 L 83.4222321119259 97.22094441169601 L 61.0 76.08523381438881 L 38.5777678880741 97.22094441169601 L 20.024932111925892 77.538805588304 L 41.28349108386578 57.5 Z" fill="#000000" stroke="#41719c" stroke-width="3" transform="matrix(1.0,0.0,0.0,1.0,356.8285564304462,34.17385826771653)">
      <animateMotion dur="5s" fill="freeze" id="entrance_motion" path="M 0.0 0.0 L 172.4763254593176 100.88356955380577"/>
    </path>
    <animate attributeName="opacity" dur="1s" repeatCount="5" values="1;0;1"/>
  </svg>
</svg>
