<?xml version="1.0" encoding="utf-8" ?>
<svg xmlns="http://www.w3.org/2000/svg" xmlns:ev="http://www.w3.org/2001/xml-events" xmlns:xlink="http://www.w3.org/1999/xlink" baseProfile="full" height="720.0" version="1.1" width="1280.0">
  <defs>
    <style type="text/css"><![CDATA[.non-scaling-stroke { vector-effect: non-scaling-stroke; }]]></style>
  </defs>
  <svg id="static_1">
    <defs/>
    <path class="non-scaling-stroke" d="M 0.0 200.17753280839895 L 75.74278215223097 0.0 L 151.48556430446195 200.17753280839895 Z" fill="#ec44c0" stroke="#ec44c0" stroke-width="3" transform="matrix(1.0,0.0,0.0,1.0,858.7162204724409,360.0)"/>
  </svg>
  <svg id="static_2">
    <defs/>
    <path class="non-scaling-stroke" d="M 0.0 119.66362204724409 L 36.623517060367455 0.0 L 73.24703412073491 119.66362204724409 Z" fill="#fbfffb" stroke="#ec44c0" stroke-width="3" transform="matrix(1.0,0.0,0.0,1.0,897.3217847769029,422.75244094488187)"/>
  </svg>
  <svg id="static_3">
    <defs/>
    <path class="non-scaling-stroke" d="M 0.0 200.17753280839895 L 75.74278215223097 0.0 L 151.48556430446195 200.17753280839895 Z" fill="#ec44c0" stroke="#ec44c0" stroke-width="3" transform="matrix(1.0,0.0,0.0,1.0,183.33931758530184,72.47674540682415)"/>
  </svg>
  <svg id="static_4">
    <defs/>
    <path class="non-scaling-stroke" d="M 0.0 72.82740157480315 L 32.88073490813648 0.0 L 65.76146981627296 72.82740157480315 Z" fill="#fbfffb" stroke="#ec44c0" stroke-width="3" transform="matrix(1.0,0.0,0.0,1.0,223.11926509186353,172.34057742782153)"/>
  </svg>
  <svg id="dynamic">
    <defs/>
    <path class="non-scaling-stroke" d="M 0.0 72.82740157480315 L 32.88073490813648 0.0 L 65.76146981627296 72.82740157480315 Z" fill="#ec44c0" stroke="#ec44c0" stroke-width="3" transform="matrix(1.0,0.0,0.0,1.0,597.2847244094488,557.9555905511811)"/>
    <animate attributeName="opacity" dur="1s" repeatCount="5" values="1;0;1"/>
  </svg>
</svg>
