<?xml version="1.0" encoding="utf-8" ?>
<svg xmlns="http://www.w3.org/2000/svg" xmlns:ev="http://www.w3.org/2001/xml-events" xmlns:xlink="http://www.w3.org/1999/xlink" baseProfile="full" height="720.0" version="1.1" width="1280.0">
  <defs>
    <style type="text/css"><![CDATA[.non-scaling-stroke { vector-effect: non-scaling-stroke; }]]></style>
  </defs>
  <svg id="static_1">
    <defs/>
    <path class="non-scaling-stroke" d="M 0.0 0.0 L 251.15149606299212 0.0 L 251.15149606299212 96.0 L 0.0 96.0 Z" fill="#ff0000" stroke="#41719c" stroke-width="3" transform="matrix(1.0,0.0,0.0,1.0,223.38950131233597,151.76188976377952)"/>
  </svg>
  <svg id="static_2">
    <defs/>
    <path class="non-scaling-stroke" d="M 0.0 0.00010498687664041995 L 0.00010498687664041995 0.0 L 0.0002099737532808399 0.00010498687664041995 L 0.00010498687664041995 0.0002099737532808399 Z" fill="#ffffff" stroke="#ff3300" stroke-width="3" transform="matrix(1.753247220297321e-11,286327.0,-184727.49999999997,1.1311297079474633e-11,421.3546981627296,169.701469816273)"/>
  </svg>
  <svg id="static_3">
    <defs/>
    <path class="non-scaling-stroke" d="M 0.0 0.00010498687664041995 L 0.00010498687664041995 0.0 L 0.0002099737532808399 0.00010498687664041995 L 0.00010498687664041995 0.0002099737532808399 Z" fill="#ffffff" stroke="#ff3300" stroke-width="3" transform="matrix(1.753247220297321e-11,286327.0,-184727.49999999997,1.1311297079474633e-11,315.6947506561679,169.70136482939637)"/>
  </svg>
  <svg id="static_4">
    <defs/>
    <path class="non-scaling-stroke" d="M 0.0 0.0 L 251.15149606299212 0.0 L 251.15149606299212 96.0 L 0.0 96.0 Z" fill="#44546a" stroke="#41719c" stroke-width="3" transform="matrix(1.0,0.0,0.0,1.0,772.9417322834646,151.76188976377952)"/>
  </svg>
  <svg id="static_5">
    <defs/>
    <path class="non-scaling-stroke" d="M 0.0 0.00010498687664041995 L 0.00010498687664041995 0.0 L 0.0002099737532808399 0.00010498687664041995 L 0.00010498687664041995 0.0002099737532808399 Z" fill="#ffffff" stroke="#7f7f7f" stroke-width="3" transform="matrix(1.753247220297321e-11,286327.0,-184727.49999999997,1.1311297079474633e-11,969.9069291338583,169.70146981627295)"/>
  </svg>
  <svg id="dynamic">
    <defs/>
<path class="non-scaling-stroke" d="M640.5 482.5 659.5 512.5 640.5 542.5 621.5 512.5Z" stroke="#41719C" stroke-width="3" fill="#FF0000"/>
    <animate attributeName="opacity" dur="1s" repeatCount="5" values="1;0;1"/>
  </svg>
</svg>
