<?xml version="1.0" encoding="utf-8" ?>
<svg xmlns="http://www.w3.org/2000/svg" xmlns:ev="http://www.w3.org/2001/xml-events" xmlns:xlink="http://www.w3.org/1999/xlink" baseProfile="full" height="720.0" version="1.1" width="1280.0">
  <defs>
    <style type="text/css"><![CDATA[.non-scaling-stroke { vector-effect: non-scaling-stroke; }]]></style>
  </defs>
  <svg id="static_1">
    <defs/>
    <path class="non-scaling-stroke" d="M 0.0 0.0 L 146.28577427821523 0.0 L 146.28577427821523 171.92860892388452 L 0.0 171.92860892388452 Z" fill="#5b9bd5" stroke="#5b9bd5" stroke-width="3" transform="matrix(1.0,0.0,0.0,1.0,172.85711286089239,160.5714435695538)"/>
  </svg>
  <svg id="static_2">
    <defs/>
    <path class="non-scaling-stroke" d="M 0.0 0.0 L 146.28577427821523 0.0 L 146.28577427821523 171.92860892388452 L 0.0 171.92860892388452 Z" fill="#5b9bd5" stroke="#5b9bd5" stroke-width="3" transform="matrix(1.0,0.0,0.0,1.0,819.2382152230971,196.5714435695538)"/>
  </svg>
  <svg id="static_3">
    <defs/>
    <path class="non-scaling-stroke" d="M 8.703257723557432e-05 29.00207420279913 L 31.430502279624196 29.00227832212971 L 41.14283464566929 0.0 L 50.855167011714386 29.00227832212971 L 82.28558225876135 29.00207420279913 L 56.857718523965936 46.926263837728975 L 66.57045106111877 75.92841600717463 L 41.14283464566929 58.00389610023013 L 15.715218230219802 75.92841600717463 L 25.42795076737265 46.926263837728975 Z" fill="#ffffff" stroke="#5b9bd5" stroke-width="3" transform="matrix(1.0,0.0,0.0,1.0,208.47601049868766,202.84283464566929)"/>
  </svg>
  <svg id="static_4">
    <defs/>
    <path class="non-scaling-stroke" d="M 8.703257723557432e-05 29.00207420279913 L 31.430502279624196 29.00227832212971 L 41.14283464566929 0.0 L 50.855167011714386 29.00227832212971 L 82.28558225876135 29.00207420279913 L 56.857718523965936 46.926263837728975 L 66.57045106111877 75.92841600717463 L 41.14283464566929 58.00389610023013 L 15.715218230219802 75.92841600717463 L 25.42795076737265 46.926263837728975 Z" fill="#ffffff" stroke="#5b9bd5" stroke-width="3" transform="matrix(1.0,0.0,0.0,1.0,856.5713385826772,249.16902887139108)"/>
  </svg>
  <svg id="static_5">
    <defs/>
  </svg>
  <svg id="dynamic">
    <defs/>
    <path class="non-scaling-stroke" d="M 8.703257723557432e-05 29.00207420279913 L 31.430502279624196 29.00227832212971 L 41.14283464566929 0.0 L 50.855167011714386 29.00227832212971 L 82.28558225876135 29.00207420279913 L 56.857718523965936 46.926263837728975 L 66.57045106111877 75.92841600717463 L 41.14283464566929 58.00389610023013 L 15.715218230219802 75.92841600717463 L 25.42795076737265 46.926263837728975 Z" fill="#5b9bd5" stroke="#41719c" stroke-width="3" transform="matrix(1.0,0.0,0.0,1.0,236.85721784776902,644.0713910761154)">
      <animateMotion dur="5s" fill="freeze" id="entrance_motion" path="M 0.0 -0.0 C 92.34286089238846 -0.0 184.68572178477692 -77.94286089238845 184.68572178477692 -155.8857217847769 C 184.68572178477692 -233.82858267716534 277.02858267716533 -311.7714435695538 369.37144356955383 -311.7714435695538"/>
    </path>
    <animate attributeName="opacity" dur="1s" repeatCount="5" values="1;0;1"/>
  </svg>
</svg>
