<?xml version="1.0" encoding="utf-8" ?>
<svg xmlns="http://www.w3.org/2000/svg" xmlns:ev="http://www.w3.org/2001/xml-events" xmlns:xlink="http://www.w3.org/1999/xlink" baseProfile="full" height="720.0" version="1.1" width="1280.0">
  <defs>
    <style type="text/css"><![CDATA[.non-scaling-stroke { vector-effect: non-scaling-stroke; }]]></style>
  </defs>
  <svg id="static_1">
    <defs/>
    <path class="non-scaling-stroke" d="M 0.0 48.0 L 48.0 0.0 L 96.0 0.0 L 0.0 96.0 Z" fill="#539fdd" stroke="#539fdd" stroke-width="3" transform="matrix(1.0,0.0,0.0,1.0,1084.0,292.8121784776903)"/>
  </svg>
  <svg id="static_2">
    <defs/>
    <path class="non-scaling-stroke" d="M 0.0 48.0 L 48.0 0.0 L 96.0 0.0 L 0.0 96.0 Z" fill="#539fdd" stroke="#539fdd" stroke-width="3" transform="matrix(1.0,0.0,0.0,1.0,242.2267716535433,293.8122834645669)"/>
  </svg>
  <svg id="static_3">
    <defs/>
    <path class="non-scaling-stroke" d="M 0.0 48.0 L 48.0 0.0 L 96.0 0.0 L 0.0 96.0 Z" fill="#539fdd" stroke="#539fdd" stroke-width="3" transform="matrix(6.123233995736766e-17,1.0,-1.0,6.123233995736766e-17,232.30929133858263,293.8122834645669)"/>
  </svg>
  <svg id="static_4">
    <defs/>
    <path class="non-scaling-stroke" d="M 0.0 48.0 L 48.0 0.0 L 96.0 0.0 L 0.0 96.0 Z" fill="#539fdd" stroke="#539fdd" stroke-width="3" transform="matrix(6.123233995736766e-17,1.0,-1.0,6.123233995736766e-17,983.2473490813647,293.8122834645669)"/>
  </svg>
  <svg id="static_5">
    <defs/>
    <path class="non-scaling-stroke" d="M 0.0 48.0 L 48.0 0.0 L 96.0 0.0 L 0.0 96.0 Z" fill="#539fdd" stroke="#539fdd" stroke-width="3" transform="matrix(1.0,0.0,0.0,1.0,988.0,292.8121784776903)"/>
  </svg>
  <svg id="static_6">
    <defs/>
    <path class="non-scaling-stroke" d="M 0.0 48.0 L 48.0 0.0 L 96.0 0.0 L 0.0 96.0 Z" fill="#539fdd" stroke="#539fdd" stroke-width="3" transform="matrix(1.0,0.0,0.0,1.0,343.9587401574803,292.8121784776903)"/>
  </svg>
  <svg id="static_7">
    <defs/>
    <path class="non-scaling-stroke" d="M 0.0 48.0 L 48.0 0.0 L 96.0 0.0 L 0.0 96.0 Z" fill="#539fdd" stroke="#539fdd" stroke-width="3" transform="matrix(6.123233995736766e-17,1.0,-1.0,6.123233995736766e-17,887.2473490813647,293.8122834645669)"/>
  </svg>
  <svg id="dynamic">
    <defs/>
    <path class="non-scaling-stroke" d="M 0.0 48.0 L 48.0 0.0 L 96.0 0.0 L 0.0 96.0 Z" fill="#539fdd" stroke="#539fdd" stroke-width="3" transform="matrix(6.123233995736766e-17,1.0,-1.0,6.123233995736766e-17,688.0000000000002,504.8121784776903)"/>
    <animate attributeName="opacity" dur="1s" repeatCount="5" values="1;0;1"/>
  </svg>
</svg>
