<?xml version="1.0" encoding="utf-8" ?>
<svg xmlns="http://www.w3.org/2000/svg" xmlns:ev="http://www.w3.org/2001/xml-events" xmlns:xlink="http://www.w3.org/1999/xlink" baseProfile="full" height="720.0" version="1.1" width="1280.0">
  <defs>
    <style type="text/css"><![CDATA[.non-scaling-stroke { vector-effect: non-scaling-stroke; }]]></style>
  </defs>
  <svg id="static_1">
    <defs/>
    <path class="non-scaling-stroke" d="M 45.0 21.0 C 63.75 -28.0 136.875 21.0 45.0 84.0 C -46.875 21.0 26.25 -28.0 45.0 21.0 Z" fill="#000000" stroke="#5b9bd5" stroke-width="3" transform="matrix(1.0,0.0,0.0,1.0,102.01396325459318,207.0)"/>
  </svg>
  <svg id="static_2">
    <defs/>
    <path class="non-scaling-stroke" d="M 45.0 21.0 C 63.75 -28.0 136.875 21.0 45.0 84.0 C -46.875 21.0 26.25 -28.0 45.0 21.0 Z" fill="#000000" stroke="#5b9bd5" stroke-width="3" transform="matrix(1.0,0.0,0.0,1.0,133.00325459317585,298.8997375328084)"/>
  </svg>
  <svg id="static_3">
    <defs/>
    <path class="non-scaling-stroke" d="M 45.0 21.0 C 63.75 -28.0 136.875 21.0 45.0 84.0 C -46.875 21.0 26.25 -28.0 45.0 21.0 Z" fill="#000000" stroke="#5b9bd5" stroke-width="3" transform="matrix(1.0,0.0,0.0,1.0,198.34015748031496,227.2498687664042)"/>
  </svg>
  <svg id="static_4">
    <defs/>
    <path class="non-scaling-stroke" d="M 45.0 21.0 C 63.75 -28.0 136.875 21.0 45.0 84.0 C -46.875 21.0 26.25 -28.0 45.0 21.0 Z" fill="#000000" stroke="#5b9bd5" stroke-width="3" transform="matrix(1.0,0.0,0.0,1.0,1082.8307611548557,327.8748556430446)"/>
  </svg>
  <svg id="static_5">
    <defs/>
    <path class="non-scaling-stroke" d="M 45.0 21.0 C 63.75 -28.0 136.875 21.0 45.0 84.0 C -46.875 21.0 26.25 -28.0 45.0 21.0 Z" fill="#000000" stroke="#5b9bd5" stroke-width="3" transform="matrix(1.0,0.0,0.0,1.0,1011.9967454068242,259.2498687664042)"/>
  </svg>
  <svg id="static_6">
    <defs/>
    <path class="non-scaling-stroke" d="M 45.0 21.0 C 63.75 -28.0 136.875 21.0 45.0 84.0 C -46.875 21.0 26.25 -28.0 45.0 21.0 Z" fill="#000000" stroke="#5b9bd5" stroke-width="3" transform="matrix(1.0,0.0,0.0,1.0,1108.322939632546,237.24997375328084)"/>
  </svg>
  <svg id="dynamic">
    <defs/>
    <path class="non-scaling-stroke" d="M 45.0 21.0 C 63.75 -28.0 136.875 21.0 45.0 84.0 C -46.875 21.0 26.25 -28.0 45.0 21.0 Z" fill="#000000" stroke="#5b9bd5" stroke-width="3" transform="matrix(1.0,0.0,0.0,1.0,59.78729658792651,565.0497637795276)"/>
    <animate attributeName="opacity" dur="1s" repeatCount="5" values="1;0;1"/>
  </svg>
</svg>
