<?xml version="1.0" encoding="utf-8" ?>
<svg xmlns="http://www.w3.org/2000/svg" xmlns:ev="http://www.w3.org/2001/xml-events" xmlns:xlink="http://www.w3.org/1999/xlink" baseProfile="full" height="720.0" version="1.1" width="1280.0">
  <defs>
    <style type="text/css"><![CDATA[.non-scaling-stroke { vector-effect: non-scaling-stroke; }]]></style>
  </defs>
  <svg id="static_1">
    <defs/>
    <path class="non-scaling-stroke" d="M 0.0 0.0 L 146.28577427821523 0.0 L 146.28577427821523 171.92860892388452 L 0.0 171.92860892388452 Z" fill="#5b9bd5" stroke="#5b9bd5" stroke-width="3" transform="matrix(1.0,0.0,0.0,1.0,278.8571128608924,196.5714435695538)"/>
  </svg>
  <svg id="static_2">
    <defs/>
    <path class="non-scaling-stroke" d="M 0.0 0.0 L 146.28577427821523 0.0 L 146.28577427821523 171.92860892388452 L 0.0 171.92860892388452 Z" fill="#5b9bd5" stroke="#5b9bd5" stroke-width="3" transform="matrix(1.0,0.0,0.0,1.0,819.2382152230971,196.5714435695538)"/>
  </svg>
  <svg id="static_3">
    <defs/>
    <path class="non-scaling-stroke" d="M 8.703257723557432e-05 29.00207420279913 L 31.430502279624196 29.00227832212971 L 41.14283464566929 0.0 L 50.855167011714386 29.00227832212971 L 82.28558225876135 29.00207420279913 L 56.857718523965936 46.926263837728975 L 66.57045106111877 75.92841600717463 L 41.14283464566929 58.00389610023013 L 15.715218230219802 75.92841600717463 L 25.42795076737265 46.926263837728975 Z" fill="#ffffff" stroke="#5b9bd5" stroke-width="3" transform="matrix(1.0,0.0,0.0,1.0,314.4760104986877,238.84283464566929)"/>
  </svg>
  <svg id="static_4">
    <defs/>
    <path class="non-scaling-stroke" d="M 8.703257723557432e-05 29.00207420279913 L 31.430502279624196 29.00227832212971 L 41.14283464566929 0.0 L 50.855167011714386 29.00227832212971 L 82.28558225876135 29.00207420279913 L 56.857718523965936 46.926263837728975 L 66.57045106111877 75.92841600717463 L 41.14283464566929 58.00389610023013 L 15.715218230219802 75.92841600717463 L 25.42795076737265 46.926263837728975 Z" fill="#ffffff" stroke="#5b9bd5" stroke-width="3" transform="matrix(1.0,0.0,0.0,1.0,856.5713385826772,249.16902887139108)"/>
  </svg>
  <svg id="static_5">
    <defs/>
  </svg>
  <svg id="dynamic">
    <defs/>
    <path class="non-scaling-stroke" d="M 8.703257723557432e-05 29.00207420279913 L 31.430502279624196 29.00227832212971 L 41.14283464566929 0.0 L 50.855167011714386 29.00227832212971 L 82.28558225876135 29.00207420279913 L 56.857718523965936 46.926263837728975 L 66.57045106111877 75.92841600717463 L 41.14283464566929 58.00389610023013 L 15.715218230219802 75.92841600717463 L 25.42795076737265 46.926263837728975 Z" fill="#5b9bd5" stroke="#5b9bd5" stroke-width="3" transform="matrix(1.0,0.0,0.0,1.0,237.71422572178477,631.7616797900263)">
      <animateMotion dur="5s" fill="freeze" id="entrance_motion" path="M 0.0 0.0 L 87.0 -3.0 L 184.0 -17.0 L 253.0 -30.0 L 314.0 -48.0 L 380.0 -77.0 L 430.0 -107.0 L 459.0 -151.0 L 458.0 -185.0 L 443.0 -234.0 L 421.0 -268.0 L 387.0 -296.0 L 355.0 -306.0 L 342.0 -306.0"/>
    </path>
    <animate attributeName="opacity" dur="1s" repeatCount="5" values="1;0;1"/>
  </svg>
</svg>
