<?xml version="1.0" encoding="utf-8" ?>
<svg xmlns="http://www.w3.org/2000/svg" xmlns:ev="http://www.w3.org/2001/xml-events" xmlns:xlink="http://www.w3.org/1999/xlink" baseProfile="full" height="720.0" version="1.1" width="1280.0">
  <defs>
    <style type="text/css"><![CDATA[.non-scaling-stroke { vector-effect: non-scaling-stroke; }]]></style>
  </defs>
  <svg id="static_1">
    <defs/>
    <path class="non-scaling-stroke" d="M 8.983431263579901e-05 32.79044558348333 L 32.44230675187081 32.79067636572861 L 42.46729658792651 0.0 L 52.49228642398221 32.79067636572861 L 84.93450334154038 32.79044558348333 L 58.688070879536866 53.05596730935623 L 68.71347376892895 85.84650104381326 L 42.46729658792651 65.58060590442352 L 16.221119406924064 85.84650104381326 L 26.246522296316154 53.05596730935623 Z" fill="#00b050" stroke="#41719c" stroke-width="3" transform="matrix(1.0,0.0,0.0,1.0,171.06540682414698,230.83853018372704)"/>
  </svg>
  <svg id="static_2">
    <defs/>
    <path class="non-scaling-stroke" d="M 8.983431263579901e-05 32.79044558348333 L 32.44230675187081 32.79067636572861 L 42.46729658792651 0.0 L 52.49228642398221 32.79067636572861 L 84.93450334154038 32.79044558348333 L 58.688070879536866 53.05596730935623 L 68.71347376892895 85.84650104381326 L 42.46729658792651 65.58060590442352 L 16.221119406924064 85.84650104381326 L 26.246522296316154 53.05596730935623 Z" fill="#e7e6e6" stroke="#e7e6e6" stroke-width="3" transform="matrix(1.0,0.0,0.0,1.0,172.59811023622046,546.5143307086614)"/>
  </svg>
  <svg id="static_3">
    <defs/>
  </svg>
  <svg id="dynamic">
    <defs/>
    <path class="non-scaling-stroke" d="M 8.983431263579901e-05 32.79044558348333 L 32.44230675187081 32.79067636572861 L 42.46729658792651 0.0 L 52.49228642398221 32.79067636572861 L 84.93450334154038 32.79044558348333 L 58.688070879536866 53.05596730935623 L 68.71347376892895 85.84650104381326 L 42.46729658792651 65.58060590442352 L 16.221119406924064 85.84650104381326 L 26.246522296316154 53.05596730935623 Z" fill="#00b050" stroke="#41719c" stroke-width="3" transform="matrix(1.0,0.0,0.0,1.0,1011.9582152230971,519.2443044619423)">
      <animateMotion dur="5s" fill="freeze" id="entrance_motion" path="M 0.0 0.0 L -91.42866141732281 -0.9143307086614243 L -89.6 -72.22866141732283 L -178.28577427821523 -71.31433070866142 L -177.37144356955378 -122.51433070866142 L -272.457217847769 -120.68577427821522"/>
    </path>
    <animate attributeName="opacity" dur="1s" repeatCount="5" values="1;0;1"/>
  </svg>
</svg>
