<?xml version="1.0" encoding="utf-8" ?>
<svg xmlns="http://www.w3.org/2000/svg" xmlns:ev="http://www.w3.org/2001/xml-events" xmlns:xlink="http://www.w3.org/1999/xlink" baseProfile="full" height="720.0" version="1.1" width="1280.0">
  <defs>
    <style type="text/css"><![CDATA[.non-scaling-stroke { vector-effect: non-scaling-stroke; }]]></style>
  </defs>
  <svg id="static_1">
    <defs/>
    <path class="non-scaling-stroke" d="M 0.0 46.2 A 68.6903937007874 46.2 0 0 1 68.6903937007874 -6.111040515849597e-15 A 68.6903937007874 46.2 0 0 1 137.3807874015748 46.199999999999974 A 68.6903937007874 46.2 0 0 1 68.6903937007874 92.39999999999998 A 68.6903937007874 46.2 0 0 1 0.0 46.19999999999998 Z" fill="#ffffff" stroke="#41719c" stroke-width="3" transform="matrix(1.0,0.0,0.0,1.0,254.77490813648294,194.66719160104986)"/>
  </svg>
  <svg id="static_2">
    <defs/>
    <path class="non-scaling-stroke" d="M 0.0 46.2 A 68.6903937007874 46.2 0 0 1 68.6903937007874 -6.111040515849597e-15 A 68.6903937007874 46.2 0 0 1 137.3807874015748 46.199999999999974 A 68.6903937007874 46.2 0 0 1 68.6903937007874 92.39999999999998 A 68.6903937007874 46.2 0 0 1 0.0 46.19999999999998 Z" fill="#ffffff" stroke="#41719c" stroke-width="3" transform="matrix(1.0,0.0,0.0,1.0,95.0903937007874,194.66719160104986)"/>
  </svg>
  <svg id="static_3">
    <defs/>
    <path class="non-scaling-stroke" d="M 0.0 46.2 A 44.4 46.2 0 0 1 44.39999999999999 -6.111040515849597e-15 A 44.4 46.2 0 0 1 88.8 46.19999999999998 A 44.4 46.2 0 0 1 44.4 92.39999999999998 A 44.4 46.2 0 0 1 0.0 46.19999999999998 Z" fill="#ffffff" stroke="#41719c" stroke-width="3" transform="matrix(1.0,0.0,0.0,1.0,980.8250918635171,194.66719160104986)"/>
  </svg>
  <svg id="static_4">
    <defs/>
    <path class="non-scaling-stroke" d="M 0.0 46.2 A 44.4 46.2 0 0 1 44.39999999999999 -6.111040515849597e-15 A 44.4 46.2 0 0 1 88.8 46.19999999999998 A 44.4 46.2 0 0 1 44.4 92.39999999999998 A 44.4 46.2 0 0 1 0.0 46.19999999999998 Z" fill="#ffffff" stroke="#41719c" stroke-width="3" transform="matrix(1.0,0.0,0.0,1.0,1096.1096062992126,194.66719160104986)"/>
  </svg>
  <svg id="dynamic">
    <defs/>
    <path class="non-scaling-stroke" d="M 0.0 46.2 A 44.4 46.2 0 0 1 44.39999999999999 -6.111040515849597e-15 A 44.4 46.2 0 0 1 88.8 46.19999999999998 A 44.4 46.2 0 0 1 44.4 92.39999999999998 A 44.4 46.2 0 0 1 0.0 46.19999999999998 Z" fill="#ffffff" stroke="#41719c" stroke-width="3" transform="matrix(1.0,0.0,0.0,1.0,595.6,588.0671916010499)"/>
    <animate attributeName="opacity" dur="1s" repeatCount="5" values="1;0;1"/>
  </svg>
</svg>
