<?xml version="1.0" encoding="utf-8" ?>
<svg xmlns="http://www.w3.org/2000/svg" xmlns:ev="http://www.w3.org/2001/xml-events" xmlns:xlink="http://www.w3.org/1999/xlink" baseProfile="full" height="720.0" version="1.1" width="1280.0">
  <defs>
    <style type="text/css"><![CDATA[.non-scaling-stroke { vector-effect: non-scaling-stroke; }]]></style>
  </defs>
  <svg id="static_1">
    <defs/>
    <path class="non-scaling-stroke" d="M 0.0 0.0 L 0.0002099737532808399 0.0 L 0.00010498687664041995 0.00010498687664041995 L 0.0002099737532808399 0.0002099737532808399 L 0.0 0.0002099737532808399 L 0.00010498687664041995 0.00010498687664041995 Z" fill="#c967bb" stroke="#41719c" stroke-width="3" transform="matrix(228600.0,0.0,0.0,457200.0,263.44829396325457,367.7899212598425)"/>
  </svg>
  <svg id="static_2">
    <defs/>
    <path class="non-scaling-stroke" d="M 0.0 0.0 L 0.0002099737532808399 0.0 L 0.00010498687664041995 0.00010498687664041995 L 0.0002099737532808399 0.0002099737532808399 L 0.0 0.0002099737532808399 L 0.00010498687664041995 0.00010498687664041995 Z" fill="#c967bb" stroke="#41719c" stroke-width="3" transform="matrix(228600.0,0.0,0.0,457200.0,201.0,367.7899212598425)"/>
  </svg>
  <svg id="static_3">
    <defs/>
    <path class="non-scaling-stroke" d="M 0.0 0.0 L 0.0002099737532808399 0.0 L 0.00010498687664041995 0.00010498687664041995 L 0.0002099737532808399 0.0002099737532808399 L 0.0 0.0002099737532808399 L 0.00010498687664041995 0.00010498687664041995 Z" fill="#c967bb" stroke="#41719c" stroke-width="3" transform="matrix(228600.0,0.0,0.0,457200.0,1081.3808923884515,377.75664041994753)"/>
  </svg>
  <svg id="static_4">
    <defs/>
  </svg>
  <svg id="dynamic">
    <defs/>
    <path class="non-scaling-stroke" d="M 0.0 0.0 L 0.0002099737532808399 0.0 L 0.00010498687664041995 0.00010498687664041995 L 0.0002099737532808399 0.0002099737532808399 L 0.0 0.0002099737532808399 L 0.00010498687664041995 0.00010498687664041995 Z" fill="#c967bb" stroke="#41719c" stroke-width="3" transform="matrix(228600.0,0.0,0.0,457200.0,541.9428871391076,4.356640419947507)">
      <animateMotion dur="5s" fill="freeze" id="entrance_motion" path="M 0.0 0.0 L 75.78939632545932 4.0420997375328085 L 132.37889763779526 13.136902887139108 L 185.93679790026246 29.305301837270342 L 222.31569553805775 48.50530183727034 L 235.45259842519684 63.66320209973753 L 219.2841994750656 88.92629921259842 L 186.9472965879265 109.1369028871391 L 140.46309711286088 126.31580052493439 L 96.0 130.35790026246718"/>
    </path>
    <animate attributeName="opacity" dur="1s" repeatCount="5" values="1;0;1"/>
  </svg>
</svg>
