<?xml version="1.0" encoding="utf-8" ?>
<svg baseProfile="full" height="720.0" version="1.1" width="1280.0" xmlns="http://www.w3.org/2000/svg" xmlns:ev="http://www.w3.org/2001/xml-events" xmlns:xlink="http://www.w3.org/1999/xlink">
  <defs>
    <style type="text/css">
<![CDATA[.non-scaling-stroke { vector-effect: non-scaling-stroke; }]]>    </style>
  </defs>
  <svg id="static_1">
    <defs/>
    <path class="non-scaling-stroke" d="M 8.344787499913824e-05 25.94859955041405 L 30.135941145580166 25.948782179102356 L 39.448241469816274 0.0 L 48.76054179405238 25.948782179102356 L 78.89639949175753 25.94859955041405 L 54.515859907876965 41.98564627507856 L 63.8285439209528 67.93431558344423 L 39.448241469816274 51.8969733593547 L 15.067939018679754 67.93431558344423 L 24.380623031755587 41.98564627507856 Z" fill="#c00000" stroke="#41719c" stroke-width="3" transform="matrix(1.0,0.0,0.0,1.0,236.68965879265093,272.76188976377955)"/>
  </svg>
  <svg id="static_2">
    <defs/>
    <path class="non-scaling-stroke" d="M 8.344787499913824e-05 25.94859955041405 L 30.135941145580166 25.948782179102356 L 39.448241469816274 0.0 L 48.76054179405238 25.948782179102356 L 78.89639949175753 25.94859955041405 L 54.515859907876965 41.98564627507856 L 63.8285439209528 67.93431558344423 L 39.448241469816274 51.8969733593547 L 15.067939018679754 67.93431558344423 L 24.380623031755587 41.98564627507856 Z" fill="#5b9bd5" stroke="#41719c" stroke-width="3" transform="matrix(1.0,0.0,0.0,1.0,964.4138582677166,272.76188976377955)"/>
  </svg>
  <svg id="static_3">
    <defs/>
    <path class="non-scaling-stroke" d="M 0.0 311.0 C 52.0 304.6666666666667 107.66666666666667 299.5000524934383 156.0 292.0 C 204.33333333333334 284.5000524934383 251.0 276.6666666666667 290.0 266.0 C 329.0 255.33333333333334 339.6666666666667 257.3333333333333 390.0 228.0 C 440.3333333333333 198.66666666666666 447.166719160105 196.0 457.0 170.0 C 466.83338582677163 144.0 454.6666666666667 80.33333333333333 449.0 72.0 C 443.3333333333333 63.666666666666664 429.3333333333333 41.666666666666664 420.0 31.0 C 410.6666666666667 20.333333333333332 398.0 9.833385826771654 393.0 8.0 L 390.0 20.0 L 374.0 4.0 L 398.0 0.0 L 392.0 8.0" fill="#ffffff" stroke="#5b9bd5" stroke-width="3" transform="matrix(1.0,0.0,0.0,1.0,331.58614173228347,402.0)"/>
  </svg>
  <svg id="dynamic">
    <defs/>
    <path class="non-scaling-stroke" d="M 8.344787499913824e-05 25.94859955041405 L 30.135941145580166 25.948782179102356 L 39.448241469816274 0.0 L 48.76054179405238 25.948782179102356 L 78.89639949175753 25.94859955041405 L 54.515859907876965 41.98564627507856 L 63.8285439209528 67.93431558344423 L 39.448241469816274 51.8969733593547 L 15.067939018679754 67.93431558344423 L 24.380623031755587 41.98564627507856 Z" fill="#5b9bd5" stroke="#41719c" stroke-width="3" transform="matrix(1.0,0.0,0.0,1.0,636.1379527559055,360.54173228346457)"/>
    <animate attributeName="opacity" dur="1s" repeatCount="3" values="1;0;1"/>
  </svg>
</svg>
