<?xml version="1.0" encoding="utf-8" ?>
<svg baseProfile="full" height="720.0" version="1.1" width="1280.0" xmlns="http://www.w3.org/2000/svg" xmlns:ev="http://www.w3.org/2001/xml-events" xmlns:xlink="http://www.w3.org/1999/xlink">
  <defs>
    <style type="text/css">
<![CDATA[.non-scaling-stroke { vector-effect: non-scaling-stroke; }]]>    </style>
  </defs>
  <svg id="static_1">
    <defs/>
    <path class="non-scaling-stroke" d="M 0.0 26.82272965879265 A 27.996850393700786 26.82272965879265 0 0 1 27.996850393700782 -3.0555202579247984e-15 A 27.996850393700786 26.82272965879265 0 0 1 55.99370078740157 26.822729658792642 A 27.996850393700786 26.82272965879265 0 0 1 27.996850393700786 53.64545931758529 A 27.996850393700786 26.82272965879265 0 0 1 0.0 26.822729658792642 Z" fill="#5b9bd5" stroke="#41719c" stroke-width="3" transform="matrix(1.0,0.0,0.0,1.0,367.8130183727034,34.9407874015748)"/>
  </svg>
  <svg id="static_2">
    <defs/>
    <path class="non-scaling-stroke" d="M 0.0 48.0 A 48.0 48.0 0 0 1 47.99999999999999 -6.111040515849597e-15 A 48.0 48.0 0 0 1 96.0 47.99999999999998 A 48.0 48.0 0 0 1 48.0 95.99999999999997 A 48.0 48.0 0 0 1 0.0 47.99999999999998 Z" fill="#5b9bd5" stroke="#41719c" stroke-width="3" transform="matrix(1.0,0.0,0.0,1.0,916.0433595800525,200.55464566929135)"/>
  </svg>
  <svg id="static_3">
    <defs/>
    <path class="non-scaling-stroke" d="M 0.0 92.0 L 44.0 125.0 L 45.0 77.0 L 88.0 107.0 L 88.0 59.0 L 129.0 90.0 L 132.0 36.0 L 171.0 68.0 L 175.0 17.0 L 216.0 48.0 L 218.0 0.0 L 241.0 19.0 L 249.0 10.0 L 272.0 36.0 L 234.0 32.0 L 242.0 19.0" fill="#ffffff" stroke="#5b9bd5" stroke-width="3" transform="matrix(0.6023204170670484,-0.7982544175788674,-0.7982544175788674,-0.6023204170670484,259.97553435131385,737.0826399807762)"/>
  </svg>
  <svg id="dynamic">
    <defs/>
    <path class="non-scaling-stroke" d="M 0.0 48.0 A 48.0 48.0 0 0 1 47.99999999999999 -6.111040515849597e-15 A 48.0 48.0 0 0 1 96.0 47.99999999999998 A 48.0 48.0 0 0 1 48.0 95.99999999999997 A 48.0 48.0 0 0 1 0.0 47.99999999999998 Z" fill="#5b9bd5" stroke="#41719c" stroke-width="3" transform="matrix(1.0,0.0,0.0,1.0,352.0,394.55391076115484)"/>
    <animate attributeName="opacity" dur="1s" repeatCount="3" values="1;0;1"/>
  </svg>
</svg>
