<?xml version="1.0" encoding="utf-8" ?>
<svg baseProfile="full" height="720.0" version="1.1" width="1280.0" xmlns="http://www.w3.org/2000/svg" xmlns:ev="http://www.w3.org/2001/xml-events" xmlns:xlink="http://www.w3.org/1999/xlink">
  <defs>
    <style type="text/css">
<![CDATA[.non-scaling-stroke { vector-effect: non-scaling-stroke; }]]>    </style>
  </defs>
  <svg id="static_1">
    <defs/>
    <path class="non-scaling-stroke" d="M 0.0 120.61905511811024 A 123.89391076115486 120.61905511811024 0 0 1 123.89391076115483 -2.4444162063398387e-14 A 123.89391076115486 120.61905511811024 0 0 1 247.7878215223097 120.61905511811018 A 123.89391076115486 120.61905511811024 0 0 1 123.89391076115486 241.23811023622042 A 123.89391076115486 120.61905511811024 0 0 1 0.0 120.61905511811021 Z" fill="#000000" stroke="#000000" stroke-width="3" transform="matrix(1.0,0.0,0.0,1.0,185.21207349081365,128.76178477690289)"/>
  </svg>
  <svg id="static_2">
    <defs/>
    <path class="non-scaling-stroke" d="M 0.0 96.0 L 0.0 0.0 L 96.0 96.0 Z" fill="#ffffff" stroke="#000000" stroke-width="3" transform="matrix(1.0,0.0,0.0,1.0,233.49984251968505,225.99979002624673)"/>
  </svg>
  <svg id="static_3">
    <defs/>
    <path class="non-scaling-stroke" d="M 0.0 96.0 L 0.0 0.0 L 96.0 96.0 Z" fill="#ffffff" stroke="#000000" stroke-width="3" transform="matrix(1.0,0.0,0.0,1.0,309.1059317585302,153.38089238845146)"/>
  </svg>
  <svg id="static_4">
    <defs/>
    <path class="non-scaling-stroke" d="M 0.0 120.61905511811024 A 123.89391076115486 120.61905511811024 0 0 1 123.89391076115483 -2.4444162063398387e-14 A 123.89391076115486 120.61905511811024 0 0 1 247.7878215223097 120.61905511811018 A 123.89391076115486 120.61905511811024 0 0 1 123.89391076115486 241.23811023622042 A 123.89391076115486 120.61905511811024 0 0 1 0.0 120.61905511811021 Z" fill="#0070c0" stroke="#41719c" stroke-width="3" transform="matrix(1.0,0.0,0.0,1.0,828.1062467191601,128.76178477690289)"/>
  </svg>
  <svg id="static_5">
    <defs/>
    <path class="non-scaling-stroke" d="M 0.0 96.0 L 0.0 0.0 L 96.0 96.0 Z" fill="#ffffff" stroke="#44546a" stroke-width="3" transform="matrix(1.0,0.0,0.0,1.0,904.0001049868766,187.99979002624673)"/>
  </svg>
  <svg id="dynamic">
    <defs/>
    <path class="non-scaling-stroke" d="M 0.0 96.0 L 0.0 0.0 L 96.0 96.0 Z" fill="#000000" stroke="#000000" stroke-width="3" transform="matrix(1.0,0.0,0.0,1.0,592.0,496.8051443569554)"/>
    <animate attributeName="opacity" dur="1s" repeatCount="3" values="1;0;1"/>
  </svg>
</svg>
