<?xml version="1.0" encoding="utf-8" ?>
<svg baseProfile="full" height="720.0" version="1.1" width="1280.0" xmlns="http://www.w3.org/2000/svg" xmlns:ev="http://www.w3.org/2001/xml-events" xmlns:xlink="http://www.w3.org/1999/xlink">
  <defs>
    <style type="text/css">
<![CDATA[.non-scaling-stroke { vector-effect: non-scaling-stroke; }]]>    </style>
  </defs>
  <svg id="static_1">
    <defs/>
    <path class="non-scaling-stroke" d="M 0.0 0.0 L 594.002624671916 0.0 L 594.002624671916 96.0 L 0.0 96.0 Z" fill="#afabab" stroke="#41719c" stroke-width="3" transform="matrix(1.0,0.0,0.0,1.0,327.5758530183727,123.76188976377952)"/>
  </svg>
  <svg id="static_2">
    <defs/>
    <path class="non-scaling-stroke" d="M 0.0 0.00010498687664041995 L 0.00010498687664041995 0.0 L 0.0002099737532808399 0.00010498687664041995 L 0.00010498687664041995 0.0002099737532808399 Z" fill="#ffffff" stroke="#a6a6a6" stroke-width="3" transform="matrix(286327.0,0.0,0.0,184727.49999999997,356.966719160105,152.36776902887138)"/>
  </svg>
  <svg id="static_3">
    <defs/>
    <path class="non-scaling-stroke" d="M 0.0 0.00010498687664041995 L 0.00010498687664041995 0.0 L 0.0002099737532808399 0.00010498687664041995 L 0.00010498687664041995 0.0002099737532808399 Z" fill="#ffffff" stroke="#a6a6a6" stroke-width="3" transform="matrix(286327.0,0.0,0.0,184727.49999999997,471.8758005249344,152.36776902887138)"/>
  </svg>
  <svg id="static_4">
    <defs/>
    <path class="non-scaling-stroke" d="M 0.0 0.00010498687664041995 L 0.00010498687664041995 0.0 L 0.0002099737532808399 0.00010498687664041995 L 0.00010498687664041995 0.0002099737532808399 Z" fill="#ffffff" stroke="#a6a6a6" stroke-width="3" transform="matrix(286327.0,0.0,0.0,184727.49999999997,587.8470341207349,152.36787401574804)"/>
  </svg>
  <svg id="static_5">
    <defs/>
    <path class="non-scaling-stroke" d="M 0.0 0.00010498687664041995 L 0.00010498687664041995 0.0 L 0.0002099737532808399 0.00010498687664041995 L 0.00010498687664041995 0.0002099737532808399 Z" fill="#ffffff" stroke="#a6a6a6" stroke-width="3" transform="matrix(286327.0,0.0,0.0,184727.49999999997,703.8182677165354,149.87422572178477)"/>
  </svg>
  <svg id="static_6">
    <defs/>
    <path class="non-scaling-stroke" d="M 0.0 0.00010498687664041995 L 0.00010498687664041995 0.0 L 0.0002099737532808399 0.00010498687664041995 L 0.00010498687664041995 0.0002099737532808399 Z" fill="#ffffff" stroke="#a6a6a6" stroke-width="3" transform="matrix(286327.0,0.0,0.0,184727.49999999997,818.7273490813649,149.87422572178477)"/>
  </svg>
  <svg id="dynamic">
    <defs/>
    <path class="non-scaling-stroke" d="M 0.0 0.00010498687664041995 L 0.00010498687664041995 0.0 L 0.0002099737532808399 0.00010498687664041995 L 0.00010498687664041995 0.0002099737532808399 Z" fill="#a6a6a6" stroke="#41719c" stroke-width="3" transform="matrix(286327.0,0.0,0.0,184727.49999999997,1022.0007349081365,500.45018372703413)"/>
    <animate attributeName="opacity" dur="1s" repeatCount="3" values="1;0;1"/>
  </svg>
</svg>
