<?xml version="1.0" encoding="utf-8" ?>
<svg baseProfile="full" height="720.0" version="1.1" width="1280.0" xmlns="http://www.w3.org/2000/svg" xmlns:ev="http://www.w3.org/2001/xml-events" xmlns:xlink="http://www.w3.org/1999/xlink">
  <defs>
    <style type="text/css">
<![CDATA[.non-scaling-stroke { vector-effect: non-scaling-stroke; }]]>    </style>
  </defs>
  <svg id="static_1">
    <defs/>
    <path class="non-scaling-stroke" d="M 0.0 32.16 A 32.16 32.16 0 0 1 32.16 -6.111040515849597e-15 A 32.16 32.16 0 0 1 64.32 32.15999999999999 A 32.16 32.16 0 0 1 32.16 64.32 A 32.16 32.16 0 0 1 0.0 32.16 Z" fill="#ffffff" stroke="#5b9bd5" stroke-width="3" transform="matrix(1.0,0.0,0.0,1.0,362.790656167979,236.6511286089239)"/>
    <path class="non-scaling-stroke" d="M 9.41944591704063 9.41944591704063 L 54.90055408295937 54.90055408295937 M 54.90055408295937 9.41944591704063 L 9.41944591704063 54.90055408295937" fill="#ffffff" stroke="#5b9bd5" stroke-width="3" transform="matrix(1.0,0.0,0.0,1.0,362.790656167979,236.6511286089239)"/>
    <path class="non-scaling-stroke" d="M 0.0 32.16 A 32.16 32.16 0 0 1 32.16 -6.111040515849597e-15 A 32.16 32.16 0 0 1 64.32 32.15999999999999 A 32.16 32.16 0 0 1 32.16 64.32 A 32.16 32.16 0 0 1 0.0 32.16 Z" fill="#ffffff" stroke="#5b9bd5" stroke-width="3" transform="matrix(1.0,0.0,0.0,1.0,362.790656167979,236.6511286089239)"/>
  </svg>
  <svg id="static_2">
    <defs/>
    <path class="non-scaling-stroke" d="M 0.0 32.16 A 32.16 32.16 0 0 1 32.16 -6.111040515849597e-15 A 32.16 32.16 0 0 1 64.32 32.15999999999999 A 32.16 32.16 0 0 1 32.16 64.32 A 32.16 32.16 0 0 1 0.0 32.16 Z" fill="#ffffff" stroke="#5b9bd5" stroke-width="3" transform="matrix(1.0,0.0,0.0,1.0,271.67989501312337,236.6511286089239)"/>
    <path class="non-scaling-stroke" d="M 9.41944591704063 9.41944591704063 L 54.90055408295937 54.90055408295937 M 54.90055408295937 9.41944591704063 L 9.41944591704063 54.90055408295937" fill="#ffffff" stroke="#5b9bd5" stroke-width="3" transform="matrix(1.0,0.0,0.0,1.0,271.67989501312337,236.6511286089239)"/>
    <path class="non-scaling-stroke" d="M 0.0 32.16 A 32.16 32.16 0 0 1 32.16 -6.111040515849597e-15 A 32.16 32.16 0 0 1 64.32 32.15999999999999 A 32.16 32.16 0 0 1 32.16 64.32 A 32.16 32.16 0 0 1 0.0 32.16 Z" fill="#ffffff" stroke="#5b9bd5" stroke-width="3" transform="matrix(1.0,0.0,0.0,1.0,271.67989501312337,236.6511286089239)"/>
  </svg>
  <svg id="static_3">
    <defs/>
    <path class="non-scaling-stroke" d="M 0.0 32.16 A 32.16 32.16 0 0 1 32.16 -6.111040515849597e-15 A 32.16 32.16 0 0 1 64.32 32.15999999999999 A 32.16 32.16 0 0 1 32.16 64.32 A 32.16 32.16 0 0 1 0.0 32.16 Z" fill="#ffffff" stroke="#5b9bd5" stroke-width="3" transform="matrix(1.0,0.0,0.0,1.0,719.9931758530183,424.37154855643047)"/>
    <path class="non-scaling-stroke" d="M 32.16 0.0 L 32.16 64.32 M 0.0 32.16 L 64.32 32.16" fill="#ffffff" stroke="#5b9bd5" stroke-width="3" transform="matrix(1.0,0.0,0.0,1.0,719.9931758530183,424.37154855643047)"/>
    <path class="non-scaling-stroke" d="M 0.0 32.16 A 32.16 32.16 0 0 1 32.16 -6.111040515849597e-15 A 32.16 32.16 0 0 1 64.32 32.15999999999999 A 32.16 32.16 0 0 1 32.16 64.32 A 32.16 32.16 0 0 1 0.0 32.16 Z" fill="#ffffff" stroke="#5b9bd5" stroke-width="3" transform="matrix(1.0,0.0,0.0,1.0,719.9931758530183,424.37154855643047)"/>
  </svg>
  <svg id="static_4">
    <defs/>
    <path class="non-scaling-stroke" d="M 0.0 32.16 A 32.16 32.16 0 0 1 32.16 -6.111040515849597e-15 A 32.16 32.16 0 0 1 64.32 32.15999999999999 A 32.16 32.16 0 0 1 32.16 64.32 A 32.16 32.16 0 0 1 0.0 32.16 Z" fill="#ffffff" stroke="#5b9bd5" stroke-width="3" transform="matrix(1.0,0.0,0.0,1.0,807.103937007874,424.37154855643047)"/>
    <path class="non-scaling-stroke" d="M 32.16 0.0 L 32.16 64.32 M 0.0 32.16 L 64.32 32.16" fill="#ffffff" stroke="#5b9bd5" stroke-width="3" transform="matrix(1.0,0.0,0.0,1.0,807.103937007874,424.37154855643047)"/>
    <path class="non-scaling-stroke" d="M 0.0 32.16 A 32.16 32.16 0 0 1 32.16 -6.111040515849597e-15 A 32.16 32.16 0 0 1 64.32 32.15999999999999 A 32.16 32.16 0 0 1 32.16 64.32 A 32.16 32.16 0 0 1 0.0 32.16 Z" fill="#ffffff" stroke="#5b9bd5" stroke-width="3" transform="matrix(1.0,0.0,0.0,1.0,807.103937007874,424.37154855643047)"/>
  </svg>
  <svg id="dynamic">
    <defs/>
    <path class="non-scaling-stroke" d="M 0.0 32.16 A 32.16 32.16 0 0 1 32.16 -6.111040515849597e-15 A 32.16 32.16 0 0 1 64.32 32.15999999999999 A 32.16 32.16 0 0 1 32.16 64.32 A 32.16 32.16 0 0 1 0.0 32.16 Z" fill="#ffffff" stroke="#5b9bd5" stroke-width="3" transform="matrix(1.0,0.0,0.0,1.0,587.9589501312336,495.99989501312336)"/>
    <path class="non-scaling-stroke" d="M 9.41944591704063 9.41944591704063 L 54.90055408295937 54.90055408295937 M 54.90055408295937 9.41944591704063 L 9.41944591704063 54.90055408295937" fill="#ffffff" stroke="#5b9bd5" stroke-width="3" transform="matrix(1.0,0.0,0.0,1.0,587.9589501312336,495.99989501312336)"/>
    <path class="non-scaling-stroke" d="M 0.0 32.16 A 32.16 32.16 0 0 1 32.16 -6.111040515849597e-15 A 32.16 32.16 0 0 1 64.32 32.15999999999999 A 32.16 32.16 0 0 1 32.16 64.32 A 32.16 32.16 0 0 1 0.0 32.16 Z" fill="#ffffff" stroke="#5b9bd5" stroke-width="3" transform="matrix(1.0,0.0,0.0,1.0,587.9589501312336,495.99989501312336)"/>
    <animate attributeName="opacity" dur="1s" repeatCount="3" values="1;0;1"/>
  </svg>
</svg>
