<?xml version="1.0" encoding="utf-8" ?>
<svg baseProfile="full" height="720.0" version="1.1" width="1280.0" xmlns="http://www.w3.org/2000/svg" xmlns:ev="http://www.w3.org/2001/xml-events" xmlns:xlink="http://www.w3.org/1999/xlink">
  <defs>
    <style type="text/css">
<![CDATA[.non-scaling-stroke { vector-effect: non-scaling-stroke; }]]>    </style>
  </defs>
  <svg id="static_1">
    <defs/>
    <path class="non-scaling-stroke" d="M 86.39884514435695 42.99994750656168 L 68.96608255501495 49.170823151996444 L 68.96608255501495 36.82907186112692 Z M 73.74301430932245 12.593410552153204 L 65.80215684582859 29.228401139867078 L 57.03485460093632 20.501582264576797 Z M 43.19942257217848 0.0 L 49.398924667078056 17.35226610919622 L 36.999920477278906 17.35226610919622 Z M 12.651830888500047 12.593410552153204 L 29.36399054342063 20.501582264576797 L 20.596688298528363 29.228401139867078 Z M 0.0 42.99994750656168 L 17.432762589342012 36.82907186112692 L 17.432762589342012 49.170823151996444 Z M 12.651830888500047 73.40250298434917 L 20.596688298528363 56.77149387325628 L 29.36399054342063 65.49831274854657 Z M 43.19942257217848 85.99989501312336 L 36.999920477278906 68.64762890392714 L 49.398924667078056 68.64762890392714 Z M 73.74301430932245 73.40250298434917 L 57.03485460093632 65.49831274854657 L 65.80215684582859 56.77149387325628 Z M 21.59971128608924 42.99994750656168 A 21.59971128608924 21.49997375328084 0 1 1 21.59971128608924 42.99994750656169 Z" fill="#bdd7ee" stroke="#41719c" stroke-width="3" transform="matrix(1.0,0.0,0.0,1.0,328.99832020997377,251.0)"/>
  </svg>
  <svg id="static_2">
    <defs/>
    <path class="non-scaling-stroke" d="M 86.39884514435695 42.99994750656168 L 68.96608255501495 49.170823151996444 L 68.96608255501495 36.82907186112692 Z M 73.74301430932245 12.593410552153204 L 65.80215684582859 29.228401139867078 L 57.03485460093632 20.501582264576797 Z M 43.19942257217848 0.0 L 49.398924667078056 17.35226610919622 L 36.999920477278906 17.35226610919622 Z M 12.651830888500047 12.593410552153204 L 29.36399054342063 20.501582264576797 L 20.596688298528363 29.228401139867078 Z M 0.0 42.99994750656168 L 17.432762589342012 36.82907186112692 L 17.432762589342012 49.170823151996444 Z M 12.651830888500047 73.40250298434917 L 20.596688298528363 56.77149387325628 L 29.36399054342063 65.49831274854657 Z M 43.19942257217848 85.99989501312336 L 36.999920477278906 68.64762890392714 L 49.398924667078056 68.64762890392714 Z M 73.74301430932245 73.40250298434917 L 57.03485460093632 65.49831274854657 L 65.80215684582859 56.77149387325628 Z M 21.59971128608924 42.99994750656168 A 21.59971128608924 21.49997375328084 0 1 1 21.59971128608924 42.99994750656169 Z" fill="#bdd7ee" stroke="#41719c" stroke-width="3" transform="matrix(1.0,0.0,0.0,1.0,283.37018372703415,165.00010498687664)"/>
  </svg>
  <svg id="static_3">
    <defs/>
    <path class="non-scaling-stroke" d="M 86.39884514435695 42.99994750656168 L 68.96608255501495 49.170823151996444 L 68.96608255501495 36.82907186112692 Z M 73.74301430932245 12.593410552153204 L 65.80215684582859 29.228401139867078 L 57.03485460093632 20.501582264576797 Z M 43.19942257217848 0.0 L 49.398924667078056 17.35226610919622 L 36.999920477278906 17.35226610919622 Z M 12.651830888500047 12.593410552153204 L 29.36399054342063 20.501582264576797 L 20.596688298528363 29.228401139867078 Z M 0.0 42.99994750656168 L 17.432762589342012 36.82907186112692 L 17.432762589342012 49.170823151996444 Z M 12.651830888500047 73.40250298434917 L 20.596688298528363 56.77149387325628 L 29.36399054342063 65.49831274854657 Z M 43.19942257217848 85.99989501312336 L 36.999920477278906 68.64762890392714 L 49.398924667078056 68.64762890392714 Z M 73.74301430932245 73.40250298434917 L 57.03485460093632 65.49831274854657 L 65.80215684582859 56.77149387325628 Z M 21.59971128608924 42.99994750656168 A 21.59971128608924 21.49997375328084 0 1 1 21.59971128608924 42.99994750656169 Z" fill="#bdd7ee" stroke="#41719c" stroke-width="3" transform="matrix(1.0,0.0,0.0,1.0,374.8033595800525,166.14551181102362)"/>
  </svg>
  <svg id="static_4">
    <defs/>
    <path class="non-scaling-stroke" d="M 86.39884514435695 42.99994750656168 L 68.96608255501495 49.170823151996444 L 68.96608255501495 36.82907186112692 Z M 73.74301430932245 12.593410552153204 L 65.80215684582859 29.228401139867078 L 57.03485460093632 20.501582264576797 Z M 43.19942257217848 0.0 L 49.398924667078056 17.35226610919622 L 36.999920477278906 17.35226610919622 Z M 12.651830888500047 12.593410552153204 L 29.36399054342063 20.501582264576797 L 20.596688298528363 29.228401139867078 Z M 0.0 42.99994750656168 L 17.432762589342012 36.82907186112692 L 17.432762589342012 49.170823151996444 Z M 12.651830888500047 73.40250298434917 L 20.596688298528363 56.77149387325628 L 29.36399054342063 65.49831274854657 Z M 43.19942257217848 85.99989501312336 L 36.999920477278906 68.64762890392714 L 49.398924667078056 68.64762890392714 Z M 73.74301430932245 73.40250298434917 L 57.03485460093632 65.49831274854657 L 65.80215684582859 56.77149387325628 Z M 21.59971128608924 42.99994750656168 A 21.59971128608924 21.49997375328084 0 1 1 21.59971128608924 42.99994750656169 Z" fill="#bdd7ee" stroke="#41719c" stroke-width="3" transform="matrix(1.0,0.0,0.0,1.0,586.5801574803149,166.14551181102362)"/>
  </svg>
  <svg id="static_5">
    <defs/>
    <path class="non-scaling-stroke" d="M 85.57732283464567 42.99994750656168 L 68.31031944455124 49.170823151996444 L 68.31031944455124 36.82907186112692 Z M 73.04182980460776 12.593410552153204 L 65.17647788234652 29.228401139867078 L 56.4925394182794 20.501582264576797 Z M 42.788661417322835 0.0 L 48.92921562615342 17.35226610919622 L 36.64810720849225 17.35226610919622 Z M 12.531531116943714 12.593410552153204 L 29.08478341636626 20.501582264576797 L 20.400844952299153 29.228401139867078 Z M 0.0 42.99994750656168 L 17.267003390094427 36.82907186112692 L 17.267003390094427 49.170823151996444 Z M 12.531531116943714 73.40250298434917 L 20.400844952299153 56.77149387325628 L 29.08478341636626 65.49831274854657 Z M 42.788661417322835 85.99989501312336 L 36.64810720849225 68.64762890392714 L 48.92921562615342 68.64762890392714 Z M 73.04182980460776 73.40250298434917 L 56.4925394182794 65.49831274854657 L 65.17647788234652 56.77149387325628 Z M 21.394330708661418 42.99994750656168 A 21.394330708661418 21.49997375328084 0 1 1 21.394330708661418 42.99994750656169 Z" fill="#bdd7ee" stroke="#41719c" stroke-width="3" transform="matrix(1.0,0.0,0.0,1.0,798.2323359580053,166.145406824147)"/>
  </svg>
  <svg id="static_6">
    <defs/>
    <path class="non-scaling-stroke" d="M 85.57732283464567 42.99994750656168 L 68.31031944455124 49.170823151996444 L 68.31031944455124 36.82907186112692 Z M 73.04182980460776 12.593410552153204 L 65.17647788234652 29.228401139867078 L 56.4925394182794 20.501582264576797 Z M 42.788661417322835 0.0 L 48.92921562615342 17.35226610919622 L 36.64810720849225 17.35226610919622 Z M 12.531531116943714 12.593410552153204 L 29.08478341636626 20.501582264576797 L 20.400844952299153 29.228401139867078 Z M 0.0 42.99994750656168 L 17.267003390094427 36.82907186112692 L 17.267003390094427 49.170823151996444 Z M 12.531531116943714 73.40250298434917 L 20.400844952299153 56.77149387325628 L 29.08478341636626 65.49831274854657 Z M 42.788661417322835 85.99989501312336 L 36.64810720849225 68.64762890392714 L 48.92921562615342 68.64762890392714 Z M 73.04182980460776 73.40250298434917 L 56.4925394182794 65.49831274854657 L 65.17647788234652 56.77149387325628 Z M 21.394330708661418 42.99994750656168 A 21.394330708661418 21.49997375328084 0 1 1 21.394330708661418 42.99994750656169 Z" fill="#bdd7ee" stroke="#41719c" stroke-width="3" transform="matrix(1.0,0.0,0.0,1.0,889.0209973753281,166.145406824147)"/>
  </svg>
  <svg id="static_7">
    <defs/>
    <path class="non-scaling-stroke" d="M 15.0 147.0 L 14.0 38.0 L 0.0 39.0 L 15.0 0.0 L 31.0 38.0 L 10.0 37.0" fill="#ffffff" stroke="#5b9bd5" stroke-width="3" transform="matrix(0.5444440967624223,-0.8387971301217894,0.8387971301217894,0.5444440967624223,650.584120612084,639.966709155506)"/>
  </svg>
  <svg id="static_8">
    <defs/>
    <path class="non-scaling-stroke" d="M 86.39884514435695 42.99994750656168 L 68.96608255501495 49.170823151996444 L 68.96608255501495 36.82907186112692 Z M 73.74301430932245 12.593410552153204 L 65.80215684582859 29.228401139867078 L 57.03485460093632 20.501582264576797 Z M 43.19942257217848 0.0 L 49.398924667078056 17.35226610919622 L 36.999920477278906 17.35226610919622 Z M 12.651830888500047 12.593410552153204 L 29.36399054342063 20.501582264576797 L 20.596688298528363 29.228401139867078 Z M 0.0 42.99994750656168 L 17.432762589342012 36.82907186112692 L 17.432762589342012 49.170823151996444 Z M 12.651830888500047 73.40250298434917 L 20.596688298528363 56.77149387325628 L 29.36399054342063 65.49831274854657 Z M 43.19942257217848 85.99989501312336 L 36.999920477278906 68.64762890392714 L 49.398924667078056 68.64762890392714 Z M 73.74301430932245 73.40250298434917 L 57.03485460093632 65.49831274854657 L 65.80215684582859 56.77149387325628 Z M 21.59971128608924 42.99994750656168 A 21.59971128608924 21.49997375328084 0 1 1 21.59971128608924 42.99994750656169 Z" fill="#bdd7ee" stroke="#41719c" stroke-width="3" transform="matrix(1.0,0.0,0.0,1.0,330.7041469816273,344.04482939632544)"/>
  </svg>
  <svg id="static_9">
    <defs/>
    <path class="non-scaling-stroke" d="M 85.57732283464567 42.99994750656168 L 68.31031944455124 49.170823151996444 L 68.31031944455124 36.82907186112692 Z M 73.04182980460776 12.593410552153204 L 65.17647788234652 29.228401139867078 L 56.4925394182794 20.501582264576797 Z M 42.788661417322835 0.0 L 48.92921562615342 17.35226610919622 L 36.64810720849225 17.35226610919622 Z M 12.531531116943714 12.593410552153204 L 29.08478341636626 20.501582264576797 L 20.400844952299153 29.228401139867078 Z M 0.0 42.99994750656168 L 17.267003390094427 36.82907186112692 L 17.267003390094427 49.170823151996444 Z M 12.531531116943714 73.40250298434917 L 20.400844952299153 56.77149387325628 L 29.08478341636626 65.49831274854657 Z M 42.788661417322835 85.99989501312336 L 36.64810720849225 68.64762890392714 L 48.92921562615342 68.64762890392714 Z M 73.04182980460776 73.40250298434917 L 56.4925394182794 65.49831274854657 L 65.17647788234652 56.77149387325628 Z M 21.394330708661418 42.99994750656168 A 21.394330708661418 21.49997375328084 0 1 1 21.394330708661418 42.99994750656169 Z" fill="#bdd7ee" stroke="#41719c" stroke-width="3" transform="matrix(1.0,0.0,0.0,1.0,845.0419947506562,251.0)"/>
  </svg>
  <svg id="dynamic">
    <defs/>
    <path class="non-scaling-stroke" d="M 86.39884514435695 42.99994750656168 L 68.96608255501495 49.170823151996444 L 68.96608255501495 36.82907186112692 Z M 73.74301430932245 12.593410552153204 L 65.80215684582859 29.228401139867078 L 57.03485460093632 20.501582264576797 Z M 43.19942257217848 0.0 L 49.398924667078056 17.35226610919622 L 36.999920477278906 17.35226610919622 Z M 12.651830888500047 12.593410552153204 L 29.36399054342063 20.501582264576797 L 20.596688298528363 29.228401139867078 Z M 0.0 42.99994750656168 L 17.432762589342012 36.82907186112692 L 17.432762589342012 49.170823151996444 Z M 12.651830888500047 73.40250298434917 L 20.596688298528363 56.77149387325628 L 29.36399054342063 65.49831274854657 Z M 43.19942257217848 85.99989501312336 L 36.999920477278906 68.64762890392714 L 49.398924667078056 68.64762890392714 Z M 73.74301430932245 73.40250298434917 L 57.03485460093632 65.49831274854657 L 65.80215684582859 56.77149387325628 Z M 21.59971128608924 42.99994750656168 A 21.59971128608924 21.49997375328084 0 1 1 21.59971128608924 42.99994750656169 Z" fill="#bdd7ee" stroke="#41719c" stroke-width="3" transform="matrix(1.0,0.0,0.0,1.0,581.7901312335958,539.0447244094488)"/>
    <animate attributeName="opacity" dur="1s" repeatCount="3" values="1;0;1"/>
  </svg>
</svg>
