<?xml version="1.0" encoding="utf-8" ?>
<svg baseProfile="full" height="720.0" version="1.1" width="1280.0" xmlns="http://www.w3.org/2000/svg" xmlns:ev="http://www.w3.org/2001/xml-events" xmlns:xlink="http://www.w3.org/1999/xlink">
  <defs>
    <style type="text/css">
<![CDATA[.non-scaling-stroke { vector-effect: non-scaling-stroke; }]]>    </style>
  </defs>
  <svg id="static_1">
    <defs/>
    <path class="non-scaling-stroke" d="M 0.0 0.0 L 62.09511811023622 0.0 L 62.09511811023622 59.42855643044619 L 0.0 59.42855643044619 Z" fill="#ff3300" stroke="#ff3300" stroke-width="3" transform="matrix(1.0,0.0,0.0,1.0,951.8571128608924,194.28577427821523)"/>
  </svg>
  <svg id="static_2">
    <defs/>
    <path class="non-scaling-stroke" d="M 0.0 0.0 L 62.09511811023622 0.0 L 62.09511811023622 59.42855643044619 L 0.0 59.42855643044619 Z" fill="#ff3300" stroke="#ff3300" stroke-width="3" transform="matrix(1.0,0.0,0.0,1.0,867.8089238845145,194.28577427821523)"/>
  </svg>
  <svg id="static_3">
    <defs/>
    <path class="non-scaling-stroke" d="M 0.0 0.0 L 62.09511811023622 0.0 L 62.09511811023622 59.42855643044619 L 0.0 59.42855643044619 Z" fill="#ff3300" stroke="#ff3300" stroke-width="3" transform="matrix(1.0,0.0,0.0,1.0,783.7607349081364,193.14278215223098)"/>
  </svg>
  <svg id="static_4">
    <defs/>
    <path class="non-scaling-stroke" d="M 0.0 30.857165354330707 A 30.1903937007874 30.857165354330707 0 0 1 30.190393700787396 -6.111040515849597e-15 A 30.1903937007874 30.857165354330707 0 0 1 60.3807874015748 30.857165354330697 A 30.1903937007874 30.857165354330707 0 0 1 30.1903937007874 61.71433070866141 A 30.1903937007874 30.857165354330707 0 0 1 0.0 30.857165354330704 Z" fill="#ffc000" stroke="#ffd966" stroke-width="3" transform="matrix(1.0,0.0,0.0,1.0,294.1892913385827,193.14267716535434)"/>
  </svg>
  <svg id="static_5">
    <defs/>
    <path class="non-scaling-stroke" d="M 0.0 30.857165354330707 A 30.1903937007874 30.857165354330707 0 0 1 30.190393700787396 -6.111040515849597e-15 A 30.1903937007874 30.857165354330707 0 0 1 60.3807874015748 30.857165354330697 A 30.1903937007874 30.857165354330707 0 0 1 30.1903937007874 61.71433070866141 A 30.1903937007874 30.857165354330707 0 0 1 0.0 30.857165354330704 Z" fill="#ffc000" stroke="#ffd966" stroke-width="3" transform="matrix(1.0,0.0,0.0,1.0,376.5231496062992,194.28577427821523)"/>
  </svg>
  <svg id="static_6">
    <defs/>
    <path class="non-scaling-stroke" d="M 0.0 30.857165354330707 A 30.1903937007874 30.857165354330707 0 0 1 30.190393700787396 -6.111040515849597e-15 A 30.1903937007874 30.857165354330707 0 0 1 60.3807874015748 30.857165354330697 A 30.1903937007874 30.857165354330707 0 0 1 30.1903937007874 61.71433070866141 A 30.1903937007874 30.857165354330707 0 0 1 0.0 30.857165354330704 Z" fill="#ffc000" stroke="#ffd966" stroke-width="3" transform="matrix(1.0,0.0,0.0,1.0,211.85543307086616,194.28577427821523)"/>
  </svg>
  <svg id="dynamic">
    <defs/>
    <path class="non-scaling-stroke" d="M 0.0 0.0 L 62.09511811023622 0.0 L 62.09511811023622 59.42855643044619 L 0.0 59.42855643044619 Z" fill="#ffc000" stroke="#ffd966" stroke-width="3" transform="matrix(1.0,0.0,0.0,1.0,608.9524409448819,510.4761154855643)"/>
    <animate attributeName="opacity" dur="1s" repeatCount="3" values="1;0;1"/>
  </svg>
</svg>
