<?xml version="1.0" encoding="utf-8" ?>
<svg baseProfile="full" height="720.0" version="1.1" width="1280.0" xmlns="http://www.w3.org/2000/svg" xmlns:ev="http://www.w3.org/2001/xml-events" xmlns:xlink="http://www.w3.org/1999/xlink">
  <defs>
    <style type="text/css">
<![CDATA[.non-scaling-stroke { vector-effect: non-scaling-stroke; }]]>    </style>
  </defs>
  <svg id="static_1">
    <defs/>
    <path class="non-scaling-stroke" d="M 84.12367454068242 40.08246719160105 L 67.14997490429816 45.834658413784396 L 67.14997490429816 34.330275969417706 Z M 71.80111406629727 11.73896701176242 L 64.06936594261836 27.245299068630302 L 55.53293609315894 19.11058143432412 Z M 42.06183727034121 0.0 L 48.09808573725343 16.17494153721126 L 36.02558880342899 16.17494153721126 Z M 12.318665859823078 11.73896701176242 L 28.590738447523478 19.11058143432412 L 20.054308598064047 27.245299068630302 Z M 0.0 40.08246719160105 L 16.973699636384257 34.330275969417706 L 16.973699636384257 45.834658413784396 Z M 12.318665859823078 68.42225603188491 L 20.054308598064047 52.9196353145718 L 28.590738447523478 61.05435294887798 Z M 42.06183727034121 80.1649343832021 L 36.02558880342899 63.98999284599084 L 48.09808573725343 63.98999284599084 Z M 71.80111406629727 68.42225603188491 L 55.53293609315894 61.05435294887798 L 64.06936594261836 52.9196353145718 Z M 21.030918635170604 40.08246719160105 A 21.030918635170604 20.041233595800524 0 1 1 21.030918635170604 40.082467191601054 Z" fill="#5b9bd5" stroke="#41719c" stroke-width="3" transform="matrix(1.0,0.0,0.0,1.0,349.3608398950131,327.5876115485564)"/>
  </svg>
  <svg id="static_2">
    <defs/>
    <path class="non-scaling-stroke" d="M 84.12367454068242 40.08246719160105 L 67.14997490429816 45.834658413784396 L 67.14997490429816 34.330275969417706 Z M 71.80111406629727 11.73896701176242 L 64.06936594261836 27.245299068630302 L 55.53293609315894 19.11058143432412 Z M 42.06183727034121 0.0 L 48.09808573725343 16.17494153721126 L 36.02558880342899 16.17494153721126 Z M 12.318665859823078 11.73896701176242 L 28.590738447523478 19.11058143432412 L 20.054308598064047 27.245299068630302 Z M 0.0 40.08246719160105 L 16.973699636384257 34.330275969417706 L 16.973699636384257 45.834658413784396 Z M 12.318665859823078 68.42225603188491 L 20.054308598064047 52.9196353145718 L 28.590738447523478 61.05435294887798 Z M 42.06183727034121 80.1649343832021 L 36.02558880342899 63.98999284599084 L 48.09808573725343 63.98999284599084 Z M 71.80111406629727 68.42225603188491 L 55.53293609315894 61.05435294887798 L 64.06936594261836 52.9196353145718 Z M 21.030918635170604 40.08246719160105 A 21.030918635170604 20.041233595800524 0 1 1 21.030918635170604 40.082467191601054 Z" fill="#5b9bd5" stroke="#41719c" stroke-width="3" transform="matrix(1.0,0.0,0.0,1.0,437.0308661417323,231.95622047244095)"/>
  </svg>
  <svg id="static_3">
    <defs/>
    <path class="non-scaling-stroke" d="M 84.12367454068242 40.08246719160105 L 67.14997490429816 45.834658413784396 L 67.14997490429816 34.330275969417706 Z M 71.80111406629727 11.73896701176242 L 64.06936594261836 27.245299068630302 L 55.53293609315894 19.11058143432412 Z M 42.06183727034121 0.0 L 48.09808573725343 16.17494153721126 L 36.02558880342899 16.17494153721126 Z M 12.318665859823078 11.73896701176242 L 28.590738447523478 19.11058143432412 L 20.054308598064047 27.245299068630302 Z M 0.0 40.08246719160105 L 16.973699636384257 34.330275969417706 L 16.973699636384257 45.834658413784396 Z M 12.318665859823078 68.42225603188491 L 20.054308598064047 52.9196353145718 L 28.590738447523478 61.05435294887798 Z M 42.06183727034121 80.1649343832021 L 36.02558880342899 63.98999284599084 L 48.09808573725343 63.98999284599084 Z M 71.80111406629727 68.42225603188491 L 55.53293609315894 61.05435294887798 L 64.06936594261836 52.9196353145718 Z M 21.030918635170604 40.08246719160105 A 21.030918635170604 20.041233595800524 0 1 1 21.030918635170604 40.082467191601054 Z" fill="#5b9bd5" stroke="#41719c" stroke-width="3" transform="matrix(1.0,0.0,0.0,1.0,433.48451443569553,407.87884514435694)"/>
  </svg>
  <svg id="static_4">
    <defs/>
    <path class="non-scaling-stroke" d="M 84.12367454068242 40.08246719160105 L 67.14997490429816 45.834658413784396 L 67.14997490429816 34.330275969417706 Z M 71.80111406629727 11.73896701176242 L 64.06936594261836 27.245299068630302 L 55.53293609315894 19.11058143432412 Z M 42.06183727034121 0.0 L 48.09808573725343 16.17494153721126 L 36.02558880342899 16.17494153721126 Z M 12.318665859823078 11.73896701176242 L 28.590738447523478 19.11058143432412 L 20.054308598064047 27.245299068630302 Z M 0.0 40.08246719160105 L 16.973699636384257 34.330275969417706 L 16.973699636384257 45.834658413784396 Z M 12.318665859823078 68.42225603188491 L 20.054308598064047 52.9196353145718 L 28.590738447523478 61.05435294887798 Z M 42.06183727034121 80.1649343832021 L 36.02558880342899 63.98999284599084 L 48.09808573725343 63.98999284599084 Z M 71.80111406629727 68.42225603188491 L 55.53293609315894 61.05435294887798 L 64.06936594261836 52.9196353145718 Z M 21.030918635170604 40.08246719160105 A 21.030918635170604 20.041233595800524 0 1 1 21.030918635170604 40.082467191601054 Z" fill="#5b9bd5" stroke="#41719c" stroke-width="3" transform="matrix(1.0,0.0,0.0,1.0,524.7011023622048,476.20608923884515)"/>
  </svg>
  <svg id="dynamic">
    <defs/>
    <path class="non-scaling-stroke" d="M 84.12367454068242 40.08246719160105 L 67.14997490429816 45.834658413784396 L 67.14997490429816 34.330275969417706 Z M 71.80111406629727 11.73896701176242 L 64.06936594261836 27.245299068630302 L 55.53293609315894 19.11058143432412 Z M 42.06183727034121 0.0 L 48.09808573725343 16.17494153721126 L 36.02558880342899 16.17494153721126 Z M 12.318665859823078 11.73896701176242 L 28.590738447523478 19.11058143432412 L 20.054308598064047 27.245299068630302 Z M 0.0 40.08246719160105 L 16.973699636384257 34.330275969417706 L 16.973699636384257 45.834658413784396 Z M 12.318665859823078 68.42225603188491 L 20.054308598064047 52.9196353145718 L 28.590738447523478 61.05435294887798 Z M 42.06183727034121 80.1649343832021 L 36.02558880342899 63.98999284599084 L 48.09808573725343 63.98999284599084 Z M 71.80111406629727 68.42225603188491 L 55.53293609315894 61.05435294887798 L 64.06936594261836 52.9196353145718 Z M 21.030918635170604 40.08246719160105 A 21.030918635170604 20.041233595800524 0 1 1 21.030918635170604 40.082467191601054 Z" fill="#5b9bd5" stroke="#41719c" stroke-width="3" transform="matrix(1.0,0.0,0.0,1.0,1069.3609448818897,339.9184251968504)"/>
    <animate attributeName="opacity" dur="1s" repeatCount="3" values="1;0;1"/>
  </svg>
</svg>
