<?xml version="1.0" encoding="utf-8" ?>
<svg baseProfile="full" height="720.0" version="1.1" width="1280.0" xmlns="http://www.w3.org/2000/svg" xmlns:ev="http://www.w3.org/2001/xml-events" xmlns:xlink="http://www.w3.org/1999/xlink">
  <defs>
    <style type="text/css">
<![CDATA[.non-scaling-stroke { vector-effect: non-scaling-stroke; }]]>    </style>
  </defs>
  <svg id="static_1">
    <defs/>
    <path class="non-scaling-stroke" d="M 0.0 255.3402624671916 L 134.1030971128609 0.0 L 268.2061942257218 255.3402624671916 Z" fill="#000000" stroke="#000000" stroke-width="3" transform="matrix(-1.0,1.2246467991473532e-16,-1.2246467991473532e-16,-1.0,368.3077165354331,359.9998950131233)"/>
  </svg>
  <svg id="static_2">
    <defs/>
    <path class="non-scaling-stroke" d="M 0.0 104.65984251968504 L 59.216430446194224 0.0 L 118.43286089238845 104.65984251968504 Z" fill="#ffffff" stroke="#ffffff" stroke-width="3" transform="matrix(-1.0,1.2246467991473532e-16,-1.2246467991473532e-16,-1.0,292.76104986876635,360.9997900262467)"/>
  </svg>
  <svg id="static_3">
    <defs/>
    <path class="non-scaling-stroke" d="M 0.0 255.3402624671916 L 134.1030971128609 0.0 L 268.2061942257218 255.3402624671916 Z" fill="#000000" stroke="#000000" stroke-width="3" transform="matrix(-1.0,1.2246467991473532e-16,-1.2246467991473532e-16,-1.0,1179.2384251968501,359.9998950131233)"/>
  </svg>
  <svg id="static_4">
    <defs/>
    <path class="non-scaling-stroke" d="M 0.0 104.65984251968504 L 59.216430446194224 0.0 L 118.43286089238845 104.65984251968504 Z" fill="#ffffff" stroke="#ffffff" stroke-width="3" transform="matrix(-1.0,1.2246467991473532e-16,-1.2246467991473532e-16,-1.0,1104.3518110236223,360.99989501312336)"/>
  </svg>
  <svg id="static_5">
    <defs/>
    <path class="non-scaling-stroke" d="M 0.0 104.65984251968504 L 59.216430446194224 0.0 L 118.43286089238845 104.65984251968504 Z" fill="#ffffff" stroke="#ffffff" stroke-width="3" transform="matrix(-1.0,1.2246467991473532e-16,-1.2246467991473532e-16,-1.0,1094.6439895013123,232.32976377952758)"/>
  </svg>
  <svg id="dynamic">
    <defs/>
    <path class="non-scaling-stroke" d="M 0.0 104.65984251968504 L 59.216430446194224 0.0 L 118.43286089238845 104.65984251968504 Z" fill="#000000" stroke="#000000" stroke-width="3" transform="matrix(-1.0,1.2246467991473532e-16,-1.2246467991473532e-16,-1.0,292.76104986876635,487.2903937007873)"/>
    <animate attributeName="opacity" dur="1s" repeatCount="3" values="1;0;1"/>
  </svg>
</svg>
