<?xml version="1.0" encoding="utf-8" ?>
<svg baseProfile="full" height="720.0" version="1.1" width="1280.0" xmlns="http://www.w3.org/2000/svg" xmlns:ev="http://www.w3.org/2001/xml-events" xmlns:xlink="http://www.w3.org/1999/xlink">
  <defs>
    <style type="text/css">
<![CDATA[.non-scaling-stroke { vector-effect: non-scaling-stroke; }]]>    </style>
  </defs>
  <svg id="static_1">
    <defs/>
    <path class="non-scaling-stroke" d="M 0.0 0.0 L 408.2263517060367 0.0 L 408.2263517060367 231.7330183727034 L 0.0 231.7330183727034 Z" fill="#a35fd1" stroke="#ffffff" stroke-width="3" transform="matrix(1.0,0.0,0.0,1.0,817.06687664042,52.94215223097113)"/>
  </svg>
  <svg id="static_2">
    <defs/>
    <path class="non-scaling-stroke" d="M 0.0 96.0 L 0.0 0.0 L 96.0 96.0 Z" fill="#ffffff" stroke="#ffffff" stroke-width="3" transform="matrix(-0.7128766243047461,0.7012894684221844,-0.7012894684221844,-0.7128766243047461,1092.749368776352,286.0741887317068)"/>
  </svg>
  <svg id="static_3">
    <defs/>
    <path class="non-scaling-stroke" d="M 0.0 0.0 L 408.2263517060367 0.0 L 408.2263517060367 231.7330183727034 L 0.0 231.7330183727034 Z" fill="#a35fd1" stroke="#ffffff" stroke-width="3" transform="matrix(1.0,0.0,0.0,1.0,60.9792125984252,52.94215223097113)"/>
  </svg>
  <svg id="static_4">
    <defs/>
    <path class="non-scaling-stroke" d="M 0.0 96.0 L 0.0 0.0 L 96.0 96.0 Z" fill="#ffffff" stroke="#ffffff" stroke-width="3" transform="matrix(-0.7128766243047461,0.7012894684221844,-0.7012894684221844,-0.7128766243047461,439.7598674640161,247.18788951910832)"/>
  </svg>
  <svg id="static_5">
    <defs/>
    <path class="non-scaling-stroke" d="M 0.0 96.0 L 0.0 0.0 L 96.0 96.0 Z" fill="#ffffff" stroke="#ffffff" stroke-width="3" transform="matrix(-0.7128766243047461,0.7012894684221844,-0.7012894684221844,-0.7128766243047461,255.99986746401603,164.225369834069)"/>
  </svg>
  <svg id="dynamic">
    <defs/>
    <path class="non-scaling-stroke" d="M 0.0 96.0 L 0.0 0.0 L 96.0 96.0 Z" fill="#a35fd1" stroke="#41719c" stroke-width="3" transform="matrix(-0.7189149191094579,0.6950980787499282,-0.6950980787499282,-0.7189149191094579,305.08406746680436,420.41386450523635)"/>
    <animate attributeName="opacity" dur="1s" repeatCount="3" values="1;0;1"/>
  </svg>
</svg>
