<?xml version="1.0" encoding="utf-8" ?>
<svg baseProfile="full" height="720.0" version="1.1" width="1280.0" xmlns="http://www.w3.org/2000/svg" xmlns:ev="http://www.w3.org/2001/xml-events" xmlns:xlink="http://www.w3.org/1999/xlink">
  <defs>
    <style type="text/css">
<![CDATA[.non-scaling-stroke { vector-effect: non-scaling-stroke; }]]>    </style>
  </defs>
  <svg id="static_1">
    <defs/>
    <path class="non-scaling-stroke" d="M 1.612146025073771e-05 17.06215223097113 L 23.05104471399244 17.061864661055957 L 34.57685039370079 0.0 L 46.102656073409136 17.061864661055957 L 69.15368466594131 17.06215223097113 L 57.62846175311748 34.12430446194226 L 69.15368466594131 51.18645669291339 L 46.102656073409136 51.186744262828554 L 34.57685039370079 68.24860892388452 L 23.05104471399244 51.186744262828554 L 1.612146025073771e-05 51.18645669291339 L 11.525239034284091 34.12430446194226 Z" fill="#ef41ce" stroke="#41719c" stroke-width="3" transform="matrix(1.0,0.0,0.0,1.0,699.6572178477691,266.87569553805776)"/>
  </svg>
  <svg id="static_2">
    <defs/>
    <path class="non-scaling-stroke" d="M 1.612146025073771e-05 17.06215223097113 L 23.05104471399244 17.061864661055957 L 34.57685039370079 0.0 L 46.102656073409136 17.061864661055957 L 69.15368466594131 17.06215223097113 L 57.62846175311748 34.12430446194226 L 69.15368466594131 51.18645669291339 L 46.102656073409136 51.186744262828554 L 34.57685039370079 68.24860892388452 L 23.05104471399244 51.186744262828554 L 1.612146025073771e-05 51.18645669291339 L 11.525239034284091 34.12430446194226 Z" fill="#ef41ce" stroke="#41719c" stroke-width="3" transform="matrix(1.0,0.0,0.0,1.0,812.5980052493438,266.87569553805776)"/>
  </svg>
  <svg id="static_3">
    <defs/>
    <path class="non-scaling-stroke" d="M 1.612146025073771e-05 17.06215223097113 L 23.05104471399244 17.061864661055957 L 34.57685039370079 0.0 L 46.102656073409136 17.061864661055957 L 69.15368466594131 17.06215223097113 L 57.62846175311748 34.12430446194226 L 69.15368466594131 51.18645669291339 L 46.102656073409136 51.186744262828554 L 34.57685039370079 68.24860892388452 L 23.05104471399244 51.186744262828554 L 1.612146025073771e-05 51.18645669291339 L 11.525239034284091 34.12430446194226 Z" fill="#ef41ce" stroke="#41719c" stroke-width="3" transform="matrix(1.0,0.0,0.0,1.0,755.6572178477691,346.0697112860892)"/>
  </svg>
  <svg id="static_4">
    <defs/>
    <path class="non-scaling-stroke" d="M 1.612146025073771e-05 17.06215223097113 L 23.05104471399244 17.061864661055957 L 34.57685039370079 0.0 L 46.102656073409136 17.061864661055957 L 69.15368466594131 17.06215223097113 L 57.62846175311748 34.12430446194226 L 69.15368466594131 51.18645669291339 L 46.102656073409136 51.186744262828554 L 34.57685039370079 68.24860892388452 L 23.05104471399244 51.186744262828554 L 1.612146025073771e-05 51.18645669291339 L 11.525239034284091 34.12430446194226 Z" fill="#bdd7ee" stroke="#41719c" stroke-width="3" transform="matrix(1.0,0.0,0.0,1.0,414.7045669291339,266.87569553805776)"/>
  </svg>
  <svg id="static_5">
    <defs/>
    <path class="non-scaling-stroke" d="M 1.612146025073771e-05 17.06215223097113 L 23.05104471399244 17.061864661055957 L 34.57685039370079 0.0 L 46.102656073409136 17.061864661055957 L 69.15368466594131 17.06215223097113 L 57.62846175311748 34.12430446194226 L 69.15368466594131 51.18645669291339 L 46.102656073409136 51.186744262828554 L 34.57685039370079 68.24860892388452 L 23.05104471399244 51.186744262828554 L 1.612146025073771e-05 51.18645669291339 L 11.525239034284091 34.12430446194226 Z" fill="#bdd7ee" stroke="#41719c" stroke-width="3" transform="matrix(1.0,0.0,0.0,1.0,300.76377952755905,268.87569553805776)"/>
  </svg>
  <svg id="static_6">
    <defs/>
    <path class="non-scaling-stroke" d="M 1.612146025073771e-05 17.06215223097113 L 23.05104471399244 17.061864661055957 L 34.57685039370079 0.0 L 46.102656073409136 17.061864661055957 L 69.15368466594131 17.06215223097113 L 57.62846175311748 34.12430446194226 L 69.15368466594131 51.18645669291339 L 46.102656073409136 51.186744262828554 L 34.57685039370079 68.24860892388452 L 23.05104471399244 51.186744262828554 L 1.612146025073771e-05 51.18645669291339 L 11.525239034284091 34.12430446194226 Z" fill="#bdd7ee" stroke="#41719c" stroke-width="3" transform="matrix(1.0,0.0,0.0,1.0,363.27223097112864,343.87569553805776)"/>
  </svg>
  <svg id="static_7">
    <defs/>
    <path class="non-scaling-stroke" d="M 1.612146025073771e-05 17.06215223097113 L 23.05104471399244 17.061864661055957 L 34.57685039370079 0.0 L 46.102656073409136 17.061864661055957 L 69.15368466594131 17.06215223097113 L 57.62846175311748 34.12430446194226 L 69.15368466594131 51.18645669291339 L 46.102656073409136 51.186744262828554 L 34.57685039370079 68.24860892388452 L 23.05104471399244 51.186744262828554 L 1.612146025073771e-05 51.18645669291339 L 11.525239034284091 34.12430446194226 Z" fill="#bdd7ee" stroke="#41719c" stroke-width="3" transform="matrix(1.0,0.0,0.0,1.0,363.27212598425194,438.87569553805776)"/>
  </svg>
  <svg id="dynamic">
    <defs/>
    <path class="non-scaling-stroke" d="M 1.612146025073771e-05 17.06215223097113 L 23.05104471399244 17.061864661055957 L 34.57685039370079 0.0 L 46.102656073409136 17.061864661055957 L 69.15368466594131 17.06215223097113 L 57.62846175311748 34.12430446194226 L 69.15368466594131 51.18645669291339 L 46.102656073409136 51.186744262828554 L 34.57685039370079 68.24860892388452 L 23.05104471399244 51.186744262828554 L 1.612146025073771e-05 51.18645669291339 L 11.525239034284091 34.12430446194226 Z" fill="#bdd7ee" stroke="#41719c" stroke-width="3" transform="matrix(1.0,0.0,0.0,1.0,570.8462992125984,625.8756955380577)"/>
    <animate attributeName="opacity" dur="1s" repeatCount="3" values="1;0;1"/>
  </svg>
</svg>
