<?xml version="1.0" encoding="utf-8" ?>
<svg baseProfile="full" height="720.0" version="1.1" width="1280.0" xmlns="http://www.w3.org/2000/svg" xmlns:ev="http://www.w3.org/2001/xml-events" xmlns:xlink="http://www.w3.org/1999/xlink">
  <defs>
    <style type="text/css">
<![CDATA[.non-scaling-stroke { vector-effect: non-scaling-stroke; }]]>    </style>
  </defs>
  <svg id="static_1">
    <defs/>
    <path class="non-scaling-stroke" d="M 15.0 147.0 L 14.0 38.0 L 0.0 39.0 L 15.0 0.0 L 31.0 38.0 L 10.0 37.0" fill="#ffffff" stroke="#5b9bd5" stroke-width="3" transform="matrix(0.31176229431083746,0.9501601295813473,-0.9501601295813473,0.31176229431083746,186.8949001566367,604.8349972336582)"/>
  </svg>
  <svg id="static_2">
    <defs/>
    <path class="non-scaling-stroke" d="M 0.0 41.0 A 39.0 41.0 0 1 1 0.0 41.00000000000001 Z" fill="#ffffff" stroke="#5b9bd5" stroke-width="3" transform="matrix(1.0,0.0,0.0,1.0,187.55958005249343,229.37616797900262)"/>
    <path class="non-scaling-stroke" d="M 22.443055555555553 28.737962962962964 A 4.0625 4.270833333333333 0 1 1 22.443055555555553 28.737962962962964 M 47.43194444444444 28.737962962962964 A 4.0625 4.270833333333333 0 1 1 47.43194444444444 28.737962962962964" fill="#ffffff" stroke="#5b9bd5" stroke-width="3" transform="matrix(1.0,0.0,0.0,1.0,187.55958005249343,229.37616797900262)"/>
    <path class="non-scaling-stroke" d="M 17.86174478086548 58.88037333333333 Q 39.0 74.14221333333334 60.08888888888888 58.88037333333333" fill="#ffffff" stroke="#5b9bd5" stroke-width="3" transform="matrix(1.0,0.0,0.0,1.0,187.55958005249343,229.37616797900262)"/>
    <path class="non-scaling-stroke" d="M 0.0 41.0 A 39.0 41.0 0 1 1 0.0 41.00000000000001 Z" fill="#ffffff" stroke="#5b9bd5" stroke-width="3" transform="matrix(1.0,0.0,0.0,1.0,187.55958005249343,229.37616797900262)"/>
  </svg>
  <svg id="static_3">
    <defs/>
    <path class="non-scaling-stroke" d="M 0.0 41.0 A 39.0 41.0 0 1 1 0.0 41.00000000000001 Z" fill="#ffffff" stroke="#5b9bd5" stroke-width="3" transform="matrix(1.0,0.0,0.0,1.0,1075.5595800524934,242.20640419947506)"/>
    <path class="non-scaling-stroke" d="M 22.443055555555553 28.737962962962964 A 4.0625 4.270833333333333 0 1 1 22.443055555555553 28.737962962962964 M 47.43194444444444 28.737962962962964 A 4.0625 4.270833333333333 0 1 1 47.43194444444444 28.737962962962964" fill="#ffffff" stroke="#5b9bd5" stroke-width="3" transform="matrix(1.0,0.0,0.0,1.0,1075.5595800524934,242.20640419947506)"/>
    <path class="non-scaling-stroke" d="M 17.86174478086548 58.88037333333333 Q 39.0 74.14221333333334 60.08888888888888 58.88037333333333" fill="#ffffff" stroke="#5b9bd5" stroke-width="3" transform="matrix(1.0,0.0,0.0,1.0,1075.5595800524934,242.20640419947506)"/>
    <path class="non-scaling-stroke" d="M 0.0 41.0 A 39.0 41.0 0 1 1 0.0 41.00000000000001 Z" fill="#ffffff" stroke="#5b9bd5" stroke-width="3" transform="matrix(1.0,0.0,0.0,1.0,1075.5595800524934,242.20640419947506)"/>
  </svg>
  <svg id="dynamic">
    <defs/>
    <path class="non-scaling-stroke" d="M 0.0 41.0 A 39.0 41.0 0 1 1 0.0 41.00000000000001 Z" fill="#ffffff" stroke="#5b9bd5" stroke-width="3" transform="matrix(1.0,0.0,0.0,1.0,196.55958005249343,570.9174803149606)"/>
    <path class="non-scaling-stroke" d="M 22.443055555555553 28.737962962962964 A 4.0625 4.270833333333333 0 1 1 22.443055555555553 28.737962962962964 M 47.43194444444444 28.737962962962964 A 4.0625 4.270833333333333 0 1 1 47.43194444444444 28.737962962962964" fill="#ffffff" stroke="#5b9bd5" stroke-width="3" transform="matrix(1.0,0.0,0.0,1.0,196.55958005249343,570.9174803149606)"/>
    <path class="non-scaling-stroke" d="M 17.86174478086548 58.88037333333333 Q 39.0 74.14221333333334 60.08888888888888 58.88037333333333" fill="#ffffff" stroke="#5b9bd5" stroke-width="3" transform="matrix(1.0,0.0,0.0,1.0,196.55958005249343,570.9174803149606)"/>
    <path class="non-scaling-stroke" d="M 0.0 41.0 A 39.0 41.0 0 1 1 0.0 41.00000000000001 Z" fill="#ffffff" stroke="#5b9bd5" stroke-width="3" transform="matrix(1.0,0.0,0.0,1.0,196.55958005249343,570.9174803149606)"/>
    <animate attributeName="opacity" dur="1s" repeatCount="3" values="1;0;1"/>
  </svg>
</svg>
