<?xml version="1.0" encoding="utf-8" ?>
<svg baseProfile="full" height="720.0" version="1.1" width="1280.0" xmlns="http://www.w3.org/2000/svg" xmlns:ev="http://www.w3.org/2001/xml-events" xmlns:xlink="http://www.w3.org/1999/xlink">
  <defs>
    <style type="text/css">
<![CDATA[.non-scaling-stroke { vector-effect: non-scaling-stroke; }]]>    </style>
  </defs>
  <svg id="static_1">
    <defs/>
    <path class="non-scaling-stroke" d="M 0.0 102.68041994750656 A 102.92782152230971 102.68041994750656 0 0 1 102.92782152230969 -1.2222081031699194e-14 A 102.92782152230971 102.68041994750656 0 0 1 205.85564304461943 102.68041994750652 A 102.92782152230971 102.68041994750656 0 0 1 102.92782152230973 205.36083989501307 A 102.92782152230971 102.68041994750656 0 0 1 0.0 102.68041994750652 Z" fill="#5b9bd5" stroke="#41719c" stroke-width="3" transform="matrix(1.0,0.0,0.0,1.0,473.2784251968504,47.01028871391076)"/>
  </svg>
  <svg id="static_2">
    <defs/>
    <path class="non-scaling-stroke" d="M 0.0 102.68041994750656 A 102.92782152230971 102.68041994750656 0 0 1 102.92782152230969 -1.2222081031699194e-14 A 102.92782152230971 102.68041994750656 0 0 1 205.85564304461943 102.68041994750652 A 102.92782152230971 102.68041994750656 0 0 1 102.92782152230973 205.36083989501307 A 102.92782152230971 102.68041994750656 0 0 1 0.0 102.68041994750652 Z" fill="#5b9bd5" stroke="#41719c" stroke-width="3" transform="matrix(1.0,0.0,0.0,1.0,613.072125984252,47.01028871391076)"/>
  </svg>
  <svg id="static_3">
    <defs/>
    <path class="non-scaling-stroke" d="M 0.0 75.71133858267717 A 44.61853018372703 75.71133858267717 0 0 1 44.618530183727025 0.0 A 44.61853018372703 75.71133858267717 0 0 1 89.23706036745406 75.71133858267716 A 44.61853018372703 75.71133858267717 0 0 1 44.61853018372704 151.42267716535434 A 44.61853018372703 75.71133858267717 0 0 1 0.0 75.71133858267717 Z" fill="#ffffff" stroke="#5b9bd5" stroke-width="3" transform="matrix(1.0,0.0,0.0,1.0,603.0927034120735,73.97931758530184)"/>
  </svg>
  <svg id="static_4">
    <defs/>
    <path class="non-scaling-stroke" d="M 15.0 147.0 L 14.0 38.0 L 0.0 39.0 L 15.0 0.0 L 31.0 38.0 L 10.0 37.0" fill="#ffffff" stroke="#5b9bd5" stroke-width="3" transform="matrix(0.5062056171877518,0.862412820595547,-1.0472780849808752,0.6147149447626011,579.6889096599991,587.4716302685393)"/>
  </svg>
  <svg id="dynamic">
    <defs/>
    <path class="non-scaling-stroke" d="M 0.0 75.71133858267717 A 44.61853018372703 75.71133858267717 0 0 1 44.618530183727025 0.0 A 44.61853018372703 75.71133858267717 0 0 1 89.23706036745406 75.71133858267716 A 44.61853018372703 75.71133858267717 0 0 1 44.61853018372704 151.42267716535434 A 44.61853018372703 75.71133858267717 0 0 1 0.0 75.71133858267717 Z" fill="#5b9bd5" stroke="#41719c" stroke-width="3" transform="matrix(1.0,0.0,0.0,1.0,595.381312335958,518.7774278215223)"/>
    <animate attributeName="opacity" dur="1s" repeatCount="3" values="1;0;1"/>
  </svg>
</svg>
