<?xml version="1.0" encoding="utf-8" ?>
<svg baseProfile="full" height="720.0" version="1.1" width="1280.0" xmlns="http://www.w3.org/2000/svg" xmlns:ev="http://www.w3.org/2001/xml-events" xmlns:xlink="http://www.w3.org/1999/xlink">
  <defs>
    <style type="text/css">
<![CDATA[.non-scaling-stroke { vector-effect: non-scaling-stroke; }]]>    </style>
  </defs>
  <svg id="static_1">
    <defs/>
    <path class="non-scaling-stroke" d="M 0.0 27.428556430446193 A 26.746666666666666 27.428556430446193 0 0 1 26.74666666666666 -3.0555202579247984e-15 A 26.746666666666666 27.428556430446193 0 0 1 53.49333333333333 27.428556430446186 A 26.746666666666666 27.428556430446193 0 0 1 26.74666666666667 54.85711286089238 A 26.746666666666666 27.428556430446193 0 0 1 0.0 27.428556430446186 Z" fill="#ffffff" stroke="#5b9bd5" stroke-width="3" transform="matrix(1.0,0.0,0.0,1.0,415.71779527559056,261.5834120734908)"/>
    <path class="non-scaling-stroke" d="M 7.833917292530476 8.033638180319805 L 45.65941604080286 46.82347468057259 M 45.65941604080286 8.033638180319805 L 7.833917292530476 46.82347468057259" fill="#ffffff" stroke="#5b9bd5" stroke-width="3" transform="matrix(1.0,0.0,0.0,1.0,415.71779527559056,261.5834120734908)"/>
    <path class="non-scaling-stroke" d="M 0.0 27.428556430446193 A 26.746666666666666 27.428556430446193 0 0 1 26.74666666666666 -3.0555202579247984e-15 A 26.746666666666666 27.428556430446193 0 0 1 53.49333333333333 27.428556430446186 A 26.746666666666666 27.428556430446193 0 0 1 26.74666666666667 54.85711286089238 A 26.746666666666666 27.428556430446193 0 0 1 0.0 27.428556430446186 Z" fill="#ffffff" stroke="#5b9bd5" stroke-width="3" transform="matrix(1.0,0.0,0.0,1.0,415.71779527559056,261.5834120734908)"/>
  </svg>
  <svg id="static_2">
    <defs/>
    <path class="non-scaling-stroke" d="M 0.0 27.428556430446193 A 26.746666666666666 27.428556430446193 0 0 1 26.74666666666666 -3.0555202579247984e-15 A 26.746666666666666 27.428556430446193 0 0 1 53.49333333333333 27.428556430446186 A 26.746666666666666 27.428556430446193 0 0 1 26.74666666666667 54.85711286089238 A 26.746666666666666 27.428556430446193 0 0 1 0.0 27.428556430446186 Z" fill="#ffffff" stroke="#5b9bd5" stroke-width="3" transform="matrix(1.0,0.0,0.0,1.0,455.1390026246719,206.72629921259843)"/>
    <path class="non-scaling-stroke" d="M 7.833917292530476 8.033638180319805 L 45.65941604080286 46.82347468057259 M 45.65941604080286 8.033638180319805 L 7.833917292530476 46.82347468057259" fill="#ffffff" stroke="#5b9bd5" stroke-width="3" transform="matrix(1.0,0.0,0.0,1.0,455.1390026246719,206.72629921259843)"/>
    <path class="non-scaling-stroke" d="M 0.0 27.428556430446193 A 26.746666666666666 27.428556430446193 0 0 1 26.74666666666666 -3.0555202579247984e-15 A 26.746666666666666 27.428556430446193 0 0 1 53.49333333333333 27.428556430446186 A 26.746666666666666 27.428556430446193 0 0 1 26.74666666666667 54.85711286089238 A 26.746666666666666 27.428556430446193 0 0 1 0.0 27.428556430446186 Z" fill="#ffffff" stroke="#5b9bd5" stroke-width="3" transform="matrix(1.0,0.0,0.0,1.0,455.1390026246719,206.72629921259843)"/>
  </svg>
  <svg id="static_3">
    <defs/>
    <path class="non-scaling-stroke" d="M 0.0 27.428556430446193 A 26.746666666666666 27.428556430446193 0 0 1 26.74666666666666 -3.0555202579247984e-15 A 26.746666666666666 27.428556430446193 0 0 1 53.49333333333333 27.428556430446186 A 26.746666666666666 27.428556430446193 0 0 1 26.74666666666667 54.85711286089238 A 26.746666666666666 27.428556430446193 0 0 1 0.0 27.428556430446186 Z" fill="#ffffff" stroke="#5b9bd5" stroke-width="3" transform="matrix(1.0,0.0,0.0,1.0,484.05333333333334,153.63569553805775)"/>
    <path class="non-scaling-stroke" d="M 7.833917292530476 8.033638180319805 L 45.65941604080286 46.82347468057259 M 45.65941604080286 8.033638180319805 L 7.833917292530476 46.82347468057259" fill="#ffffff" stroke="#5b9bd5" stroke-width="3" transform="matrix(1.0,0.0,0.0,1.0,484.05333333333334,153.63569553805775)"/>
    <path class="non-scaling-stroke" d="M 0.0 27.428556430446193 A 26.746666666666666 27.428556430446193 0 0 1 26.74666666666666 -3.0555202579247984e-15 A 26.746666666666666 27.428556430446193 0 0 1 53.49333333333333 27.428556430446186 A 26.746666666666666 27.428556430446193 0 0 1 26.74666666666667 54.85711286089238 A 26.746666666666666 27.428556430446193 0 0 1 0.0 27.428556430446186 Z" fill="#ffffff" stroke="#5b9bd5" stroke-width="3" transform="matrix(1.0,0.0,0.0,1.0,484.05333333333334,153.63569553805775)"/>
  </svg>
  <svg id="static_4">
    <defs/>
    <path class="non-scaling-stroke" d="M 0.0 27.428556430446193 A 26.746666666666666 27.428556430446193 0 0 1 26.74666666666666 -3.0555202579247984e-15 A 26.746666666666666 27.428556430446193 0 0 1 53.49333333333333 27.428556430446186 A 26.746666666666666 27.428556430446193 0 0 1 26.74666666666667 54.85711286089238 A 26.746666666666666 27.428556430446193 0 0 1 0.0 27.428556430446186 Z" fill="#ffffff" stroke="#5b9bd5" stroke-width="3" transform="matrix(1.0,0.0,0.0,1.0,475.31412073490816,262.1520209973753)"/>
    <path class="non-scaling-stroke" d="M 7.833917292530476 8.033638180319805 L 45.65941604080286 46.82347468057259 M 45.65941604080286 8.033638180319805 L 7.833917292530476 46.82347468057259" fill="#ffffff" stroke="#5b9bd5" stroke-width="3" transform="matrix(1.0,0.0,0.0,1.0,475.31412073490816,262.1520209973753)"/>
    <path class="non-scaling-stroke" d="M 0.0 27.428556430446193 A 26.746666666666666 27.428556430446193 0 0 1 26.74666666666666 -3.0555202579247984e-15 A 26.746666666666666 27.428556430446193 0 0 1 53.49333333333333 27.428556430446186 A 26.746666666666666 27.428556430446193 0 0 1 26.74666666666667 54.85711286089238 A 26.746666666666666 27.428556430446193 0 0 1 0.0 27.428556430446186 Z" fill="#ffffff" stroke="#5b9bd5" stroke-width="3" transform="matrix(1.0,0.0,0.0,1.0,475.31412073490816,262.1520209973753)"/>
  </svg>
  <svg id="static_5">
    <defs/>
    <path class="non-scaling-stroke" d="M 0.0 27.428556430446193 A 26.746666666666666 27.428556430446193 0 0 1 26.74666666666666 -3.0555202579247984e-15 A 26.746666666666666 27.428556430446193 0 0 1 53.49333333333333 27.428556430446186 A 26.746666666666666 27.428556430446193 0 0 1 26.74666666666667 54.85711286089238 A 26.746666666666666 27.428556430446193 0 0 1 0.0 27.428556430446186 Z" fill="#ffffff" stroke="#5b9bd5" stroke-width="3" transform="matrix(1.0,0.0,0.0,1.0,512.9675590551182,207.88115485564305)"/>
    <path class="non-scaling-stroke" d="M 7.833917292530476 8.033638180319805 L 45.65941604080286 46.82347468057259 M 45.65941604080286 8.033638180319805 L 7.833917292530476 46.82347468057259" fill="#ffffff" stroke="#5b9bd5" stroke-width="3" transform="matrix(1.0,0.0,0.0,1.0,512.9675590551182,207.88115485564305)"/>
    <path class="non-scaling-stroke" d="M 0.0 27.428556430446193 A 26.746666666666666 27.428556430446193 0 0 1 26.74666666666666 -3.0555202579247984e-15 A 26.746666666666666 27.428556430446193 0 0 1 53.49333333333333 27.428556430446186 A 26.746666666666666 27.428556430446193 0 0 1 26.74666666666667 54.85711286089238 A 26.746666666666666 27.428556430446193 0 0 1 0.0 27.428556430446186 Z" fill="#ffffff" stroke="#5b9bd5" stroke-width="3" transform="matrix(1.0,0.0,0.0,1.0,512.9675590551182,207.88115485564305)"/>
  </svg>
  <svg id="dynamic">
    <defs/>
    <path class="non-scaling-stroke" d="M 0.0 27.428556430446193 A 26.746666666666666 27.428556430446193 0 0 1 26.74666666666666 -3.0555202579247984e-15 A 26.746666666666666 27.428556430446193 0 0 1 53.49333333333333 27.428556430446186 A 26.746666666666666 27.428556430446193 0 0 1 26.74666666666667 54.85711286089238 A 26.746666666666666 27.428556430446193 0 0 1 0.0 27.428556430446186 Z" fill="#ffffff" stroke="#5b9bd5" stroke-width="3" transform="matrix(1.0,0.0,0.0,1.0,586.5066666666667,518.1428871391076)"/>
    <path class="non-scaling-stroke" d="M 7.833917292530476 8.033638180319805 L 45.65941604080286 46.82347468057259 M 45.65941604080286 8.033638180319805 L 7.833917292530476 46.82347468057259" fill="#ffffff" stroke="#5b9bd5" stroke-width="3" transform="matrix(1.0,0.0,0.0,1.0,586.5066666666667,518.1428871391076)"/>
    <path class="non-scaling-stroke" d="M 0.0 27.428556430446193 A 26.746666666666666 27.428556430446193 0 0 1 26.74666666666666 -3.0555202579247984e-15 A 26.746666666666666 27.428556430446193 0 0 1 53.49333333333333 27.428556430446186 A 26.746666666666666 27.428556430446193 0 0 1 26.74666666666667 54.85711286089238 A 26.746666666666666 27.428556430446193 0 0 1 0.0 27.428556430446186 Z" fill="#ffffff" stroke="#5b9bd5" stroke-width="3" transform="matrix(1.0,0.0,0.0,1.0,586.5066666666667,518.1428871391076)"/>
  </svg>
</svg>
