<?xml version="1.0" encoding="utf-8" ?>
<svg baseProfile="full" height="720.0" version="1.1" width="1280.0" xmlns="http://www.w3.org/2000/svg" xmlns:ev="http://www.w3.org/2001/xml-events" xmlns:xlink="http://www.w3.org/1999/xlink">
  <defs>
    <style type="text/css">
<![CDATA[.non-scaling-stroke { vector-effect: non-scaling-stroke; }]]>    </style>
  </defs>
  <svg id="static_1">
    <defs/>
    <path class="non-scaling-stroke" d="M 0.0 0.0 L 101.4202624671916 0.0 L 101.4202624671916 100.15569553805774 L 0.0 100.15569553805774 Z" fill="#a35fd1" stroke="#41719c" stroke-width="3" transform="matrix(1.0,0.0,0.0,1.0,829.1912860892388,384.6128083989501)"/>
  </svg>
  <svg id="static_2">
    <defs/>
    <path class="non-scaling-stroke" d="M 0.0 30.857165354330707 A 30.1903937007874 30.857165354330707 0 0 1 30.190393700787396 -6.111040515849597e-15 A 30.1903937007874 30.857165354330707 0 0 1 60.3807874015748 30.857165354330697 A 30.1903937007874 30.857165354330707 0 0 1 30.1903937007874 61.71433070866141 A 30.1903937007874 30.857165354330707 0 0 1 0.0 30.857165354330704 Z" fill="#a35fd1" stroke="#41719c" stroke-width="3" transform="matrix(1.0,0.0,0.0,1.0,280.6886089238845,216.25217847769028)"/>
  </svg>
  <svg id="static_3">
    <defs/>
    <path class="non-scaling-stroke" d="M 0.0 30.857165354330707 A 30.1903937007874 30.857165354330707 0 0 1 30.190393700787396 -6.111040515849597e-15 A 30.1903937007874 30.857165354330707 0 0 1 60.3807874015748 30.857165354330697 A 30.1903937007874 30.857165354330707 0 0 1 30.1903937007874 61.71433070866141 A 30.1903937007874 30.857165354330707 0 0 1 0.0 30.857165354330704 Z" fill="#a35fd1" stroke="#41719c" stroke-width="3" transform="matrix(1.0,0.0,0.0,1.0,354.34656167979,216.25217847769028)"/>
  </svg>
  <svg id="static_4">
    <defs/>
    <path class="non-scaling-stroke" d="M 0.0 30.857165354330707 A 30.1903937007874 30.857165354330707 0 0 1 30.190393700787396 -6.111040515849597e-15 A 30.1903937007874 30.857165354330707 0 0 1 60.3807874015748 30.857165354330697 A 30.1903937007874 30.857165354330707 0 0 1 30.1903937007874 61.71433070866141 A 30.1903937007874 30.857165354330707 0 0 1 0.0 30.857165354330704 Z" fill="#a35fd1" stroke="#41719c" stroke-width="3" transform="matrix(1.0,0.0,0.0,1.0,207.030656167979,216.56230971128608)"/>
  </svg>
  <svg id="static_5">
    <defs/>
    <path class="non-scaling-stroke" d="M 0.0 0.0 L 101.4202624671916 0.0 L 101.4202624671916 100.15569553805774 L 0.0 100.15569553805774 Z" fill="#a35fd1" stroke="#41719c" stroke-width="3" transform="matrix(1.0,0.0,0.0,1.0,709.8317060367455,384.6128083989501)"/>
  </svg>
  <svg id="static_6">
    <defs/>
    <path class="non-scaling-stroke" d="M 0.0 0.0 L 101.4202624671916 0.0 L 101.4202624671916 100.15569553805774 L 0.0 100.15569553805774 Z" fill="#a35fd1" stroke="#41719c" stroke-width="3" transform="matrix(1.0,0.0,0.0,1.0,948.5508661417323,384.6127034120735)"/>
  </svg>
  <svg id="dynamic">
    <defs/>
    <path class="non-scaling-stroke" d="M 0.0 0.0 L 62.09511811023622 0.0 L 62.09511811023622 59.42855643044619 L 0.0 59.42855643044619 Z" fill="#a35fd1" stroke="#41719c" stroke-width="3" transform="matrix(1.0,0.0,0.0,1.0,577.9048818897638,550.718530183727)"/>
    <animate attributeName="opacity" dur="1s" repeatCount="3" values="1;0;1"/>
  </svg>
</svg>
