<?xml version="1.0" encoding="utf-8" ?>
<svg baseProfile="full" height="720.0" version="1.1" width="1280.0" xmlns="http://www.w3.org/2000/svg" xmlns:ev="http://www.w3.org/2001/xml-events" xmlns:xlink="http://www.w3.org/1999/xlink">
  <defs>
    <style type="text/css">
<![CDATA[.non-scaling-stroke { vector-effect: non-scaling-stroke; }]]>    </style>
  </defs>
  <svg id="static_1">
    <defs/>
    <path class="non-scaling-stroke" d="M 0.0 0.0 L 146.28577427821523 0.0 L 146.28577427821523 171.92860892388452 L 0.0 171.92860892388452 Z" fill="#5b9bd5" stroke="#5b9bd5" stroke-width="3" transform="matrix(1.0,0.0,0.0,1.0,394.06897637795277,135.53081364829396)"/>
  </svg>
  <svg id="static_2">
    <defs/>
    <path class="non-scaling-stroke" d="M 0.0 0.0 L 146.28577427821523 0.0 L 146.28577427821523 171.92860892388452 L 0.0 171.92860892388452 Z" fill="#5b9bd5" stroke="#5b9bd5" stroke-width="3" transform="matrix(1.0,0.0,0.0,1.0,540.9795275590551,136.09511811023623)"/>
  </svg>
  <svg id="static_3">
    <defs/>
    <path class="non-scaling-stroke" d="M 0.0 25.242782152230973 L 12.621391076115486 1.1769449921921287e-05 L 42.894304461942255 1.1769449921921287e-05 L 55.51569553805774 25.242782152230973 L 42.894304461942255 50.48555253501202 L 12.621391076115486 50.48555253501202 Z" fill="#ffffff" stroke="#5b9bd5" stroke-width="3" transform="matrix(1.0,0.0,0.0,1.0,586.0689763779527,195.26257217847768)"/>
  </svg>
  <svg id="static_4">
    <defs/>
    <path class="non-scaling-stroke" d="M 0.0 41.697007874015746 L 20.848503937007873 1.9441234458756103e-05 L 79.03023622047245 1.9441234458756103e-05 L 99.87874015748031 41.697007874015746 L 79.03023622047245 83.39399630679704 L 20.848503937007873 83.39399630679704 Z" fill="#ffffff" stroke="#5b9bd5" stroke-width="3" transform="matrix(1.0,0.0,0.0,1.0,416.302782152231,179.36241469816272)"/>
  </svg>
  <svg id="static_5">
    <defs/>
    <path class="non-scaling-stroke" d="M 0.0 0.0 L 146.28577427821523 0.0 L 146.28577427821523 171.92860892388452 L 0.0 171.92860892388452 Z" fill="#5b9bd5" stroke="#5b9bd5" stroke-width="3" transform="matrix(1.0,0.0,0.0,1.0,687.3818372703412,136.01627296587927)"/>
  </svg>
  <svg id="static_6">
    <defs/>
    <path class="non-scaling-stroke" d="M 0.0 41.697007874015746 L 20.848503937007873 1.9441234458756103e-05 L 79.03023622047245 1.9441234458756103e-05 L 99.87874015748031 41.697007874015746 L 79.03023622047245 83.39399630679704 L 20.848503937007873 83.39399630679704 Z" fill="#ffffff" stroke="#5b9bd5" stroke-width="3" transform="matrix(1.0,0.0,0.0,1.0,712.5446719160105,180.81753280839894)"/>
  </svg>
  <svg id="static_7">
    <defs/>
    <path class="non-scaling-stroke" d="M 0.0 92.0 L 44.0 125.0 L 45.0 77.0 L 88.0 107.0 L 88.0 59.0 L 129.0 90.0 L 132.0 36.0 L 171.0 68.0 L 175.0 17.0 L 216.0 48.0 L 218.0 0.0 L 241.0 19.0 L 249.0 10.0 L 272.0 36.0 L 234.0 32.0 L 242.0 19.0" fill="#ffffff" stroke="#5b9bd5" stroke-width="3" transform="matrix(0.704738230893865,-0.7094674241405207,-0.7094674241405207,-0.704738230893865,216.82844321614078,718.8676198751323)"/>
  </svg>
  <svg id="dynamic">
    <defs/>
    <path class="non-scaling-stroke" d="M 0.0 25.242782152230973 L 12.621391076115486 1.1769449921921287e-05 L 42.894304461942255 1.1769449921921287e-05 L 55.51569553805774 25.242782152230973 L 42.894304461942255 50.48555253501202 L 12.621391076115486 50.48555253501202 Z" fill="#5b9bd5" stroke="#41719c" stroke-width="3" transform="matrix(1.0,0.0,0.0,1.0,381.8015748031496,455.7574803149606)"/>
    <animate attributeName="opacity" dur="1s" repeatCount="3" values="1;0;1"/>
  </svg>
</svg>
