<?xml version="1.0" encoding="utf-8" ?>
<svg baseProfile="full" height="720.0" version="1.1" width="1280.0" xmlns="http://www.w3.org/2000/svg" xmlns:ev="http://www.w3.org/2001/xml-events" xmlns:xlink="http://www.w3.org/1999/xlink">
  <defs>
    <style type="text/css">
<![CDATA[.non-scaling-stroke { vector-effect: non-scaling-stroke; }]]>    </style>
  </defs>
  <svg id="static_1">
    <defs/>
    <path class="non-scaling-stroke" d="M 0.0 0.0 L 62.09511811023622 0.0 L 62.09511811023622 59.42855643044619 L 0.0 59.42855643044619 Z" fill="#ffc000" stroke="#ff0000" stroke-width="3" transform="matrix(1.0,0.0,0.0,1.0,967.1362729658792,557.0764304461942)"/>
  </svg>
  <svg id="static_2">
    <defs/>
    <path class="non-scaling-stroke" d="M 0.0 0.0 L 62.09511811023622 0.0 L 62.09511811023622 59.42855643044619 L 0.0 59.42855643044619 Z" fill="#ffc000" stroke="#ff0000" stroke-width="3" transform="matrix(1.0,0.0,0.0,1.0,967.2202624671916,476.43853018372704)"/>
  </svg>
  <svg id="static_3">
    <defs/>
    <path class="non-scaling-stroke" d="M 0.0 0.0 L 62.09511811023622 0.0 L 62.09511811023622 59.42855643044619 L 0.0 59.42855643044619 Z" fill="#ffc000" stroke="#ff0000" stroke-width="3" transform="matrix(1.0,0.0,0.0,1.0,967.1362729658792,176.76188976377952)"/>
  </svg>
  <svg id="static_4">
    <defs/>
    <path class="non-scaling-stroke" d="M 15.0 147.0 L 14.0 38.0 L 0.0 39.0 L 15.0 0.0 L 31.0 38.0 L 10.0 37.0" fill="#ffffff" stroke="#5b9bd5" stroke-width="3" transform="matrix(-0.38158184100424164,0.9243350575499198,-1.0279783559699192,-0.4243676255483051,320.952450009066,387.6744832537557)"/>
  </svg>
  <svg id="dynamic">
    <defs/>
    <path class="non-scaling-stroke" d="M 0.0 0.0 L 62.09511811023622 0.0 L 62.09511811023622 59.42855643044619 L 0.0 59.42855643044619 Z" fill="#ffc000" stroke="#41719c" stroke-width="3" transform="matrix(1.0,0.0,0.0,1.0,320.95254593175855,370.33543307086615)"/>
    <animate attributeName="opacity" dur="1s" repeatCount="3" values="1;0;1"/>
  </svg>
</svg>
