<?xml version="1.0" encoding="utf-8" ?>
<svg baseProfile="full" height="720.0" version="1.1" width="1280.0" xmlns="http://www.w3.org/2000/svg" xmlns:ev="http://www.w3.org/2001/xml-events" xmlns:xlink="http://www.w3.org/1999/xlink">
  <defs>
    <style type="text/css">
<![CDATA[.non-scaling-stroke { vector-effect: non-scaling-stroke; }]]>    </style>
  </defs>
  <svg id="static_1">
    <defs/>
    <path class="non-scaling-stroke" d="M 0.0 77.71433070866142 L 45.714330708661414 0.0 L 91.42866141732283 77.71433070866142 Z" fill="#ef41ce" stroke="#41719c" stroke-width="3" transform="matrix(0.5234191690652193,0.8520753332042158,-0.8520753332042158,0.5234191690652193,830.2006877211877,382.3487837993944)"/>
  </svg>
  <svg id="static_2">
    <defs/>
    <path class="non-scaling-stroke" d="M 0.0 77.71433070866142 L 45.714330708661414 0.0 L 91.42866141732283 77.71433070866142 Z" fill="#ef41ce" stroke="#41719c" stroke-width="3" transform="matrix(0.5077363533904937,0.8615125045208128,-0.8615125045208128,0.5077363533904937,921.2745550901836,334.7875469923422)"/>
  </svg>
  <svg id="static_3">
    <defs/>
    <path class="non-scaling-stroke" d="M 0.0 77.71433070866142 L 45.714330708661414 0.0 L 91.42866141732283 77.71433070866142 Z" fill="#ef41ce" stroke="#41719c" stroke-width="3" transform="matrix(1.0,0.0,0.0,1.0,422.42372703412076,190.47580052493439)"/>
  </svg>
  <svg id="static_4">
    <defs/>
    <path class="non-scaling-stroke" d="M 0.0 77.71433070866142 L 45.714330708661414 0.0 L 91.42866141732283 77.71433070866142 Z" fill="#ef41ce" stroke="#41719c" stroke-width="3" transform="matrix(1.0,0.0,0.0,1.0,319.69154855643046,164.57112860892389)"/>
  </svg>
  <svg id="static_5">
    <defs/>
    <path class="non-scaling-stroke" d="M 0.0 77.71433070866142 L 45.714330708661414 0.0 L 91.42866141732283 77.71433070866142 Z" fill="#ef41ce" stroke="#41719c" stroke-width="3" transform="matrix(1.0,0.0,0.0,1.0,352.0,250.1659842519685)"/>
  </svg>
  <svg id="static_6">
    <defs/>
    <path class="non-scaling-stroke" d="M 0.0 77.71433070866142 L 45.714330708661414 0.0 L 91.42866141732283 77.71433070866142 Z" fill="#ef41ce" stroke="#41719c" stroke-width="3" transform="matrix(0.5234191690652193,0.8520753332042158,-0.8520753332042158,0.5234191690652193,914.200897694941,429.91004364191406)"/>
  </svg>
  <svg id="dynamic">
    <defs/>
    <path class="non-scaling-stroke" d="M 0.0 77.71433070866142 L 45.714330708661414 0.0 L 91.42866141732283 77.71433070866142 Z" fill="#ef41ce" stroke="#41719c" stroke-width="3" transform="matrix(1.0,0.0,0.0,1.0,624.3245144356955,509.63412073490815)"/>
    <animate attributeName="opacity" dur="1s" repeatCount="3" values="1;0;1"/>
  </svg>
</svg>
