<?xml version="1.0" encoding="utf-8" ?>
<svg baseProfile="full" height="720.0" version="1.1" width="1280.0" xmlns="http://www.w3.org/2000/svg" xmlns:ev="http://www.w3.org/2001/xml-events" xmlns:xlink="http://www.w3.org/1999/xlink">
  <defs>
    <style type="text/css">
<![CDATA[.non-scaling-stroke { vector-effect: non-scaling-stroke; }]]>    </style>
  </defs>
  <svg id="static_1">
    <defs/>
    <path class="non-scaling-stroke" d="M 0.0 0.00010498687664041995 L 0.00010498687664041995 0.0 L 0.0002099737532808399 0.00010498687664041995 L 0.00010498687664041995 0.0002099737532808399 Z" fill="#bdd7ee" stroke="#41719c" stroke-width="3" transform="matrix(457200.0,0.0,0.0,306323.99999999994,194.9690288713911,161.74225721784777)"/>
  </svg>
  <svg id="static_2">
    <defs/>
    <path class="non-scaling-stroke" d="M 0.0 0.00010498687664041995 L 0.00010498687664041995 0.0 L 0.0002099737532808399 0.00010498687664041995 L 0.00010498687664041995 0.0002099737532808399 Z" fill="#bdd7ee" stroke="#41719c" stroke-width="3" transform="matrix(457200.0,0.0,0.0,306323.99999999994,301.9380577427822,161.74225721784777)"/>
  </svg>
  <svg id="static_3">
    <defs/>
    <path class="non-scaling-stroke" d="M 0.0 0.00010498687664041995 L 0.00010498687664041995 0.0 L 0.0002099737532808399 0.00010498687664041995 L 0.00010498687664041995 0.0002099737532808399 Z" fill="#bdd7ee" stroke="#41719c" stroke-width="3" transform="matrix(457200.0,0.0,0.0,306323.99999999994,408.90708661417324,241.01984251968503)"/>
  </svg>
  <svg id="static_4">
    <defs/>
    <path class="non-scaling-stroke" d="M 0.0 0.00010498687664041995 L 0.00010498687664041995 0.0 L 0.0002099737532808399 0.00010498687664041995 L 0.00010498687664041995 0.0002099737532808399 Z" fill="#bdd7ee" stroke="#41719c" stroke-width="3" transform="matrix(457200.0,0.0,0.0,306323.99999999994,881.3411023622048,165.30089238845144)"/>
  </svg>
  <svg id="static_5">
    <defs/>
    <path class="non-scaling-stroke" d="M 0.0 0.00010498687664041995 L 0.00010498687664041995 0.0 L 0.0002099737532808399 0.00010498687664041995 L 0.00010498687664041995 0.0002099737532808399 Z" fill="#bdd7ee" stroke="#41719c" stroke-width="3" transform="matrix(457200.0,0.0,0.0,306323.99999999994,988.3101312335958,163.88808398950133)"/>
  </svg>
  <svg id="static_6">
    <defs/>
    <path class="non-scaling-stroke" d="M 0.0 0.00010498687664041995 L 0.00010498687664041995 0.0 L 0.0002099737532808399 0.00010498687664041995 L 0.00010498687664041995 0.0002099737532808399 Z" fill="#bdd7ee" stroke="#41719c" stroke-width="3" transform="matrix(457200.0,0.0,0.0,306323.99999999994,408.90708661417324,162.5332283464567)"/>
  </svg>
  <svg id="static_7">
    <defs/>
    <path class="non-scaling-stroke" d="M 0.0 0.00010498687664041995 L 0.00010498687664041995 0.0 L 0.0002099737532808399 0.00010498687664041995 L 0.00010498687664041995 0.0002099737532808399 Z" fill="#bdd7ee" stroke="#41719c" stroke-width="3" transform="matrix(457200.0,0.0,0.0,306323.99999999994,408.90708661417324,319.5064566929134)"/>
  </svg>
  <svg id="static_8">
    <defs/>
    <path class="non-scaling-stroke" d="M 0.0 0.00010498687664041995 L 0.00010498687664041995 0.0 L 0.0002099737532808399 0.00010498687664041995 L 0.00010498687664041995 0.0002099737532808399 Z" fill="#bdd7ee" stroke="#41719c" stroke-width="3" transform="matrix(457200.0,0.0,0.0,306323.99999999994,775.0931233595801,163.88808398950133)"/>
  </svg>
  <svg id="static_9">
    <defs/>
    <path class="non-scaling-stroke" d="M 0.0 0.00010498687664041995 L 0.00010498687664041995 0.0 L 0.0002099737532808399 0.00010498687664041995 L 0.00010498687664041995 0.0002099737532808399 Z" fill="#bdd7ee" stroke="#41719c" stroke-width="3" transform="matrix(457200.0,0.0,0.0,306323.99999999994,775.1862467191601,241.01984251968503)"/>
  </svg>
  <svg id="static_10">
    <defs/>
    <path class="non-scaling-stroke" d="M 15.0 147.0 L 14.0 38.0 L 0.0 39.0 L 15.0 0.0 L 31.0 38.0 L 10.0 37.0" fill="#ffffff" stroke="#5b9bd5" stroke-width="3" transform="matrix(0.557205129440358,-0.8303748814393134,0.8000871848513961,0.5368812248101165,707.6500882601151,627.5419041558263)"/>
  </svg>
  <svg id="dynamic">
    <defs/>
    <path class="non-scaling-stroke" d="M 0.0 0.00010498687664041995 L 0.00010498687664041995 0.0 L 0.0002099737532808399 0.00010498687664041995 L 0.00010498687664041995 0.0002099737532808399 Z" fill="#bdd7ee" stroke="#41719c" stroke-width="3" transform="matrix(457200.0,0.0,0.0,306323.99999999994,637.8251968503937,550.7902362204725)"/>
    <animate attributeName="opacity" dur="1s" repeatCount="3" values="1;0;1"/>
  </svg>
</svg>
