<?xml version="1.0" encoding="utf-8" ?>
<svg baseProfile="full" height="720.0" version="1.1" width="1280.0" xmlns="http://www.w3.org/2000/svg" xmlns:ev="http://www.w3.org/2001/xml-events" xmlns:xlink="http://www.w3.org/1999/xlink">
  <defs>
    <style type="text/css">
<![CDATA[.non-scaling-stroke { vector-effect: non-scaling-stroke; }]]>    </style>
  </defs>
  <svg id="dynamic">
    <defs/>
    <path class="non-scaling-stroke" d="M 6.930372507856508e-05 23.863732099564338 L 25.02799478386592 23.863900054759107 L 32.76188976377953 0.0 L 40.49578474369313 23.863900054759107 L 65.52371022383397 23.863732099564338 L 45.27559470670192 38.61226548234118 L 53.00980834141488 62.47606173508133 L 32.76188976377953 47.72725659509077 L 12.513971186144166 62.47606173508133 L 20.24818482085713 38.61226548234118 Z" fill="#5b9bd5" stroke="#5b9bd5" stroke-width="3" transform="matrix(1.0,0.0,0.0,1.0,607.2381102362205,544.7617847769029)"/>
  </svg>
  <svg id="static_1">
    <defs/>
    <path class="non-scaling-stroke" d="M 6.930372507856508e-05 23.863732099564338 L 25.02799478386592 23.863900054759107 L 32.76188976377953 0.0 L 40.49578474369313 23.863900054759107 L 65.52371022383397 23.863732099564338 L 45.27559470670192 38.61226548234118 L 53.00980834141488 62.47606173508133 L 32.76188976377953 47.72725659509077 L 12.513971186144166 62.47606173508133 L 20.24818482085713 38.61226548234118 Z" fill="#5b9bd5" stroke="#5b9bd5" stroke-width="3" transform="matrix(1.0,0.0,0.0,1.0,256.0,210.2856692913386)"/>
  </svg>
  <svg id="static_2">
    <defs/>
    <path class="non-scaling-stroke" d="M 6.930372507856508e-05 23.863732099564338 L 25.02799478386592 23.863900054759107 L 32.76188976377953 0.0 L 40.49578474369313 23.863900054759107 L 65.52371022383397 23.863732099564338 L 45.27559470670192 38.61226548234118 L 53.00980834141488 62.47606173508133 L 32.76188976377953 47.72725659509077 L 12.513971186144166 62.47606173508133 L 20.24818482085713 38.61226548234118 Z" fill="#5b9bd5" stroke="#5b9bd5" stroke-width="3" transform="matrix(1.0,0.0,0.0,1.0,442.1426771653543,209.52377952755904)"/>
  </svg>
  <svg id="static_3">
    <defs/>
    <path class="non-scaling-stroke" d="M 6.930372507856508e-05 23.863732099564338 L 25.02799478386592 23.863900054759107 L 32.76188976377953 0.0 L 40.49578474369313 23.863900054759107 L 65.52371022383397 23.863732099564338 L 45.27559470670192 38.61226548234118 L 53.00980834141488 62.47606173508133 L 32.76188976377953 47.72725659509077 L 12.513971186144166 62.47606173508133 L 20.24818482085713 38.61226548234118 Z" fill="#5b9bd5" stroke="#5b9bd5" stroke-width="3" transform="matrix(1.0,0.0,0.0,1.0,351.38110236220473,210.4163779527559)"/>
  </svg>
  <svg id="static_4">
    <defs/>
    <path class="non-scaling-stroke" d="M 3.641478716410462e-05 11.64085079510211 L 13.150651024424228 11.640932724506714 L 17.214330708661418 0.0 L 21.278010392898608 11.640932724506714 L 34.428625002535675 11.64085079510211 L 23.789502557149625 18.83526095019357 L 27.85334967461907 30.47614303954356 L 17.214330708661418 23.28160031989077 L 6.575311742703761 30.47614303954356 L 10.639158860173207 18.83526095019357 Z" fill="#5b9bd5" stroke="#5b9bd5" stroke-width="3" transform="matrix(1.0,0.0,0.0,1.0,877.7620997375328,210.2856692913386)"/>
  </svg>
  <svg id="static_5">
    <defs/>
    <path class="non-scaling-stroke" d="M 3.641478716410462e-05 11.64085079510211 L 13.150651024424228 11.640932724506714 L 17.214330708661418 0.0 L 21.278010392898608 11.640932724506714 L 34.428625002535675 11.64085079510211 L 23.789502557149625 18.83526095019357 L 27.85334967461907 30.47614303954356 L 17.214330708661418 23.28160031989077 L 6.575311742703761 30.47614303954356 L 10.639158860173207 18.83526095019357 Z" fill="#5b9bd5" stroke="#5b9bd5" stroke-width="3" transform="matrix(1.0,0.0,0.0,1.0,879.8813648293964,304.76188976377955)"/>
  </svg>
  <svg id="static_6">
    <defs/>
    <path class="non-scaling-stroke" d="M 3.641478716410462e-05 11.64085079510211 L 13.150651024424228 11.640932724506714 L 17.214330708661418 0.0 L 21.278010392898608 11.640932724506714 L 34.428625002535675 11.64085079510211 L 23.789502557149625 18.83526095019357 L 27.85334967461907 30.47614303954356 L 17.214330708661418 23.28160031989077 L 6.575311742703761 30.47614303954356 L 10.639158860173207 18.83526095019357 Z" fill="#5b9bd5" stroke="#5b9bd5" stroke-width="3" transform="matrix(1.0,0.0,0.0,1.0,879.8813648293964,257.52377952755904)"/>
  </svg>
</svg>
