<?xml version="1.0" encoding="utf-8" ?>
<svg baseProfile="full" height="720.0" version="1.1" width="1280.0" xmlns="http://www.w3.org/2000/svg" xmlns:ev="http://www.w3.org/2001/xml-events" xmlns:xlink="http://www.w3.org/1999/xlink">
  <defs>
    <style type="text/css">
<![CDATA[.non-scaling-stroke { vector-effect: non-scaling-stroke; }]]>    </style>
  </defs>
  <svg id="static_1">
    <defs/>
    <path class="non-scaling-stroke" d="M 0.0 48.0 A 48.0 48.0 0 0 1 47.99999999999999 -6.111040515849597e-15 A 48.0 48.0 0 0 1 96.0 47.99999999999998 A 48.0 48.0 0 0 1 48.0 95.99999999999997 A 48.0 48.0 0 0 1 0.0 47.99999999999998 Z" fill="#000000" stroke="#41719c" stroke-width="3" transform="matrix(1.0,0.0,0.0,1.0,198.69354330708663,495.9654593175853)"/>
  </svg>
  <svg id="static_2">
    <defs/>
    <path class="non-scaling-stroke" d="M 0.0 48.0 A 48.0 48.0 0 0 1 47.99999999999999 -6.111040515849597e-15 A 48.0 48.0 0 0 1 96.0 47.99999999999998 A 48.0 48.0 0 0 1 48.0 95.99999999999997 A 48.0 48.0 0 0 1 0.0 47.99999999999998 Z" fill="#000000" stroke="#41719c" stroke-width="3" transform="matrix(1.0,0.0,0.0,1.0,102.69354330708661,572.0)"/>
  </svg>
  <svg id="static_3">
    <defs/>
    <path class="non-scaling-stroke" d="M 81.94112549695429 81.94112549695429 A 48.0 48.0 0 1 1 47.99999999999999 0.0 Z" fill="#000000" stroke="#41719c" stroke-width="3" transform="matrix(1.0,0.0,0.0,1.0,960.0,377.0)"/>
  </svg>
  <svg id="static_4">
    <defs/>
    <path class="non-scaling-stroke" d="M 81.94112549695429 81.94112549695429 A 48.0 48.0 0 1 1 47.99999999999999 0.0 Z" fill="#000000" stroke="#41719c" stroke-width="3" transform="matrix(1.0,0.0,0.0,1.0,1056.0,408.0)"/>
  </svg>
  <svg id="dynamic">
    <defs/>
    <path class="non-scaling-stroke" d="M 0.0 48.0 A 48.0 48.0 0 0 1 47.99999999999999 -6.111040515849597e-15 A 48.0 48.0 0 0 1 96.0 47.99999999999998 A 48.0 48.0 0 0 1 48.0 95.99999999999997 A 48.0 48.0 0 0 1 0.0 47.99999999999998 Z" fill="#000000" stroke="#41719c" stroke-width="3" transform="matrix(1.0,0.0,0.0,1.0,805.7895013123359,182.0)"/>
    <animate attributeName="opacity" dur="1s" repeatCount="3" values="1;0;1"/>
  </svg>
</svg>
