<?xml version="1.0" encoding="utf-8" ?>
<svg baseProfile="full" height="720.0" version="1.1" width="1280.0" xmlns="http://www.w3.org/2000/svg" xmlns:ev="http://www.w3.org/2001/xml-events" xmlns:xlink="http://www.w3.org/1999/xlink">
  <defs>
    <style type="text/css">
<![CDATA[.non-scaling-stroke { vector-effect: non-scaling-stroke; }]]>    </style>
  </defs>
  <svg id="static_1">
    <defs/>
    <path class="non-scaling-stroke" d="M 0.0 332.63905511811026 L 245.50241469816274 0.0 L 491.0048293963255 332.63905511811026 Z" fill="#ef41ce" stroke="#41719c" stroke-width="3" transform="matrix(1.0,0.0,0.0,1.0,742.5362729658792,89.36094488188976)"/>
  </svg>
  <svg id="static_2">
    <defs/>
    <path class="non-scaling-stroke" d="M 0.0 332.63905511811026 L 245.50241469816274 0.0 L 491.0048293963255 332.63905511811026 Z" fill="#5b9bd5" stroke="#41719c" stroke-width="3" transform="matrix(1.0,0.0,0.0,1.0,46.458897637795275,89.36094488188976)"/>
  </svg>
  <svg id="static_3">
    <defs/>
    <path class="non-scaling-stroke" d="M 0.0 0.0002099737532808399 L 0.00010498687664041995 0.0 L 0.0002099737532808399 0.0002099737532808399 Z" fill="#ffffff" stroke="#ffffff" stroke-width="3" transform="matrix(722197.4999999999,0.0,0.0,481995.0,215.13994750656167,87.36094488188976)"/>
  </svg>
  <svg id="static_4">
    <defs/>
    <path class="non-scaling-stroke" d="M 0.0 0.0002099737532808399 L 0.00010498687664041995 0.0 L 0.0002099737532808399 0.0002099737532808399 Z" fill="#ffffff" stroke="#ffffff" stroke-width="3" transform="matrix(722197.4999999999,0.0,0.0,481995.0,913.2175328083989,87.36094488188976)"/>
  </svg>
  <svg id="static_5">
    <defs/>
    <path class="non-scaling-stroke" d="M 0.0 0.0002099737532808399 L 0.00010498687664041995 0.0 L 0.0002099737532808399 0.0002099737532808399 Z" fill="#ffffff" stroke="#ffffff" stroke-width="3" transform="matrix(722197.4999999999,0.0,0.0,481995.0,387.82120734908136,320.7937007874016)"/>
  </svg>
  <svg id="dynamic">
    <defs/>
    <path class="non-scaling-stroke" d="M 0.0 0.0002099737532808399 L 0.00010498687664041995 0.0 L 0.0002099737532808399 0.0002099737532808399 Z" fill="#5b9bd5" stroke="#41719c" stroke-width="3" transform="matrix(722197.4999999999,0.0,0.0,481995.0,537.4637270341208,559.3609448818897)"/>
    <animate attributeName="opacity" dur="1s" repeatCount="3" values="1;0;1"/>
  </svg>
</svg>
