<?xml version="1.0" encoding="utf-8" ?>
<svg baseProfile="full" height="720.0" version="1.1" width="1280.0" xmlns="http://www.w3.org/2000/svg" xmlns:ev="http://www.w3.org/2001/xml-events" xmlns:xlink="http://www.w3.org/1999/xlink">
  <defs>
    <style type="text/css">
<![CDATA[.non-scaling-stroke { vector-effect: non-scaling-stroke; }]]>    </style>
  </defs>
  <svg id="static_1">
    <defs/>
    <path class="non-scaling-stroke" d="M 96.0 48.0 L 76.6300048828125 54.888427734375 L 76.6300048828125 41.111572265625 Z M 81.93777777777778 14.057777777777778 L 73.1144848828125 32.627092265624995 L 63.372907734375005 22.885515117187502 Z M 48.0 0.0 L 54.888427734375 19.3699951171875 L 41.111572265625 19.3699951171875 Z M 14.057777777777778 14.057777777777778 L 32.627092265624995 22.885515117187502 L 22.885515117187502 32.627092265624995 Z M 0.0 48.0 L 19.3699951171875 41.111572265625 L 19.3699951171875 54.888427734375 Z M 14.057777777777778 81.93777777777778 L 22.885515117187502 63.372907734375005 L 32.627092265624995 73.1144848828125 Z M 48.0 96.0 L 41.111572265625 76.6300048828125 L 54.888427734375 76.6300048828125 Z M 81.93777777777778 81.93777777777778 L 63.372907734375005 73.1144848828125 L 73.1144848828125 63.372907734375005 Z M 24.0 48.0 A 24.0 24.0 0 1 1 24.0 48.00000000000001 Z" fill="#41efb1" stroke="#5b9bd5" stroke-width="3" transform="matrix(1.0,0.0,0.0,1.0,168.00010498687664,312.76188976377955)"/>
  </svg>
  <svg id="static_2">
    <defs/>
    <path class="non-scaling-stroke" d="M 0.0 48.0 L 14.74032 34.22352 L 14.058874503045717 14.058874503045717 L 34.22352 14.74032 L 48.0 0.0 L 61.77648000000001 14.74032 L 81.94112549695429 14.058874503045717 L 81.25968 34.22352 L 96.0 48.0 L 81.25968 61.77648000000001 L 81.94112549695429 81.94112549695429 L 61.77648000000001 81.25968 L 48.0 96.0 L 34.22352 81.25968 L 14.058874503045717 81.94112549695429 L 14.74032 61.77648000000001 Z" fill="#41efb1" stroke="#5b9bd5" stroke-width="3" transform="matrix(1.0,0.0,0.0,1.0,977.0,312.0)"/>
  </svg>
  <svg id="dynamic">
    <defs/>
    <path class="non-scaling-stroke" d="M -0.0002495807999979675 61.738238016000004 L 14.782867285094788 42.72426814416768 L 9.506943955200002 19.014056208 L 33.21714426436454 19.014093608892484 L 48.0 0.0 L 62.78285573563546 19.014093608892484 L 86.49305604479999 19.014056208 L 81.2171327149052 42.72426814416768 L 96.0002495808 61.738238016000004 L 74.63796464412249 72.29025643893985 L 69.3618908928 96.000505776 L 48.0 85.44836361600001 L 26.6381091072 96.000505776 L 21.362035355877506 72.29025643893985 Z" fill="#41efb1" stroke="#5b9bd5" stroke-width="3" transform="matrix(1.0,0.0,0.0,1.0,592.0,574.1395275590551)"/>
  </svg>
</svg>
