<?xml version="1.0" encoding="utf-8" ?>
<svg baseProfile="full" height="720.0" version="1.1" width="1280.0" xmlns="http://www.w3.org/2000/svg" xmlns:ev="http://www.w3.org/2001/xml-events" xmlns:xlink="http://www.w3.org/1999/xlink">
  <defs>
    <style type="text/css">
<![CDATA[.non-scaling-stroke { vector-effect: non-scaling-stroke; }]]>    </style>
  </defs>
  <svg id="static_1">
    <defs/>
    <path class="non-scaling-stroke" d="M 0.0 77.71433070866142 L 45.714330708661414 0.0 L 91.42866141732283 77.71433070866142 Z" fill="#ef41ce" stroke="#5b9bd5" stroke-width="3" transform="matrix(0.5234191690652193,0.8520753332042158,-0.8520753332042158,0.5234191690652193,234.80845675005904,102.16579167341021)"/>
  </svg>
  <svg id="static_2">
    <defs/>
    <path class="non-scaling-stroke" d="M 0.0 77.71433070866142 L 45.714330708661414 0.0 L 91.42866141732283 77.71433070866142 Z" fill="#ef41ce" stroke="#5b9bd5" stroke-width="3" transform="matrix(1.0,0.0,0.0,1.0,168.59023622047243,480.829186351706)"/>
  </svg>
  <svg id="static_3">
    <defs/>
    <path class="non-scaling-stroke" d="M 0.0 77.71433070866142 L 45.714330708661414 0.0 L 91.42866141732283 77.71433070866142 Z" fill="#ef41ce" stroke="#5b9bd5" stroke-width="3" transform="matrix(1.0,0.0,0.0,1.0,168.8948031496063,578.9770078740157)"/>
  </svg>
  <svg id="static_4">
    <defs/>
    <path class="non-scaling-stroke" d="M 0.0 77.71433070866142 L 45.714330708661414 0.0 L 91.42866141732283 77.71433070866142 Z" fill="#ef41ce" stroke="#5b9bd5" stroke-width="3" transform="matrix(0.5234191690652193,0.8520753332042158,-0.8520753332042158,0.5234191690652193,234.80856173693567,191.5298861615992)"/>
  </svg>
  <svg id="dynamic">
    <defs/>
    <path class="non-scaling-stroke" d="M 0.0 77.71433070866142 L 45.714330708661414 0.0 L 91.42866141732283 77.71433070866142 Z" fill="#ef41ce" stroke="#5b9bd5" stroke-width="3" transform="matrix(1.0,0.0,0.0,1.0,1067.1461417322835,345.7737532808399)"/>
  </svg>
</svg>
