<?xml version="1.0" encoding="utf-8" ?>
<svg baseProfile="full" height="720.0" version="1.1" width="1280.0" xmlns="http://www.w3.org/2000/svg" xmlns:ev="http://www.w3.org/2001/xml-events" xmlns:xlink="http://www.w3.org/1999/xlink">
  <defs>
    <style type="text/css">
<![CDATA[.non-scaling-stroke { vector-effect: non-scaling-stroke; }]]>    </style>
  </defs>
  <svg id="static_1">
    <defs/>
    <path class="non-scaling-stroke" d="M 0.0 0.0 L 129.64944881889764 0.0 L 129.64944881889764 133.60839895013123 L 0.0 133.60839895013123 Z" fill="#f3753d" stroke="#41719c" stroke-width="3" transform="matrix(1.0,0.0,0.0,1.0,481.9893963254593,169.48461942257217)"/>
  </svg>
  <svg id="static_2">
    <defs/>
    <path class="non-scaling-stroke" d="M 0.0 0.0 L 129.64944881889764 0.0 L 129.64944881889764 133.60839895013123 L 0.0 133.60839895013123 Z" fill="#f3753d" stroke="#41719c" stroke-width="3" transform="matrix(1.0,0.0,0.0,1.0,565.0411548556431,257.3203149606299)"/>
  </svg>
  <svg id="static_3">
    <defs/>
    <path class="non-scaling-stroke" d="M 0.0 0.0 L 47.17564304461942 0.0 L 47.17564304461942 45.5254593175853 L 0.0 45.5254593175853 Z" fill="#ffffff" stroke="#ed7d31" stroke-width="3" transform="matrix(1.0,0.0,0.0,1.0,565.1234645669291,257.5675590551181)"/>
  </svg>
  <svg id="static_4">
    <defs/>
    <path class="non-scaling-stroke" d="M 15.0 147.0 L 14.0 38.0 L 0.0 39.0 L 15.0 0.0 L 31.0 38.0 L 10.0 37.0" fill="#ffffff" stroke="#5b9bd5" stroke-width="3" transform="matrix(-0.4411547714811097,-0.8974310377959133,1.1084900508414293,-0.5449061314717338,907.3143789087763,458.0377371295864)"/>
  </svg>
  <svg id="dynamic">
    <defs/>
    <path class="non-scaling-stroke" d="M 0.0 0.0 L 47.17564304461942 0.0 L 47.17564304461942 45.5254593175853 L 0.0 45.5254593175853 Z" fill="#f3753d" stroke="#41719c" stroke-width="3" transform="matrix(1.0,0.0,0.0,1.0,846.4630971128609,422.2782152230971)"/>
    <animate attributeName="opacity" dur="1s" repeatCount="3" values="1;0;1"/>
  </svg>
</svg>
