<?xml version="1.0" encoding="utf-8" ?>
<svg baseProfile="full" height="720.0" version="1.1" width="1280.0" xmlns="http://www.w3.org/2000/svg" xmlns:ev="http://www.w3.org/2001/xml-events" xmlns:xlink="http://www.w3.org/1999/xlink">
  <defs>
    <style type="text/css">
<![CDATA[.non-scaling-stroke { vector-effect: non-scaling-stroke; }]]>    </style>
  </defs>
  <svg id="static_1">
    <defs/>
    <path class="non-scaling-stroke" d="M 0.0 0.0 L 62.09511811023622 0.0 L 62.09511811023622 59.42855643044619 L 0.0 59.42855643044619 Z" fill="#0070c0" stroke="#41719c" stroke-width="3" transform="matrix(1.0,0.0,0.0,1.0,269.28388451443567,162.63706036745407)"/>
  </svg>
  <svg id="static_2">
    <defs/>
    <path class="non-scaling-stroke" d="M 0.0 0.0 L 62.09511811023622 0.0 L 62.09511811023622 59.42855643044619 L 0.0 59.42855643044619 Z" fill="#0070c0" stroke="#41719c" stroke-width="3" transform="matrix(1.0,0.0,0.0,1.0,188.04535433070865,318.0657217847769)"/>
  </svg>
  <svg id="static_3">
    <defs/>
    <path class="non-scaling-stroke" d="M 0.0 0.0 L 62.09511811023622 0.0 L 62.09511811023622 59.42855643044619 L 0.0 59.42855643044619 Z" fill="#0070c0" stroke="#41719c" stroke-width="3" transform="matrix(1.0,0.0,0.0,1.0,188.04535433070865,161.1134908136483)"/>
  </svg>
  <svg id="static_4">
    <defs/>
    <path class="non-scaling-stroke" d="M 0.0 0.0 L 62.09511811023622 0.0 L 62.09511811023622 59.42855643044619 L 0.0 59.42855643044619 Z" fill="#0070c0" stroke="#41719c" stroke-width="3" transform="matrix(1.0,0.0,0.0,1.0,347.18866141732286,162.45795275590552)"/>
  </svg>
  <svg id="static_5">
    <defs/>
    <path class="non-scaling-stroke" d="M 0.0 0.0 L 62.09511811023622 0.0 L 62.09511811023622 59.42855643044619 L 0.0 59.42855643044619 Z" fill="#0070c0" stroke="#41719c" stroke-width="3" transform="matrix(1.0,0.0,0.0,1.0,348.85553805774276,316.5423622047244)"/>
  </svg>
  <svg id="static_6">
    <defs/>
    <path class="non-scaling-stroke" d="M 0.0 0.0 L 62.09511811023622 0.0 L 62.09511811023622 59.42855643044619 L 0.0 59.42855643044619 Z" fill="#0070c0" stroke="#41719c" stroke-width="3" transform="matrix(1.0,0.0,0.0,1.0,269.28388451443567,239.58971128608923)"/>
  </svg>
  <svg id="static_7">
    <defs/>
    <path class="non-scaling-stroke" d="M 0.0 0.0 L 62.09511811023622 0.0 L 62.09511811023622 59.42855643044619 L 0.0 59.42855643044619 Z" fill="#0070c0" stroke="#41719c" stroke-width="3" transform="matrix(1.0,0.0,0.0,1.0,188.04535433070865,239.58971128608923)"/>
  </svg>
  <svg id="static_8">
    <defs/>
    <path class="non-scaling-stroke" d="M 0.0 0.0 L 62.09511811023622 0.0 L 62.09511811023622 59.42855643044619 L 0.0 59.42855643044619 Z" fill="#0070c0" stroke="#41719c" stroke-width="3" transform="matrix(1.0,0.0,0.0,1.0,429.5450918635171,162.45795275590552)"/>
  </svg>
  <svg id="static_9">
    <defs/>
    <path class="non-scaling-stroke" d="M 0.0 0.0 L 62.09511811023622 0.0 L 62.09511811023622 59.42855643044619 L 0.0 59.42855643044619 Z" fill="#0070c0" stroke="#41719c" stroke-width="3" transform="matrix(1.0,0.0,0.0,1.0,428.42719160104986,239.58971128608923)"/>
  </svg>
  <svg id="static_10">
    <defs/>
    <path class="non-scaling-stroke" d="M 0.0 0.0 L 62.09511811023622 0.0 L 62.09511811023622 59.42855643044619 L 0.0 59.42855643044619 Z" fill="#0070c0" stroke="#41719c" stroke-width="3" transform="matrix(1.0,0.0,0.0,1.0,429.5450918635171,316.721469816273)"/>
  </svg>
  <svg id="static_11">
    <defs/>
    <path class="non-scaling-stroke" d="M 0.0 0.0 L 62.09511811023622 0.0 L 62.09511811023622 59.42855643044619 L 0.0 59.42855643044619 Z" fill="#0070c0" stroke="#41719c" stroke-width="3" transform="matrix(1.0,0.0,0.0,1.0,269.28388451443567,316.5423622047244)"/>
  </svg>
  <svg id="static_12">
    <defs/>
    <path class="non-scaling-stroke" d="M 0.0 0.0 L 62.09511811023622 0.0 L 62.09511811023622 59.42855643044619 L 0.0 59.42855643044619 Z" fill="#0070c0" stroke="#41719c" stroke-width="3" transform="matrix(1.0,0.0,0.0,1.0,854.8122834645669,162.63706036745407)"/>
  </svg>
  <svg id="static_13">
    <defs/>
    <path class="non-scaling-stroke" d="M 0.0 0.0 L 62.09511811023622 0.0 L 62.09511811023622 59.42855643044619 L 0.0 59.42855643044619 Z" fill="#0070c0" stroke="#41719c" stroke-width="3" transform="matrix(1.0,0.0,0.0,1.0,773.5737532808399,318.0657217847769)"/>
  </svg>
  <svg id="static_14">
    <defs/>
    <path class="non-scaling-stroke" d="M 0.0 0.0 L 62.09511811023622 0.0 L 62.09511811023622 59.42855643044619 L 0.0 59.42855643044619 Z" fill="#0070c0" stroke="#41719c" stroke-width="3" transform="matrix(1.0,0.0,0.0,1.0,773.5737532808399,161.1134908136483)"/>
  </svg>
  <svg id="static_15">
    <defs/>
    <path class="non-scaling-stroke" d="M 0.0 0.0 L 62.09511811023622 0.0 L 62.09511811023622 59.42855643044619 L 0.0 59.42855643044619 Z" fill="#0070c0" stroke="#41719c" stroke-width="3" transform="matrix(1.0,0.0,0.0,1.0,932.7170603674541,161.11338582677166)"/>
  </svg>
  <svg id="static_16">
    <defs/>
    <path class="non-scaling-stroke" d="M 0.0 0.0 L 62.09511811023622 0.0 L 62.09511811023622 59.42855643044619 L 0.0 59.42855643044619 Z" fill="#0070c0" stroke="#41719c" stroke-width="3" transform="matrix(1.0,0.0,0.0,1.0,934.383937007874,316.5423622047244)"/>
  </svg>
  <svg id="static_17">
    <defs/>
    <path class="non-scaling-stroke" d="M 0.0 0.0 L 62.09511811023622 0.0 L 62.09511811023622 59.42855643044619 L 0.0 59.42855643044619 Z" fill="#0070c0" stroke="#41719c" stroke-width="3" transform="matrix(1.0,0.0,0.0,1.0,854.8122834645669,239.58971128608923)"/>
  </svg>
  <svg id="static_18">
    <defs/>
    <path class="non-scaling-stroke" d="M 0.0 0.0 L 62.09511811023622 0.0 L 62.09511811023622 59.42855643044619 L 0.0 59.42855643044619 Z" fill="#0070c0" stroke="#41719c" stroke-width="3" transform="matrix(1.0,0.0,0.0,1.0,773.5737532808399,239.58971128608923)"/>
  </svg>
  <svg id="static_19">
    <defs/>
    <path class="non-scaling-stroke" d="M 0.0 0.0 L 62.09511811023622 0.0 L 62.09511811023622 59.42855643044619 L 0.0 59.42855643044619 Z" fill="#0070c0" stroke="#41719c" stroke-width="3" transform="matrix(1.0,0.0,0.0,1.0,1015.0734908136483,162.63706036745407)"/>
  </svg>
  <svg id="static_20">
    <defs/>
    <path class="non-scaling-stroke" d="M 0.0 0.0 L 62.09511811023622 0.0 L 62.09511811023622 59.42855643044619 L 0.0 59.42855643044619 Z" fill="#0070c0" stroke="#41719c" stroke-width="3" transform="matrix(1.0,0.0,0.0,1.0,1013.9555905511811,239.58971128608923)"/>
  </svg>
  <svg id="static_21">
    <defs/>
    <path class="non-scaling-stroke" d="M 0.0 0.0 L 62.09511811023622 0.0 L 62.09511811023622 59.42855643044619 L 0.0 59.42855643044619 Z" fill="#0070c0" stroke="#41719c" stroke-width="3" transform="matrix(1.0,0.0,0.0,1.0,1015.0734908136483,316.5423622047244)"/>
  </svg>
  <svg id="dynamic">
    <defs/>
    <path class="non-scaling-stroke" d="M 0.0 0.0 L 62.09511811023622 0.0 L 62.09511811023622 59.42855643044619 L 0.0 59.42855643044619 Z" fill="#0070c0" stroke="#41719c" stroke-width="3" transform="matrix(1.0,0.0,0.0,1.0,932.7170603674541,529.1722834645669)"/>
    <animate attributeName="opacity" dur="1s" repeatCount="3" values="1;0;1"/>
  </svg>
</svg>
