<?xml version="1.0" encoding="utf-8" ?>
<svg baseProfile="full" height="720.0" version="1.1" width="1280.0" xmlns="http://www.w3.org/2000/svg" xmlns:ev="http://www.w3.org/2001/xml-events" xmlns:xlink="http://www.w3.org/1999/xlink">
  <defs>
    <style type="text/css">
<![CDATA[.non-scaling-stroke { vector-effect: non-scaling-stroke; }]]>    </style>
  </defs>
  <svg id="static_1">
    <defs/>
    <path class="non-scaling-stroke" d="M 3.801047106535025e-05 48.50590551181102 L 54.34874101447307 48.50508798076661 L 81.52377952755906 0.0 L 108.69881804064504 48.50508798076661 L 163.04752104464703 48.50590551181102 L 135.87385655373103 97.01181102362204 L 163.04752104464703 145.51771653543307 L 108.69881804064504 145.51853406647749 L 81.52377952755906 194.0236220472441 L 54.34874101447307 145.51853406647749 L 3.801047106535025e-05 145.51771653543307 L 27.173702501387083 97.01181102362204 Z" fill="#ffffff" stroke="#5b9bd5" stroke-width="3" transform="matrix(1.0,0.0,0.0,1.0,562.2857742782152,157.97658792650918)"/>
  </svg>
  <svg id="dynamic">
    <defs/>
    <path class="non-scaling-stroke" d="M 0.0 36.57144356955381 A 36.19049868766404 36.57144356955381 0 0 1 36.19049868766404 -6.111040515849597e-15 A 36.19049868766404 36.57144356955381 0 0 1 72.38099737532808 36.57144356955379 A 36.19049868766404 36.57144356955381 0 0 1 36.19049868766404 73.1428871391076 A 36.19049868766404 36.57144356955381 0 0 1 0.0 36.5714435695538 Z" fill="#ffffff" stroke="#5b9bd5" stroke-width="3" transform="matrix(1.0,0.0,0.0,1.0,611.8095538057743,516.5714435695538)"/>
    <animate attributeName="opacity" dur="1s" repeatCount="3" values="1;0;1"/>
  </svg>
</svg>
