<?xml version="1.0" encoding="utf-8" ?>
<svg baseProfile="full" height="720.0" version="1.1" width="1280.0" xmlns="http://www.w3.org/2000/svg" xmlns:ev="http://www.w3.org/2001/xml-events" xmlns:xlink="http://www.w3.org/1999/xlink">
  <defs>
    <style type="text/css">
<![CDATA[.non-scaling-stroke { vector-effect: non-scaling-stroke; }]]>    </style>
  </defs>
  <svg id="static_1">
    <defs/>
    <path class="non-scaling-stroke" d="M 0.0 0.0 L 146.28577427821523 0.0 L 146.28577427821523 171.92860892388452 L 0.0 171.92860892388452 Z" fill="#5b9bd5" stroke="#5b9bd5" stroke-width="3" transform="matrix(1.0,0.0,0.0,1.0,437.06897637795277,197.54110236220473)"/>
  </svg>
  <svg id="static_2">
    <defs/>
    <path class="non-scaling-stroke" d="M 0.0 0.0 L 146.28577427821523 0.0 L 146.28577427821523 171.92860892388452 L 0.0 171.92860892388452 Z" fill="#5b9bd5" stroke="#5b9bd5" stroke-width="3" transform="matrix(1.0,0.0,0.0,1.0,583.9795275590551,198.09511811023623)"/>
  </svg>
  <svg id="static_3">
    <defs/>
    <path class="non-scaling-stroke" d="M 0.0 25.242782152230973 L 12.621391076115486 1.1769449921921287e-05 L 42.894304461942255 1.1769449921921287e-05 L 55.51569553805774 25.242782152230973 L 42.894304461942255 50.48555253501202 L 12.621391076115486 50.48555253501202 Z" fill="#ffffff" stroke="#5b9bd5" stroke-width="3" transform="matrix(1.0,0.0,0.0,1.0,629.0689763779527,258.2625721784777)"/>
  </svg>
  <svg id="static_4">
    <defs/>
    <path class="non-scaling-stroke" d="M 0.0 0.0 L 146.28577427821523 0.0 L 146.28577427821523 171.92860892388452 L 0.0 171.92860892388452 Z" fill="#5b9bd5" stroke="#5b9bd5" stroke-width="3" transform="matrix(1.0,0.0,0.0,1.0,731.3715485564304,198.02656167979003)"/>
  </svg>
  <svg id="static_5">
    <defs/>
    <path class="non-scaling-stroke" d="M 0.0 25.242782152230973 L 12.621391076115486 1.1769449921921287e-05 L 42.894304461942255 1.1769449921921287e-05 L 55.51569553805774 25.242782152230973 L 42.894304461942255 50.48555253501202 L 12.621391076115486 50.48555253501202 Z" fill="#ffffff" stroke="#5b9bd5" stroke-width="3" transform="matrix(1.0,0.0,0.0,1.0,781.4841994750656,258.26246719160105)"/>
  </svg>
  <svg id="static_6">
    <defs/>
    <path class="non-scaling-stroke" d="M 0.0 25.242782152230973 L 12.621391076115486 1.1769449921921287e-05 L 42.894304461942255 1.1769449921921287e-05 L 55.51569553805774 25.242782152230973 L 42.894304461942255 50.48555253501202 L 12.621391076115486 50.48555253501202 Z" fill="#ffffff" stroke="#5b9bd5" stroke-width="3" transform="matrix(1.0,0.0,0.0,1.0,490.4195275590551,258.2625721784777)"/>
  </svg>
  <svg id="dynamic">
    <defs/>
    <path class="non-scaling-stroke" d="M 0.0 25.242782152230973 L 12.621391076115486 1.1769449921921287e-05 L 42.894304461942255 1.1769449921921287e-05 L 55.51569553805774 25.242782152230973 L 42.894304461942255 50.48555253501202 L 12.621391076115486 50.48555253501202 Z" fill="#5b9bd5" stroke="#41719c" stroke-width="3" transform="matrix(1.0,0.0,0.0,1.0,920.514435695538,556.6810498687664)"/>
    <animate attributeName="opacity" dur="1s" repeatCount="3" values="1;0;1"/>
  </svg>
</svg>
