<?xml version="1.0" encoding="utf-8" ?>
<svg baseProfile="full" height="720.0" version="1.1" width="1280.0" xmlns="http://www.w3.org/2000/svg" xmlns:ev="http://www.w3.org/2001/xml-events" xmlns:xlink="http://www.w3.org/1999/xlink">
  <defs>
    <style type="text/css">
<![CDATA[.non-scaling-stroke { vector-effect: non-scaling-stroke; }]]>    </style>
  </defs>
  <svg id="static_1">
    <defs/>
    <path class="non-scaling-stroke" d="M 0.0 0.0 L 352.0 0.0 L 352.0 156.12115485564306 L 0.0 156.12115485564306 Z" fill="#00b050" stroke="#00b050" stroke-width="3" transform="matrix(1.0,0.0,0.0,1.0,464.96976377952757,157.0909186351706)"/>
  </svg>
  <svg id="static_2">
    <defs/>
    <path class="non-scaling-stroke" d="M 0.0 48.0 A 48.0 48.0 0 0 1 47.99999999999999 -6.111040515849597e-15 A 48.0 48.0 0 0 1 96.0 47.99999999999998 A 48.0 48.0 0 0 1 48.0 95.99999999999997 A 48.0 48.0 0 0 1 0.0 47.99999999999998 Z" fill="#ffffff" stroke="#548235" stroke-width="3" transform="matrix(1.0,0.0,0.0,1.0,592.9697637795275,187.15149606299212)"/>
  </svg>
  <svg id="static_3">
    <defs/>
    <path class="non-scaling-stroke" d="M 0.0 37.33322834645669 L 36.78766404199475 0.0 L 73.5753280839895 37.33322834645669 Z" fill="#5b9bd5" stroke="#5b9bd5" stroke-width="3" transform="matrix(6.123233995736766e-17,1.0,-1.0,6.123233995736766e-17,854.3029921259841,198.36377952755913)"/>
  </svg>
  <svg id="dynamic">
    <defs/>
    <path class="non-scaling-stroke" d="M 96.0 48.0 A 48.0 48.0 0 1 1 47.99999999999999 0.0 L 48.0 48.0 Z" fill="#5b9bd5" stroke="#41719c" stroke-width="3" transform="matrix(-0.7421404148159774,-0.6702444365280245,0.6702444365280245,-0.7421404148159774,733.7539990838061,620.3700109222547)"/>
    <animate attributeName="opacity" dur="1s" repeatCount="3" values="1;0;1"/>
  </svg>
</svg>
