<?xml version="1.0" encoding="utf-8" ?>
<svg baseProfile="full" height="720.0" version="1.1" width="1280.0" xmlns="http://www.w3.org/2000/svg" xmlns:ev="http://www.w3.org/2001/xml-events" xmlns:xlink="http://www.w3.org/1999/xlink">
  <defs>
    <style type="text/css">
<![CDATA[.non-scaling-stroke { vector-effect: non-scaling-stroke; }]]>    </style>
  </defs>
  <svg id="static_1">
    <defs/>
    <path class="non-scaling-stroke" d="M 15.0 147.0 L 14.0 38.0 L 0.0 39.0 L 15.0 0.0 L 31.0 38.0 L 10.0 37.0" fill="#ffffff" stroke="#5b9bd5" stroke-width="3" transform="matrix(0.6088191216819524,0.7933090678130535,-0.7933090678130535,0.6088191216819524,586.1265857149871,609.5221706719408)"/>
  </svg>
  <svg id="static_2">
    <defs/>
    <path class="non-scaling-stroke" d="M 36.5 17.003963254593177 C 51.708333333333336 -22.671951006124235 111.02083333333333 17.003963254593177 36.5 68.01585301837271 C -38.020833333333336 17.003963254593177 21.291666666666668 -22.671951006124235 36.5 17.003963254593177 Z" fill="#ff0000" stroke="#41719c" stroke-width="3" transform="matrix(1.0,0.0,0.0,1.0,390.52976377952757,417.2243569553806)"/>
  </svg>
  <svg id="static_3">
    <defs/>
    <path class="non-scaling-stroke" d="M 36.5 17.003963254593177 C 51.708333333333336 -22.671951006124235 111.02083333333333 17.003963254593177 36.5 68.01585301837271 C -38.020833333333336 17.003963254593177 21.291666666666668 -22.671951006124235 36.5 17.003963254593177 Z" fill="#ff0000" stroke="#41719c" stroke-width="3" transform="matrix(1.0,0.0,0.0,1.0,816.4704461942257,417.2243569553806)"/>
  </svg>
  <svg id="static_4">
    <defs/>
    <path class="non-scaling-stroke" d="M 36.5 17.003963254593177 C 51.708333333333336 -22.671951006124235 111.02083333333333 17.003963254593177 36.5 68.01585301837271 C -38.020833333333336 17.003963254593177 21.291666666666668 -22.671951006124235 36.5 17.003963254593177 Z" fill="#ff0000" stroke="#41719c" stroke-width="3" transform="matrix(1.0,0.0,0.0,1.0,603.4999475065616,303.88178477690286)"/>
  </svg>
  <svg id="static_5">
    <defs/>
    <path class="non-scaling-stroke" d="M 36.5 17.003963254593177 C 51.708333333333336 -22.671951006124235 111.02083333333333 17.003963254593177 36.5 68.01585301837271 C -38.020833333333336 17.003963254593177 21.291666666666668 -22.671951006124235 36.5 17.003963254593177 Z" fill="#ff0000" stroke="#41719c" stroke-width="3" transform="matrix(1.0,0.0,0.0,1.0,816.4703412073491,166.0)"/>
  </svg>
  <svg id="dynamic">
    <defs/>
    <path class="non-scaling-stroke" d="M 36.5 17.003963254593177 C 51.708333333333336 -22.671951006124235 111.02083333333333 17.003963254593177 36.5 68.01585301837271 C -38.020833333333336 17.003963254593177 21.291666666666668 -22.671951006124235 36.5 17.003963254593177 Z" fill="#ff0000" stroke="#41719c" stroke-width="3" transform="matrix(1.0,0.0,0.0,1.0,604.9998950131234,575.5142257217848)"/>
    <animate attributeName="opacity" dur="1s" repeatCount="3" values="1;0;1"/>
  </svg>
</svg>
