<?xml version="1.0" encoding="utf-8" ?>
<svg baseProfile="full" height="720.0" version="1.1" width="1280.0" xmlns="http://www.w3.org/2000/svg" xmlns:ev="http://www.w3.org/2001/xml-events" xmlns:xlink="http://www.w3.org/1999/xlink">
  <defs>
    <style type="text/css">
<![CDATA[.non-scaling-stroke { vector-effect: non-scaling-stroke; }]]>    </style>
  </defs>
  <svg id="static_1">
    <defs/>
    <path class="non-scaling-stroke" d="M 18.40289923347899 38.7644882995164 L 38.27840076652101 19.393717747727703 L 59.0 40.655245585816914 L 79.72159923347898 19.393717747727703 L 99.59710076652101 38.7644882995164 L 78.37717927971471 60.53732283464567 L 99.59710076652101 82.31015736977494 L 79.72159923347898 101.68092792156364 L 59.0 80.41940008347441 L 38.27840076652101 101.68092792156364 L 18.40289923347899 82.31015736977494 L 39.62282072028528 60.53732283464567 Z" fill="#000000" stroke="#41719c" stroke-width="3" transform="matrix(1.0,0.0,0.0,1.0,87.75863517060367,263.6983727034121)"/>
  </svg>
  <svg id="static_2">
    <defs/>
    <path class="non-scaling-stroke" d="M 18.40289923347899 38.7644882995164 L 38.27840076652101 19.393717747727703 L 59.0 40.655245585816914 L 79.72159923347898 19.393717747727703 L 99.59710076652101 38.7644882995164 L 78.37717927971471 60.53732283464567 L 99.59710076652101 82.31015736977494 L 79.72159923347898 101.68092792156364 L 59.0 80.41940008347441 L 38.27840076652101 101.68092792156364 L 18.40289923347899 82.31015736977494 L 39.62282072028528 60.53732283464567 Z" fill="#000000" stroke="#41719c" stroke-width="3" transform="matrix(1.0,0.0,0.0,1.0,87.75863517060367,372.23569553805777)"/>
  </svg>
  <svg id="static_3">
    <defs/>
    <path class="non-scaling-stroke" d="M 18.40289923347899 38.7644882995164 L 38.27840076652101 19.393717747727703 L 59.0 40.655245585816914 L 79.72159923347898 19.393717747727703 L 99.59710076652101 38.7644882995164 L 78.37717927971471 60.53732283464567 L 99.59710076652101 82.31015736977494 L 79.72159923347898 101.68092792156364 L 59.0 80.41940008347441 L 38.27840076652101 101.68092792156364 L 18.40289923347899 82.31015736977494 L 39.62282072028528 60.53732283464567 Z" fill="#000000" stroke="#41719c" stroke-width="3" transform="matrix(1.0,0.0,0.0,1.0,1074.2413648293964,384.7730183727034)"/>
  </svg>
  <svg id="dynamic">
    <defs/>
    <path class="non-scaling-stroke" d="M 18.40289923347899 38.7644882995164 L 38.27840076652101 19.393717747727703 L 59.0 40.655245585816914 L 79.72159923347898 19.393717747727703 L 99.59710076652101 38.7644882995164 L 78.37717927971471 60.53732283464567 L 99.59710076652101 82.31015736977494 L 79.72159923347898 101.68092792156364 L 59.0 80.41940008347441 L 38.27840076652101 101.68092792156364 L 18.40289923347899 82.31015736977494 L 39.62282072028528 60.53732283464567 Z" fill="#000000" stroke="#41719c" stroke-width="3" transform="matrix(1.0,0.0,0.0,1.0,581.0,86.23569553805774)"/>
  </svg>
</svg>
