<?xml version="1.0" encoding="utf-8" ?>
<svg baseProfile="full" height="720.0" version="1.1" width="1280.0" xmlns="http://www.w3.org/2000/svg" xmlns:ev="http://www.w3.org/2001/xml-events" xmlns:xlink="http://www.w3.org/1999/xlink">
  <defs>
    <style type="text/css">
<![CDATA[.non-scaling-stroke { vector-effect: non-scaling-stroke; }]]>    </style>
  </defs>
  <svg id="static_1">
    <defs/>
    <path class="non-scaling-stroke" d="M 0.0 0.0 L 372.12367454068243 0.0 L 372.12367454068243 219.71128608923885 L 0.0 219.71128608923885 Z" fill="#cf1203" stroke="#cf1203" stroke-width="3" transform="matrix(1.0,0.0,0.0,1.0,40.65553805774278,209.7303937007874)"/>
  </svg>
  <svg id="static_2">
    <defs/>
    <path class="non-scaling-stroke" d="M 0.0 0.0 L 183.91748031496064 0.0 L 183.91748031496064 32.00010498687664 L 0.0 32.00010498687664 Z" fill="#ffffff" stroke="#ffffff" stroke-width="3" transform="matrix(1.0,0.0,0.0,1.0,40.81018372703412,255.58603674540683)"/>
  </svg>
  <svg id="static_3">
    <defs/>
    <path class="non-scaling-stroke" d="M 0.0 0.0 L 372.12367454068243 0.0 L 372.12367454068243 219.71128608923885 L 0.0 219.71128608923885 Z" fill="#cf1203" stroke="#cf1203" stroke-width="3" transform="matrix(1.0,0.0,0.0,1.0,850.621312335958,209.7303937007874)"/>
  </svg>
  <svg id="static_4">
    <defs/>
    <path class="non-scaling-stroke" d="M 0.0 0.0 L 183.91748031496064 0.0 L 183.91748031496064 32.00010498687664 L 0.0 32.00010498687664 Z" fill="#ffffff" stroke="#ffffff" stroke-width="3" transform="matrix(1.0,0.0,0.0,1.0,850.621312335958,265.11422572178475)"/>
  </svg>
  <svg id="static_5">
    <defs/>
    <path class="non-scaling-stroke" d="M 0.0 0.0 L 183.91748031496064 0.0 L 183.91748031496064 32.00010498687664 L 0.0 32.00010498687664 Z" fill="#ffffff" stroke="#ffffff" stroke-width="3" transform="matrix(1.0,0.0,0.0,1.0,228.86173228346456,343.99989501312336)"/>
  </svg>
  <svg id="dynamic">
    <defs/>
    <path class="non-scaling-stroke" d="M 0.0 0.0 L 183.91748031496064 0.0 L 183.91748031496064 32.00010498687664 L 0.0 32.00010498687664 Z" fill="#cf1203" stroke="#cf1203" stroke-width="3" transform="matrix(1.0,0.0,0.0,1.0,40.65553805774278,111.31328083989501)"/>
    <animate attributeName="opacity" dur="1s" repeatCount="3" values="1;0;1"/>
  </svg>
</svg>
