<?xml version="1.0" encoding="utf-8" ?>
<svg baseProfile="full" height="720.0" version="1.1" width="1280.0" xmlns="http://www.w3.org/2000/svg" xmlns:ev="http://www.w3.org/2001/xml-events" xmlns:xlink="http://www.w3.org/1999/xlink">
  <defs>
    <style type="text/css">
<![CDATA[.non-scaling-stroke { vector-effect: non-scaling-stroke; }]]>    </style>
  </defs>
  <svg id="static_1">
    <defs/>
    <path class="non-scaling-stroke" d="M 0.0 0.0 L 408.2263517060367 0.0 L 408.2263517060367 231.7330183727034 L 0.0 231.7330183727034 Z" fill="#a35fd1" stroke="#ffffff" stroke-width="3" transform="matrix(1.0,0.0,0.0,1.0,435.8868241469816,149.1589501312336)"/>
  </svg>
  <svg id="static_2">
    <defs/>
    <path class="non-scaling-stroke" d="M 0.0 96.0 L 0.0 0.0 L 96.0 96.0 Z" fill="#ffffff" stroke="#c967bb" stroke-width="3" transform="matrix(-0.7128766243047461,0.7012894684221844,-0.7012894684221844,-0.7128766243047461,707.8799724508926,381.38862442724485)"/>
  </svg>
  <svg id="static_3">
    <defs/>
    <path class="non-scaling-stroke" d="M 15.0 147.0 L 14.0 38.0 L 0.0 39.0 L 15.0 0.0 L 31.0 38.0 L 10.0 37.0" fill="#ffffff" stroke="#5b9bd5" stroke-width="3" transform="matrix(-1.8369701987210297e-16,-1.0,1.4620765261485171,-2.6857910067843944e-16,704.0747506561679,629.9081364829395)"/>
  </svg>
  <svg id="dynamic">
    <defs/>
    <path class="non-scaling-stroke" d="M 0.0 96.0 L 0.0 0.0 L 96.0 96.0 Z" fill="#a35fd1" stroke="#41719c" stroke-width="3" transform="matrix(-0.7189149191094579,0.6950980787499282,-0.6950980787499282,-0.7189149191094579,719.0241199602427,653.2706624054988)"/>
    <animate attributeName="opacity" dur="1s" repeatCount="3" values="1;0;1"/>
  </svg>
</svg>
