<?xml version="1.0" encoding="utf-8" ?>
<svg baseProfile="full" height="720.0" version="1.1" width="1280.0" xmlns="http://www.w3.org/2000/svg" xmlns:ev="http://www.w3.org/2001/xml-events" xmlns:xlink="http://www.w3.org/1999/xlink">
  <defs>
    <style type="text/css">
<![CDATA[.non-scaling-stroke { vector-effect: non-scaling-stroke; }]]>    </style>
  </defs>
  <svg id="static_1">
    <defs/>
    <path class="non-scaling-stroke" d="M 0.0 40.21753280839895 A 37.0 40.21753280839895 0 1 1 0.0 40.21753280839896 Z" fill="#ffffff" stroke="#5b9bd5" stroke-width="3" transform="matrix(1.0,0.0,0.0,1.0,109.85354330708661,140.5649343832021)"/>
    <path class="non-scaling-stroke" d="M 21.292129629629628 28.189511422183337 A 3.8541666666666665 4.189326334208224 0 1 1 21.292129629629628 28.189511422183337 M 44.99953703703704 28.189511422183337 A 3.8541666666666665 4.189326334208224 0 1 1 44.99953703703704 28.189511422183337" fill="#ffffff" stroke="#5b9bd5" stroke-width="3" transform="matrix(1.0,0.0,0.0,1.0,109.85354330708661,140.5649343832021)"/>
    <path class="non-scaling-stroke" d="M 16.94575786902622 61.75670279615048 Q 37.0 60.72713395625547 57.0074074074074 61.75670279615048" fill="#ffffff" stroke="#5b9bd5" stroke-width="3" transform="matrix(1.0,0.0,0.0,1.0,109.85354330708661,140.5649343832021)"/>
    <path class="non-scaling-stroke" d="M 0.0 40.21753280839895 A 37.0 40.21753280839895 0 1 1 0.0 40.21753280839896 Z" fill="#ffffff" stroke="#5b9bd5" stroke-width="3" transform="matrix(1.0,0.0,0.0,1.0,109.85354330708661,140.5649343832021)"/>
  </svg>
  <svg id="static_2">
    <defs/>
    <path class="non-scaling-stroke" d="M 0.0 40.21753280839895 A 37.0 40.21753280839895 0 1 1 0.0 40.21753280839896 Z" fill="#ffd966" stroke="#5b9bd5" stroke-width="3" transform="matrix(1.0,0.0,0.0,1.0,118.85354330708661,499.0)"/>
    <path class="non-scaling-stroke" d="M 21.292129629629628 28.189511422183337 A 3.8541666666666665 4.189326334208224 0 1 1 21.292129629629628 28.189511422183337 M 44.99953703703704 28.189511422183337 A 3.8541666666666665 4.189326334208224 0 1 1 44.99953703703704 28.189511422183337" fill="#ffd966" stroke="#5b9bd5" stroke-width="3" transform="matrix(1.0,0.0,0.0,1.0,118.85354330708661,499.0)"/>
    <path class="non-scaling-stroke" d="M 16.94575786902622 61.75670279615048 Q 37.0 60.72713395625547 57.0074074074074 61.75670279615048" fill="#ffd966" stroke="#5b9bd5" stroke-width="3" transform="matrix(1.0,0.0,0.0,1.0,118.85354330708661,499.0)"/>
    <path class="non-scaling-stroke" d="M 0.0 40.21753280839895 A 37.0 40.21753280839895 0 1 1 0.0 40.21753280839896 Z" fill="#ffd966" stroke="#5b9bd5" stroke-width="3" transform="matrix(1.0,0.0,0.0,1.0,118.85354330708661,499.0)"/>
  </svg>
  <svg id="static_3">
    <defs/>
    <path class="non-scaling-stroke" d="M 0.0 40.21753280839895 A 37.0 40.21753280839895 0 1 1 0.0 40.21753280839896 Z" fill="#a9d18e" stroke="#5b9bd5" stroke-width="3" transform="matrix(1.0,0.0,0.0,1.0,1096.1464566929135,140.5649343832021)"/>
    <path class="non-scaling-stroke" d="M 21.292129629629628 28.189511422183337 A 3.8541666666666665 4.189326334208224 0 1 1 21.292129629629628 28.189511422183337 M 44.99953703703704 28.189511422183337 A 3.8541666666666665 4.189326334208224 0 1 1 44.99953703703704 28.189511422183337" fill="#a9d18e" stroke="#5b9bd5" stroke-width="3" transform="matrix(1.0,0.0,0.0,1.0,1096.1464566929135,140.5649343832021)"/>
    <path class="non-scaling-stroke" d="M 16.94575786902622 61.75670279615048 Q 37.0 60.72713395625547 57.0074074074074 61.75670279615048" fill="#a9d18e" stroke="#5b9bd5" stroke-width="3" transform="matrix(1.0,0.0,0.0,1.0,1096.1464566929135,140.5649343832021)"/>
    <path class="non-scaling-stroke" d="M 0.0 40.21753280839895 A 37.0 40.21753280839895 0 1 1 0.0 40.21753280839896 Z" fill="#a9d18e" stroke="#5b9bd5" stroke-width="3" transform="matrix(1.0,0.0,0.0,1.0,1096.1464566929135,140.5649343832021)"/>
  </svg>
  <svg id="dynamic">
    <defs/>
    <path class="non-scaling-stroke" d="M 0.0 40.21753280839895 A 37.0 40.21753280839895 0 1 1 0.0 40.21753280839896 Z" fill="#ffffff" stroke="#5b9bd5" stroke-width="3" transform="matrix(1.0,0.0,0.0,1.0,603.0,360.0)"/>
    <path class="non-scaling-stroke" d="M 21.292129629629628 28.189511422183337 A 3.8541666666666665 4.189326334208224 0 1 1 21.292129629629628 28.189511422183337 M 44.99953703703704 28.189511422183337 A 3.8541666666666665 4.189326334208224 0 1 1 44.99953703703704 28.189511422183337" fill="#ffffff" stroke="#5b9bd5" stroke-width="3" transform="matrix(1.0,0.0,0.0,1.0,603.0,360.0)"/>
    <path class="non-scaling-stroke" d="M 16.94575786902622 61.75670279615048 Q 37.0 60.72713395625547 57.0074074074074 61.75670279615048" fill="#ffffff" stroke="#5b9bd5" stroke-width="3" transform="matrix(1.0,0.0,0.0,1.0,603.0,360.0)"/>
    <path class="non-scaling-stroke" d="M 0.0 40.21753280839895 A 37.0 40.21753280839895 0 1 1 0.0 40.21753280839896 Z" fill="#ffffff" stroke="#5b9bd5" stroke-width="3" transform="matrix(1.0,0.0,0.0,1.0,603.0,360.0)"/>
  </svg>
</svg>
