<?xml version="1.0" encoding="utf-8" ?>
<svg baseProfile="full" height="720.0" version="1.1" width="1280.0" xmlns="http://www.w3.org/2000/svg" xmlns:ev="http://www.w3.org/2001/xml-events" xmlns:xlink="http://www.w3.org/1999/xlink">
  <defs>
    <style type="text/css">
<![CDATA[.non-scaling-stroke { vector-effect: non-scaling-stroke; }]]>    </style>
  </defs>
  <svg id="dynamic">
    <defs/>
    <path class="non-scaling-stroke" d="M 0.0 12.72 L 77.28 12.72 L 77.28 0.0 L 102.72 25.44 L 77.28 50.88 L 77.28 38.16 L 0.0 38.16 Z" fill="#5b9bd5" stroke="#41719c" stroke-width="3" transform="matrix(1.0,0.0,0.0,1.0,539.1554855643045,144.3940157480315)"/>
  </svg>
  <svg id="static_1">
    <defs/>
    <path class="non-scaling-stroke" d="M 0.0 12.72 L 77.28 12.72 L 77.28 0.0 L 102.72 25.44 L 77.28 50.88 L 77.28 38.16 L 0.0 38.16 Z" fill="#5b9bd5" stroke="#41719c" stroke-width="3" transform="matrix(1.0,0.0,0.0,1.0,342.85774278215223,221.88188976377953)"/>
  </svg>
  <svg id="static_2">
    <defs/>
    <path class="non-scaling-stroke" d="M 0.0 12.72 L 77.28 12.72 L 77.28 0.0 L 102.72 25.44 L 77.28 50.88 L 77.28 38.16 L 0.0 38.16 Z" fill="#5b9bd5" stroke="#41719c" stroke-width="3" transform="matrix(1.0,0.0,0.0,1.0,342.85774278215223,280.8103937007874)"/>
  </svg>
  <svg id="static_3">
    <defs/>
    <path class="non-scaling-stroke" d="M 0.0 12.72 L 77.28 12.72 L 77.28 0.0 L 102.72 25.44 L 77.28 50.88 L 77.28 38.16 L 0.0 38.16 Z" fill="#5b9bd5" stroke="#41719c" stroke-width="3" transform="matrix(1.0,0.0,0.0,1.0,539.1554855643045,487.9849868766404)"/>
  </svg>
  <svg id="static_4">
    <defs/>
    <path class="non-scaling-stroke" d="M 0.0 12.72 L 77.28 12.72 L 77.28 0.0 L 102.72 25.44 L 77.28 50.88 L 77.28 38.16 L 0.0 38.16 Z" fill="#5b9bd5" stroke="#41719c" stroke-width="3" transform="matrix(1.0,0.0,0.0,1.0,539.1554855643045,548.4636220472441)"/>
  </svg>
</svg>
