<?xml version="1.0" encoding="utf-8" ?>
<svg baseProfile="full" height="720.0" version="1.1" width="1280.0" xmlns="http://www.w3.org/2000/svg" xmlns:ev="http://www.w3.org/2001/xml-events" xmlns:xlink="http://www.w3.org/1999/xlink">
  <defs>
    <style type="text/css">
<![CDATA[.non-scaling-stroke { vector-effect: non-scaling-stroke; }]]>    </style>
  </defs>
  <svg id="static_1">
    <defs/>
    <path class="non-scaling-stroke" d="M 0.0 0.0 L 251.15149606299212 0.0 L 251.15149606299212 96.0 L 0.0 96.0 Z" fill="#afabab" stroke="#41719c" stroke-width="3" transform="matrix(1.0,0.0,0.0,1.0,226.42425196850394,183.6903937007874)"/>
  </svg>
  <svg id="static_2">
    <defs/>
    <path class="non-scaling-stroke" d="M 0.0 0.00010498687664041995 L 0.00010498687664041995 0.0 L 0.0002099737532808399 0.00010498687664041995 L 0.00010498687664041995 0.0002099737532808399 Z" fill="#ffffff" stroke="#7f7f7f" stroke-width="3" transform="matrix(286327.0,0.0,0.0,184727.49999999997,271.87884514435694,221.21207349081365)"/>
  </svg>
  <svg id="static_3">
    <defs/>
    <path class="non-scaling-stroke" d="M 0.0 0.0 L 251.15149606299212 0.0 L 251.15149606299212 96.0 L 0.0 96.0 Z" fill="#ffc000" stroke="#41719c" stroke-width="3" transform="matrix(1.0,0.0,0.0,1.0,822.4242519685039,183.6903937007874)"/>
  </svg>
  <svg id="static_4">
    <defs/>
    <path class="non-scaling-stroke" d="M 0.0 0.00010498687664041995 L 0.00010498687664041995 0.0 L 0.0002099737532808399 0.00010498687664041995 L 0.00010498687664041995 0.0002099737532808399 Z" fill="#ffffff" stroke="#ffc000" stroke-width="3" transform="matrix(286327.0,0.0,0.0,184727.49999999997,917.9394225721785,212.2963779527559)"/>
  </svg>
  <svg id="static_5">
    <defs/>
    <path class="non-scaling-stroke" d="M 0.0 0.00010498687664041995 L 0.00010498687664041995 0.0 L 0.0002099737532808399 0.00010498687664041995 L 0.00010498687664041995 0.0002099737532808399 Z" fill="#ffffff" stroke="#7f7f7f" stroke-width="3" transform="matrix(286327.0,0.0,0.0,184727.49999999997,377.87884514435694,221.21207349081365)"/>
  </svg>
  <svg id="dynamic">
    <defs/>
    <path class="non-scaling-stroke" d="M 0.0 0.00010498687664041995 L 0.00010498687664041995 0.0 L 0.0002099737532808399 0.00010498687664041995 L 0.00010498687664041995 0.0002099737532808399 Z" fill="#a6a6a6" stroke="#41719c" stroke-width="3" transform="matrix(286327.0,0.0,0.0,184727.49999999997,617.9394225721785,486.45018372703413)"/>
    <animate attributeName="opacity" dur="1s" repeatCount="3" values="1;0;1"/>
  </svg>
</svg>
