<?xml version="1.0" encoding="utf-8" ?>
<svg baseProfile="full" height="720.0" version="1.1" width="1280.0" xmlns="http://www.w3.org/2000/svg" xmlns:ev="http://www.w3.org/2001/xml-events" xmlns:xlink="http://www.w3.org/1999/xlink">
  <defs>
    <style type="text/css">
<![CDATA[.non-scaling-stroke { vector-effect: non-scaling-stroke; }]]>    </style>
  </defs>
  <svg id="static_1">
    <defs/>
    <path class="non-scaling-stroke" d="M 0.0 32.23490813648294 A 62.3449343832021 32.23490813648294 0 0 1 62.3449343832021 -6.111040515849597e-15 A 62.3449343832021 32.23490813648294 0 0 1 124.6898687664042 32.23490813648292 A 62.3449343832021 32.23490813648294 0 0 1 62.3449343832021 64.46981627296586 A 62.3449343832021 32.23490813648294 0 0 1 0.0 32.23490813648292 Z" fill="#a9d18e" stroke="#41719c" stroke-width="3" transform="matrix(1.0,0.0,0.0,1.0,943.4480839895014,580.235905511811)"/>
  </svg>
  <svg id="static_2">
    <defs/>
    <path class="non-scaling-stroke" d="M 0.0 32.23490813648294 A 62.3449343832021 32.23490813648294 0 0 1 62.3449343832021 -6.111040515849597e-15 A 62.3449343832021 32.23490813648294 0 0 1 124.6898687664042 32.23490813648292 A 62.3449343832021 32.23490813648294 0 0 1 62.3449343832021 64.46981627296586 A 62.3449343832021 32.23490813648294 0 0 1 0.0 32.23490813648292 Z" fill="#a9d18e" stroke="#41719c" stroke-width="3" transform="matrix(1.0,0.0,0.0,1.0,289.6550131233596,231.486719160105)"/>
  </svg>
  <svg id="static_3">
    <defs/>
    <path class="non-scaling-stroke" d="M 15.0 147.0 L 14.0 38.0 L 0.0 39.0 L 15.0 0.0 L 31.0 38.0 L 10.0 37.0" fill="#ffffff" stroke="#5b9bd5" stroke-width="3" transform="matrix(-1.0,1.2246467991473532e-16,-1.2246467991473532e-16,-1.0,626.8099737532808,231.48671916010497)"/>
  </svg>
  <svg id="dynamic">
    <defs/>
    <path class="non-scaling-stroke" d="M 0.0 32.23490813648294 A 62.3449343832021 32.23490813648294 0 0 1 62.3449343832021 -6.111040515849597e-15 A 62.3449343832021 32.23490813648294 0 0 1 124.6898687664042 32.23490813648292 A 62.3449343832021 32.23490813648294 0 0 1 62.3449343832021 64.46981627296586 A 62.3449343832021 32.23490813648294 0 0 1 0.0 32.23490813648292 Z" fill="#a9d18e" stroke="#41719c" stroke-width="3" transform="matrix(1.0,0.0,0.0,1.0,548.9651443569554,231.48682414698163)"/>
    <animate attributeName="opacity" dur="1s" repeatCount="3" values="1;0;1"/>
  </svg>
</svg>
