<?xml version="1.0" encoding="utf-8" ?>
<svg baseProfile="full" height="720.0" version="1.1" width="1280.0" xmlns="http://www.w3.org/2000/svg" xmlns:ev="http://www.w3.org/2001/xml-events" xmlns:xlink="http://www.w3.org/1999/xlink">
  <defs>
    <style type="text/css">
<![CDATA[.non-scaling-stroke { vector-effect: non-scaling-stroke; }]]>    </style>
  </defs>
  <svg id="static_1">
    <defs/>
    <path class="non-scaling-stroke" d="M 0.0 0.0 L 320.0 0.0 L 320.0 123.42855643044619 L 0.0 123.42855643044619 Z" fill="#5b9bd5" stroke="#5b9bd5" stroke-width="3" transform="matrix(1.0,0.0,0.0,1.0,91.0,176.76178477690289)"/>
  </svg>
  <svg id="static_2">
    <defs/>
    <path class="non-scaling-stroke" d="M 0.0 0.0 L 22.857165354330707 0.0 A 22.857165354330707 21.493333333333332 0 1 1 22.857165354330718 42.986666666666665 L 0.0 42.986666666666665 Z" fill="#5b9bd5" stroke="#5b9bd5" stroke-width="3" transform="matrix(1.0,0.0,0.0,1.0,411.0,257.2036745406824)"/>
  </svg>
  <svg id="static_3">
    <defs/>
    <path class="non-scaling-stroke" d="M 0.0 0.0 L 22.857165354330707 0.0 A 22.857165354330707 21.493333333333332 0 1 1 22.857165354330718 42.986666666666665 L 0.0 42.986666666666665 Z" fill="#ffffff" stroke="#5b9bd5" stroke-width="3" transform="matrix(-1.8369701987210297e-16,-1.0,1.0,-1.8369701987210297e-16,149.44603674540687,300.1902887139107)"/>
  </svg>
  <svg id="static_4">
    <defs/>
    <path class="non-scaling-stroke" d="M 0.0 0.0 L 22.857165354330707 0.0 A 22.857165354330707 21.493333333333332 0 1 1 22.857165354330718 42.986666666666665 L 0.0 42.986666666666665 Z" fill="#5b9bd5" stroke="#5b9bd5" stroke-width="3" transform="matrix(-1.0,1.2246467991473532e-16,-1.2246467991473532e-16,-1.0,90.44587926509188,219.74845144356956)"/>
  </svg>
  <svg id="static_5">
    <defs/>
    <path class="non-scaling-stroke" d="M 0.0 0.0 L 22.857165354330707 0.0 A 22.857165354330707 21.493333333333332 0 1 1 22.857165354330718 42.986666666666665 L 0.0 42.986666666666665 Z" fill="#5b9bd5" stroke="#5b9bd5" stroke-width="3" transform="matrix(1.0,0.0,0.0,1.0,411.0,176.76178477690289)"/>
  </svg>
  <svg id="static_6">
    <defs/>
    <path class="non-scaling-stroke" d="M 0.0 0.0 L 22.857165354330707 0.0 A 22.857165354330707 21.493333333333332 0 1 1 22.857165354330718 42.986666666666665 L 0.0 42.986666666666665 Z" fill="#5b9bd5" stroke="#5b9bd5" stroke-width="3" transform="matrix(-1.0,1.2246467991473532e-16,-1.2246467991473532e-16,-1.0,90.44587926509186,300.1903412073491)"/>
  </svg>
  <svg id="static_7">
    <defs/>
    <path class="non-scaling-stroke" d="M 0.0 0.0 L 22.857165354330707 0.0 A 22.857165354330707 21.493333333333332 0 1 1 22.857165354330718 42.986666666666665 L 0.0 42.986666666666665 Z" fill="#ffffff" stroke="#5b9bd5" stroke-width="3" transform="matrix(-1.8369701987210297e-16,-1.0,1.0,-1.8369701987210297e-16,313.44603674540684,300.19007874015745)"/>
  </svg>
  <svg id="static_8">
    <defs/>
    <path class="non-scaling-stroke" d="M 0.0 0.0 L 320.0 0.0 L 320.0 123.42855643044619 L 0.0 123.42855643044619 Z" fill="#bdd7ee" stroke="#bdd7ee" stroke-width="3" transform="matrix(1.0,0.0,0.0,1.0,776.7143307086615,176.76178477690289)"/>
  </svg>
  <svg id="static_9">
    <defs/>
    <path class="non-scaling-stroke" d="M 0.0 0.0 L 22.857165354330707 0.0 A 22.857165354330707 21.493333333333332 0 1 1 22.857165354330718 42.986666666666665 L 0.0 42.986666666666665 Z" fill="#bdd7ee" stroke="#bdd7ee" stroke-width="3" transform="matrix(1.0,0.0,0.0,1.0,1096.7143307086615,257.2036745406824)"/>
  </svg>
  <svg id="static_10">
    <defs/>
    <path class="non-scaling-stroke" d="M 0.0 0.0 L 22.857165354330707 0.0 A 22.857165354330707 21.493333333333332 0 1 1 22.857165354330718 42.986666666666665 L 0.0 42.986666666666665 Z" fill="#bdd7ee" stroke="#bdd7ee" stroke-width="3" transform="matrix(-1.0,1.2246467991473532e-16,-1.2246467991473532e-16,-1.0,776.1602099737534,219.7484514435696)"/>
  </svg>
  <svg id="static_11">
    <defs/>
    <path class="non-scaling-stroke" d="M 0.0 0.0 L 22.857165354330707 0.0 A 22.857165354330707 21.493333333333332 0 1 1 22.857165354330718 42.986666666666665 L 0.0 42.986666666666665 Z" fill="#bdd7ee" stroke="#bdd7ee" stroke-width="3" transform="matrix(1.0,0.0,0.0,1.0,1096.7143307086615,176.76178477690289)"/>
  </svg>
  <svg id="static_12">
    <defs/>
    <path class="non-scaling-stroke" d="M 0.0 0.0 L 22.857165354330707 0.0 A 22.857165354330707 21.493333333333332 0 1 1 22.857165354330718 42.986666666666665 L 0.0 42.986666666666665 Z" fill="#bdd7ee" stroke="#bdd7ee" stroke-width="3" transform="matrix(-1.0,1.2246467991473532e-16,-1.2246467991473532e-16,-1.0,776.1602099737534,300.1903412073491)"/>
  </svg>
  <svg id="static_13">
    <defs/>
    <path class="non-scaling-stroke" d="M 0.0 0.0 L 22.857165354330707 0.0 A 22.857165354330707 21.493333333333332 0 1 1 22.857165354330718 42.986666666666665 L 0.0 42.986666666666665 Z" fill="#ffffff" stroke="#e7e6e6" stroke-width="3" transform="matrix(-1.8369701987210297e-16,-1.0,1.0,-1.8369701987210297e-16,999.1603674540683,300.19007874015756)"/>
  </svg>
  <svg id="dynamic">
    <defs/>
    <path class="non-scaling-stroke" d="M 0.0 0.0 L 22.857165354330707 0.0 A 22.857165354330707 21.493333333333332 0 1 1 22.857165354330718 42.986666666666665 L 0.0 42.986666666666665 Z" fill="#5b9bd5" stroke="#41719c" stroke-width="3" transform="matrix(-1.8369701987210297e-16,-1.0,1.0,-1.8369701987210297e-16,608.6019422572178,669.5541732283464)"/>
    <animate attributeName="opacity" dur="1s" repeatCount="3" values="1;0;1"/>
  </svg>
</svg>
