<?xml version="1.0" encoding="utf-8" ?>
<svg baseProfile="full" height="720.0" version="1.1" width="1280.0" xmlns="http://www.w3.org/2000/svg" xmlns:ev="http://www.w3.org/2001/xml-events" xmlns:xlink="http://www.w3.org/1999/xlink">
  <defs>
    <style type="text/css">
<![CDATA[.non-scaling-stroke { vector-effect: non-scaling-stroke; }]]>    </style>
  </defs>
  <svg id="static_1">
    <defs/>
    <path class="non-scaling-stroke" d="M 0.0 0.0 L 62.09511811023622 0.0 L 62.09511811023622 59.42855643044619 L 0.0 59.42855643044619 Z" fill="#bfbfbf" stroke="#000000" stroke-width="3" transform="matrix(1.0,0.0,0.0,1.0,1044.8570078740158,197.0849343832021)"/>
  </svg>
  <svg id="static_2">
    <defs/>
    <path class="non-scaling-stroke" d="M 0.0 0.0 L 62.09511811023622 0.0 L 62.09511811023622 59.42855643044619 L 0.0 59.42855643044619 Z" fill="#bfbfbf" stroke="#000000" stroke-width="3" transform="matrix(1.0,0.0,0.0,1.0,961.9048818897638,197.0849343832021)"/>
  </svg>
  <svg id="static_3">
    <defs/>
    <path class="non-scaling-stroke" d="M 0.0 0.0 L 62.09511811023622 0.0 L 62.09511811023622 59.42855643044619 L 0.0 59.42855643044619 Z" fill="#bfbfbf" stroke="#000000" stroke-width="3" transform="matrix(1.0,0.0,0.0,1.0,878.9527559055118,197.0849343832021)"/>
  </svg>
  <svg id="static_4">
    <defs/>
    <path class="non-scaling-stroke" d="M 0.0 0.0 L 62.09511811023622 0.0 L 62.09511811023622 59.42855643044619 L 0.0 59.42855643044619 Z" fill="#bfbfbf" stroke="#000000" stroke-width="3" transform="matrix(1.0,0.0,0.0,1.0,267.31569553805775,195.14929133858269)"/>
  </svg>
  <svg id="static_5">
    <defs/>
    <path class="non-scaling-stroke" d="M 0.0 0.0 L 62.09511811023622 0.0 L 62.09511811023622 59.42855643044619 L 0.0 59.42855643044619 Z" fill="#bfbfbf" stroke="#000000" stroke-width="3" transform="matrix(1.0,0.0,0.0,1.0,184.36356955380577,195.14939632545932)"/>
  </svg>
  <svg id="dynamic">
    <defs/>
    <path class="non-scaling-stroke" d="M 0.0 0.0 L 62.09511811023622 0.0 L 62.09511811023622 59.42855643044619 L 0.0 59.42855643044619 Z" fill="#bfbfbf" stroke="#000000" stroke-width="3" transform="matrix(1.0,0.0,0.0,1.0,601.3812073490814,197.0849343832021)"/>
  </svg>
</svg>
