<?xml version="1.0" encoding="utf-8" ?>
<svg baseProfile="full" height="720.0" version="1.1" width="1280.0" xmlns="http://www.w3.org/2000/svg" xmlns:ev="http://www.w3.org/2001/xml-events" xmlns:xlink="http://www.w3.org/1999/xlink">
  <defs>
    <style type="text/css">
<![CDATA[.non-scaling-stroke { vector-effect: non-scaling-stroke; }]]>    </style>
  </defs>
  <svg id="static_1">
    <defs/>
    <path class="non-scaling-stroke" d="M 0.0 0.0 L 63.25555232965879 0.0 L 74.79065616797901 11.535103838320211 L 74.79065616797901 69.20923884514436 L 74.79065616797901 69.20923884514436 L 11.535103838320211 69.20923884514436 L 0.0 57.674135006824145 L 0.0 0.0 Z" fill="#5b9bd5" stroke="#41719c" stroke-width="3" transform="matrix(1.0,0.0,0.0,1.0,458.7503412073491,132.46477690288714)"/>
  </svg>
  <svg id="static_2">
    <defs/>
    <path class="non-scaling-stroke" d="M 0.0 0.0 L 63.25555232965879 0.0 L 74.79065616797901 11.535103838320211 L 74.79065616797901 69.20923884514436 L 74.79065616797901 69.20923884514436 L 11.535103838320211 69.20923884514436 L 0.0 57.674135006824145 L 0.0 0.0 Z" fill="#5b9bd5" stroke="#41719c" stroke-width="3" transform="matrix(1.0,0.0,0.0,1.0,570.0772703412074,132.46477690288714)"/>
  </svg>
  <svg id="static_3">
    <defs/>
    <path class="non-scaling-stroke" d="M 0.0 0.0 L 63.25555232965879 0.0 L 74.79065616797901 11.535103838320211 L 74.79065616797901 69.20923884514436 L 74.79065616797901 69.20923884514436 L 11.535103838320211 69.20923884514436 L 0.0 57.674135006824145 L 0.0 0.0 Z" fill="#5b9bd5" stroke="#41719c" stroke-width="3" transform="matrix(1.0,0.0,0.0,1.0,681.4041994750656,132.46477690288714)"/>
  </svg>
  <svg id="dynamic">
    <defs/>
    <path class="non-scaling-stroke" d="M 0.0 0.0 L 63.25555232965879 0.0 L 74.79065616797901 11.535103838320211 L 74.79065616797901 69.20923884514436 L 74.79065616797901 69.20923884514436 L 11.535103838320211 69.20923884514436 L 0.0 57.674135006824145 L 0.0 0.0 Z" fill="#5b9bd5" stroke="#41719c" stroke-width="3" transform="matrix(1.0,0.0,0.0,1.0,570.0772703412074,530.7565354330709)"/>
    <animate attributeName="opacity" dur="1s" repeatCount="3" values="1;0;1"/>
  </svg>
</svg>
