<?xml version="1.0" encoding="utf-8" ?>
<svg baseProfile="full" height="720.0" version="1.1" width="1280.0" xmlns="http://www.w3.org/2000/svg" xmlns:ev="http://www.w3.org/2001/xml-events" xmlns:xlink="http://www.w3.org/1999/xlink">
  <defs>
    <style type="text/css">
<![CDATA[.non-scaling-stroke { vector-effect: non-scaling-stroke; }]]>    </style>
  </defs>
  <svg id="static_1">
    <defs/>
    <path class="non-scaling-stroke" d="M 0.0 0.0 L 146.28577427821523 0.0 L 146.28577427821523 171.92860892388452 L 0.0 171.92860892388452 Z" fill="#fc6c68" stroke="#5b9bd5" stroke-width="3" transform="matrix(1.0,0.0,0.0,1.0,278.8571128608924,196.5714435695538)"/>
  </svg>
  <svg id="static_2">
    <defs/>
    <path class="non-scaling-stroke" d="M 0.0 0.0 L 146.28577427821523 0.0 L 146.28577427821523 171.92860892388452 L 0.0 171.92860892388452 Z" fill="#fc6c68" stroke="#5b9bd5" stroke-width="3" transform="matrix(1.0,0.0,0.0,1.0,814.2659317585302,196.5714435695538)"/>
  </svg>
  <svg id="static_3">
    <defs/>
    <path class="non-scaling-stroke" d="M 0.0 14.896377952755905 L 14.896377952755905 14.896377952755905 L 14.896377952755905 0.0 L 50.20703412073491 0.0 L 50.20703412073491 14.896377952755905 L 65.10341207349082 14.896377952755905 L 65.10341207349082 44.68913385826772 L 50.20703412073491 44.68913385826772 L 50.20703412073491 59.58551181102362 L 14.896377952755905 59.58551181102362 L 14.896377952755905 44.68913385826772 L 0.0 44.68913385826772 Z" fill="#ffffff" stroke="#fc6c68" stroke-width="3" transform="matrix(1.0,0.0,0.0,1.0,854.8571128608924,252.74299212598424)"/>
  </svg>
  <svg id="static_4">
    <defs/>
    <path class="non-scaling-stroke" d="M 0.0 14.896377952755905 L 14.896377952755905 14.896377952755905 L 14.896377952755905 0.0 L 50.20703412073491 0.0 L 50.20703412073491 14.896377952755905 L 65.10341207349082 14.896377952755905 L 65.10341207349082 44.68913385826772 L 50.20703412073491 44.68913385826772 L 50.20703412073491 59.58551181102362 L 14.896377952755905 59.58551181102362 L 14.896377952755905 44.68913385826772 L 0.0 44.68913385826772 Z" fill="#ffffff" stroke="#fc6c68" stroke-width="3" transform="matrix(1.0,0.0,0.0,1.0,319.44829396325457,252.74299212598424)"/>
  </svg>
  <svg id="static_5">
    <defs/>
    <path class="non-scaling-stroke" d="M 15.0 147.0 L 14.0 38.0 L 0.0 39.0 L 15.0 0.0 L 31.0 38.0 L 10.0 37.0" fill="#ffffff" stroke="#5b9bd5" stroke-width="3" transform="matrix(6.123233995736766e-17,1.0,-2.2026896637920257,1.3487584231389319e-16,606.6524934383201,594.5082414698163)"/>
  </svg>
  <svg id="dynamic">
    <defs/>
    <path class="non-scaling-stroke" d="M 0.0 14.896377952755905 L 14.896377952755905 14.896377952755905 L 14.896377952755905 0.0 L 50.20703412073491 0.0 L 50.20703412073491 14.896377952755905 L 65.10341207349082 14.896377952755905 L 65.10341207349082 44.68913385826772 L 50.20703412073491 44.68913385826772 L 50.20703412073491 59.58551181102362 L 14.896377952755905 59.58551181102362 L 14.896377952755905 44.68913385826772 L 0.0 44.68913385826772 Z" fill="#fc6c68" stroke="#fc6c68" stroke-width="3" transform="matrix(1.0,0.0,0.0,1.0,616.2759055118111,580.2155380577428)"/>
    <animate attributeName="opacity" dur="1s" repeatCount="3" values="1;0;1"/>
  </svg>
</svg>
