<?xml version="1.0" encoding="utf-8" ?>
<svg baseProfile="full" height="720.0" version="1.1" width="1280.0" xmlns="http://www.w3.org/2000/svg" xmlns:ev="http://www.w3.org/2001/xml-events" xmlns:xlink="http://www.w3.org/1999/xlink">
  <defs>
    <style type="text/css">
<![CDATA[.non-scaling-stroke { vector-effect: non-scaling-stroke; }]]>    </style>
  </defs>
  <svg id="static_1">
    <defs/>
    <path class="non-scaling-stroke" d="M 0.0 32.23490813648294 A 62.3449343832021 32.23490813648294 0 0 1 62.3449343832021 -6.111040515849597e-15 A 62.3449343832021 32.23490813648294 0 0 1 124.6898687664042 32.23490813648292 A 62.3449343832021 32.23490813648294 0 0 1 62.3449343832021 64.46981627296586 A 62.3449343832021 32.23490813648294 0 0 1 0.0 32.23490813648292 Z" fill="#a9d18e" stroke="#41719c" stroke-width="3" transform="matrix(1.0,0.0,0.0,1.0,943.4480839895014,580.235905511811)"/>
  </svg>
  <svg id="static_2">
    <defs/>
    <path class="non-scaling-stroke" d="M 0.0 32.23490813648294 A 62.3449343832021 32.23490813648294 0 0 1 62.3449343832021 -6.111040515849597e-15 A 62.3449343832021 32.23490813648294 0 0 1 124.6898687664042 32.23490813648292 A 62.3449343832021 32.23490813648294 0 0 1 62.3449343832021 64.46981627296586 A 62.3449343832021 32.23490813648294 0 0 1 0.0 32.23490813648292 Z" fill="#a9d18e" stroke="#41719c" stroke-width="3" transform="matrix(1.0,0.0,0.0,1.0,937.9943307086614,308.9312335958005)"/>
  </svg>
  <svg id="static_3">
    <defs/>
    <path class="non-scaling-stroke" d="M 0.0 92.0 L 44.0 125.0 L 45.0 77.0 L 88.0 107.0 L 88.0 59.0 L 129.0 90.0 L 132.0 36.0 L 171.0 68.0 L 175.0 17.0 L 216.0 48.0 L 218.0 0.0 L 241.0 19.0 L 249.0 10.0 L 272.0 36.0 L 234.0 32.0 L 242.0 19.0" fill="#ffffff" stroke="#5b9bd5" stroke-width="3" transform="matrix(0.38099641675772783,0.9245765140959248,0.9245765140959248,-0.38099641675772783,478.362444691266,74.56976514343552)"/>
  </svg>
  <svg id="dynamic">
    <defs/>
    <path class="non-scaling-stroke" d="M 0.0 32.23490813648294 A 62.3449343832021 32.23490813648294 0 0 1 62.3449343832021 -6.111040515849597e-15 A 62.3449343832021 32.23490813648294 0 0 1 124.6898687664042 32.23490813648292 A 62.3449343832021 32.23490813648294 0 0 1 62.3449343832021 64.46981627296586 A 62.3449343832021 32.23490813648294 0 0 1 0.0 32.23490813648292 Z" fill="#a9d18e" stroke="#41719c" stroke-width="3" transform="matrix(1.0,0.0,0.0,1.0,546.8938582677165,311.03286089238844)"/>
    <animate attributeName="opacity" dur="1s" repeatCount="3" values="1;0;1"/>
  </svg>
</svg>
