<?xml version="1.0" encoding="utf-8" ?>
<svg baseProfile="full" height="720.0" version="1.1" width="1280.0" xmlns="http://www.w3.org/2000/svg" xmlns:ev="http://www.w3.org/2001/xml-events" xmlns:xlink="http://www.w3.org/1999/xlink">
  <defs>
    <style type="text/css">
<![CDATA[.non-scaling-stroke { vector-effect: non-scaling-stroke; }]]>    </style>
  </defs>
  <svg id="static_1">
    <defs/>
    <path class="non-scaling-stroke" d="M 0.0 30.69763779527559 L 24.81156147936344 25.271010832413634 L 30.139527559055118 0.0 L 35.467493638746795 25.271010832413634 L 60.279055118110236 30.69763779527559 L 35.467493638746795 36.12426475813755 L 30.139527559055118 61.39527559055118 L 24.81156147936344 36.12426475813755 Z" fill="#5b9bd5" stroke="#41719c" stroke-width="3" transform="matrix(1.0,0.0,0.0,1.0,287.4419947506562,288.20766404199475)"/>
  </svg>
  <svg id="static_2">
    <defs/>
    <path class="non-scaling-stroke" d="M 0.0 30.69763779527559 L 24.81156147936344 25.271010832413634 L 30.139527559055118 0.0 L 35.467493638746795 25.271010832413634 L 60.279055118110236 30.69763779527559 L 35.467493638746795 36.12426475813755 L 30.139527559055118 61.39527559055118 L 24.81156147936344 36.12426475813755 Z" fill="#5b9bd5" stroke="#41719c" stroke-width="3" transform="matrix(1.0,0.0,0.0,1.0,286.5117060367454,364.6766404199475)"/>
  </svg>
  <svg id="static_3">
    <defs/>
    <path class="non-scaling-stroke" d="M 0.0 30.69763779527559 L 24.81156147936344 25.271010832413634 L 30.139527559055118 0.0 L 35.467493638746795 25.271010832413634 L 60.279055118110236 30.69763779527559 L 35.467493638746795 36.12426475813755 L 30.139527559055118 61.39527559055118 L 24.81156147936344 36.12426475813755 Z" fill="#5b9bd5" stroke="#41719c" stroke-width="3" transform="matrix(1.0,0.0,0.0,1.0,286.5117060367454,211.738687664042)"/>
  </svg>
  <svg id="static_4">
    <defs/>
    <path class="non-scaling-stroke" d="M 0.0 30.69763779527559 L 24.81156147936344 25.271010832413634 L 30.139527559055118 0.0 L 35.467493638746795 25.271010832413634 L 60.279055118110236 30.69763779527559 L 35.467493638746795 36.12426475813755 L 30.139527559055118 61.39527559055118 L 24.81156147936344 36.12426475813755 Z" fill="#5b9bd5" stroke="#41719c" stroke-width="3" transform="matrix(1.0,0.0,0.0,1.0,286.6745406824147,135.26971128608923)"/>
  </svg>
  <svg id="static_5">
    <defs/>
    <path class="non-scaling-stroke" d="M 6.729872589882004e-05 23.4508489436892 L 24.303919576744335 23.451013992973415 L 31.814068241469815 0.0 L 39.324216906195296 23.451013992973415 L 63.62806918421374 23.4508489436892 L 43.965744041560285 37.94420761271194 L 51.47620214220675 61.39511959961789 L 31.814068241469815 46.90149387524347 L 12.15193434073288 61.39511959961789 L 19.662392441379346 37.94420761271194 Z" fill="#ff0000" stroke="#41719c" stroke-width="3" transform="matrix(1.0,0.0,0.0,1.0,751.7967454068241,226.89112860892388)"/>
  </svg>
  <svg id="static_6">
    <defs/>
    <path class="non-scaling-stroke" d="M 6.729872589882004e-05 23.4508489436892 L 24.303919576744335 23.451013992973415 L 31.814068241469815 0.0 L 39.324216906195296 23.451013992973415 L 63.62806918421374 23.4508489436892 L 43.965744041560285 37.94420761271194 L 51.47620214220675 61.39511959961789 L 31.814068241469815 46.90149387524347 L 12.15193434073288 61.39511959961789 L 19.662392441379346 37.94420761271194 Z" fill="#ff0000" stroke="#41719c" stroke-width="3" transform="matrix(1.0,0.0,0.0,1.0,751.4076640419947,311.18173228346456)"/>
  </svg>
  <svg id="static_7">
    <defs/>
    <path class="non-scaling-stroke" d="M 6.729872589882004e-05 23.4508489436892 L 24.303919576744335 23.451013992973415 L 31.814068241469815 0.0 L 39.324216906195296 23.451013992973415 L 63.62806918421374 23.4508489436892 L 43.965744041560285 37.94420761271194 L 51.47620214220675 61.39511959961789 L 31.814068241469815 46.90149387524347 L 12.15193434073288 61.39511959961789 L 19.662392441379346 37.94420761271194 Z" fill="#ff0000" stroke="#41719c" stroke-width="3" transform="matrix(1.0,0.0,0.0,1.0,751.7967454068241,395.4724409448819)"/>
  </svg>
  <svg id="static_8">
    <defs/>
    <path class="non-scaling-stroke" d="M 6.729872589882004e-05 23.4508489436892 L 24.303919576744335 23.451013992973415 L 31.814068241469815 0.0 L 39.324216906195296 23.451013992973415 L 63.62806918421374 23.4508489436892 L 43.965744041560285 37.94420761271194 L 51.47620214220675 61.39511959961789 L 31.814068241469815 46.90149387524347 L 12.15193434073288 61.39511959961789 L 19.662392441379346 37.94420761271194 Z" fill="#ff0000" stroke="#41719c" stroke-width="3" transform="matrix(1.0,0.0,0.0,1.0,751.6293963254593,479.76304461942254)"/>
  </svg>
  <svg id="dynamic">
    <defs/>
    <path class="non-scaling-stroke" d="M 7.418552498526265e-05 23.4508489436892 L 26.79098317169747 23.451013992973415 L 35.06965879265092 0.0 L 43.34833441360437 23.451013992973415 L 70.13924339977684 23.4508489436892 L 48.46483732918874 37.94420761271194 L 56.743854051194866 61.39511959961789 L 35.06965879265092 46.90149387524347 L 13.39546353410697 61.39511959961789 L 21.674480256113096 37.94420761271194 Z" fill="#5b9bd5" stroke="#41719c" stroke-width="3" transform="matrix(1.0,0.0,0.0,1.0,593.8608923884515,540.7713385826771)"/>
    <animate attributeName="opacity" dur="1s" repeatCount="3" values="1;0;1"/>
  </svg>
</svg>
