<?xml version="1.0" encoding="utf-8" ?>
<svg baseProfile="full" height="720.0" version="1.1" width="1280.0" xmlns="http://www.w3.org/2000/svg" xmlns:ev="http://www.w3.org/2001/xml-events" xmlns:xlink="http://www.w3.org/1999/xlink">
  <defs>
    <style type="text/css">
<![CDATA[.non-scaling-stroke { vector-effect: non-scaling-stroke; }]]>    </style>
  </defs>
  <svg id="static_1">
    <defs/>
    <path class="non-scaling-stroke" d="M 0.0 0.0 L 129.64944881889764 0.0 L 129.64944881889764 133.60839895013123 L 0.0 133.60839895013123 Z" fill="#f3753d" stroke="#41719c" stroke-width="3" transform="matrix(1.0,0.0,0.0,1.0,541.9893963254593,169.48461942257217)"/>
  </svg>
  <svg id="static_2">
    <defs/>
    <path class="non-scaling-stroke" d="M 0.0 0.0 L 129.64944881889764 0.0 L 129.64944881889764 133.60839895013123 L 0.0 133.60839895013123 Z" fill="#f3753d" stroke="#41719c" stroke-width="3" transform="matrix(1.0,0.0,0.0,1.0,625.0411548556431,257.3203149606299)"/>
  </svg>
  <svg id="static_3">
    <defs/>
    <path class="non-scaling-stroke" d="M 0.0 0.0 L 47.17564304461942 0.0 L 47.17564304461942 45.5254593175853 L 0.0 45.5254593175853 Z" fill="#ffffff" stroke="#ed7d31" stroke-width="3" transform="matrix(1.0,0.0,0.0,1.0,625.1234645669291,257.5675590551181)"/>
  </svg>
  <svg id="static_4">
    <defs/>
    <path class="non-scaling-stroke" d="M 0.0 0.0 L 47.17564304461942 0.0 L 47.17564304461942 45.5254593175853 L 0.0 45.5254593175853 Z" fill="#ffffff" stroke="#ed7d31" stroke-width="3" transform="matrix(1.0,0.0,0.0,1.0,543.1027821522309,256.9649343832021)"/>
  </svg>
  <svg id="dynamic">
    <defs/>
    <path class="non-scaling-stroke" d="M 0.0 0.0 L 47.17564304461942 0.0 L 47.17564304461942 45.5254593175853 L 0.0 45.5254593175853 Z" fill="#f3753d" stroke="#41719c" stroke-width="3" transform="matrix(1.0,0.0,0.0,1.0,606.8140682414698,651.2782152230972)"/>
    <animate attributeName="opacity" dur="1s" repeatCount="3" values="1;0;1"/>
  </svg>
</svg>
