<?xml version="1.0" encoding="utf-8" ?>
<svg baseProfile="full" height="720.0" version="1.1" width="1280.0" xmlns="http://www.w3.org/2000/svg" xmlns:ev="http://www.w3.org/2001/xml-events" xmlns:xlink="http://www.w3.org/1999/xlink">
  <defs>
    <style type="text/css">
<![CDATA[.non-scaling-stroke { vector-effect: non-scaling-stroke; }]]>    </style>
  </defs>
  <svg id="static_1">
    <defs/>
    <path class="non-scaling-stroke" d="M 0.0 0.0 L 129.64944881889764 0.0 L 129.64944881889764 133.60839895013123 L 0.0 133.60839895013123 Z" fill="#5b9bd5" stroke="#41719c" stroke-width="3" transform="matrix(1.0,0.0,0.0,1.0,106.08230971128609,110.84514435695539)"/>
  </svg>
  <svg id="static_2">
    <defs/>
    <path class="non-scaling-stroke" d="M 0.0 0.0 L 129.64944881889764 0.0 L 129.64944881889764 133.60839895013123 L 0.0 133.60839895013123 Z" fill="#5b9bd5" stroke="#41719c" stroke-width="3" transform="matrix(1.0,0.0,0.0,1.0,188.3917060367454,196.45354330708662)"/>
  </svg>
  <svg id="static_3">
    <defs/>
    <path class="non-scaling-stroke" d="M 0.0 0.0 L 129.64944881889764 0.0 L 129.64944881889764 133.60839895013123 L 0.0 133.60839895013123 Z" fill="#5b9bd5" stroke="#41719c" stroke-width="3" transform="matrix(1.0,0.0,0.0,1.0,270.0411548556431,282.0619422572178)"/>
  </svg>
  <svg id="static_4">
    <defs/>
    <path class="non-scaling-stroke" d="M 0.0 0.0 L 47.17564304461942 0.0 L 47.17564304461942 45.5254593175853 L 0.0 45.5254593175853 Z" fill="#ffffff" stroke="#5b9bd5" stroke-width="3" transform="matrix(1.0,0.0,0.0,1.0,270.8655118110236,282.0619422572178)"/>
  </svg>
  <svg id="static_5">
    <defs/>
    <path class="non-scaling-stroke" d="M 0.0 0.0 L 47.17564304461942 0.0 L 47.17564304461942 45.5254593175853 L 0.0 45.5254593175853 Z" fill="#ffffff" stroke="#5b9bd5" stroke-width="3" transform="matrix(1.0,0.0,0.0,1.0,188.3917060367454,194.96913385826772)"/>
  </svg>
  <svg id="static_6">
    <defs/>
    <path class="non-scaling-stroke" d="M 0.0 0.0 L 129.64944881889764 0.0 L 129.64944881889764 133.60839895013123 L 0.0 133.60839895013123 Z" fill="#be72b1" stroke="#be72b1" stroke-width="3" transform="matrix(1.0,0.0,0.0,1.0,894.0823097112861,99.84514435695539)"/>
  </svg>
  <svg id="static_7">
    <defs/>
    <path class="non-scaling-stroke" d="M 0.0 0.0 L 129.64944881889764 0.0 L 129.64944881889764 133.60839895013123 L 0.0 133.60839895013123 Z" fill="#be72b1" stroke="#be72b1" stroke-width="3" transform="matrix(1.0,0.0,0.0,1.0,976.3917060367454,185.45354330708662)"/>
  </svg>
  <svg id="static_8">
    <defs/>
    <path class="non-scaling-stroke" d="M 0.0 0.0 L 129.64944881889764 0.0 L 129.64944881889764 133.60839895013123 L 0.0 133.60839895013123 Z" fill="#be72b1" stroke="#be72b1" stroke-width="3" transform="matrix(1.0,0.0,0.0,1.0,1058.041154855643,271.0619422572178)"/>
  </svg>
  <svg id="static_9">
    <defs/>
    <path class="non-scaling-stroke" d="M 0.0 0.0 L 47.17564304461942 0.0 L 47.17564304461942 45.5254593175853 L 0.0 45.5254593175853 Z" fill="#ffffff" stroke="#c967bb" stroke-width="3" transform="matrix(1.0,0.0,0.0,1.0,976.3917060367454,183.96913385826772)"/>
  </svg>
  <svg id="dynamic">
    <defs/>
    <path class="non-scaling-stroke" d="M 0.0 0.0 L 47.17564304461942 0.0 L 47.17564304461942 45.5254593175853 L 0.0 45.5254593175853 Z" fill="#5b9bd5" stroke="#41719c" stroke-width="3" transform="matrix(1.0,0.0,0.0,1.0,630.1027821522309,617.2472440944882)"/>
    <animate attributeName="opacity" dur="1s" repeatCount="3" values="1;0;1"/>
  </svg>
</svg>
