<?xml version="1.0" encoding="utf-8" ?>
<svg baseProfile="full" height="720.0" version="1.1" width="1280.0" xmlns="http://www.w3.org/2000/svg" xmlns:ev="http://www.w3.org/2001/xml-events" xmlns:xlink="http://www.w3.org/1999/xlink">
  <defs>
    <style type="text/css">
<![CDATA[.non-scaling-stroke { vector-effect: non-scaling-stroke; }]]>    </style>
  </defs>
  <svg id="static_1">
    <defs/>
    <path class="non-scaling-stroke" d="M 0.0 0.00010498687664041995 L 0.00010498687664041995 0.0 L 0.0002099737532808399 0.00010498687664041995 L 0.00010498687664041995 0.0002099737532808399 Z" fill="#bdd7ee" stroke="#41719c" stroke-width="3" transform="matrix(2.7995425828508495e-11,457200.0,-306323.99999999994,1.8756935305100686e-11,275.1290288713911,296.9022572178478)"/>
  </svg>
  <svg id="static_2">
    <defs/>
    <path class="non-scaling-stroke" d="M 0.0 0.00010498687664041995 L 0.00010498687664041995 0.0 L 0.0002099737532808399 0.00010498687664041995 L 0.00010498687664041995 0.0002099737532808399 Z" fill="#bdd7ee" stroke="#41719c" stroke-width="3" transform="matrix(2.7995425828508495e-11,457200.0,-306323.99999999994,1.8756935305100686e-11,358.70089238845145,296.9022572178478)"/>
  </svg>
  <svg id="static_3">
    <defs/>
    <path class="non-scaling-stroke" d="M 0.0 0.00010498687664041995 L 0.00010498687664041995 0.0 L 0.0002099737532808399 0.00010498687664041995 L 0.00010498687664041995 0.0002099737532808399 Z" fill="#bdd7ee" stroke="#41719c" stroke-width="3" transform="matrix(2.7995425828508495e-11,457200.0,-306323.99999999994,1.8756935305100686e-11,275.1290288713911,419.6858792650919)"/>
  </svg>
  <svg id="static_4">
    <defs/>
    <path class="non-scaling-stroke" d="M 0.0 0.00010498687664041995 L 0.00010498687664041995 0.0 L 0.0002099737532808399 0.00010498687664041995 L 0.00010498687664041995 0.0002099737532808399 Z" fill="#ff99cc" stroke="#41719c" stroke-width="3" transform="matrix(2.7995425828508495e-11,457200.0,-306323.99999999994,1.8756935305100686e-11,891.3330183727033,297.84787401574806)"/>
  </svg>
  <svg id="static_5">
    <defs/>
    <path class="non-scaling-stroke" d="M 0.0 0.00010498687664041995 L 0.00010498687664041995 0.0 L 0.0002099737532808399 0.00010498687664041995 L 0.00010498687664041995 0.0002099737532808399 Z" fill="#ff99cc" stroke="#41719c" stroke-width="3" transform="matrix(21622.62199915846,456688.40823682124,-305981.2335186702,14487.156739436166,974.7191193196337,292.47836588175767)"/>
  </svg>
  <svg id="static_6">
    <defs/>
    <path class="non-scaling-stroke" d="M 0.0 0.00010498687664041995 L 0.00010498687664041995 0.0 L 0.0002099737532808399 0.00010498687664041995 L 0.00010498687664041995 0.0002099737532808399 Z" fill="#bdd7ee" stroke="#41719c" stroke-width="3" transform="matrix(24312.348092448417,456553.1181913356,-305890.5891881948,16289.273221940437,442.3821775428605,293.7705625812834)"/>
  </svg>
  <svg id="static_7">
    <defs/>
    <path class="non-scaling-stroke" d="M 0.0 0.00010498687664041995 L 0.00010498687664041995 0.0 L 0.0002099737532808399 0.00010498687664041995 L 0.00010498687664041995 0.0002099737532808399 Z" fill="#bdd7ee" stroke="#41719c" stroke-width="3" transform="matrix(31474.735581159133,456115.3154851261,-305597.2613750344,21088.072839376615,274.9764331542127,542.4219014882412)"/>
  </svg>
  <svg id="static_8">
    <defs/>
    <path class="non-scaling-stroke" d="M 0.0 0.00010498687664041995 L 0.00010498687664041995 0.0 L 0.0002099737532808399 0.00010498687664041995 L 0.00010498687664041995 0.0002099737532808399 Z" fill="#ff99cc" stroke="#41719c" stroke-width="3" transform="matrix(2.7995425828508495e-11,457200.0,-306323.99999999994,1.8756935305100686e-11,807.761154855643,297.84787401574806)"/>
  </svg>
  <svg id="static_9">
    <defs/>
    <path class="non-scaling-stroke" d="M 0.0 0.00010498687664041995 L 0.00010498687664041995 0.0 L 0.0002099737532808399 0.00010498687664041995 L 0.00010498687664041995 0.0002099737532808399 Z" fill="#ff99cc" stroke="#41719c" stroke-width="3" transform="matrix(21878.21290462961,456676.2352040006,-305973.07758668036,14658.402646101835,974.6652876306616,416.7179382834537)"/>
  </svg>
  <svg id="dynamic">
    <defs/>
    <path class="non-scaling-stroke" d="M 0.0 0.00010498687664041995 L 0.00010498687664041995 0.0 L 0.0002099737532808399 0.00010498687664041995 L 0.00010498687664041995 0.0002099737532808399 Z" fill="#bdd7ee" stroke="#41719c" stroke-width="3" transform="matrix(2.7995425828508495e-11,457200.0,-306323.99999999994,1.8756935305100686e-11,672.1599999999999,568.3400524934383)"/>
    <animate attributeName="opacity" dur="1s" repeatCount="3" values="1;0;1"/>
  </svg>
</svg>
