<?xml version="1.0" encoding="utf-8" ?>
<svg baseProfile="full" height="720.0" version="1.1" width="1280.0" xmlns="http://www.w3.org/2000/svg" xmlns:ev="http://www.w3.org/2001/xml-events" xmlns:xlink="http://www.w3.org/1999/xlink">
  <defs>
    <style type="text/css">
<![CDATA[.non-scaling-stroke { vector-effect: non-scaling-stroke; }]]>    </style>
  </defs>
  <svg id="dynamic">
    <defs/>
    <path class="non-scaling-stroke" d="M 0.0 0.0 L 62.09511811023622 0.0 L 62.09511811023622 59.42855643044619 L 0.0 59.42855643044619 Z" fill="#ff0000" stroke="#000000" stroke-width="3" transform="matrix(1.0,0.0,0.0,1.0,608.9524409448819,360.0)"/>
  </svg>
  <svg id="static_1">
    <defs/>
    <path class="non-scaling-stroke" d="M 0.0 0.0 L 62.09511811023622 0.0 L 62.09511811023622 59.42855643044619 L 0.0 59.42855643044619 Z" fill="#ff0000" stroke="#000000" stroke-width="3" transform="matrix(1.0,0.0,0.0,1.0,1009.5725984251968,147.04745406824148)"/>
  </svg>
  <svg id="static_2">
    <defs/>
    <path class="non-scaling-stroke" d="M 0.0 0.0 L 62.09511811023622 0.0 L 62.09511811023622 59.42855643044619 L 0.0 59.42855643044619 Z" fill="#ff0000" stroke="#000000" stroke-width="3" transform="matrix(1.0,0.0,0.0,1.0,920.1602099737532,147.04734908136484)"/>
  </svg>
  <svg id="static_3">
    <defs/>
    <path class="non-scaling-stroke" d="M 0.0 0.0 L 62.09511811023622 0.0 L 62.09511811023622 59.42855643044619 L 0.0 59.42855643044619 Z" fill="#ff0000" stroke="#000000" stroke-width="3" transform="matrix(1.0,0.0,0.0,1.0,1009.5725984251968,572.4522834645669)"/>
  </svg>
  <svg id="static_4">
    <defs/>
    <path class="non-scaling-stroke" d="M 0.0 0.0 L 62.09511811023622 0.0 L 62.09511811023622 59.42855643044619 L 0.0 59.42855643044619 Z" fill="#ff0000" stroke="#000000" stroke-width="3" transform="matrix(1.0,0.0,0.0,1.0,920.1602099737532,572.4522834645669)"/>
  </svg>
</svg>
