<?xml version="1.0" encoding="utf-8" ?>
<svg baseProfile="full" height="720.0" version="1.1" width="1280.0" xmlns="http://www.w3.org/2000/svg" xmlns:ev="http://www.w3.org/2001/xml-events" xmlns:xlink="http://www.w3.org/1999/xlink">
  <defs>
    <style type="text/css">
<![CDATA[.non-scaling-stroke { vector-effect: non-scaling-stroke; }]]>    </style>
  </defs>
  <svg id="static_1">
    <defs/>
    <path class="non-scaling-stroke" d="M 0.0 102.68041994750656 A 102.92782152230971 102.68041994750656 0 0 1 102.92782152230969 -1.2222081031699194e-14 A 102.92782152230971 102.68041994750656 0 0 1 205.85564304461943 102.68041994750652 A 102.92782152230971 102.68041994750656 0 0 1 102.92782152230973 205.36083989501307 A 102.92782152230971 102.68041994750656 0 0 1 0.0 102.68041994750652 Z" fill="#5b9bd5" stroke="#41719c" stroke-width="3" transform="matrix(1.0,0.0,0.0,1.0,397.2784251968504,47.01028871391076)"/>
  </svg>
  <svg id="static_2">
    <defs/>
    <path class="non-scaling-stroke" d="M 0.0 102.68041994750656 A 102.92782152230971 102.68041994750656 0 0 1 102.92782152230969 -1.2222081031699194e-14 A 102.92782152230971 102.68041994750656 0 0 1 205.85564304461943 102.68041994750652 A 102.92782152230971 102.68041994750656 0 0 1 102.92782152230973 205.36083989501307 A 102.92782152230971 102.68041994750656 0 0 1 0.0 102.68041994750652 Z" fill="#5b9bd5" stroke="#41719c" stroke-width="3" transform="matrix(1.0,0.0,0.0,1.0,537.072125984252,47.01028871391076)"/>
  </svg>
  <svg id="static_3">
    <defs/>
    <path class="non-scaling-stroke" d="M 0.0 75.71133858267717 A 44.61853018372703 75.71133858267717 0 0 1 44.618530183727025 0.0 A 44.61853018372703 75.71133858267717 0 0 1 89.23706036745406 75.71133858267716 A 44.61853018372703 75.71133858267717 0 0 1 44.61853018372704 151.42267716535434 A 44.61853018372703 75.71133858267717 0 0 1 0.0 75.71133858267717 Z" fill="#ffffff" stroke="#5b9bd5" stroke-width="3" transform="matrix(1.0,0.0,0.0,1.0,527.0927034120735,73.97931758530184)"/>
  </svg>
  <svg id="static_4">
    <defs/>
    <path class="non-scaling-stroke" d="M 0.0 75.71133858267717 A 44.61853018372703 75.71133858267717 0 0 1 44.618530183727025 0.0 A 44.61853018372703 75.71133858267717 0 0 1 89.23706036745406 75.71133858267716 A 44.61853018372703 75.71133858267717 0 0 1 44.61853018372704 151.42267716535434 A 44.61853018372703 75.71133858267717 0 0 1 0.0 75.71133858267717 Z" fill="#ffffff" stroke="#5b9bd5" stroke-width="3" transform="matrix(1.0,0.0,0.0,1.0,639.9998950131234,73.97931758530184)"/>
  </svg>
  <svg id="dynamic">
    <defs/>
    <path class="non-scaling-stroke" d="M 0.0 75.71133858267717 A 44.61853018372703 75.71133858267717 0 0 1 44.618530183727025 0.0 A 44.61853018372703 75.71133858267717 0 0 1 89.23706036745406 75.71133858267716 A 44.61853018372703 75.71133858267717 0 0 1 44.61853018372704 151.42267716535434 A 44.61853018372703 75.71133858267717 0 0 1 0.0 75.71133858267717 Z" fill="#5b9bd5" stroke="#41719c" stroke-width="3" transform="matrix(1.0,0.0,0.0,1.0,558.5154855643044,511.14446194225724)"/>
    <animate attributeName="opacity" dur="1s" repeatCount="3" values="1;0;1"/>
  </svg>
</svg>
