<?xml version="1.0" encoding="utf-8" ?>
<svg baseProfile="full" height="720.0" version="1.1" width="1280.0" xmlns="http://www.w3.org/2000/svg" xmlns:ev="http://www.w3.org/2001/xml-events" xmlns:xlink="http://www.w3.org/1999/xlink">
  <defs>
    <style type="text/css">
<![CDATA[.non-scaling-stroke { vector-effect: non-scaling-stroke; }]]>    </style>
  </defs>
  <svg id="static_1">
    <defs/>
    <path class="non-scaling-stroke" d="M 0.0 0.0 L 251.15149606299212 0.0 L 251.15149606299212 96.0 L 0.0 96.0 Z" fill="#ff0000" stroke="#41719c" stroke-width="3" transform="matrix(1.0,0.0,0.0,1.0,520.3895013123359,170.76188976377952)"/>
  </svg>
  <svg id="static_2">
    <defs/>
    <path class="non-scaling-stroke" d="M 0.0 0.00010498687664041995 L 0.00010498687664041995 0.0 L 0.0002099737532808399 0.00010498687664041995 L 0.00010498687664041995 0.0002099737532808399 Z" fill="#ffffff" stroke="#ff3300" stroke-width="3" transform="matrix(1.753247220297321e-11,286327.0,-184727.49999999997,1.1311297079474633e-11,665.3592125984251,188.70125984251973)"/>
  </svg>
  <svg id="static_3">
    <defs/>
    <path class="non-scaling-stroke" d="M 0.0 311.0 C 52.0 304.6666666666667 107.66666666666667 299.5000524934383 156.0 292.0 C 204.33333333333334 284.5000524934383 251.0 276.6666666666667 290.0 266.0 C 329.0 255.33333333333334 339.6666666666667 257.3333333333333 390.0 228.0 C 440.3333333333333 198.66666666666666 447.166719160105 196.0 457.0 170.0 C 466.83338582677163 144.0 454.6666666666667 80.33333333333333 449.0 72.0 C 443.3333333333333 63.666666666666664 429.3333333333333 41.666666666666664 420.0 31.0 C 410.6666666666667 20.333333333333332 398.0 9.833385826771654 393.0 8.0 L 390.0 20.0 L 374.0 4.0 L 398.0 0.0 L 392.0 8.0" fill="#ffffff" stroke="#5b9bd5" stroke-width="3" transform="matrix(0.5043160976441167,-0.1678759053215372,0.12494151298285622,0.3753368664823044,485.0046468472675,573.2812507306596)"/>
  </svg>
  <svg id="dynamic">
    <defs/>
    <path class="non-scaling-stroke" d="M 0.0 0.00010498687664041995 L 0.00010498687664041995 0.0 L 0.0002099737532808399 0.00010498687664041995 L 0.00010498687664041995 0.0002099737532808399 Z" fill="#ff0000" stroke="#41719c" stroke-width="3" transform="matrix(1.753247220297321e-11,286327.0,-184727.49999999997,1.1311297079474633e-11,659.3938582677166,479.78367454068245)"/>
    <animate attributeName="opacity" dur="1s" repeatCount="3" values="1;0;1"/>
  </svg>
</svg>
