<?xml version="1.0" encoding="utf-8" ?>
<svg baseProfile="full" height="720.0" version="1.1" width="1280.0" xmlns="http://www.w3.org/2000/svg" xmlns:ev="http://www.w3.org/2001/xml-events" xmlns:xlink="http://www.w3.org/1999/xlink">
  <defs>
    <style type="text/css">
<![CDATA[.non-scaling-stroke { vector-effect: non-scaling-stroke; }]]>    </style>
  </defs>
  <svg id="static_1">
    <defs/>
    <path class="non-scaling-stroke" d="M 1.1338582677165354 0.6089238845144357 L 1.5246194225721785 0.0 L 1.4860892388451443 0.5590551181102362 L 1.9296587926509186 0.4679265091863517 L 1.753490813648294 0.7679790026246719 L 2.2149081364829395 0.8542782152230971 L 1.848503937007874 1.099737532808399 L 2.267716535433071 1.395275590551181 L 1.7676640419947507 1.358740157480315 L 1.9049868766404199 1.899737532808399 L 1.4719160104986877 1.5177952755905513 L 1.3907611548556431 2.0721259842519686 L 1.105721784776903 1.5679790026246718 L 0.8908136482939633 2.267716535433071 L 0.8099737532808399 1.6406299212598425 L 0.4999475065616798 1.8495538057742782 L 0.5949606299212599 1.4632020997375328 L 0.014173228346456693 1.5314435695538058 L 0.39076115485564306 1.236220472440945 L 0.0 0.9044619422572179 L 0.4857742782152231 0.7996850393700787 L 0.03884514435695538 0.2409448818897638 L 0.7676640419947507 0.6635170603674541 L 0.8768503937007874 0.2409448818897638 Z" fill="#bdd7ee" stroke="#41719c" stroke-width="3" transform="matrix(31.75,0.0,0.0,32.63194444444444,345.2130183727034,333.5135958005249)"/>
  </svg>
  <svg id="static_2">
    <defs/>
    <path class="non-scaling-stroke" d="M 1.1338582677165354 0.6089238845144357 L 1.5246194225721785 0.0 L 1.4860892388451443 0.5590551181102362 L 1.9296587926509186 0.4679265091863517 L 1.753490813648294 0.7679790026246719 L 2.2149081364829395 0.8542782152230971 L 1.848503937007874 1.099737532808399 L 2.267716535433071 1.395275590551181 L 1.7676640419947507 1.358740157480315 L 1.9049868766404199 1.899737532808399 L 1.4719160104986877 1.5177952755905513 L 1.3907611548556431 2.0721259842519686 L 1.105721784776903 1.5679790026246718 L 0.8908136482939633 2.267716535433071 L 0.8099737532808399 1.6406299212598425 L 0.4999475065616798 1.8495538057742782 L 0.5949606299212599 1.4632020997375328 L 0.014173228346456693 1.5314435695538058 L 0.39076115485564306 1.236220472440945 L 0.0 0.9044619422572179 L 0.4857742782152231 0.7996850393700787 L 0.03884514435695538 0.2409448818897638 L 0.7676640419947507 0.6635170603674541 L 0.8768503937007874 0.2409448818897638 Z" fill="#bdd7ee" stroke="#41719c" stroke-width="3" transform="matrix(31.75,0.0,0.0,32.63194444444444,345.2130183727034,250.50330708661417)"/>
  </svg>
  <svg id="static_3">
    <defs/>
    <path class="non-scaling-stroke" d="M 1.1338582677165354 0.6089238845144357 L 1.5246194225721785 0.0 L 1.4860892388451443 0.5590551181102362 L 1.9296587926509186 0.4679265091863517 L 1.753490813648294 0.7679790026246719 L 2.2149081364829395 0.8542782152230971 L 1.848503937007874 1.099737532808399 L 2.267716535433071 1.395275590551181 L 1.7676640419947507 1.358740157480315 L 1.9049868766404199 1.899737532808399 L 1.4719160104986877 1.5177952755905513 L 1.3907611548556431 2.0721259842519686 L 1.105721784776903 1.5679790026246718 L 0.8908136482939633 2.267716535433071 L 0.8099737532808399 1.6406299212598425 L 0.4999475065616798 1.8495538057742782 L 0.5949606299212599 1.4632020997375328 L 0.014173228346456693 1.5314435695538058 L 0.39076115485564306 1.236220472440945 L 0.0 0.9044619422572179 L 0.4857742782152231 0.7996850393700787 L 0.03884514435695538 0.2409448818897638 L 0.7676640419947507 0.6635170603674541 L 0.8768503937007874 0.2409448818897638 Z" fill="#bdd7ee" stroke="#41719c" stroke-width="3" transform="matrix(31.75,0.0,0.0,32.63194444444444,297.2130183727034,179.0163779527559)"/>
  </svg>
  <svg id="static_4">
    <defs/>
    <path class="non-scaling-stroke" d="M 1.1338582677165354 0.6089238845144357 L 1.5246194225721785 0.0 L 1.4860892388451443 0.5590551181102362 L 1.9296587926509186 0.4679265091863517 L 1.753490813648294 0.7679790026246719 L 2.2149081364829395 0.8542782152230971 L 1.848503937007874 1.099737532808399 L 2.267716535433071 1.395275590551181 L 1.7676640419947507 1.358740157480315 L 1.9049868766404199 1.899737532808399 L 1.4719160104986877 1.5177952755905513 L 1.3907611548556431 2.0721259842519686 L 1.105721784776903 1.5679790026246718 L 0.8908136482939633 2.267716535433071 L 0.8099737532808399 1.6406299212598425 L 0.4999475065616798 1.8495538057742782 L 0.5949606299212599 1.4632020997375328 L 0.014173228346456693 1.5314435695538058 L 0.39076115485564306 1.236220472440945 L 0.0 0.9044619422572179 L 0.4857742782152231 0.7996850393700787 L 0.03884514435695538 0.2409448818897638 L 0.7676640419947507 0.6635170603674541 L 0.8768503937007874 0.2409448818897638 Z" fill="#bdd7ee" stroke="#41719c" stroke-width="3" transform="matrix(31.75,0.0,0.0,32.63194444444444,393.2130183727034,178.02666666666667)"/>
  </svg>
  <svg id="static_5">
    <defs/>
    <path class="non-scaling-stroke" d="M 1.1338582677165354 0.6089238845144357 L 1.5246194225721785 0.0 L 1.4860892388451443 0.5590551181102362 L 1.9296587926509186 0.4679265091863517 L 1.753490813648294 0.7679790026246719 L 2.2149081364829395 0.8542782152230971 L 1.848503937007874 1.099737532808399 L 2.267716535433071 1.395275590551181 L 1.7676640419947507 1.358740157480315 L 1.9049868766404199 1.899737532808399 L 1.4719160104986877 1.5177952755905513 L 1.3907611548556431 2.0721259842519686 L 1.105721784776903 1.5679790026246718 L 0.8908136482939633 2.267716535433071 L 0.8099737532808399 1.6406299212598425 L 0.4999475065616798 1.8495538057742782 L 0.5949606299212599 1.4632020997375328 L 0.014173228346456693 1.5314435695538058 L 0.39076115485564306 1.236220472440945 L 0.0 0.9044619422572179 L 0.4857742782152231 0.7996850393700787 L 0.03884514435695538 0.2409448818897638 L 0.7676640419947507 0.6635170603674541 L 0.8768503937007874 0.2409448818897638 Z" fill="#bdd7ee" stroke="#41719c" stroke-width="3" transform="matrix(31.75,0.0,0.0,32.63194444444444,712.9069816272965,178.02666666666667)"/>
  </svg>
  <svg id="static_6">
    <defs/>
    <path class="non-scaling-stroke" d="M 1.1338582677165354 0.6089238845144357 L 1.5246194225721785 0.0 L 1.4860892388451443 0.5590551181102362 L 1.9296587926509186 0.4679265091863517 L 1.753490813648294 0.7679790026246719 L 2.2149081364829395 0.8542782152230971 L 1.848503937007874 1.099737532808399 L 2.267716535433071 1.395275590551181 L 1.7676640419947507 1.358740157480315 L 1.9049868766404199 1.899737532808399 L 1.4719160104986877 1.5177952755905513 L 1.3907611548556431 2.0721259842519686 L 1.105721784776903 1.5679790026246718 L 0.8908136482939633 2.267716535433071 L 0.8099737532808399 1.6406299212598425 L 0.4999475065616798 1.8495538057742782 L 0.5949606299212599 1.4632020997375328 L 0.014173228346456693 1.5314435695538058 L 0.39076115485564306 1.236220472440945 L 0.0 0.9044619422572179 L 0.4857742782152231 0.7996850393700787 L 0.03884514435695538 0.2409448818897638 L 0.7676640419947507 0.6635170603674541 L 0.8768503937007874 0.2409448818897638 Z" fill="#bdd7ee" stroke="#41719c" stroke-width="3" transform="matrix(31.75,0.0,0.0,32.63194444444444,796.9069816272965,175.0)"/>
  </svg>
  <svg id="static_7">
    <defs/>
    <path class="non-scaling-stroke" d="M 1.1338582677165354 0.6089238845144357 L 1.5246194225721785 0.0 L 1.4860892388451443 0.5590551181102362 L 1.9296587926509186 0.4679265091863517 L 1.753490813648294 0.7679790026246719 L 2.2149081364829395 0.8542782152230971 L 1.848503937007874 1.099737532808399 L 2.267716535433071 1.395275590551181 L 1.7676640419947507 1.358740157480315 L 1.9049868766404199 1.899737532808399 L 1.4719160104986877 1.5177952755905513 L 1.3907611548556431 2.0721259842519686 L 1.105721784776903 1.5679790026246718 L 0.8908136482939633 2.267716535433071 L 0.8099737532808399 1.6406299212598425 L 0.4999475065616798 1.8495538057742782 L 0.5949606299212599 1.4632020997375328 L 0.014173228346456693 1.5314435695538058 L 0.39076115485564306 1.236220472440945 L 0.0 0.9044619422572179 L 0.4857742782152231 0.7996850393700787 L 0.03884514435695538 0.2409448818897638 L 0.7676640419947507 0.6635170603674541 L 0.8768503937007874 0.2409448818897638 Z" fill="#bdd7ee" stroke="#41719c" stroke-width="3" transform="matrix(31.75,0.0,0.0,32.63194444444444,754.9069816272965,249.0)"/>
  </svg>
  <svg id="dynamic">
    <defs/>
    <path class="non-scaling-stroke" d="M 1.1338582677165354 0.6089238845144357 L 1.5246194225721785 0.0 L 1.4860892388451443 0.5590551181102362 L 1.9296587926509186 0.4679265091863517 L 1.753490813648294 0.7679790026246719 L 2.2149081364829395 0.8542782152230971 L 1.848503937007874 1.099737532808399 L 2.267716535433071 1.395275590551181 L 1.7676640419947507 1.358740157480315 L 1.9049868766404199 1.899737532808399 L 1.4719160104986877 1.5177952755905513 L 1.3907611548556431 2.0721259842519686 L 1.105721784776903 1.5679790026246718 L 0.8908136482939633 2.267716535433071 L 0.8099737532808399 1.6406299212598425 L 0.4999475065616798 1.8495538057742782 L 0.5949606299212599 1.4632020997375328 L 0.014173228346456693 1.5314435695538058 L 0.39076115485564306 1.236220472440945 L 0.0 0.9044619422572179 L 0.4857742782152231 0.7996850393700787 L 0.03884514435695538 0.2409448818897638 L 0.7676640419947507 0.6635170603674541 L 0.8768503937007874 0.2409448818897638 Z" fill="#bdd7ee" stroke="#41719c" stroke-width="3" transform="matrix(31.75,0.0,0.0,32.63194444444444,585.0,630.0)"/>
  </svg>
</svg>
