<?xml version="1.0" encoding="utf-8" ?>
<svg baseProfile="full" height="720.0" version="1.1" width="1280.0" xmlns="http://www.w3.org/2000/svg" xmlns:ev="http://www.w3.org/2001/xml-events" xmlns:xlink="http://www.w3.org/1999/xlink">
  <defs>
    <style type="text/css">
<![CDATA[.non-scaling-stroke { vector-effect: non-scaling-stroke; }]]>    </style>
  </defs>
  <svg id="dynamic">
    <defs/>
    <path class="non-scaling-stroke" d="M 0.0 0.0 L 126.85742782152231 0.0 L 126.85742782152231 59.42855643044619 L 0.0 59.42855643044619 Z" fill="#5b9bd5" stroke="#41719c" stroke-width="3" transform="matrix(1.0,0.0,0.0,1.0,962.0966929133858,591.5876115485564)"/>
  </svg>
  <svg id="static_1">
    <defs/>
    <path class="non-scaling-stroke" d="M 0.0 0.0 L 126.85742782152231 0.0 L 126.85742782152231 59.5698687664042 L 0.0 59.5698687664042 Z" fill="#5b9bd5" stroke="#41719c" stroke-width="3" transform="matrix(-1.0,1.2246467991473532e-16,-1.2246467991473532e-16,-1.0,1084.2406299212598,237.71412073490816)"/>
  </svg>
  <svg id="static_2">
    <defs/>
    <path class="non-scaling-stroke" d="M 0.0 0.0 L 126.85742782152231 0.0 L 126.85742782152231 59.42855643044619 L 0.0 59.42855643044619 Z" fill="#5b9bd5" stroke="#41719c" stroke-width="3" transform="matrix(-1.0,1.2246467991473532e-16,-1.2246467991473532e-16,-1.0,1084.2405249343833,324.19044619422573)"/>
  </svg>
  <svg id="static_3">
    <defs/>
    <path class="non-scaling-stroke" d="M 0.0 0.0 L 126.85742782152231 0.0 L 126.85742782152231 59.42855643044619 L 0.0 59.42855643044619 Z" fill="#5b9bd5" stroke="#41719c" stroke-width="3" transform="matrix(1.0,0.0,0.0,1.0,335.4286614173228,178.28556430446193)"/>
  </svg>
  <svg id="static_4">
    <defs/>
    <path class="non-scaling-stroke" d="M 0.0 0.0 L 126.85742782152231 0.0 L 126.85742782152231 59.42855643044619 L 0.0 59.42855643044619 Z" fill="#5b9bd5" stroke="#41719c" stroke-width="3" transform="matrix(1.0,0.0,0.0,1.0,179.8036745406824,178.28556430446193)"/>
  </svg>
</svg>
