<?xml version="1.0" encoding="utf-8" ?>
<svg baseProfile="full" height="720.0" version="1.1" width="1280.0" xmlns="http://www.w3.org/2000/svg" xmlns:ev="http://www.w3.org/2001/xml-events" xmlns:xlink="http://www.w3.org/1999/xlink">
  <defs>
    <style type="text/css">
<![CDATA[.non-scaling-stroke { vector-effect: non-scaling-stroke; }]]>    </style>
  </defs>
  <svg id="static_1">
    <defs/>
    <path class="non-scaling-stroke" d="M 0.0 35.0 L 12.9605 22.0395 L 12.9605 28.519750000000002 L 18.212203770603676 28.519750000000002 L 18.212203770603676 18.156950000000002 L 28.62625918635171 18.156950000000002 L 28.62625918635171 12.9605 L 22.146009186351705 12.9605 L 35.10650918635171 0.0 L 48.067009186351704 12.9605 L 41.586759186351706 12.9605 L 41.586759186351706 18.156950000000002 L 52.00081460209974 18.156950000000002 L 52.00081460209974 28.519750000000002 L 57.25251837270342 28.519750000000002 L 57.25251837270342 22.0395 L 70.21301837270342 35.0 L 57.25251837270342 47.9605 L 57.25251837270342 41.48025 L 52.00081460209974 41.48025 L 52.00081460209974 51.843050000000005 L 41.586759186351706 51.843050000000005 L 41.586759186351706 57.039500000000004 L 48.067009186351704 57.039500000000004 L 35.10650918635171 70.0 L 22.146009186351705 57.039500000000004 L 28.62625918635171 57.039500000000004 L 28.62625918635171 51.843050000000005 L 18.212203770603676 51.843050000000005 L 18.212203770603676 41.48025 L 12.9605 41.48025 L 12.9605 47.9605 Z" fill="#deebf7" stroke="#41719c" stroke-width="3" transform="matrix(1.0,0.0,0.0,1.0,712.5755380577427,189.7411023622047)"/>
  </svg>
  <svg id="static_2">
    <defs/>
    <path class="non-scaling-stroke" d="M 0.0 35.0 L 12.9605 22.0395 L 12.9605 28.519750000000002 L 18.212203770603676 28.519750000000002 L 18.212203770603676 18.156950000000002 L 28.62625918635171 18.156950000000002 L 28.62625918635171 12.9605 L 22.146009186351705 12.9605 L 35.10650918635171 0.0 L 48.067009186351704 12.9605 L 41.586759186351706 12.9605 L 41.586759186351706 18.156950000000002 L 52.00081460209974 18.156950000000002 L 52.00081460209974 28.519750000000002 L 57.25251837270342 28.519750000000002 L 57.25251837270342 22.0395 L 70.21301837270342 35.0 L 57.25251837270342 47.9605 L 57.25251837270342 41.48025 L 52.00081460209974 41.48025 L 52.00081460209974 51.843050000000005 L 41.586759186351706 51.843050000000005 L 41.586759186351706 57.039500000000004 L 48.067009186351704 57.039500000000004 L 35.10650918635171 70.0 L 22.146009186351705 57.039500000000004 L 28.62625918635171 57.039500000000004 L 28.62625918635171 51.843050000000005 L 18.212203770603676 51.843050000000005 L 18.212203770603676 41.48025 L 12.9605 41.48025 L 12.9605 47.9605 Z" fill="#deebf7" stroke="#41719c" stroke-width="3" transform="matrix(1.0,0.0,0.0,1.0,753.7253543307087,259.0)"/>
  </svg>
  <svg id="static_3">
    <defs/>
    <path class="non-scaling-stroke" d="M 0.0 35.0 L 12.9605 22.0395 L 12.9605 28.519750000000002 L 18.212203770603676 28.519750000000002 L 18.212203770603676 18.156950000000002 L 28.62625918635171 18.156950000000002 L 28.62625918635171 12.9605 L 22.146009186351705 12.9605 L 35.10650918635171 0.0 L 48.067009186351704 12.9605 L 41.586759186351706 12.9605 L 41.586759186351706 18.156950000000002 L 52.00081460209974 18.156950000000002 L 52.00081460209974 28.519750000000002 L 57.25251837270342 28.519750000000002 L 57.25251837270342 22.0395 L 70.21301837270342 35.0 L 57.25251837270342 47.9605 L 57.25251837270342 41.48025 L 52.00081460209974 41.48025 L 52.00081460209974 51.843050000000005 L 41.586759186351706 51.843050000000005 L 41.586759186351706 57.039500000000004 L 48.067009186351704 57.039500000000004 L 35.10650918635171 70.0 L 22.146009186351705 57.039500000000004 L 28.62625918635171 57.039500000000004 L 28.62625918635171 51.843050000000005 L 18.212203770603676 51.843050000000005 L 18.212203770603676 41.48025 L 12.9605 41.48025 L 12.9605 47.9605 Z" fill="#deebf7" stroke="#41719c" stroke-width="3" transform="matrix(1.0,0.0,0.0,1.0,797.9896062992126,189.0)"/>
  </svg>
  <svg id="static_4">
    <defs/>
    <path class="non-scaling-stroke" d="M 0.0 35.0 L 12.9605 22.0395 L 12.9605 28.519750000000002 L 18.212203770603676 28.519750000000002 L 18.212203770603676 18.156950000000002 L 28.62625918635171 18.156950000000002 L 28.62625918635171 12.9605 L 22.146009186351705 12.9605 L 35.10650918635171 0.0 L 48.067009186351704 12.9605 L 41.586759186351706 12.9605 L 41.586759186351706 18.156950000000002 L 52.00081460209974 18.156950000000002 L 52.00081460209974 28.519750000000002 L 57.25251837270342 28.519750000000002 L 57.25251837270342 22.0395 L 70.21301837270342 35.0 L 57.25251837270342 47.9605 L 57.25251837270342 41.48025 L 52.00081460209974 41.48025 L 52.00081460209974 51.843050000000005 L 41.586759186351706 51.843050000000005 L 41.586759186351706 57.039500000000004 L 48.067009186351704 57.039500000000004 L 35.10650918635171 70.0 L 22.146009186351705 57.039500000000004 L 28.62625918635171 57.039500000000004 L 28.62625918635171 51.843050000000005 L 18.212203770603676 51.843050000000005 L 18.212203770603676 41.48025 L 12.9605 41.48025 L 12.9605 47.9605 Z" fill="#deebf7" stroke="#41719c" stroke-width="3" transform="matrix(1.0,0.0,0.0,1.0,385.8488188976378,189.7411023622047)"/>
  </svg>
  <svg id="static_5">
    <defs/>
    <path class="non-scaling-stroke" d="M 0.0 35.0 L 12.9605 22.0395 L 12.9605 28.519750000000002 L 18.212203770603676 28.519750000000002 L 18.212203770603676 18.156950000000002 L 28.62625918635171 18.156950000000002 L 28.62625918635171 12.9605 L 22.146009186351705 12.9605 L 35.10650918635171 0.0 L 48.067009186351704 12.9605 L 41.586759186351706 12.9605 L 41.586759186351706 18.156950000000002 L 52.00081460209974 18.156950000000002 L 52.00081460209974 28.519750000000002 L 57.25251837270342 28.519750000000002 L 57.25251837270342 22.0395 L 70.21301837270342 35.0 L 57.25251837270342 47.9605 L 57.25251837270342 41.48025 L 52.00081460209974 41.48025 L 52.00081460209974 51.843050000000005 L 41.586759186351706 51.843050000000005 L 41.586759186351706 57.039500000000004 L 48.067009186351704 57.039500000000004 L 35.10650918635171 70.0 L 22.146009186351705 57.039500000000004 L 28.62625918635171 57.039500000000004 L 28.62625918635171 51.843050000000005 L 18.212203770603676 51.843050000000005 L 18.212203770603676 41.48025 L 12.9605 41.48025 L 12.9605 47.9605 Z" fill="#deebf7" stroke="#41719c" stroke-width="3" transform="matrix(1.0,0.0,0.0,1.0,293.446719160105,189.0)"/>
  </svg>
  <svg id="static_6">
    <defs/>
    <path class="non-scaling-stroke" d="M 0.0 35.0 L 12.9605 22.0395 L 12.9605 28.519750000000002 L 18.212203770603676 28.519750000000002 L 18.212203770603676 18.156950000000002 L 28.62625918635171 18.156950000000002 L 28.62625918635171 12.9605 L 22.146009186351705 12.9605 L 35.10650918635171 0.0 L 48.067009186351704 12.9605 L 41.586759186351706 12.9605 L 41.586759186351706 18.156950000000002 L 52.00081460209974 18.156950000000002 L 52.00081460209974 28.519750000000002 L 57.25251837270342 28.519750000000002 L 57.25251837270342 22.0395 L 70.21301837270342 35.0 L 57.25251837270342 47.9605 L 57.25251837270342 41.48025 L 52.00081460209974 41.48025 L 52.00081460209974 51.843050000000005 L 41.586759186351706 51.843050000000005 L 41.586759186351706 57.039500000000004 L 48.067009186351704 57.039500000000004 L 35.10650918635171 70.0 L 22.146009186351705 57.039500000000004 L 28.62625918635171 57.039500000000004 L 28.62625918635171 51.843050000000005 L 18.212203770603676 51.843050000000005 L 18.212203770603676 41.48025 L 12.9605 41.48025 L 12.9605 47.9605 Z" fill="#deebf7" stroke="#41719c" stroke-width="3" transform="matrix(1.0,0.0,0.0,1.0,339.541312335958,259.0)"/>
  </svg>
  <svg id="static_7">
    <defs/>
    <path class="non-scaling-stroke" d="M 0.0 35.0 L 12.9605 22.0395 L 12.9605 28.519750000000002 L 18.212203770603676 28.519750000000002 L 18.212203770603676 18.156950000000002 L 28.62625918635171 18.156950000000002 L 28.62625918635171 12.9605 L 22.146009186351705 12.9605 L 35.10650918635171 0.0 L 48.067009186351704 12.9605 L 41.586759186351706 12.9605 L 41.586759186351706 18.156950000000002 L 52.00081460209974 18.156950000000002 L 52.00081460209974 28.519750000000002 L 57.25251837270342 28.519750000000002 L 57.25251837270342 22.0395 L 70.21301837270342 35.0 L 57.25251837270342 47.9605 L 57.25251837270342 41.48025 L 52.00081460209974 41.48025 L 52.00081460209974 51.843050000000005 L 41.586759186351706 51.843050000000005 L 41.586759186351706 57.039500000000004 L 48.067009186351704 57.039500000000004 L 35.10650918635171 70.0 L 22.146009186351705 57.039500000000004 L 28.62625918635171 57.039500000000004 L 28.62625918635171 51.843050000000005 L 18.212203770603676 51.843050000000005 L 18.212203770603676 41.48025 L 12.9605 41.48025 L 12.9605 47.9605 Z" fill="#deebf7" stroke="#41719c" stroke-width="3" transform="matrix(1.0,0.0,0.0,1.0,339.541312335958,345.6933333333333)"/>
  </svg>
  <svg id="dynamic">
    <defs/>
    <path class="non-scaling-stroke" d="M 0.0 35.0 L 12.9605 22.0395 L 12.9605 28.519750000000002 L 18.212203770603676 28.519750000000002 L 18.212203770603676 18.156950000000002 L 28.62625918635171 18.156950000000002 L 28.62625918635171 12.9605 L 22.146009186351705 12.9605 L 35.10650918635171 0.0 L 48.067009186351704 12.9605 L 41.586759186351706 12.9605 L 41.586759186351706 18.156950000000002 L 52.00081460209974 18.156950000000002 L 52.00081460209974 28.519750000000002 L 57.25251837270342 28.519750000000002 L 57.25251837270342 22.0395 L 70.21301837270342 35.0 L 57.25251837270342 47.9605 L 57.25251837270342 41.48025 L 52.00081460209974 41.48025 L 52.00081460209974 51.843050000000005 L 41.586759186351706 51.843050000000005 L 41.586759186351706 57.039500000000004 L 48.067009186351704 57.039500000000004 L 35.10650918635171 70.0 L 22.146009186351705 57.039500000000004 L 28.62625918635171 57.039500000000004 L 28.62625918635171 51.843050000000005 L 18.212203770603676 51.843050000000005 L 18.212203770603676 41.48025 L 12.9605 41.48025 L 12.9605 47.9605 Z" fill="#deebf7" stroke="#41719c" stroke-width="3" transform="matrix(1.0,0.0,0.0,1.0,604.89343832021,608.6933333333334)"/>
    <animate attributeName="opacity" dur="1s" repeatCount="3" values="1;0;1"/>
  </svg>
</svg>
