<?xml version="1.0" encoding="utf-8" ?>
<svg baseProfile="full" height="720.0" version="1.1" width="1280.0" xmlns="http://www.w3.org/2000/svg" xmlns:ev="http://www.w3.org/2001/xml-events" xmlns:xlink="http://www.w3.org/1999/xlink">
  <defs>
    <style type="text/css">
<![CDATA[.non-scaling-stroke { vector-effect: non-scaling-stroke; }]]>    </style>
  </defs>
  <svg id="static_1">
    <defs/>
    <path class="non-scaling-stroke" d="M 6.930372507856508e-05 23.863732099564338 L 25.02799478386592 23.863900054759107 L 32.76188976377953 0.0 L 40.49578474369313 23.863900054759107 L 65.52371022383397 23.863732099564338 L 45.27559470670192 38.61226548234118 L 53.00980834141488 62.47606173508133 L 32.76188976377953 47.72725659509077 L 12.513971186144166 62.47606173508133 L 20.24818482085713 38.61226548234118 Z" fill="#5b9bd5" stroke="#41719c" stroke-width="3" transform="matrix(1.0,0.0,0.0,1.0,260.61952755905514,209.52377952755904)"/>
  </svg>
  <svg id="static_2">
    <defs/>
    <path class="non-scaling-stroke" d="M 6.930372507856508e-05 23.863732099564338 L 25.02799478386592 23.863900054759107 L 32.76188976377953 0.0 L 40.49578474369313 23.863900054759107 L 65.52371022383397 23.863732099564338 L 45.27559470670192 38.61226548234118 L 53.00980834141488 62.47606173508133 L 32.76188976377953 47.72725659509077 L 12.513971186144166 62.47606173508133 L 20.24818482085713 38.61226548234118 Z" fill="#5b9bd5" stroke="#41719c" stroke-width="3" transform="matrix(1.0,0.0,0.0,1.0,442.1426771653543,209.52377952755904)"/>
  </svg>
  <svg id="static_3">
    <defs/>
    <path class="non-scaling-stroke" d="M 6.930372507856508e-05 23.863732099564338 L 25.02799478386592 23.863900054759107 L 32.76188976377953 0.0 L 40.49578474369313 23.863900054759107 L 65.52371022383397 23.863732099564338 L 45.27559470670192 38.61226548234118 L 53.00980834141488 62.47606173508133 L 32.76188976377953 47.72725659509077 L 12.513971186144166 62.47606173508133 L 20.24818482085713 38.61226548234118 Z" fill="#5b9bd5" stroke="#41719c" stroke-width="3" transform="matrix(1.0,0.0,0.0,1.0,351.38110236220473,210.4163779527559)"/>
  </svg>
  <svg id="static_4">
    <defs/>
    <path class="non-scaling-stroke" d="M 6.930372507856508e-05 23.863732099564338 L 25.02799478386592 23.863900054759107 L 32.76188976377953 0.0 L 40.49578474369313 23.863900054759107 L 65.52371022383397 23.863732099564338 L 45.27559470670192 38.61226548234118 L 53.00980834141488 62.47606173508133 L 32.76188976377953 47.72725659509077 L 12.513971186144166 62.47606173508133 L 20.24818482085713 38.61226548234118 Z" fill="#5b9bd5" stroke="#41719c" stroke-width="3" transform="matrix(1.0,0.0,0.0,1.0,900.8642519685039,384.76188976377955)"/>
  </svg>
  <svg id="static_5">
    <defs/>
    <path class="non-scaling-stroke" d="M 6.930372507856508e-05 23.863732099564338 L 25.02799478386592 23.863900054759107 L 32.76188976377953 0.0 L 40.49578474369313 23.863900054759107 L 65.52371022383397 23.863732099564338 L 45.27559470670192 38.61226548234118 L 53.00980834141488 62.47606173508133 L 32.76188976377953 47.72725659509077 L 12.513971186144166 62.47606173508133 L 20.24818482085713 38.61226548234118 Z" fill="#5b9bd5" stroke="#41719c" stroke-width="3" transform="matrix(1.0,0.0,0.0,1.0,900.8642519685039,297.52377952755904)"/>
  </svg>
  <svg id="static_6">
    <defs/>
    <path class="non-scaling-stroke" d="M 6.930372507856508e-05 23.863732099564338 L 25.02799478386592 23.863900054759107 L 32.76188976377953 0.0 L 40.49578474369313 23.863900054759107 L 65.52371022383397 23.863732099564338 L 45.27559470670192 38.61226548234118 L 53.00980834141488 62.47606173508133 L 32.76188976377953 47.72725659509077 L 12.513971186144166 62.47606173508133 L 20.24818482085713 38.61226548234118 Z" fill="#5b9bd5" stroke="#41719c" stroke-width="3" transform="matrix(1.0,0.0,0.0,1.0,900.8642519685039,210.2856692913386)"/>
  </svg>
  <svg id="static_7">
    <defs/>
    <path class="non-scaling-stroke" d="M 15.0 147.0 L 14.0 38.0 L 0.0 39.0 L 15.0 0.0 L 31.0 38.0 L 10.0 37.0" fill="#ffffff" stroke="#5b9bd5" stroke-width="3" transform="matrix(0.8509364250950622,-0.5252686935716193,0.5252686935716193,0.8509364250950622,736.2032889269509,561.2831393431434)"/>
  </svg>
  <svg id="dynamic">
    <defs/>
    <path class="non-scaling-stroke" d="M 6.930372507856508e-05 23.863732099564338 L 25.02799478386592 23.863900054759107 L 32.76188976377953 0.0 L 40.49578474369313 23.863900054759107 L 65.52371022383397 23.863732099564338 L 45.27559470670192 38.61226548234118 L 53.00980834141488 62.47606173508133 L 32.76188976377953 47.72725659509077 L 12.513971186144166 62.47606173508133 L 20.24818482085713 38.61226548234118 Z" fill="#5b9bd5" stroke="#41719c" stroke-width="3" transform="matrix(1.0,0.0,0.0,1.0,685.2381102362205,504.7617847769029)"/>
    <animate attributeName="opacity" dur="1s" repeatCount="3" values="1;0;1"/>
  </svg>
</svg>
