<?xml version="1.0" encoding="utf-8" ?>
<svg baseProfile="full" height="720.0" version="1.1" width="1280.0" xmlns="http://www.w3.org/2000/svg" xmlns:ev="http://www.w3.org/2001/xml-events" xmlns:xlink="http://www.w3.org/1999/xlink">
  <defs>
    <style type="text/css">
<![CDATA[.non-scaling-stroke { vector-effect: non-scaling-stroke; }]]>    </style>
  </defs>
  <svg id="static_1">
    <defs/>
    <path class="non-scaling-stroke" d="M 0.0 0.0 L 278.8917585301837 0.0 L 374.30299212598425 95.41123359580052 L 374.30299212598425 190.82246719160105 L 0.0 190.82246719160105 Z" fill="#5b9bd5" stroke="#41719c" stroke-width="3" transform="matrix(1.0,0.0,0.0,1.0,62.80724409448819,81.350656167979)"/>
  </svg>
  <svg id="static_2">
    <defs/>
    <path class="non-scaling-stroke" d="M 0.0 0.0 L 374.30299212598425 0.0 L 374.30299212598425 190.82246719160105 L 0.0 190.82246719160105 Z" fill="#5b9bd5" stroke="#41719c" stroke-width="3" transform="matrix(1.0,0.0,0.0,1.0,876.2679265091864,77.80482939632546)"/>
  </svg>
  <svg id="static_3">
    <defs/>
    <path class="non-scaling-stroke" d="M 0.0 96.0 L 0.0 0.0 L 96.0 96.0 Z" fill="#ffffff" stroke="#5b9bd5" stroke-width="3" transform="matrix(-1.0,1.2246467991473532e-16,-1.2246467991473532e-16,-1.0,1008.5881364829396,229.70824146981627)"/>
  </svg>
  <svg id="static_4">
    <defs/>
    <path class="non-scaling-stroke" d="M 0.0 96.0 L 0.0 0.0 L 96.0 96.0 Z" fill="#ffffff" stroke="#5b9bd5" stroke-width="3" transform="matrix(-1.0,1.2246467991473532e-16,-1.2246467991473532e-16,-1.0,1195.0151181102362,224.7618897637795)"/>
  </svg>
  <svg id="dynamic">
    <defs/>
    <path class="non-scaling-stroke" d="M 0.0 96.0 L 0.0 0.0 L 96.0 96.0 Z" fill="#5b9bd5" stroke="#41719c" stroke-width="3" transform="matrix(-1.0,1.2246467991473532e-16,-1.2246467991473532e-16,-1.0,1147.0151181102362,451.37280839895016)"/>
    <animate attributeName="opacity" dur="1s" repeatCount="3" values="1;0;1"/>
  </svg>
</svg>
