<?xml version="1.0" encoding="utf-8" ?>
<svg baseProfile="full" height="720.0" version="1.1" width="1280.0" xmlns="http://www.w3.org/2000/svg" xmlns:ev="http://www.w3.org/2001/xml-events" xmlns:xlink="http://www.w3.org/1999/xlink">
  <defs>
    <style type="text/css">
<![CDATA[.non-scaling-stroke { vector-effect: non-scaling-stroke; }]]>    </style>
  </defs>
  <svg id="static_1">
    <defs/>
    <path class="non-scaling-stroke" d="M 0.0 27.428556430446193 A 26.746666666666666 27.428556430446193 0 0 1 26.74666666666666 -3.0555202579247984e-15 A 26.746666666666666 27.428556430446193 0 0 1 53.49333333333333 27.428556430446186 A 26.746666666666666 27.428556430446193 0 0 1 26.74666666666667 54.85711286089238 A 26.746666666666666 27.428556430446193 0 0 1 0.0 27.428556430446186 Z" fill="#ffffff" stroke="#5b9bd5" stroke-width="3" transform="matrix(1.0,0.0,0.0,1.0,616.485564304462,257.6012598425197)"/>
    <path class="non-scaling-stroke" d="M 7.833917292530476 8.033638180319805 L 45.65941604080286 46.82347468057259 M 45.65941604080286 8.033638180319805 L 7.833917292530476 46.82347468057259" fill="#ffffff" stroke="#5b9bd5" stroke-width="3" transform="matrix(1.0,0.0,0.0,1.0,616.485564304462,257.6012598425197)"/>
    <path class="non-scaling-stroke" d="M 0.0 27.428556430446193 A 26.746666666666666 27.428556430446193 0 0 1 26.74666666666666 -3.0555202579247984e-15 A 26.746666666666666 27.428556430446193 0 0 1 53.49333333333333 27.428556430446186 A 26.746666666666666 27.428556430446193 0 0 1 26.74666666666667 54.85711286089238 A 26.746666666666666 27.428556430446193 0 0 1 0.0 27.428556430446186 Z" fill="#ffffff" stroke="#5b9bd5" stroke-width="3" transform="matrix(1.0,0.0,0.0,1.0,616.485564304462,257.6012598425197)"/>
  </svg>
  <svg id="static_2">
    <defs/>
    <path class="non-scaling-stroke" d="M 0.0 27.428556430446193 A 26.746666666666666 27.428556430446193 0 0 1 26.74666666666666 -3.0555202579247984e-15 A 26.746666666666666 27.428556430446193 0 0 1 53.49333333333333 27.428556430446186 A 26.746666666666666 27.428556430446193 0 0 1 26.74666666666667 54.85711286089238 A 26.746666666666666 27.428556430446193 0 0 1 0.0 27.428556430446186 Z" fill="#ffffff" stroke="#5b9bd5" stroke-width="3" transform="matrix(1.0,0.0,0.0,1.0,649.2016797900262,207.07601049868765)"/>
    <path class="non-scaling-stroke" d="M 7.833917292530476 8.033638180319805 L 45.65941604080286 46.82347468057259 M 45.65941604080286 8.033638180319805 L 7.833917292530476 46.82347468057259" fill="#ffffff" stroke="#5b9bd5" stroke-width="3" transform="matrix(1.0,0.0,0.0,1.0,649.2016797900262,207.07601049868765)"/>
    <path class="non-scaling-stroke" d="M 0.0 27.428556430446193 A 26.746666666666666 27.428556430446193 0 0 1 26.74666666666666 -3.0555202579247984e-15 A 26.746666666666666 27.428556430446193 0 0 1 53.49333333333333 27.428556430446186 A 26.746666666666666 27.428556430446193 0 0 1 26.74666666666667 54.85711286089238 A 26.746666666666666 27.428556430446193 0 0 1 0.0 27.428556430446186 Z" fill="#ffffff" stroke="#5b9bd5" stroke-width="3" transform="matrix(1.0,0.0,0.0,1.0,649.2016797900262,207.07601049868765)"/>
  </svg>
  <svg id="static_3">
    <defs/>
    <path class="non-scaling-stroke" d="M 0.0 27.428556430446193 A 26.746666666666666 27.428556430446193 0 0 1 26.74666666666666 -3.0555202579247984e-15 A 26.746666666666666 27.428556430446193 0 0 1 53.49333333333333 27.428556430446186 A 26.746666666666666 27.428556430446193 0 0 1 26.74666666666667 54.85711286089238 A 26.746666666666666 27.428556430446193 0 0 1 0.0 27.428556430446186 Z" fill="#ffffff" stroke="#5b9bd5" stroke-width="3" transform="matrix(1.0,0.0,0.0,1.0,687.218687664042,157.7490813648294)"/>
    <path class="non-scaling-stroke" d="M 7.833917292530476 8.033638180319805 L 45.65941604080286 46.82347468057259 M 45.65941604080286 8.033638180319805 L 7.833917292530476 46.82347468057259" fill="#ffffff" stroke="#5b9bd5" stroke-width="3" transform="matrix(1.0,0.0,0.0,1.0,687.218687664042,157.7490813648294)"/>
    <path class="non-scaling-stroke" d="M 0.0 27.428556430446193 A 26.746666666666666 27.428556430446193 0 0 1 26.74666666666666 -3.0555202579247984e-15 A 26.746666666666666 27.428556430446193 0 0 1 53.49333333333333 27.428556430446186 A 26.746666666666666 27.428556430446193 0 0 1 26.74666666666667 54.85711286089238 A 26.746666666666666 27.428556430446193 0 0 1 0.0 27.428556430446186 Z" fill="#ffffff" stroke="#5b9bd5" stroke-width="3" transform="matrix(1.0,0.0,0.0,1.0,687.218687664042,157.7490813648294)"/>
  </svg>
  <svg id="static_4">
    <defs/>
    <path class="non-scaling-stroke" d="M 0.0 27.428556430446193 A 26.746666666666666 27.428556430446193 0 0 1 26.74666666666666 -3.0555202579247984e-15 A 26.746666666666666 27.428556430446193 0 0 1 53.49333333333333 27.428556430446186 A 26.746666666666666 27.428556430446193 0 0 1 26.74666666666667 54.85711286089238 A 26.746666666666666 27.428556430446193 0 0 1 0.0 27.428556430446186 Z" fill="#ffffff" stroke="#5b9bd5" stroke-width="3" transform="matrix(1.0,0.0,0.0,1.0,681.9177952755906,259.7672440944882)"/>
    <path class="non-scaling-stroke" d="M 7.833917292530476 8.033638180319805 L 45.65941604080286 46.82347468057259 M 45.65941604080286 8.033638180319805 L 7.833917292530476 46.82347468057259" fill="#ffffff" stroke="#5b9bd5" stroke-width="3" transform="matrix(1.0,0.0,0.0,1.0,681.9177952755906,259.7672440944882)"/>
    <path class="non-scaling-stroke" d="M 0.0 27.428556430446193 A 26.746666666666666 27.428556430446193 0 0 1 26.74666666666666 -3.0555202579247984e-15 A 26.746666666666666 27.428556430446193 0 0 1 53.49333333333333 27.428556430446186 A 26.746666666666666 27.428556430446193 0 0 1 26.74666666666667 54.85711286089238 A 26.746666666666666 27.428556430446193 0 0 1 0.0 27.428556430446186 Z" fill="#ffffff" stroke="#5b9bd5" stroke-width="3" transform="matrix(1.0,0.0,0.0,1.0,681.9177952755906,259.7672440944882)"/>
  </svg>
  <svg id="static_5">
    <defs/>
    <path class="non-scaling-stroke" d="M 0.0 27.428556430446193 A 26.746666666666666 27.428556430446193 0 0 1 26.74666666666666 -3.0555202579247984e-15 A 26.746666666666666 27.428556430446193 0 0 1 53.49333333333333 27.428556430446186 A 26.746666666666666 27.428556430446193 0 0 1 26.74666666666667 54.85711286089238 A 26.746666666666666 27.428556430446193 0 0 1 0.0 27.428556430446186 Z" fill="#ffffff" stroke="#5b9bd5" stroke-width="3" transform="matrix(1.0,0.0,0.0,1.0,718.3330183727035,210.44031496062993)"/>
    <path class="non-scaling-stroke" d="M 7.833917292530476 8.033638180319805 L 45.65941604080286 46.82347468057259 M 45.65941604080286 8.033638180319805 L 7.833917292530476 46.82347468057259" fill="#ffffff" stroke="#5b9bd5" stroke-width="3" transform="matrix(1.0,0.0,0.0,1.0,718.3330183727035,210.44031496062993)"/>
    <path class="non-scaling-stroke" d="M 0.0 27.428556430446193 A 26.746666666666666 27.428556430446193 0 0 1 26.74666666666666 -3.0555202579247984e-15 A 26.746666666666666 27.428556430446193 0 0 1 53.49333333333333 27.428556430446186 A 26.746666666666666 27.428556430446193 0 0 1 26.74666666666667 54.85711286089238 A 26.746666666666666 27.428556430446193 0 0 1 0.0 27.428556430446186 Z" fill="#ffffff" stroke="#5b9bd5" stroke-width="3" transform="matrix(1.0,0.0,0.0,1.0,718.3330183727035,210.44031496062993)"/>
  </svg>
  <svg id="static_6">
    <defs/>
    <path class="non-scaling-stroke" d="M 15.0 147.0 L 14.0 38.0 L 0.0 39.0 L 15.0 0.0 L 31.0 38.0 L 10.0 37.0" fill="#ffffff" stroke="#5b9bd5" stroke-width="3" transform="matrix(6.123233995736766e-17,1.0,-1.0,6.123233995736766e-17,318.3875065616798,223.69060367454065)"/>
  </svg>
  <svg id="dynamic">
    <defs/>
    <path class="non-scaling-stroke" d="M 0.0 27.428556430446193 A 26.746666666666666 27.428556430446193 0 0 1 26.74666666666666 -3.0555202579247984e-15 A 26.746666666666666 27.428556430446193 0 0 1 53.49333333333333 27.428556430446186 A 26.746666666666666 27.428556430446193 0 0 1 26.74666666666667 54.85711286089238 A 26.746666666666666 27.428556430446193 0 0 1 0.0 27.428556430446186 Z" fill="#ffffff" stroke="#5b9bd5" stroke-width="3" transform="matrix(1.0,0.0,0.0,1.0,320.85984251968506,209.72629921259843)"/>
    <path class="non-scaling-stroke" d="M 7.833917292530476 8.033638180319805 L 45.65941604080286 46.82347468057259 M 45.65941604080286 8.033638180319805 L 7.833917292530476 46.82347468057259" fill="#ffffff" stroke="#5b9bd5" stroke-width="3" transform="matrix(1.0,0.0,0.0,1.0,320.85984251968506,209.72629921259843)"/>
    <path class="non-scaling-stroke" d="M 0.0 27.428556430446193 A 26.746666666666666 27.428556430446193 0 0 1 26.74666666666666 -3.0555202579247984e-15 A 26.746666666666666 27.428556430446193 0 0 1 53.49333333333333 27.428556430446186 A 26.746666666666666 27.428556430446193 0 0 1 26.74666666666667 54.85711286089238 A 26.746666666666666 27.428556430446193 0 0 1 0.0 27.428556430446186 Z" fill="#ffffff" stroke="#5b9bd5" stroke-width="3" transform="matrix(1.0,0.0,0.0,1.0,320.85984251968506,209.72629921259843)"/>
    <animate attributeName="opacity" dur="1s" repeatCount="3" values="1;0;1"/>
  </svg>
</svg>
