<?xml version="1.0" encoding="utf-8" ?>
<svg baseProfile="full" height="720.0" version="1.1" width="1280.0" xmlns="http://www.w3.org/2000/svg" xmlns:ev="http://www.w3.org/2001/xml-events" xmlns:xlink="http://www.w3.org/1999/xlink">
  <defs>
    <style type="text/css">
<![CDATA[.non-scaling-stroke { vector-effect: non-scaling-stroke; }]]>    </style>
  </defs>
  <svg id="static_1">
    <defs/>
    <path class="non-scaling-stroke" d="M 0.0 10.0 L 148.0 75.0 L 236.0 17.0 L 222.0 0.0 L 253.0 2.0 L 245.0 31.0 L 231.0 13.0" fill="#ffffff" stroke="#5b9bd5" stroke-width="3" transform="matrix(1.0,-1.2246467991473532e-16,-1.2246467991473532e-16,-1.0,230.8199475065617,320.66267716535435)"/>
  </svg>
  <svg id="static_2">
    <defs/>
    <path class="non-scaling-stroke" d="M 0.0 0.0 L 0.0002099737532808399 0.0 L 0.00010498687664041995 0.00010498687664041995 L 0.0002099737532808399 0.0002099737532808399 L 0.0 0.0002099737532808399 L 0.00010498687664041995 0.00010498687664041995 Z" fill="#be72b1" stroke="#41719c" stroke-width="3" transform="matrix(228600.0,0.0,0.0,457200.0,1053.8199475065617,299.50761154855644)"/>
  </svg>
  <svg id="static_3">
    <defs/>
    <path class="non-scaling-stroke" d="M 0.0 0.0 L 0.0002099737532808399 0.0 L 0.00010498687664041995 0.00010498687664041995 L 0.0002099737532808399 0.0002099737532808399 L 0.0 0.0002099737532808399 L 0.00010498687664041995 0.00010498687664041995 Z" fill="#be72b1" stroke="#41719c" stroke-width="3" transform="matrix(228600.0,0.0,0.0,457200.0,937.6398950131234,604.0075590551181)"/>
  </svg>
  <svg id="dynamic">
    <defs/>
    <path class="non-scaling-stroke" d="M 0.0 0.0 L 0.0002099737532808399 0.0 L 0.00010498687664041995 0.00010498687664041995 L 0.0002099737532808399 0.0002099737532808399 L 0.0 0.0002099737532808399 L 0.00010498687664041995 0.00010498687664041995 Z" fill="#be72b1" stroke="#41719c" stroke-width="3" transform="matrix(228600.0,0.0,0.0,457200.0,485.63989501312335,283.0075590551181)"/>
  </svg>
</svg>
