<?xml version="1.0" encoding="utf-8" ?>
<svg baseProfile="full" height="720.0" version="1.1" width="1280.0" xmlns="http://www.w3.org/2000/svg" xmlns:ev="http://www.w3.org/2001/xml-events" xmlns:xlink="http://www.w3.org/1999/xlink">
  <defs>
    <style type="text/css">
<![CDATA[.non-scaling-stroke { vector-effect: non-scaling-stroke; }]]>    </style>
  </defs>
  <svg id="static_1">
    <defs/>
    <path class="non-scaling-stroke" d="M 8.983431263579901e-05 32.79044558348333 L 32.44230675187081 32.79067636572861 L 42.46729658792651 0.0 L 52.49228642398221 32.79067636572861 L 84.93450334154038 32.79044558348333 L 58.688070879536866 53.05596730935623 L 68.71347376892895 85.84650104381326 L 42.46729658792651 65.58060590442352 L 16.221119406924064 85.84650104381326 L 26.246522296316154 53.05596730935623 Z" fill="#00b050" stroke="#41719c" stroke-width="3" transform="matrix(1.0,0.0,0.0,1.0,179.58950131233595,544.0048293963255)"/>
  </svg>
  <svg id="static_2">
    <defs/>
    <path class="non-scaling-stroke" d="M 8.983431263579901e-05 32.79044558348333 L 32.44230675187081 32.79067636572861 L 42.46729658792651 0.0 L 52.49228642398221 32.79067636572861 L 84.93450334154038 32.79044558348333 L 58.688070879536866 53.05596730935623 L 68.71347376892895 85.84650104381326 L 42.46729658792651 65.58060590442352 L 16.221119406924064 85.84650104381326 L 26.246522296316154 53.05596730935623 Z" fill="#e7e6e6" stroke="#e7e6e6" stroke-width="3" transform="matrix(1.0,0.0,0.0,1.0,171.06540682414698,175.99517060367455)"/>
  </svg>
  <svg id="static_3">
    <defs/>
    <path class="non-scaling-stroke" d="M 0.0 124.0 L 82.0 122.0 L 81.0 70.0 L 172.0 71.0 L 172.0 24.0 L 253.0 21.0 L 254.0 0.0 L 286.0 18.0 L 255.0 38.0 L 254.0 21.0" fill="#ffffff" stroke="#5b9bd5" stroke-width="3" transform="matrix(-1.0,0.0,0.0,1.0,1026.1286089238845,447.47496062992127)"/>
  </svg>
  <svg id="dynamic">
    <defs/>
    <path class="non-scaling-stroke" d="M 8.983431263579901e-05 32.79044558348333 L 32.44230675187081 32.79067636572861 L 42.46729658792651 0.0 L 52.49228642398221 32.79067636572861 L 84.93450334154038 32.79044558348333 L 58.688070879536866 53.05596730935623 L 68.71347376892895 85.84650104381326 L 42.46729658792651 65.58060590442352 L 16.221119406924064 85.84650104381326 L 26.246522296316154 53.05596730935623 Z" fill="#00b050" stroke="#41719c" stroke-width="3" transform="matrix(1.0,0.0,0.0,1.0,651.7296587926509,410.44430446194224)"/>
    <animate attributeName="opacity" dur="1s" repeatCount="3" values="1;0;1"/>
  </svg>
</svg>
