<?xml version="1.0" encoding="utf-8" ?>
<svg baseProfile="full" height="720.0" version="1.1" width="1280.0" xmlns="http://www.w3.org/2000/svg" xmlns:ev="http://www.w3.org/2001/xml-events" xmlns:xlink="http://www.w3.org/1999/xlink">
  <defs>
    <style type="text/css">
<![CDATA[.non-scaling-stroke { vector-effect: non-scaling-stroke; }]]>    </style>
  </defs>
  <svg id="static_1">
    <defs/>
    <path class="non-scaling-stroke" d="M 0.0 0.0 L 62.09511811023622 0.0 L 62.09511811023622 59.42855643044619 L 0.0 59.42855643044619 Z" fill="#0070c0" stroke="#41719c" stroke-width="3" transform="matrix(1.0,0.0,0.0,1.0,531.238530183727,161.33312335958004)"/>
  </svg>
  <svg id="static_2">
    <defs/>
    <path class="non-scaling-stroke" d="M 0.0 0.0 L 62.09511811023622 0.0 L 62.09511811023622 59.42855643044619 L 0.0 59.42855643044619 Z" fill="#0070c0" stroke="#41719c" stroke-width="3" transform="matrix(1.0,0.0,0.0,1.0,450.0,316.7617847769029)"/>
  </svg>
  <svg id="static_3">
    <defs/>
    <path class="non-scaling-stroke" d="M 0.0 0.0 L 62.09511811023622 0.0 L 62.09511811023622 59.42855643044619 L 0.0 59.42855643044619 Z" fill="#0070c0" stroke="#41719c" stroke-width="3" transform="matrix(1.0,0.0,0.0,1.0,450.0,159.80955380577427)"/>
  </svg>
  <svg id="static_4">
    <defs/>
    <path class="non-scaling-stroke" d="M 0.0 0.0 L 62.09511811023622 0.0 L 62.09511811023622 59.42855643044619 L 0.0 59.42855643044619 Z" fill="#0070c0" stroke="#41719c" stroke-width="3" transform="matrix(1.0,0.0,0.0,1.0,612.4770603674541,161.3330183727034)"/>
  </svg>
  <svg id="static_5">
    <defs/>
    <path class="non-scaling-stroke" d="M 0.0 0.0 L 62.09511811023622 0.0 L 62.09511811023622 59.42855643044619 L 0.0 59.42855643044619 Z" fill="#0070c0" stroke="#41719c" stroke-width="3" transform="matrix(1.0,0.0,0.0,1.0,610.8101837270341,315.2384251968504)"/>
  </svg>
  <svg id="static_6">
    <defs/>
    <path class="non-scaling-stroke" d="M 0.0 0.0 L 62.09511811023622 0.0 L 62.09511811023622 59.42855643044619 L 0.0 59.42855643044619 Z" fill="#0070c0" stroke="#41719c" stroke-width="3" transform="matrix(1.0,0.0,0.0,1.0,531.238530183727,238.28577427821523)"/>
  </svg>
  <svg id="static_7">
    <defs/>
    <path class="non-scaling-stroke" d="M 0.0 0.0 L 62.09511811023622 0.0 L 62.09511811023622 59.42855643044619 L 0.0 59.42855643044619 Z" fill="#0070c0" stroke="#41719c" stroke-width="3" transform="matrix(1.0,0.0,0.0,1.0,450.0,238.28577427821523)"/>
  </svg>
  <svg id="static_8">
    <defs/>
    <path class="non-scaling-stroke" d="M 0.0 0.0 L 62.09511811023622 0.0 L 62.09511811023622 59.42855643044619 L 0.0 59.42855643044619 Z" fill="#0070c0" stroke="#41719c" stroke-width="3" transform="matrix(1.0,0.0,0.0,1.0,690.3818372703412,238.2856692913386)"/>
  </svg>
  <svg id="static_9">
    <defs/>
    <path class="non-scaling-stroke" d="M 0.0 0.0 L 62.09511811023622 0.0 L 62.09511811023622 59.42855643044619 L 0.0 59.42855643044619 Z" fill="#0070c0" stroke="#41719c" stroke-width="3" transform="matrix(1.0,0.0,0.0,1.0,690.3818372703412,313.52419947506564)"/>
  </svg>
  <svg id="static_10">
    <defs/>
    <path class="non-scaling-stroke" d="M 0.0 0.0 L 62.09511811023622 0.0 L 62.09511811023622 59.42855643044619 L 0.0 59.42855643044619 Z" fill="#0070c0" stroke="#41719c" stroke-width="3" transform="matrix(1.0,0.0,0.0,1.0,531.238530183727,315.2384251968504)"/>
  </svg>
  <svg id="dynamic">
    <defs/>
    <path class="non-scaling-stroke" d="M 0.0 0.0 L 62.09511811023622 0.0 L 62.09511811023622 59.42855643044619 L 0.0 59.42855643044619 Z" fill="#0070c0" stroke="#41719c" stroke-width="3" transform="matrix(1.0,0.0,0.0,1.0,608.9524409448819,590.4522834645669)"/>
    <animate attributeName="opacity" dur="1s" repeatCount="3" values="1;0;1"/>
  </svg>
</svg>
