<?xml version="1.0" encoding="utf-8" ?>
<svg baseProfile="full" height="720.0" version="1.1" width="1280.0" xmlns="http://www.w3.org/2000/svg" xmlns:ev="http://www.w3.org/2001/xml-events" xmlns:xlink="http://www.w3.org/1999/xlink">
  <defs>
    <style type="text/css">
<![CDATA[.non-scaling-stroke { vector-effect: non-scaling-stroke; }]]>    </style>
  </defs>
  <svg id="static_1">
    <defs/>
    <path class="non-scaling-stroke" d="M 0.0 35.0 A 36.5 35.0 0 1 1 0.0 35.00000000000001 Z" fill="#ffffff" stroke="#5b9bd5" stroke-width="3" transform="matrix(1.0,0.0,0.0,1.0,55.23989501312336,255.61648293963253)"/>
    <path class="non-scaling-stroke" d="M 21.004398148148148 24.53240740740741 A 3.8020833333333335 3.6458333333333335 0 1 1 21.004398148148148 24.53240740740741 M 44.39143518518518 24.53240740740741 A 3.8020833333333335 3.6458333333333335 0 1 1 44.39143518518518 24.53240740740741" fill="#ffffff" stroke="#5b9bd5" stroke-width="3" transform="matrix(1.0,0.0,0.0,1.0,55.23989501312336,255.61648293963253)"/>
    <path class="non-scaling-stroke" d="M 16.71676114106641 50.263733333333334 Q 36.5 63.292133333333325 56.237037037037034 50.263733333333334" fill="#ffffff" stroke="#5b9bd5" stroke-width="3" transform="matrix(1.0,0.0,0.0,1.0,55.23989501312336,255.61648293963253)"/>
    <path class="non-scaling-stroke" d="M 0.0 35.0 A 36.5 35.0 0 1 1 0.0 35.00000000000001 Z" fill="#ffffff" stroke="#5b9bd5" stroke-width="3" transform="matrix(1.0,0.0,0.0,1.0,55.23989501312336,255.61648293963253)"/>
  </svg>
  <svg id="static_2">
    <defs/>
    <path class="non-scaling-stroke" d="M 0.0 35.0 A 36.5 35.0 0 1 1 0.0 35.00000000000001 Z" fill="#ffffff" stroke="#5b9bd5" stroke-width="3" transform="matrix(1.0,0.0,0.0,1.0,120.03044619422572,205.87622047244093)"/>
    <path class="non-scaling-stroke" d="M 21.004398148148148 24.53240740740741 A 3.8020833333333335 3.6458333333333335 0 1 1 21.004398148148148 24.53240740740741 M 44.39143518518518 24.53240740740741 A 3.8020833333333335 3.6458333333333335 0 1 1 44.39143518518518 24.53240740740741" fill="#ffffff" stroke="#5b9bd5" stroke-width="3" transform="matrix(1.0,0.0,0.0,1.0,120.03044619422572,205.87622047244093)"/>
    <path class="non-scaling-stroke" d="M 16.71676114106641 50.263733333333334 Q 36.5 63.292133333333325 56.237037037037034 50.263733333333334" fill="#ffffff" stroke="#5b9bd5" stroke-width="3" transform="matrix(1.0,0.0,0.0,1.0,120.03044619422572,205.87622047244093)"/>
    <path class="non-scaling-stroke" d="M 0.0 35.0 A 36.5 35.0 0 1 1 0.0 35.00000000000001 Z" fill="#ffffff" stroke="#5b9bd5" stroke-width="3" transform="matrix(1.0,0.0,0.0,1.0,120.03044619422572,205.87622047244093)"/>
  </svg>
  <svg id="static_3">
    <defs/>
    <path class="non-scaling-stroke" d="M 0.0 35.0 A 36.5 35.0 0 1 1 0.0 35.00000000000001 Z" fill="#d6dce5" stroke="#5b9bd5" stroke-width="3" transform="matrix(1.0,0.0,0.0,1.0,929.4054593175853,240.87622047244093)"/>
    <path class="non-scaling-stroke" d="M 21.004398148148148 24.53240740740741 A 3.8020833333333335 3.6458333333333335 0 1 1 21.004398148148148 24.53240740740741 M 44.39143518518518 24.53240740740741 A 3.8020833333333335 3.6458333333333335 0 1 1 44.39143518518518 24.53240740740741" fill="#d6dce5" stroke="#5b9bd5" stroke-width="3" transform="matrix(1.0,0.0,0.0,1.0,929.4054593175853,240.87622047244093)"/>
    <path class="non-scaling-stroke" d="M 16.71676114106641 50.263733333333334 Q 36.5 63.292133333333325 56.237037037037034 50.263733333333334" fill="#d6dce5" stroke="#5b9bd5" stroke-width="3" transform="matrix(1.0,0.0,0.0,1.0,929.4054593175853,240.87622047244093)"/>
    <path class="non-scaling-stroke" d="M 0.0 35.0 A 36.5 35.0 0 1 1 0.0 35.00000000000001 Z" fill="#d6dce5" stroke="#5b9bd5" stroke-width="3" transform="matrix(1.0,0.0,0.0,1.0,929.4054593175853,240.87622047244093)"/>
  </svg>
  <svg id="static_4">
    <defs/>
    <path class="non-scaling-stroke" d="M 0.0 35.0 A 36.5 35.0 0 1 1 0.0 35.00000000000001 Z" fill="#d6dce5" stroke="#5b9bd5" stroke-width="3" transform="matrix(1.0,0.0,0.0,1.0,1011.4054593175853,275.87622047244093)"/>
    <path class="non-scaling-stroke" d="M 21.004398148148148 24.53240740740741 A 3.8020833333333335 3.6458333333333335 0 1 1 21.004398148148148 24.53240740740741 M 44.39143518518518 24.53240740740741 A 3.8020833333333335 3.6458333333333335 0 1 1 44.39143518518518 24.53240740740741" fill="#d6dce5" stroke="#5b9bd5" stroke-width="3" transform="matrix(1.0,0.0,0.0,1.0,1011.4054593175853,275.87622047244093)"/>
    <path class="non-scaling-stroke" d="M 16.71676114106641 50.263733333333334 Q 36.5 63.292133333333325 56.237037037037034 50.263733333333334" fill="#d6dce5" stroke="#5b9bd5" stroke-width="3" transform="matrix(1.0,0.0,0.0,1.0,1011.4054593175853,275.87622047244093)"/>
    <path class="non-scaling-stroke" d="M 0.0 35.0 A 36.5 35.0 0 1 1 0.0 35.00000000000001 Z" fill="#d6dce5" stroke="#5b9bd5" stroke-width="3" transform="matrix(1.0,0.0,0.0,1.0,1011.4054593175853,275.87622047244093)"/>
  </svg>
  <svg id="static_5">
    <defs/>
    <path class="non-scaling-stroke" d="M 0.0 35.0 A 36.5 35.0 0 0 1 36.49999999999999 -6.111040515849597e-15 A 36.5 35.0 0 0 1 73.0 34.999999999999986 A 36.5 35.0 0 0 1 36.5 69.99999999999999 A 36.5 35.0 0 0 1 0.0 34.99999999999999 Z" fill="#ffffff" stroke="#5b9bd5" stroke-width="3" transform="matrix(1.0,0.0,0.0,1.0,91.7883464566929,545.875905511811)"/>
  </svg>
  <svg id="static_6">
    <defs/>
    <path class="non-scaling-stroke" d="M 0.0 35.0 A 36.5 35.0 0 0 1 36.49999999999999 -6.111040515849597e-15 A 36.5 35.0 0 0 1 73.0 34.999999999999986 A 36.5 35.0 0 0 1 36.5 69.99999999999999 A 36.5 35.0 0 0 1 0.0 34.99999999999999 Z" fill="#ffffff" stroke="#5b9bd5" stroke-width="3" transform="matrix(1.0,0.0,0.0,1.0,173.8828346456693,580.875905511811)"/>
  </svg>
  <svg id="dynamic">
    <defs/>
    <path class="non-scaling-stroke" d="M 0.0 35.0 A 36.5 35.0 0 1 1 0.0 35.00000000000001 Z" fill="#ffffff" stroke="#5b9bd5" stroke-width="3" transform="matrix(1.0,0.0,0.0,1.0,965.9055118110236,519.7402624671917)"/>
    <path class="non-scaling-stroke" d="M 21.004398148148148 24.53240740740741 A 3.8020833333333335 3.6458333333333335 0 1 1 21.004398148148148 24.53240740740741 M 44.39143518518518 24.53240740740741 A 3.8020833333333335 3.6458333333333335 0 1 1 44.39143518518518 24.53240740740741" fill="#ffffff" stroke="#5b9bd5" stroke-width="3" transform="matrix(1.0,0.0,0.0,1.0,965.9055118110236,519.7402624671917)"/>
    <path class="non-scaling-stroke" d="M 16.71676114106641 50.263733333333334 Q 36.5 63.292133333333325 56.237037037037034 50.263733333333334" fill="#ffffff" stroke="#5b9bd5" stroke-width="3" transform="matrix(1.0,0.0,0.0,1.0,965.9055118110236,519.7402624671917)"/>
    <path class="non-scaling-stroke" d="M 0.0 35.0 A 36.5 35.0 0 1 1 0.0 35.00000000000001 Z" fill="#ffffff" stroke="#5b9bd5" stroke-width="3" transform="matrix(1.0,0.0,0.0,1.0,965.9055118110236,519.7402624671917)"/>
    <animate attributeName="opacity" dur="1s" repeatCount="3" values="1;0;1"/>
  </svg>
</svg>
