<?xml version="1.0" encoding="utf-8" ?>
<svg baseProfile="full" height="720.0" version="1.1" width="1280.0" xmlns="http://www.w3.org/2000/svg" xmlns:ev="http://www.w3.org/2001/xml-events" xmlns:xlink="http://www.w3.org/1999/xlink">
  <defs>
    <style type="text/css">
<![CDATA[.non-scaling-stroke { vector-effect: non-scaling-stroke; }]]>    </style>
  </defs>
  <svg id="static_1">
    <defs/>
    <path class="non-scaling-stroke" d="M 0.0 77.71433070866142 L 45.714330708661414 0.0 L 91.42866141732283 77.71433070866142 Z" fill="#c16f79" stroke="#41719c" stroke-width="3" transform="matrix(1.0,0.0,0.0,1.0,226.76188976377952,145.39580052493437)"/>
  </svg>
  <svg id="static_2">
    <defs/>
    <path class="non-scaling-stroke" d="M 0.0 77.71433070866142 L 43.843199999999996 0.0 L 96.0 77.71433070866142 Z" fill="#c16f79" stroke="#41719c" stroke-width="3" transform="matrix(1.0,0.0,0.0,1.0,413.04230971128607,145.39580052493437)"/>
  </svg>
  <svg id="static_3">
    <defs/>
    <path class="non-scaling-stroke" d="M 0.0 77.71433070866142 L 45.714330708661414 0.0 L 91.42866141732283 77.71433070866142 Z" fill="#c16f79" stroke="#41719c" stroke-width="3" transform="matrix(1.0,0.0,0.0,1.0,321.61364829396325,145.75643044619423)"/>
  </svg>
  <svg id="static_4">
    <defs/>
    <path class="non-scaling-stroke" d="M 0.0 43.2207874015748 L 26.28577427821522 0.0 L 52.57154855643044 43.2207874015748 Z" fill="#c16f79" stroke="#41719c" stroke-width="3" transform="matrix(1.0,0.0,0.0,1.0,916.8485039370079,167.63748031496064)"/>
  </svg>
  <svg id="static_5">
    <defs/>
    <path class="non-scaling-stroke" d="M 0.0 43.2207874015748 L 26.28577427821522 0.0 L 52.57154855643044 43.2207874015748 Z" fill="#c16f79" stroke="#41719c" stroke-width="3" transform="matrix(1.0,0.0,0.0,1.0,864.2769553805774,167.63748031496064)"/>
  </svg>
  <svg id="dynamic">
    <defs/>
    <path class="non-scaling-stroke" d="M 0.0 77.71433070866142 L 45.714330708661414 0.0 L 91.42866141732283 77.71433070866142 Z" fill="#c16f79" stroke="#41719c" stroke-width="3" transform="matrix(1.0,0.0,0.0,1.0,594.2856692913385,504.3809973753281)"/>
    <animate attributeName="opacity" dur="1s" repeatCount="3" values="1;0;1"/>
  </svg>
</svg>
