<?xml version="1.0" encoding="utf-8" ?>
<svg baseProfile="full" height="720.0" version="1.1" width="1280.0" xmlns="http://www.w3.org/2000/svg" xmlns:ev="http://www.w3.org/2001/xml-events" xmlns:xlink="http://www.w3.org/1999/xlink">
  <defs>
    <style type="text/css">
<![CDATA[.non-scaling-stroke { vector-effect: non-scaling-stroke; }]]>    </style>
  </defs>
  <svg id="static_1">
    <defs/>
    <path class="non-scaling-stroke" d="M 0.0 0.0 L 151.27275590551181 0.0 L 151.27275590551181 76.21753280839896 L 0.0 76.21753280839896 Z" fill="#5b9bd5" stroke="#5b9bd5" stroke-width="3" transform="matrix(1.0,0.0,0.0,1.0,560.4848293963255,283.4618372703412)"/>
  </svg>
  <svg id="static_2">
    <defs/>
    <path class="non-scaling-stroke" d="M 0.0 0.0 L 94.06068241469816 0.0 L 94.06068241469816 76.21753280839896 L 0.0 76.21753280839896 Z" fill="#5b9bd5" stroke="#5b9bd5" stroke-width="3" transform="matrix(1.0,0.0,0.0,1.0,587.6365354330709,207.3015223097113)"/>
  </svg>
  <svg id="static_3">
    <defs/>
    <path class="non-scaling-stroke" d="M 0.0 0.0 L 47.05732283464567 0.0 L 47.05732283464567 76.21753280839896 L 0.0 76.21753280839896 Z" fill="#5b9bd5" stroke="#5b9bd5" stroke-width="3" transform="matrix(1.0,0.0,0.0,1.0,610.5569553805774,130.19233595800526)"/>
  </svg>
  <svg id="static_4">
    <defs/>
    <path class="non-scaling-stroke" d="M 0.0 0.0 L 94.06068241469816 0.0 L 94.06068241469816 76.21753280839896 L 0.0 76.21753280839896 Z" fill="#5b9bd5" stroke="#5b9bd5" stroke-width="3" transform="matrix(1.0,0.0,0.0,1.0,587.0553280839895,360.5631496062992)"/>
  </svg>
  <svg id="static_5">
    <defs/>
    <path class="non-scaling-stroke" d="M 0.0 0.0 L 47.05732283464567 0.0 L 47.05732283464567 76.21753280839896 L 0.0 76.21753280839896 Z" fill="#5b9bd5" stroke="#5b9bd5" stroke-width="3" transform="matrix(1.0,0.0,0.0,1.0,612.5924409448819,437.0861942257218)"/>
  </svg>
  <svg id="dynamic">
    <defs/>
    <path class="non-scaling-stroke" d="M 0.0 0.0 L 19.411653543307086 0.0 L 19.411653543307086 76.21753280839896 L 0.0 76.21753280839896 Z" fill="#ffc000" stroke="#5b9bd5" stroke-width="3" transform="matrix(1.0,0.0,0.0,1.0,624.4671916010499,592.5374278215223)"/>
    <animate attributeName="opacity" dur="1s" repeatCount="3" values="1;0;1"/>
  </svg>
</svg>
