<?xml version="1.0" encoding="utf-8" ?>
<svg baseProfile="full" height="720.0" version="1.1" width="1280.0" xmlns="http://www.w3.org/2000/svg" xmlns:ev="http://www.w3.org/2001/xml-events" xmlns:xlink="http://www.w3.org/1999/xlink">
  <defs>
    <style type="text/css">
<![CDATA[.non-scaling-stroke { vector-effect: non-scaling-stroke; }]]>    </style>
  </defs>
  <svg id="static_1">
    <defs/>
    <path class="non-scaling-stroke" d="M 48.0 24.0 C 68.0 -32.0 146.0 24.0 48.0 96.0 C -50.0 24.0 28.0 -32.0 48.0 24.0 Z" fill="#000000" stroke="#41719c" stroke-width="3" transform="matrix(1.0,0.0,0.0,1.0,202.48272965879266,520.6069291338582)"/>
  </svg>
  <svg id="static_2">
    <defs/>
    <path class="non-scaling-stroke" d="M 0.0 0.0 L 0.0002099737532808399 0.0 L 0.00010498687664041995 0.00010498687664041995 L 0.0002099737532808399 0.0002099737532808399 L 0.0 0.0002099737532808399 L 0.00010498687664041995 0.00010498687664041995 Z" fill="#000000" stroke="#41719c" stroke-width="3" transform="matrix(228600.0,0.0,0.0,457200.0,1029.5172703412074,520.6069291338582)"/>
  </svg>
  <svg id="static_3">
    <defs/>
    <path class="non-scaling-stroke" d="M 15.0 147.0 L 14.0 38.0 L 0.0 39.0 L 15.0 0.0 L 31.0 38.0 L 10.0 37.0" fill="#ffffff" stroke="#5b9bd5" stroke-width="3" transform="matrix(-0.5493556146431446,-0.8355886599637724,1.633287513574939,-1.0738006735848178,708.2726317477147,297.7328241316234)"/>
  </svg>
  <svg id="dynamic">
    <defs/>
    <path class="non-scaling-stroke" d="M 48.0 24.0 C 68.0 -32.0 146.0 24.0 48.0 96.0 C -50.0 24.0 28.0 -32.0 48.0 24.0 Z" fill="#000000" stroke="#41719c" stroke-width="3" transform="matrix(1.0,0.0,0.0,1.0,595.2427296587927,287.79548556430444)"/>
    <animate attributeName="opacity" dur="1s" repeatCount="3" values="1;0;1"/>
  </svg>
</svg>
