<?xml version="1.0" encoding="utf-8" ?>
<svg baseProfile="full" height="720.0" version="1.1" width="1280.0" xmlns="http://www.w3.org/2000/svg" xmlns:ev="http://www.w3.org/2001/xml-events" xmlns:xlink="http://www.w3.org/1999/xlink">
  <defs>
    <style type="text/css">
<![CDATA[.non-scaling-stroke { vector-effect: non-scaling-stroke; }]]>    </style>
  </defs>
  <svg id="static_1">
    <defs/>
    <path class="non-scaling-stroke" d="M 0.0 32.16 A 32.16 32.16 0 0 1 32.16 -6.111040515849597e-15 A 32.16 32.16 0 0 1 64.32 32.15999999999999 A 32.16 32.16 0 0 1 32.16 64.32 A 32.16 32.16 0 0 1 0.0 32.16 Z" fill="#ffffff" stroke="#5b9bd5" stroke-width="3" transform="matrix(1.0,0.0,0.0,1.0,362.790656167979,236.6511286089239)"/>
    <path class="non-scaling-stroke" d="M 9.41944591704063 9.41944591704063 L 54.90055408295937 54.90055408295937 M 54.90055408295937 9.41944591704063 L 9.41944591704063 54.90055408295937" fill="#ffffff" stroke="#5b9bd5" stroke-width="3" transform="matrix(1.0,0.0,0.0,1.0,362.790656167979,236.6511286089239)"/>
    <path class="non-scaling-stroke" d="M 0.0 32.16 A 32.16 32.16 0 0 1 32.16 -6.111040515849597e-15 A 32.16 32.16 0 0 1 64.32 32.15999999999999 A 32.16 32.16 0 0 1 32.16 64.32 A 32.16 32.16 0 0 1 0.0 32.16 Z" fill="#ffffff" stroke="#5b9bd5" stroke-width="3" transform="matrix(1.0,0.0,0.0,1.0,362.790656167979,236.6511286089239)"/>
  </svg>
  <svg id="static_2">
    <defs/>
    <path class="non-scaling-stroke" d="M 0.0 32.16 A 32.16 32.16 0 0 1 32.16 -6.111040515849597e-15 A 32.16 32.16 0 0 1 64.32 32.15999999999999 A 32.16 32.16 0 0 1 32.16 64.32 A 32.16 32.16 0 0 1 0.0 32.16 Z" fill="#ffffff" stroke="#5b9bd5" stroke-width="3" transform="matrix(1.0,0.0,0.0,1.0,271.67989501312337,236.6511286089239)"/>
    <path class="non-scaling-stroke" d="M 9.41944591704063 9.41944591704063 L 54.90055408295937 54.90055408295937 M 54.90055408295937 9.41944591704063 L 9.41944591704063 54.90055408295937" fill="#ffffff" stroke="#5b9bd5" stroke-width="3" transform="matrix(1.0,0.0,0.0,1.0,271.67989501312337,236.6511286089239)"/>
    <path class="non-scaling-stroke" d="M 0.0 32.16 A 32.16 32.16 0 0 1 32.16 -6.111040515849597e-15 A 32.16 32.16 0 0 1 64.32 32.15999999999999 A 32.16 32.16 0 0 1 32.16 64.32 A 32.16 32.16 0 0 1 0.0 32.16 Z" fill="#ffffff" stroke="#5b9bd5" stroke-width="3" transform="matrix(1.0,0.0,0.0,1.0,271.67989501312337,236.6511286089239)"/>
  </svg>
  <svg id="static_3">
    <defs/>
    <path class="non-scaling-stroke" d="M 0.0 32.16 A 32.16 32.16 0 0 1 32.16 -6.111040515849597e-15 A 32.16 32.16 0 0 1 64.32 32.15999999999999 A 32.16 32.16 0 0 1 32.16 64.32 A 32.16 32.16 0 0 1 0.0 32.16 Z" fill="#ffffff" stroke="#5b9bd5" stroke-width="3" transform="matrix(0.7029535415686301,0.7112357685016413,-0.7112357685016413,0.7029535415686301,955.8352803026801,223.33069541018745)"/>
    <path class="non-scaling-stroke" d="M 32.16 0.0 L 32.16 64.32 M 0.0 32.16 L 64.32 32.16" fill="#ffffff" stroke="#5b9bd5" stroke-width="3" transform="matrix(0.7029535415686301,0.7112357685016413,-0.7112357685016413,0.7029535415686301,955.8352803026801,223.33069541018745)"/>
    <path class="non-scaling-stroke" d="M 0.0 32.16 A 32.16 32.16 0 0 1 32.16 -6.111040515849597e-15 A 32.16 32.16 0 0 1 64.32 32.15999999999999 A 32.16 32.16 0 0 1 32.16 64.32 A 32.16 32.16 0 0 1 0.0 32.16 Z" fill="#ffffff" stroke="#5b9bd5" stroke-width="3" transform="matrix(0.7029535415686301,0.7112357685016413,-0.7112357685016413,0.7029535415686301,955.8352803026801,223.33069541018745)"/>
  </svg>
  <svg id="static_4">
    <defs/>
    <path class="non-scaling-stroke" d="M 15.0 147.0 L 14.0 38.0 L 0.0 39.0 L 15.0 0.0 L 31.0 38.0 L 10.0 37.0" fill="#ffffff" stroke="#5b9bd5" stroke-width="3" transform="matrix(0.5991121057151726,0.800665151474405,-0.8646068563132405,0.6469576368444707,599.9727600012255,537.3198786472277)"/>
  </svg>
  <svg id="dynamic">
    <defs/>
    <path class="non-scaling-stroke" d="M 0.0 32.16 A 32.16 32.16 0 0 1 32.16 -6.111040515849597e-15 A 32.16 32.16 0 0 1 64.32 32.15999999999999 A 32.16 32.16 0 0 1 32.16 64.32 A 32.16 32.16 0 0 1 0.0 32.16 Z" fill="#ffffff" stroke="#5b9bd5" stroke-width="3" transform="matrix(1.0,0.0,0.0,1.0,618.5451968503937,491.99989501312336)"/>
    <path class="non-scaling-stroke" d="M 9.41944591704063 9.41944591704063 L 54.90055408295937 54.90055408295937 M 54.90055408295937 9.41944591704063 L 9.41944591704063 54.90055408295937" fill="#ffffff" stroke="#5b9bd5" stroke-width="3" transform="matrix(1.0,0.0,0.0,1.0,618.5451968503937,491.99989501312336)"/>
    <path class="non-scaling-stroke" d="M 0.0 32.16 A 32.16 32.16 0 0 1 32.16 -6.111040515849597e-15 A 32.16 32.16 0 0 1 64.32 32.15999999999999 A 32.16 32.16 0 0 1 32.16 64.32 A 32.16 32.16 0 0 1 0.0 32.16 Z" fill="#ffffff" stroke="#5b9bd5" stroke-width="3" transform="matrix(1.0,0.0,0.0,1.0,618.5451968503937,491.99989501312336)"/>
    <animate attributeName="opacity" dur="1s" repeatCount="3" values="1;0;1"/>
  </svg>
</svg>
