<?xml version="1.0" encoding="utf-8" ?>
<svg baseProfile="full" height="720.0" version="1.1" width="1280.0" xmlns="http://www.w3.org/2000/svg" xmlns:ev="http://www.w3.org/2001/xml-events" xmlns:xlink="http://www.w3.org/1999/xlink">
  <defs>
    <style type="text/css">
<![CDATA[.non-scaling-stroke { vector-effect: non-scaling-stroke; }]]>    </style>
  </defs>
  <svg id="static_1">
    <defs/>
    <path class="non-scaling-stroke" d="M 0.0 0.00010498687664041995 L 0.00010498687664041995 0.0 L 0.0002099737532808399 0.00010498687664041995 L 0.00010498687664041995 0.0002099737532808399 Z" fill="#a35fd1" stroke="#41719c" stroke-width="3" transform="matrix(395999.99999999994,0.0,0.0,306323.99999999994,304.0,211.8405249343832)"/>
  </svg>
  <svg id="static_2">
    <defs/>
    <path class="non-scaling-stroke" d="M 0.0 0.00010498687664041995 L 0.00010498687664041995 0.0 L 0.0002099737532808399 0.00010498687664041995 L 0.00010498687664041995 0.0002099737532808399 Z" fill="#a35fd1" stroke="#41719c" stroke-width="3" transform="matrix(395999.99999999994,0.0,0.0,306323.99999999994,809.700997375328,211.8405249343832)"/>
  </svg>
  <svg id="static_3">
    <defs/>
    <path class="non-scaling-stroke" d="M 15.0 147.0 L 14.0 38.0 L 0.0 39.0 L 15.0 0.0 L 31.0 38.0 L 10.0 37.0" fill="#ffffff" stroke="#5b9bd5" stroke-width="3" transform="matrix(0.6503277405694554,0.7596537565534888,-1.0199095303370793,0.873128652004059,579.7543991098727,517.3835342107027)"/>
  </svg>
  <svg id="dynamic">
    <defs/>
    <path class="non-scaling-stroke" d="M 0.0 0.00010498687664041995 L 0.00010498687664041995 0.0 L 0.0002099737532808399 0.00010498687664041995 L 0.00010498687664041995 0.0002099737532808399 Z" fill="#a35fd1" stroke="#41719c" stroke-width="3" transform="matrix(395999.99999999994,0.0,0.0,306323.99999999994,579.3102362204725,475.58614173228347)"/>
  </svg>
</svg>
