<?xml version="1.0" encoding="utf-8" ?>
<svg baseProfile="full" height="720.0" version="1.1" width="1280.0" xmlns="http://www.w3.org/2000/svg" xmlns:ev="http://www.w3.org/2001/xml-events" xmlns:xlink="http://www.w3.org/1999/xlink">
  <defs>
    <style type="text/css">
<![CDATA[.non-scaling-stroke { vector-effect: non-scaling-stroke; }]]>    </style>
  </defs>
  <svg id="static_1">
    <defs/>
    <path class="non-scaling-stroke" d="M 1.1338582677165354 0.6089238845144357 L 1.5246194225721785 0.0 L 1.4860892388451443 0.5590551181102362 L 1.9296587926509186 0.4679265091863517 L 1.753490813648294 0.7679790026246719 L 2.2149081364829395 0.8542782152230971 L 1.848503937007874 1.099737532808399 L 2.267716535433071 1.395275590551181 L 1.7676640419947507 1.358740157480315 L 1.9049868766404199 1.899737532808399 L 1.4719160104986877 1.5177952755905513 L 1.3907611548556431 2.0721259842519686 L 1.105721784776903 1.5679790026246718 L 0.8908136482939633 2.267716535433071 L 0.8099737532808399 1.6406299212598425 L 0.4999475065616798 1.8495538057742782 L 0.5949606299212599 1.4632020997375328 L 0.014173228346456693 1.5314435695538058 L 0.39076115485564306 1.236220472440945 L 0.0 0.9044619422572179 L 0.4857742782152231 0.7996850393700787 L 0.03884514435695538 0.2409448818897638 L 0.7676640419947507 0.6635170603674541 L 0.8768503937007874 0.2409448818897638 Z" fill="#bdd7ee" stroke="#41719c" stroke-width="3" transform="matrix(31.75,0.0,0.0,32.63194444444444,319.2423097112861,286.0)"/>
  </svg>
  <svg id="static_2">
    <defs/>
    <path class="non-scaling-stroke" d="M 1.1338582677165354 0.6089238845144357 L 1.5246194225721785 0.0 L 1.4860892388451443 0.5590551181102362 L 1.9296587926509186 0.4679265091863517 L 1.753490813648294 0.7679790026246719 L 2.2149081364829395 0.8542782152230971 L 1.848503937007874 1.099737532808399 L 2.267716535433071 1.395275590551181 L 1.7676640419947507 1.358740157480315 L 1.9049868766404199 1.899737532808399 L 1.4719160104986877 1.5177952755905513 L 1.3907611548556431 2.0721259842519686 L 1.105721784776903 1.5679790026246718 L 0.8908136482939633 2.267716535433071 L 0.8099737532808399 1.6406299212598425 L 0.4999475065616798 1.8495538057742782 L 0.5949606299212599 1.4632020997375328 L 0.014173228346456693 1.5314435695538058 L 0.39076115485564306 1.236220472440945 L 0.0 0.9044619422572179 L 0.4857742782152231 0.7996850393700787 L 0.03884514435695538 0.2409448818897638 L 0.7676640419947507 0.6635170603674541 L 0.8768503937007874 0.2409448818897638 Z" fill="#bdd7ee" stroke="#41719c" stroke-width="3" transform="matrix(31.75,0.0,0.0,32.63194444444444,398.5421522309711,287.1455118110236)"/>
  </svg>
  <svg id="static_3">
    <defs/>
    <path class="non-scaling-stroke" d="M 1.1338582677165354 0.6089238845144357 L 1.5246194225721785 0.0 L 1.4860892388451443 0.5590551181102362 L 1.9296587926509186 0.4679265091863517 L 1.753490813648294 0.7679790026246719 L 2.2149081364829395 0.8542782152230971 L 1.848503937007874 1.099737532808399 L 2.267716535433071 1.395275590551181 L 1.7676640419947507 1.358740157480315 L 1.9049868766404199 1.899737532808399 L 1.4719160104986877 1.5177952755905513 L 1.3907611548556431 2.0721259842519686 L 1.105721784776903 1.5679790026246718 L 0.8908136482939633 2.267716535433071 L 0.8099737532808399 1.6406299212598425 L 0.4999475065616798 1.8495538057742782 L 0.5949606299212599 1.4632020997375328 L 0.014173228346456693 1.5314435695538058 L 0.39076115485564306 1.236220472440945 L 0.0 0.9044619422572179 L 0.4857742782152231 0.7996850393700787 L 0.03884514435695538 0.2409448818897638 L 0.7676640419947507 0.6635170603674541 L 0.8768503937007874 0.2409448818897638 Z" fill="#bdd7ee" stroke="#41719c" stroke-width="3" transform="matrix(31.75,0.0,0.0,32.63194444444444,236.81123359580053,286.0)"/>
  </svg>
  <svg id="static_4">
    <defs/>
    <path class="non-scaling-stroke" d="M 1.1338582677165354 0.6089238845144357 L 1.5246194225721785 0.0 L 1.4860892388451443 0.5590551181102362 L 1.9296587926509186 0.4679265091863517 L 1.753490813648294 0.7679790026246719 L 2.2149081364829395 0.8542782152230971 L 1.848503937007874 1.099737532808399 L 2.267716535433071 1.395275590551181 L 1.7676640419947507 1.358740157480315 L 1.9049868766404199 1.899737532808399 L 1.4719160104986877 1.5177952755905513 L 1.3907611548556431 2.0721259842519686 L 1.105721784776903 1.5679790026246718 L 0.8908136482939633 2.267716535433071 L 0.8099737532808399 1.6406299212598425 L 0.4999475065616798 1.8495538057742782 L 0.5949606299212599 1.4632020997375328 L 0.014173228346456693 1.5314435695538058 L 0.39076115485564306 1.236220472440945 L 0.0 0.9044619422572179 L 0.4857742782152231 0.7996850393700787 L 0.03884514435695538 0.2409448818897638 L 0.7676640419947507 0.6635170603674541 L 0.8768503937007874 0.2409448818897638 Z" fill="#bdd7ee" stroke="#41719c" stroke-width="3" transform="matrix(31.75,0.0,0.0,32.63194444444444,560.2729658792651,286.1455118110236)"/>
  </svg>
  <svg id="static_5">
    <defs/>
    <path class="non-scaling-stroke" d="M 1.1338582677165354 0.6089238845144357 L 1.5246194225721785 0.0 L 1.4860892388451443 0.5590551181102362 L 1.9296587926509186 0.4679265091863517 L 1.753490813648294 0.7679790026246719 L 2.2149081364829395 0.8542782152230971 L 1.848503937007874 1.099737532808399 L 2.267716535433071 1.395275590551181 L 1.7676640419947507 1.358740157480315 L 1.9049868766404199 1.899737532808399 L 1.4719160104986877 1.5177952755905513 L 1.3907611548556431 2.0721259842519686 L 1.105721784776903 1.5679790026246718 L 0.8908136482939633 2.267716535433071 L 0.8099737532808399 1.6406299212598425 L 0.4999475065616798 1.8495538057742782 L 0.5949606299212599 1.4632020997375328 L 0.014173228346456693 1.5314435695538058 L 0.39076115485564306 1.236220472440945 L 0.0 0.9044619422572179 L 0.4857742782152231 0.7996850393700787 L 0.03884514435695538 0.2409448818897638 L 0.7676640419947507 0.6635170603674541 L 0.8768503937007874 0.2409448818897638 Z" fill="#bdd7ee" stroke="#41719c" stroke-width="3" transform="matrix(31.75,0.0,0.0,32.63194444444444,742.7797375328084,287.1455118110236)"/>
  </svg>
  <svg id="static_6">
    <defs/>
    <path class="non-scaling-stroke" d="M 1.1338582677165354 0.6089238845144357 L 1.5246194225721785 0.0 L 1.4860892388451443 0.5590551181102362 L 1.9296587926509186 0.4679265091863517 L 1.753490813648294 0.7679790026246719 L 2.2149081364829395 0.8542782152230971 L 1.848503937007874 1.099737532808399 L 2.267716535433071 1.395275590551181 L 1.7676640419947507 1.358740157480315 L 1.9049868766404199 1.899737532808399 L 1.4719160104986877 1.5177952755905513 L 1.3907611548556431 2.0721259842519686 L 1.105721784776903 1.5679790026246718 L 0.8908136482939633 2.267716535433071 L 0.8099737532808399 1.6406299212598425 L 0.4999475065616798 1.8495538057742782 L 0.5949606299212599 1.4632020997375328 L 0.014173228346456693 1.5314435695538058 L 0.39076115485564306 1.236220472440945 L 0.0 0.9044619422572179 L 0.4857742782152231 0.7996850393700787 L 0.03884514435695538 0.2409448818897638 L 0.7676640419947507 0.6635170603674541 L 0.8768503937007874 0.2409448818897638 Z" fill="#bdd7ee" stroke="#41719c" stroke-width="3" transform="matrix(31.75,0.0,0.0,32.63194444444444,822.0795800524934,287.1455118110236)"/>
  </svg>
  <svg id="dynamic">
    <defs/>
    <path class="non-scaling-stroke" d="M 1.1338582677165354 0.6089238845144357 L 1.5246194225721785 0.0 L 1.4860892388451443 0.5590551181102362 L 1.9296587926509186 0.4679265091863517 L 1.753490813648294 0.7679790026246719 L 2.2149081364829395 0.8542782152230971 L 1.848503937007874 1.099737532808399 L 2.267716535433071 1.395275590551181 L 1.7676640419947507 1.358740157480315 L 1.9049868766404199 1.899737532808399 L 1.4719160104986877 1.5177952755905513 L 1.3907611548556431 2.0721259842519686 L 1.105721784776903 1.5679790026246718 L 0.8908136482939633 2.267716535433071 L 0.8099737532808399 1.6406299212598425 L 0.4999475065616798 1.8495538057742782 L 0.5949606299212599 1.4632020997375328 L 0.014173228346456693 1.5314435695538058 L 0.39076115485564306 1.236220472440945 L 0.0 0.9044619422572179 L 0.4857742782152231 0.7996850393700787 L 0.03884514435695538 0.2409448818897638 L 0.7676640419947507 0.6635170603674541 L 0.8768503937007874 0.2409448818897638 Z" fill="#bdd7ee" stroke="#41719c" stroke-width="3" transform="matrix(31.75,0.0,0.0,32.63194444444444,562.3298687664042,606.6666666666666)"/>
    <animate attributeName="opacity" dur="1s" repeatCount="3" values="1;0;1"/>
  </svg>
</svg>
