<?xml version="1.0" encoding="utf-8" ?>
<svg baseProfile="full" height="720.0" version="1.1" width="1280.0" xmlns="http://www.w3.org/2000/svg" xmlns:ev="http://www.w3.org/2001/xml-events" xmlns:xlink="http://www.w3.org/1999/xlink">
  <defs>
    <style type="text/css">
<![CDATA[.non-scaling-stroke { vector-effect: non-scaling-stroke; }]]>    </style>
  </defs>
  <svg id="dynamic">
    <defs/>
    <path class="non-scaling-stroke" d="M 18.246626097229584 39.56430417970351 L 38.43467390277041 20.519487594574688 L 59.0 42.31931877339508 L 79.56532609722959 20.519487594574688 L 99.7533739027704 39.56430417970351 L 78.07718666954496 62.541679790026244 L 99.7533739027704 85.51905540034899 L 79.56532609722959 104.56387198547782 L 59.0 82.7640408066574 L 38.43467390277041 104.56387198547782 L 18.246626097229584 85.51905540034899 L 39.922813330455035 62.541679790026244 Z" fill="#000000" stroke="#000000" stroke-width="3" transform="matrix(1.0,0.0,0.0,1.0,581.0,337.6896587926509)"/>
  </svg>
  <svg id="static_1">
    <defs/>
    <path class="non-scaling-stroke" d="M 18.246626097229584 39.56430417970351 L 38.43467390277041 20.519487594574688 L 59.0 42.31931877339508 L 79.56532609722959 20.519487594574688 L 99.7533739027704 39.56430417970351 L 78.07718666954496 62.541679790026244 L 99.7533739027704 85.51905540034899 L 79.56532609722959 104.56387198547782 L 59.0 82.7640408066574 L 38.43467390277041 104.56387198547782 L 18.246626097229584 85.51905540034899 L 39.922813330455035 62.541679790026244 Z" fill="#000000" stroke="#000000" stroke-width="3" transform="matrix(1.0,0.0,0.0,1.0,1049.9655643044619,257.92094488188974)"/>
  </svg>
  <svg id="static_2">
    <defs/>
    <path class="non-scaling-stroke" d="M 18.246626097229584 39.56430417970351 L 38.43467390277041 20.519487594574688 L 59.0 42.31931877339508 L 79.56532609722959 20.519487594574688 L 99.7533739027704 39.56430417970351 L 78.07718666954496 62.541679790026244 L 99.7533739027704 85.51905540034899 L 79.56532609722959 104.56387198547782 L 59.0 82.7640408066574 L 38.43467390277041 104.56387198547782 L 18.246626097229584 85.51905540034899 L 39.922813330455035 62.541679790026244 Z" fill="#000000" stroke="#000000" stroke-width="3" transform="matrix(1.0,0.0,0.0,1.0,1049.9655643044619,374.15191601049867)"/>
  </svg>
  <svg id="static_3">
    <defs/>
    <path class="non-scaling-stroke" d="M 15.640886083989505 48.66489213648294 L 45.12315985301837 48.66489213648294 L 45.12315985301837 16.579799312335957 L 72.87673516010499 16.579799312335957 L 72.87673516010499 48.66489213648294 L 102.35900892913385 48.66489213648294 L 102.35900892913385 76.41846744356955 L 72.87673516010499 76.41846744356955 L 72.87673516010499 108.50356026771654 L 45.12315985301837 108.50356026771654 L 45.12315985301837 76.41846744356955 L 15.640886083989505 76.41846744356955 Z" fill="#000000" stroke="#000000" stroke-width="3" transform="matrix(1.0,0.0,0.0,1.0,108.03422572178478,257.92094488188974)"/>
  </svg>
  <svg id="static_4">
    <defs/>
    <path class="non-scaling-stroke" d="M 15.640886083989505 48.66489213648294 L 45.12315985301837 48.66489213648294 L 45.12315985301837 16.579799312335957 L 72.87673516010499 16.579799312335957 L 72.87673516010499 48.66489213648294 L 102.35900892913385 48.66489213648294 L 102.35900892913385 76.41846744356955 L 72.87673516010499 76.41846744356955 L 72.87673516010499 108.50356026771654 L 45.12315985301837 108.50356026771654 L 45.12315985301837 76.41846744356955 L 15.640886083989505 76.41846744356955 Z" fill="#000000" stroke="#000000" stroke-width="3" transform="matrix(1.0,0.0,0.0,1.0,108.03422572178478,374.15191601049867)"/>
  </svg>
</svg>
