<?xml version="1.0" encoding="utf-8" ?>
<svg baseProfile="full" height="720.0" version="1.1" width="1280.0" xmlns="http://www.w3.org/2000/svg" xmlns:ev="http://www.w3.org/2001/xml-events" xmlns:xlink="http://www.w3.org/1999/xlink">
  <defs>
    <style type="text/css">
<![CDATA[.non-scaling-stroke { vector-effect: non-scaling-stroke; }]]>    </style>
  </defs>
  <svg id="static_1">
    <defs/>
    <path class="non-scaling-stroke" d="M 16.452547258748275 36.375214345021774 L 34.944902741251724 19.305343880700008 L 53.5 39.40669469284466 L 72.05509725874828 19.305343880700008 L 90.54745274125173 36.375214345021774 L 70.6245812779027 57.958320209973756 L 90.54745274125173 79.54142607492574 L 72.05509725874828 96.6112965392475 L 53.5 76.50994572710285 L 34.944902741251724 96.6112965392475 L 16.452547258748275 79.54142607492574 L 36.3754187220973 57.958320209973756 Z" fill="#000000" stroke="#41719c" stroke-width="3" transform="matrix(1.0,0.0,0.0,1.0,1049.9654593175853,264.20839895013125)"/>
  </svg>
  <svg id="static_2">
    <defs/>
    <path class="non-scaling-stroke" d="M 16.452547258748275 36.375214345021774 L 34.944902741251724 19.305343880700008 L 53.5 39.40669469284466 L 72.05509725874828 19.305343880700008 L 90.54745274125173 36.375214345021774 L 70.6245812779027 57.958320209973756 L 90.54745274125173 79.54142607492574 L 72.05509725874828 96.6112965392475 L 53.5 76.50994572710285 L 34.944902741251724 96.6112965392475 L 16.452547258748275 79.54142607492574 L 36.3754187220973 57.958320209973756 Z" fill="#000000" stroke="#41719c" stroke-width="3" transform="matrix(1.0,0.0,0.0,1.0,1049.9653543307086,360.20839895013125)"/>
  </svg>
  <svg id="static_3">
    <defs/>
    <path class="non-scaling-stroke" d="M 12.724799999999997 36.7104 L 36.7104 36.7104 L 36.7104 12.724799999999997 L 59.28959999999999 12.724799999999997 L 59.28959999999999 36.7104 L 83.2752 36.7104 L 83.2752 59.28959999999999 L 59.28959999999999 59.28959999999999 L 59.28959999999999 83.2752 L 36.7104 83.2752 L 36.7104 59.28959999999999 L 12.724799999999997 59.28959999999999 Z" fill="#000000" stroke="#41719c" stroke-width="3" transform="matrix(1.0,0.0,0.0,1.0,146.0,274.166719160105)"/>
  </svg>
  <svg id="static_4">
    <defs/>
    <path class="non-scaling-stroke" d="M 12.724799999999997 36.7104 L 36.7104 36.7104 L 36.7104 12.724799999999997 L 59.28959999999999 12.724799999999997 L 59.28959999999999 36.7104 L 83.2752 36.7104 L 83.2752 59.28959999999999 L 59.28959999999999 59.28959999999999 L 59.28959999999999 83.2752 L 36.7104 83.2752 L 36.7104 59.28959999999999 L 12.724799999999997 59.28959999999999 Z" fill="#000000" stroke="#41719c" stroke-width="3" transform="matrix(1.0,0.0,0.0,1.0,146.0,370.166719160105)"/>
  </svg>
  <svg id="dynamic">
    <defs/>
    <path class="non-scaling-stroke" d="M 16.452547258748275 36.375214345021774 L 34.944902741251724 19.305343880700008 L 53.5 39.40669469284466 L 72.05509725874828 19.305343880700008 L 90.54745274125173 36.375214345021774 L 70.6245812779027 57.958320209973756 L 90.54745274125173 79.54142607492574 L 72.05509725874828 96.6112965392475 L 53.5 76.50994572710285 L 34.944902741251724 96.6112965392475 L 16.452547258748275 79.54142607492574 L 36.3754187220973 57.958320209973756 Z" fill="#000000" stroke="#41719c" stroke-width="3" transform="matrix(1.0,0.0,0.0,1.0,281.4999475065617,497.12503937007875)"/>
    <animate attributeName="opacity" dur="1s" repeatCount="3" values="1;0;1"/>
  </svg>
</svg>
