<?xml version="1.0" encoding="utf-8" ?>
<svg baseProfile="full" height="720.0" version="1.1" width="1280.0" xmlns="http://www.w3.org/2000/svg" xmlns:ev="http://www.w3.org/2001/xml-events" xmlns:xlink="http://www.w3.org/1999/xlink">
  <defs>
    <style type="text/css">
<![CDATA[.non-scaling-stroke { vector-effect: non-scaling-stroke; }]]>    </style>
  </defs>
  <svg id="static_1">
    <defs/>
    <path class="non-scaling-stroke" d="M 0.0 38.103097112860894 L 38.103097112860894 0.0 L 76.20619422572179 38.103097112860894 L 38.103097112860894 76.20619422572179 Z" fill="#92d050" stroke="#41719c" stroke-width="3" transform="matrix(1.0,0.0,0.0,1.0,549.2783202099738,360.0)"/>
  </svg>
  <svg id="static_2">
    <defs/>
    <path class="non-scaling-stroke" d="M 0.0 38.103097112860894 L 38.103097112860894 0.0 L 76.20619422572179 38.103097112860894 L 38.103097112860894 76.20619422572179 Z" fill="#92d050" stroke="#41719c" stroke-width="3" transform="matrix(1.0,0.0,0.0,1.0,702.1855118110236,360.0)"/>
  </svg>
  <svg id="static_3">
    <defs/>
    <path class="non-scaling-stroke" d="M 0.0 38.103097112860894 L 38.103097112860894 0.0 L 76.20619422572179 38.103097112860894 L 38.103097112860894 76.20619422572179 Z" fill="#92d050" stroke="#41719c" stroke-width="3" transform="matrix(1.0,0.0,0.0,1.0,473.07212598425195,360.0)"/>
  </svg>
  <svg id="static_4">
    <defs/>
    <path class="non-scaling-stroke" d="M 0.0 38.103097112860894 L 38.103097112860894 0.0 L 76.20619422572179 38.103097112860894 L 38.103097112860894 76.20619422572179 Z" fill="#92d050" stroke="#41719c" stroke-width="3" transform="matrix(1.0,0.0,0.0,1.0,625.4845144356956,283.7938057742782)"/>
  </svg>
  <svg id="static_5">
    <defs/>
    <path class="non-scaling-stroke" d="M 0.0 38.103097112860894 L 38.103097112860894 0.0 L 76.20619422572179 38.103097112860894 L 38.103097112860894 76.20619422572179 Z" fill="#92d050" stroke="#41719c" stroke-width="3" transform="matrix(1.0,0.0,0.0,1.0,549.2783202099738,283.7938057742782)"/>
  </svg>
  <svg id="static_6">
    <defs/>
    <path class="non-scaling-stroke" d="M 0.0 38.103097112860894 L 38.103097112860894 0.0 L 76.20619422572179 38.103097112860894 L 38.103097112860894 76.20619422572179 Z" fill="#92d050" stroke="#41719c" stroke-width="3" transform="matrix(1.0,0.0,0.0,1.0,625.4845144356956,360.0)"/>
  </svg>
  <svg id="static_7">
    <defs/>
    <path class="non-scaling-stroke" d="M 0.0 38.103097112860894 L 38.103097112860894 0.0 L 76.20619422572179 38.103097112860894 L 38.103097112860894 76.20619422572179 Z" fill="#92d050" stroke="#41719c" stroke-width="3" transform="matrix(1.0,0.0,0.0,1.0,549.77312335958,436.2061942257218)"/>
  </svg>
  <svg id="dynamic">
    <defs/>
    <path class="non-scaling-stroke" d="M 0.0 38.103097112860894 L 38.103097112860894 0.0 L 76.20619422572179 38.103097112860894 L 38.103097112860894 76.20619422572179 Z" fill="#92d050" stroke="#41719c" stroke-width="3" transform="matrix(1.0,0.0,0.0,1.0,601.8969028871392,597.6907086614174)"/>
  </svg>
</svg>
