<?xml version="1.0" encoding="utf-8" ?>
<svg baseProfile="full" height="720.0" version="1.1" width="1280.0" xmlns="http://www.w3.org/2000/svg" xmlns:ev="http://www.w3.org/2001/xml-events" xmlns:xlink="http://www.w3.org/1999/xlink">
  <defs>
    <style type="text/css">
<![CDATA[.non-scaling-stroke { vector-effect: non-scaling-stroke; }]]>    </style>
  </defs>
  <svg id="static_1">
    <defs/>
    <path class="non-scaling-stroke" d="M 36.5 15.503963254593176 C 51.708333333333336 -20.671951006124235 111.02083333333333 15.503963254593176 36.5 62.0158530183727 C -38.020833333333336 15.503963254593176 21.291666666666668 -20.671951006124235 36.5 15.503963254593176 Z" fill="#000000" stroke="#41719c" stroke-width="3" transform="matrix(1.0,0.0,0.0,1.0,1177.0789501312336,616.5142257217848)"/>
  </svg>
  <svg id="static_2">
    <defs/>
    <path class="non-scaling-stroke" d="M 36.5 15.503963254593176 C 51.708333333333336 -20.671951006124235 111.02083333333333 15.503963254593176 36.5 62.0158530183727 C -38.020833333333336 15.503963254593176 21.291666666666668 -20.671951006124235 36.5 15.503963254593176 Z" fill="#000000" stroke="#41719c" stroke-width="3" transform="matrix(1.0,0.0,0.0,1.0,29.921049868766403,616.5142257217848)"/>
  </svg>
  <svg id="static_3">
    <defs/>
    <path class="non-scaling-stroke" d="M 36.5 15.503963254593176 C 51.708333333333336 -20.671951006124235 111.02083333333333 15.503963254593176 36.5 62.0158530183727 C -38.020833333333336 15.503963254593176 21.291666666666668 -20.671951006124235 36.5 15.503963254593176 Z" fill="#000000" stroke="#41719c" stroke-width="3" transform="matrix(1.0,0.0,0.0,1.0,29.920944881889763,57.51433070866142)"/>
  </svg>
  <svg id="dynamic">
    <defs/>
    <path class="non-scaling-stroke" d="M 36.5 15.503963254593176 C 51.708333333333336 -20.671951006124235 111.02083333333333 15.503963254593176 36.5 62.0158530183727 C -38.020833333333336 15.503963254593176 21.291666666666668 -20.671951006124235 36.5 15.503963254593176 Z" fill="#000000" stroke="#41719c" stroke-width="3" transform="matrix(1.0,0.0,0.0,1.0,583.0789501312336,616.5143307086614)"/>
    <animate attributeName="opacity" dur="1s" repeatCount="3" values="1;0;1"/>
  </svg>
</svg>
