<?xml version="1.0" encoding="utf-8" ?>
<svg baseProfile="full" height="720.0" version="1.1" width="1280.0" xmlns="http://www.w3.org/2000/svg" xmlns:ev="http://www.w3.org/2001/xml-events" xmlns:xlink="http://www.w3.org/1999/xlink">
  <defs>
    <style type="text/css">
<![CDATA[.non-scaling-stroke { vector-effect: non-scaling-stroke; }]]>    </style>
  </defs>
  <svg id="static_1">
    <defs/>
    <path class="non-scaling-stroke" d="M 0.0 48.0 A 48.0 48.0 0 0 1 47.99999999999999 -6.111040515849597e-15 A 48.0 48.0 0 0 1 96.0 47.99999999999998 A 48.0 48.0 0 0 1 48.0 95.99999999999997 A 48.0 48.0 0 0 1 0.0 47.99999999999998 Z" fill="#5b9bd5" stroke="#41719c" stroke-width="3" transform="matrix(1.0,0.0,0.0,1.0,1066.1379527559054,141.59443569553807)"/>
  </svg>
  <svg id="static_2">
    <defs/>
    <path class="non-scaling-stroke" d="M 0.0 48.0 A 48.0 48.0 0 0 1 47.99999999999999 -6.111040515849597e-15 A 48.0 48.0 0 0 1 96.0 47.99999999999998 A 48.0 48.0 0 0 1 48.0 95.99999999999997 A 48.0 48.0 0 0 1 0.0 47.99999999999998 Z" fill="#c00000" stroke="#c00000" stroke-width="3" transform="matrix(1.0,0.0,0.0,1.0,44.68976377952756,141.59443569553807)"/>
  </svg>
  <svg id="static_3">
    <defs/>
    <path class="non-scaling-stroke" d="M 15.0 147.0 L 14.0 38.0 L 0.0 39.0 L 15.0 0.0 L 31.0 38.0 L 10.0 37.0" fill="#ffffff" stroke="#5b9bd5" stroke-width="3" transform="matrix(6.123233995736766e-17,1.0,-2.2026896637920257,1.3487584231389319e-16,592.0,573.5426771653542)"/>
  </svg>
  <svg id="dynamic">
    <defs/>
    <path class="non-scaling-stroke" d="M 0.0 48.0 A 48.0 48.0 0 0 1 47.99999999999999 -6.111040515849597e-15 A 48.0 48.0 0 0 1 96.0 47.99999999999998 A 48.0 48.0 0 0 1 48.0 95.99999999999997 A 48.0 48.0 0 0 1 0.0 47.99999999999998 Z" fill="#5b9bd5" stroke="#41719c" stroke-width="3" transform="matrix(1.0,0.0,0.0,1.0,592.0,541.0427296587926)"/>
    <animate attributeName="opacity" dur="1s" repeatCount="3" values="1;0;1"/>
  </svg>
</svg>
