<?xml version="1.0" encoding="utf-8" ?>
<svg baseProfile="full" height="720.0" version="1.1" width="1280.0" xmlns="http://www.w3.org/2000/svg" xmlns:ev="http://www.w3.org/2001/xml-events" xmlns:xlink="http://www.w3.org/1999/xlink">
  <defs>
    <style type="text/css">
<![CDATA[.non-scaling-stroke { vector-effect: non-scaling-stroke; }]]>    </style>
  </defs>
  <svg id="static_1">
    <defs/>
    <path class="non-scaling-stroke" d="M 0.0 0.0 L 111.23811023622048 0.0 L 111.23811023622048 96.0 L 0.0 96.0 Z" fill="#5b9bd5" stroke="#5b9bd5" stroke-width="3" transform="matrix(1.0,0.0,0.0,1.0,560.7618897637795,344.6309711286089)"/>
  </svg>
  <svg id="static_2">
    <defs/>
    <path class="non-scaling-stroke" d="M 0.0 0.0 L 85.33333333333333 0.0 L 85.33333333333333 96.0 L 0.0 96.0 Z" fill="#5b9bd5" stroke="#5b9bd5" stroke-width="3" transform="matrix(1.0,0.0,0.0,1.0,586.6666666666666,248.63097112860893)"/>
  </svg>
  <svg id="static_3">
    <defs/>
    <path class="non-scaling-stroke" d="M 0.0 0.0 L 57.904776902887136 0.0 L 57.904776902887136 96.0 L 0.0 96.0 Z" fill="#5b9bd5" stroke="#5b9bd5" stroke-width="3" transform="matrix(1.0,0.0,0.0,1.0,600.3808923884515,152.63097112860893)"/>
  </svg>
  <svg id="static_4">
    <defs/>
    <path class="non-scaling-stroke" d="M 0.0 0.0 L 23.619107611548557 0.0 L 23.619107611548557 96.0 L 0.0 96.0 Z" fill="#ffffff" stroke="#5b9bd5" stroke-width="3" transform="matrix(1.0,0.0,0.0,1.0,616.3808923884515,278.09522309711286)"/>
  </svg>
  <svg id="dynamic">
    <defs/>
    <path class="non-scaling-stroke" d="M 0.0 0.0 L 23.619107611548557 0.0 L 23.619107611548557 96.0 L 0.0 96.0 Z" fill="#5b9bd5" stroke="#5b9bd5" stroke-width="3" transform="matrix(1.0,0.0,0.0,1.0,617.5236745406825,538.1607349081365)"/>
    <animate attributeName="opacity" dur="1s" repeatCount="3" values="1;0;1"/>
  </svg>
</svg>
