<?xml version="1.0" encoding="utf-8" ?>
<svg baseProfile="full" height="720.0" version="1.1" width="1280.0" xmlns="http://www.w3.org/2000/svg" xmlns:ev="http://www.w3.org/2001/xml-events" xmlns:xlink="http://www.w3.org/1999/xlink">
  <defs>
    <style type="text/css">
<![CDATA[.non-scaling-stroke { vector-effect: non-scaling-stroke; }]]>    </style>
  </defs>
  <svg id="dynamic">
    <defs/>
    <path class="non-scaling-stroke" d="M 0.0 77.71433070866142 L 45.714330708661414 0.0 L 91.42866141732283 77.71433070866142 Z" fill="#ef41ce" stroke="#41719c" stroke-width="3" transform="matrix(1.0,0.0,0.0,1.0,1001.094593175853,556.3426771653543)"/>
  </svg>
  <svg id="static_1">
    <defs/>
    <path class="non-scaling-stroke" d="M 0.0 77.71433070866142 L 45.714330708661414 0.0 L 91.42866141732283 77.71433070866142 Z" fill="#ef41ce" stroke="#41719c" stroke-width="3" transform="matrix(1.0,0.0,0.0,1.0,1015.8007349081365,174.30866141732284)"/>
  </svg>
  <svg id="static_2">
    <defs/>
    <path class="non-scaling-stroke" d="M 0.0 77.71433070866142 L 45.714330708661414 0.0 L 91.42866141732283 77.71433070866142 Z" fill="#ef41ce" stroke="#41719c" stroke-width="3" transform="matrix(1.0,0.0,0.0,1.0,168.59023622047243,480.829186351706)"/>
  </svg>
  <svg id="static_3">
    <defs/>
    <path class="non-scaling-stroke" d="M 0.0 77.71433070866142 L 45.714330708661414 0.0 L 91.42866141732283 77.71433070866142 Z" fill="#ef41ce" stroke="#41719c" stroke-width="3" transform="matrix(1.0,0.0,0.0,1.0,168.59023622047243,570.8091338582677)"/>
  </svg>
  <svg id="static_4">
    <defs/>
    <path class="non-scaling-stroke" d="M 0.0 77.71433070866142 L 45.714330708661414 0.0 L 91.42866141732283 77.71433070866142 Z" fill="#ef41ce" stroke="#41719c" stroke-width="3" transform="matrix(1.0,0.0,0.0,1.0,1017.2487139107611,262.9942257217848)"/>
  </svg>
</svg>
