<?xml version="1.0" encoding="utf-8" ?>
<svg baseProfile="full" height="720.0" version="1.1" width="1280.0" xmlns="http://www.w3.org/2000/svg" xmlns:ev="http://www.w3.org/2001/xml-events" xmlns:xlink="http://www.w3.org/1999/xlink">
  <defs>
    <style type="text/css">
<![CDATA[.non-scaling-stroke { vector-effect: non-scaling-stroke; }]]>    </style>
  </defs>
  <svg id="dynamic">
    <defs/>
    <path class="non-scaling-stroke" d="M 0.0 63.84 L 28.728 35.112 L 28.728 49.476 L 49.476 49.476 L 49.476 28.728 L 35.112 28.728 L 63.84 0.0 L 92.568 28.728 L 78.204 28.728 L 78.204 49.476 L 98.952 49.476 L 98.952 35.112 L 127.68 63.84 L 98.952 92.568 L 98.952 78.204 L 78.204 78.204 L 78.204 98.952 L 92.568 98.952 L 63.84 127.68 L 35.112 98.952 L 49.476 98.952 L 49.476 78.204 L 28.728 78.204 L 28.728 92.568 Z" fill="#000000" stroke="#000000" stroke-width="3" transform="matrix(1.0,0.0,0.0,1.0,559.6820997375328,201.0)"/>
  </svg>
  <svg id="static_1">
    <defs/>
    <path class="non-scaling-stroke" d="M 0.0 63.84 L 28.728 35.112 L 28.728 49.476 L 49.476 49.476 L 49.476 28.728 L 35.112 28.728 L 63.84 0.0 L 92.568 28.728 L 78.204 28.728 L 78.204 49.476 L 98.952 49.476 L 98.952 35.112 L 127.68 63.84 L 98.952 92.568 L 98.952 78.204 L 78.204 78.204 L 78.204 98.952 L 92.568 98.952 L 63.84 127.68 L 35.112 98.952 L 49.476 98.952 L 49.476 78.204 L 28.728 78.204 L 28.728 92.568 Z" fill="#000000" stroke="#000000" stroke-width="3" transform="matrix(1.0,0.0,0.0,1.0,244.0,511.0)"/>
  </svg>
  <svg id="static_2">
    <defs/>
    <path class="non-scaling-stroke" d="M 0.0 66.96 L 22.32 44.64 L 22.32 55.8 L 52.68 55.8 L 52.68 22.32 L 41.52 22.32 L 63.84 0.0 L 86.16 22.32 L 75.0 22.32 L 75.0 55.8 L 105.36 55.8 L 105.36 44.64 L 127.68 66.96 L 105.36 89.28 L 105.36 78.12 L 22.32 78.12 L 22.32 89.28 Z" fill="#000000" stroke="#000000" stroke-width="3" transform="matrix(1.0,0.0,0.0,1.0,895.0,530.2)"/>
  </svg>
</svg>
