<?xml version="1.0" encoding="utf-8" ?>
<svg baseProfile="full" height="720.0" version="1.1" width="1280.0" xmlns="http://www.w3.org/2000/svg" xmlns:ev="http://www.w3.org/2001/xml-events" xmlns:xlink="http://www.w3.org/1999/xlink">
  <defs>
    <style type="text/css">
<![CDATA[.non-scaling-stroke { vector-effect: non-scaling-stroke; }]]>    </style>
  </defs>
  <svg id="static_1">
    <defs/>
    <path class="non-scaling-stroke" d="M 0.0 30.857165354330707 A 30.1903937007874 30.857165354330707 0 0 1 30.190393700787396 -6.111040515849597e-15 A 30.1903937007874 30.857165354330707 0 0 1 60.3807874015748 30.857165354330697 A 30.1903937007874 30.857165354330707 0 0 1 30.1903937007874 61.71433070866141 A 30.1903937007874 30.857165354330707 0 0 1 0.0 30.857165354330704 Z" fill="#92d050" stroke="#5b9bd5" stroke-width="3" transform="matrix(1.0,0.0,0.0,1.0,279.4285564304462,196.42845144356954)"/>
  </svg>
  <svg id="static_2">
    <defs/>
    <path class="non-scaling-stroke" d="M 0.0 30.857165354330707 A 30.1903937007874 30.857165354330707 0 0 1 30.190393700787396 -6.111040515849597e-15 A 30.1903937007874 30.857165354330707 0 0 1 60.3807874015748 30.857165354330697 A 30.1903937007874 30.857165354330707 0 0 1 30.1903937007874 61.71433070866141 A 30.1903937007874 30.857165354330707 0 0 1 0.0 30.857165354330704 Z" fill="#92d050" stroke="#5b9bd5" stroke-width="3" transform="matrix(1.0,0.0,0.0,1.0,279.4286614173228,349.88797900262466)"/>
  </svg>
  <svg id="static_3">
    <defs/>
    <path class="non-scaling-stroke" d="M 0.0 30.857165354330707 A 30.1903937007874 30.857165354330707 0 0 1 30.190393700787396 -6.111040515849597e-15 A 30.1903937007874 30.857165354330707 0 0 1 60.3807874015748 30.857165354330697 A 30.1903937007874 30.857165354330707 0 0 1 30.1903937007874 61.71433070866141 A 30.1903937007874 30.857165354330707 0 0 1 0.0 30.857165354330704 Z" fill="#92d050" stroke="#5b9bd5" stroke-width="3" transform="matrix(1.0,0.0,0.0,1.0,279.42845144356954,273.1582152230971)"/>
  </svg>
  <svg id="static_4">
    <defs/>
    <path class="non-scaling-stroke" d="M 0.0 30.857165354330707 A 30.1903937007874 30.857165354330707 0 0 1 30.190393700787396 -6.111040515849597e-15 A 30.1903937007874 30.857165354330707 0 0 1 60.3807874015748 30.857165354330697 A 30.1903937007874 30.857165354330707 0 0 1 30.1903937007874 61.71433070866141 A 30.1903937007874 30.857165354330707 0 0 1 0.0 30.857165354330704 Z" fill="#ffffff" stroke="#5b9bd5" stroke-width="3" transform="matrix(1.0,0.0,0.0,1.0,907.8476640419948,194.2856692913386)"/>
  </svg>
  <svg id="static_5">
    <defs/>
    <path class="non-scaling-stroke" d="M 0.0 30.857165354330707 A 30.1903937007874 30.857165354330707 0 0 1 30.190393700787396 -6.111040515849597e-15 A 30.1903937007874 30.857165354330707 0 0 1 60.3807874015748 30.857165354330697 A 30.1903937007874 30.857165354330707 0 0 1 30.1903937007874 61.71433070866141 A 30.1903937007874 30.857165354330707 0 0 1 0.0 30.857165354330704 Z" fill="#ffffff" stroke="#5b9bd5" stroke-width="3" transform="matrix(1.0,0.0,0.0,1.0,910.0003149606299,350.6184776902887)"/>
  </svg>
  <svg id="static_6">
    <defs/>
    <path class="non-scaling-stroke" d="M 0.0 30.857165354330707 A 30.1903937007874 30.857165354330707 0 0 1 30.190393700787396 -6.111040515849597e-15 A 30.1903937007874 30.857165354330707 0 0 1 60.3807874015748 30.857165354330697 A 30.1903937007874 30.857165354330707 0 0 1 30.1903937007874 61.71433070866141 A 30.1903937007874 30.857165354330707 0 0 1 0.0 30.857165354330704 Z" fill="#ffffff" stroke="#5b9bd5" stroke-width="3" transform="matrix(1.0,0.0,0.0,1.0,910.0003149606299,272.45207349081363)"/>
  </svg>
  <svg id="dynamic">
    <defs/>
    <path class="non-scaling-stroke" d="M 0.0 30.857165354330707 A 30.1903937007874 30.857165354330707 0 0 1 30.190393700787396 -6.111040515849597e-15 A 30.1903937007874 30.857165354330707 0 0 1 60.3807874015748 30.857165354330697 A 30.1903937007874 30.857165354330707 0 0 1 30.1903937007874 61.71433070866141 A 30.1903937007874 30.857165354330707 0 0 1 0.0 30.857165354330704 Z" fill="#ffffff" stroke="#5b9bd5" stroke-width="3" transform="matrix(1.0,0.0,0.0,1.0,609.8095538057743,527.3560104986876)"/>
    <animate attributeName="opacity" dur="1s" repeatCount="3" values="1;0;1"/>
  </svg>
</svg>
