<?xml version="1.0" encoding="utf-8" ?>
<svg baseProfile="full" height="720.0" version="1.1" width="1280.0" xmlns="http://www.w3.org/2000/svg" xmlns:ev="http://www.w3.org/2001/xml-events" xmlns:xlink="http://www.w3.org/1999/xlink">
  <defs>
    <style type="text/css">
<![CDATA[.non-scaling-stroke { vector-effect: non-scaling-stroke; }]]>    </style>
  </defs>
  <svg id="static_1">
    <defs/>
    <path class="non-scaling-stroke" d="M 0.0 0.0 L 62.47611548556431 0.0 L 62.47611548556431 67.04755905511811 L 0.0 67.04755905511811 Z" fill="#0d0d0d" stroke="#41719c" stroke-width="3" transform="matrix(1.0,0.0,0.0,1.0,561.2857742782152,272.76188976377955)"/>
  </svg>
  <svg id="static_2">
    <defs/>
    <path class="non-scaling-stroke" d="M 0.0 0.0 L 62.47611548556431 0.0 L 62.47611548556431 67.04755905511811 L 0.0 67.04755905511811 Z" fill="#0d0d0d" stroke="#41719c" stroke-width="3" transform="matrix(1.0,0.0,0.0,1.0,623.7618897637795,205.7143307086614)"/>
  </svg>
  <svg id="static_3">
    <defs/>
    <path class="non-scaling-stroke" d="M 15.0 147.0 L 14.0 38.0 L 0.0 39.0 L 15.0 0.0 L 31.0 38.0 L 10.0 37.0" fill="#ffffff" stroke="#5b9bd5" stroke-width="3" transform="matrix(0.5566320491152572,-0.830759147947075,0.830759147947075,0.5566320491152572,700.7141880168344,593.4644161700849)"/>
  </svg>
  <svg id="dynamic">
    <defs/>
    <path class="non-scaling-stroke" d="M 0.0 0.0 L 62.47611548556431 0.0 L 62.47611548556431 67.04755905511811 L 0.0 67.04755905511811 Z" fill="#0d0d0d" stroke="#41719c" stroke-width="3" transform="matrix(1.0,0.0,0.0,1.0,638.2382152230971,508.19044619422573)"/>
    <animate attributeName="opacity" dur="1s" repeatCount="3" values="1;0;1"/>
  </svg>
</svg>
