<?xml version="1.0" encoding="utf-8" ?>
<svg baseProfile="full" height="720.0" version="1.1" width="1280.0" xmlns="http://www.w3.org/2000/svg" xmlns:ev="http://www.w3.org/2001/xml-events" xmlns:xlink="http://www.w3.org/1999/xlink">
  <defs>
    <style type="text/css">
<![CDATA[.non-scaling-stroke { vector-effect: non-scaling-stroke; }]]>    </style>
  </defs>
  <svg id="static_1">
    <defs/>
    <path class="non-scaling-stroke" d="M 0.0 0.0 L 101.4202624671916 0.0 L 101.4202624671916 100.15569553805774 L 0.0 100.15569553805774 Z" fill="#a35fd1" stroke="#5b9bd5" stroke-width="3" transform="matrix(1.0,0.0,0.0,1.0,898.8701312335958,193.48923884514437)"/>
  </svg>
  <svg id="static_2">
    <defs/>
    <path class="non-scaling-stroke" d="M 0.0 30.857165354330707 A 30.1903937007874 30.857165354330707 0 0 1 30.190393700787396 -6.111040515849597e-15 A 30.1903937007874 30.857165354330707 0 0 1 60.3807874015748 30.857165354330697 A 30.1903937007874 30.857165354330707 0 0 1 30.1903937007874 61.71433070866141 A 30.1903937007874 30.857165354330707 0 0 1 0.0 30.857165354330704 Z" fill="#a35fd1" stroke="#5b9bd5" stroke-width="3" transform="matrix(1.0,0.0,0.0,1.0,238.68860892388452,213.50635170603675)"/>
  </svg>
  <svg id="static_3">
    <defs/>
    <path class="non-scaling-stroke" d="M 0.0 30.857165354330707 A 30.1903937007874 30.857165354330707 0 0 1 30.190393700787396 -6.111040515849597e-15 A 30.1903937007874 30.857165354330707 0 0 1 60.3807874015748 30.857165354330697 A 30.1903937007874 30.857165354330707 0 0 1 30.1903937007874 61.71433070866141 A 30.1903937007874 30.857165354330707 0 0 1 0.0 30.857165354330704 Z" fill="#a35fd1" stroke="#5b9bd5" stroke-width="3" transform="matrix(1.0,0.0,0.0,1.0,312.34656167979,212.48923884514437)"/>
  </svg>
  <svg id="static_4">
    <defs/>
    <path class="non-scaling-stroke" d="M 0.0 30.857165354330707 A 30.1903937007874 30.857165354330707 0 0 1 30.190393700787396 -6.111040515849597e-15 A 30.1903937007874 30.857165354330707 0 0 1 60.3807874015748 30.857165354330697 A 30.1903937007874 30.857165354330707 0 0 1 30.1903937007874 61.71433070866141 A 30.1903937007874 30.857165354330707 0 0 1 0.0 30.857165354330704 Z" fill="#a35fd1" stroke="#5b9bd5" stroke-width="3" transform="matrix(1.0,0.0,0.0,1.0,165.030656167979,212.79937007874017)"/>
  </svg>
  <svg id="static_5">
    <defs/>
    <path class="non-scaling-stroke" d="M 0.0 0.0 L 101.4202624671916 0.0 L 101.4202624671916 100.15569553805774 L 0.0 100.15569553805774 Z" fill="#a35fd1" stroke="#5b9bd5" stroke-width="3" transform="matrix(1.0,0.0,0.0,1.0,775.9524409448819,193.48923884514437)"/>
  </svg>
  <svg id="static_6">
    <defs/>
    <path class="non-scaling-stroke" d="M 0.0 0.0 L 101.4202624671916 0.0 L 101.4202624671916 100.15569553805774 L 0.0 100.15569553805774 Z" fill="#a35fd1" stroke="#5b9bd5" stroke-width="3" transform="matrix(1.0,0.0,0.0,1.0,1021.7878215223097,194.28577427821523)"/>
  </svg>
  <svg id="dynamic">
    <defs/>
    <path class="non-scaling-stroke" d="M 0.0 0.0 L 62.09511811023622 0.0 L 62.09511811023622 59.42855643044619 L 0.0 59.42855643044619 Z" fill="#a35fd1" stroke="#5b9bd5" stroke-width="3" transform="matrix(1.0,0.0,0.0,1.0,608.9524409448819,571.718530183727)"/>
  </svg>
</svg>
