<?xml version="1.0" encoding="utf-8" ?>
<svg baseProfile="full" height="720.0" version="1.1" width="1280.0" xmlns="http://www.w3.org/2000/svg" xmlns:ev="http://www.w3.org/2001/xml-events" xmlns:xlink="http://www.w3.org/1999/xlink">
  <defs>
    <style type="text/css">
<![CDATA[.non-scaling-stroke { vector-effect: non-scaling-stroke; }]]>    </style>
  </defs>
  <svg id="static_1">
    <defs/>
    <path class="non-scaling-stroke" d="M 0.0 14.896377952755905 L 14.896377952755905 14.896377952755905 L 14.896377952755905 0.0 L 50.20703412073491 0.0 L 50.20703412073491 14.896377952755905 L 65.10341207349082 14.896377952755905 L 65.10341207349082 44.68913385826772 L 50.20703412073491 44.68913385826772 L 50.20703412073491 59.58551181102362 L 14.896377952755905 59.58551181102362 L 14.896377952755905 44.68913385826772 L 0.0 44.68913385826772 Z" fill="#fc6c68" stroke="#41719c" stroke-width="3" transform="matrix(1.0,0.0,0.0,1.0,928.0002099737533,248.59758530183728)"/>
  </svg>
  <svg id="static_2">
    <defs/>
    <path class="non-scaling-stroke" d="M 0.0 26.814251968503935 L 26.814251968503935 26.814251968503935 L 26.814251968503935 0.0 L 88.49608923884514 0.0 L 88.49608923884514 26.814251968503935 L 115.31034120734908 26.814251968503935 L 115.31034120734908 80.44275590551182 L 88.49608923884514 80.44275590551182 L 88.49608923884514 107.25700787401574 L 26.814251968503935 107.25700787401574 L 26.814251968503935 80.44275590551182 L 0.0 80.44275590551182 Z" fill="#fc6c68" stroke="#41719c" stroke-width="3" transform="matrix(1.0,0.0,0.0,1.0,236.68965879265093,224.76188976377952)"/>
  </svg>
  <svg id="static_3">
    <defs/>
    <path class="non-scaling-stroke" d="M 15.0 147.0 L 14.0 38.0 L 0.0 39.0 L 15.0 0.0 L 31.0 38.0 L 10.0 37.0" fill="#ffffff" stroke="#5b9bd5" stroke-width="3" transform="matrix(-1.8369701987210297e-16,-1.0,2.2745092577713497,-4.178205723241058e-16,685.6471391076116,629.9219947506562)"/>
  </svg>
  <svg id="dynamic">
    <defs/>
    <path class="non-scaling-stroke" d="M 0.0 14.896377952755905 L 14.896377952755905 14.896377952755905 L 14.896377952755905 0.0 L 50.20703412073491 0.0 L 50.20703412073491 14.896377952755905 L 65.10341207349082 14.896377952755905 L 65.10341207349082 44.68913385826772 L 50.20703412073491 44.68913385826772 L 50.20703412073491 59.58551181102362 L 14.896377952755905 59.58551181102362 L 14.896377952755905 44.68913385826772 L 0.0 44.68913385826772 Z" fill="#fc6c68" stroke="#41719c" stroke-width="3" transform="matrix(1.0,0.0,0.0,1.0,607.4482939632546,584.629186351706)"/>
    <animate attributeName="opacity" dur="1s" repeatCount="3" values="1;0;1"/>
  </svg>
</svg>
