<?xml version="1.0" encoding="utf-8" ?>
<svg baseProfile="full" height="720.0" version="1.1" width="1280.0" xmlns="http://www.w3.org/2000/svg" xmlns:ev="http://www.w3.org/2001/xml-events" xmlns:xlink="http://www.w3.org/1999/xlink">
  <defs>
    <style type="text/css">
<![CDATA[.non-scaling-stroke { vector-effect: non-scaling-stroke; }]]>    </style>
  </defs>
  <svg id="dynamic">
    <defs/>
    <path class="non-scaling-stroke" d="M 0.0 77.71433070866142 L 45.714330708661414 0.0 L 91.42866141732283 77.71433070866142 Z" fill="#ef41ce" stroke="#5b9bd5" stroke-width="3" transform="matrix(1.0,0.0,0.0,1.0,594.2856692913385,529.8503937007874)"/>
  </svg>
  <svg id="static_1">
    <defs/>
    <path class="non-scaling-stroke" d="M 0.0 77.71433070866142 L 45.714330708661414 0.0 L 91.42866141732283 77.71433070866142 Z" fill="#ef41ce" stroke="#5b9bd5" stroke-width="3" transform="matrix(0.5234191690652193,0.8520753332042158,-0.8520753332042158,0.5234191690652193,832.0005827343109,135.7676814371897)"/>
  </svg>
  <svg id="static_2">
    <defs/>
    <path class="non-scaling-stroke" d="M 0.0 77.71433070866142 L 45.714330708661414 0.0 L 91.42866141732283 77.71433070866142 Z" fill="#ef41ce" stroke="#5b9bd5" stroke-width="3" transform="matrix(0.5077363533904937,0.8615125045208128,-0.8615125045208128,0.5077363533904937,955.3971797620998,132.69536851465205)"/>
  </svg>
  <svg id="static_3">
    <defs/>
    <path class="non-scaling-stroke" d="M 0.0 77.71433070866142 L 45.714330708661414 0.0 L 91.42866141732283 77.71433070866142 Z" fill="#ef41ce" stroke="#5b9bd5" stroke-width="3" transform="matrix(1.0,0.0,0.0,1.0,437.51548556430447,173.20640419947506)"/>
  </svg>
  <svg id="static_4">
    <defs/>
    <path class="non-scaling-stroke" d="M 0.0 77.71433070866142 L 45.714330708661414 0.0 L 91.42866141732283 77.71433070866142 Z" fill="#ef41ce" stroke="#5b9bd5" stroke-width="3" transform="matrix(1.0,0.0,0.0,1.0,315.44734908136485,173.20629921259842)"/>
  </svg>
  <svg id="static_5">
    <defs/>
    <path class="non-scaling-stroke" d="M 0.0 77.71433070866142 L 45.714330708661414 0.0 L 91.42866141732283 77.71433070866142 Z" fill="#ef41ce" stroke="#5b9bd5" stroke-width="3" transform="matrix(1.0,0.0,0.0,1.0,193.3792125984252,173.2061942257218)"/>
  </svg>
  <svg id="static_6">
    <defs/>
    <path class="non-scaling-stroke" d="M 0.0 77.71433070866142 L 45.714330708661414 0.0 L 91.42866141732283 77.71433070866142 Z" fill="#ef41ce" stroke="#5b9bd5" stroke-width="3" transform="matrix(0.5234191690652193,0.8520753332042158,-0.8520753332042158,0.5234191690652193,1076.6266194797176,135.76778642406646)"/>
  </svg>
</svg>
