<?xml version="1.0" encoding="utf-8" ?>
<svg baseProfile="full" height="720.0" version="1.1" width="1280.0" xmlns="http://www.w3.org/2000/svg" xmlns:ev="http://www.w3.org/2001/xml-events" xmlns:xlink="http://www.w3.org/1999/xlink">
  <defs>
    <style type="text/css">
<![CDATA[.non-scaling-stroke { vector-effect: non-scaling-stroke; }]]>    </style>
  </defs>
  <svg id="static_1">
    <defs/>
    <path class="non-scaling-stroke" d="M 0.0 32.65984251968504 L 19.793858267716537 0.0 L 39.587716535433074 32.65984251968504 Z" fill="#5b9bd5" stroke="#41719c" stroke-width="3" transform="matrix(1.0,0.0,0.0,1.0,75.6202624671916,219.91863517060366)"/>
  </svg>
  <svg id="static_2">
    <defs/>
    <path class="non-scaling-stroke" d="M 0.0 32.65984251968504 L 19.793858267716537 0.0 L 39.587716535433074 32.65984251968504 Z" fill="#5b9bd5" stroke="#41719c" stroke-width="3" transform="matrix(1.0,0.0,0.0,1.0,156.15160104986876,179.28283464566928)"/>
  </svg>
  <svg id="static_3">
    <defs/>
    <path class="non-scaling-stroke" d="M 0.0 32.65984251968504 L 19.793858267716537 0.0 L 39.587716535433074 32.65984251968504 Z" fill="#5b9bd5" stroke="#41719c" stroke-width="3" transform="matrix(1.0,0.0,0.0,1.0,102.08220472440945,182.16146981627296)"/>
  </svg>
  <svg id="static_4">
    <defs/>
    <path class="non-scaling-stroke" d="M 0.0 32.65984251968504 L 19.793858267716537 0.0 L 39.587716535433074 32.65984251968504 Z" fill="#5b9bd5" stroke="#41719c" stroke-width="3" transform="matrix(1.0,0.0,0.0,1.0,125.89522309711286,141.0872440944882)"/>
  </svg>
  <svg id="static_5">
    <defs/>
    <path class="non-scaling-stroke" d="M 0.0 32.65984251968504 L 19.793858267716537 0.0 L 39.587716535433074 32.65984251968504 Z" fill="#5b9bd5" stroke="#41719c" stroke-width="3" transform="matrix(1.0,0.0,0.0,1.0,185.92892388451443,219.91863517060366)"/>
  </svg>
  <svg id="static_6">
    <defs/>
    <path class="non-scaling-stroke" d="M 0.0 32.65984251968504 L 19.793858267716537 0.0 L 39.587716535433074 32.65984251968504 Z" fill="#5b9bd5" stroke="#41719c" stroke-width="3" transform="matrix(0.5263336394349865,0.8502781309660513,-0.8502781309660513,0.5263336394349865,184.94065973485067,203.1594527085882)"/>
  </svg>
  <svg id="static_7">
    <defs/>
    <path class="non-scaling-stroke" d="M 0.0 32.65984251968504 L 19.793858267716537 0.0 L 39.587716535433074 32.65984251968504 Z" fill="#5b9bd5" stroke="#41719c" stroke-width="3" transform="matrix(1.0,0.0,0.0,1.0,126.16923884514436,222.39874015748032)"/>
  </svg>
  <svg id="static_8">
    <defs/>
    <path class="non-scaling-stroke" d="M 0.0 32.65984251968504 L 19.793858267716537 0.0 L 39.587716535433074 32.65984251968504 Z" fill="#fc6c68" stroke="#41719c" stroke-width="3" transform="matrix(0.5137713656739332,0.8579271436512202,-0.8579271436512202,0.5137713656739332,1110.1755357120196,189.44983059692004)"/>
  </svg>
  <svg id="static_9">
    <defs/>
    <path class="non-scaling-stroke" d="M 0.0 32.65984251968504 L 19.793858267716537 0.0 L 39.587716535433074 32.65984251968504 Z" fill="#fc6c68" stroke="#41719c" stroke-width="3" transform="matrix(1.0,0.0,0.0,1.0,1051.447559055118,207.53312335958006)"/>
  </svg>
  <svg id="static_10">
    <defs/>
    <path class="non-scaling-stroke" d="M 0.0 32.65984251968504 L 19.793858267716537 0.0 L 39.587716535433074 32.65984251968504 Z" fill="#fc6c68" stroke="#41719c" stroke-width="3" transform="matrix(1.0,0.0,0.0,1.0,1081.4299212598426,164.84220472440944)"/>
  </svg>
  <svg id="static_11">
    <defs/>
    <path class="non-scaling-stroke" d="M 0.0 32.65984251968504 L 19.793858267716537 0.0 L 39.587716535433074 32.65984251968504 Z" fill="#fc6c68" stroke="#41719c" stroke-width="3" transform="matrix(1.0,0.0,0.0,1.0,1110.7207349081366,122.90162729658793)"/>
  </svg>
  <svg id="static_12">
    <defs/>
    <path class="non-scaling-stroke" d="M 0.0 32.65984251968504 L 19.793858267716537 0.0 L 39.587716535433074 32.65984251968504 Z" fill="#fc6c68" stroke="#41719c" stroke-width="3" transform="matrix(1.0,0.0,0.0,1.0,1172.7716535433071,206.06887139107613)"/>
  </svg>
  <svg id="static_13">
    <defs/>
    <path class="non-scaling-stroke" d="M 0.0 32.65984251968504 L 19.793858267716537 0.0 L 39.587716535433074 32.65984251968504 Z" fill="#fc6c68" stroke="#41719c" stroke-width="3" transform="matrix(0.5263336394349865,0.8502781309660513,-0.8502781309660513,0.5263336394349865,1171.7292161652967,187.87808787919198)"/>
  </svg>
  <svg id="static_14">
    <defs/>
    <path class="non-scaling-stroke" d="M 0.0 32.65984251968504 L 19.793858267716537 0.0 L 39.587716535433074 32.65984251968504 Z" fill="#fc6c68" stroke="#41719c" stroke-width="3" transform="matrix(1.0,0.0,0.0,1.0,1112.9577952755906,207.0218372703412)"/>
  </svg>
  <svg id="static_15">
    <defs/>
    <path class="non-scaling-stroke" d="M 0.0 32.65984251968504 L 19.793858267716537 0.0 L 39.587716535433074 32.65984251968504 Z" fill="#fc6c68" stroke="#41719c" stroke-width="3" transform="matrix(1.0,0.0,0.0,1.0,1141.4288713910762,163.79359580052494)"/>
  </svg>
  <svg id="dynamic">
    <defs/>
    <path class="non-scaling-stroke" d="M 0.0 32.65984251968504 L 19.793858267716537 0.0 L 39.587716535433074 32.65984251968504 Z" fill="#5b9bd5" stroke="#41719c" stroke-width="3" transform="matrix(0.5082988506807516,0.8611807466476634,-0.8611807466476634,0.5082988506807516,639.8082750681442,563.9257136144516)"/>
    <animate attributeName="opacity" dur="1s" repeatCount="3" values="1;0;1"/>
  </svg>
</svg>
