<?xml version="1.0" encoding="utf-8" ?>
<svg baseProfile="full" height="720.0" version="1.1" width="1280.0" xmlns="http://www.w3.org/2000/svg" xmlns:ev="http://www.w3.org/2001/xml-events" xmlns:xlink="http://www.w3.org/1999/xlink">
  <defs>
    <style type="text/css">
<![CDATA[.non-scaling-stroke { vector-effect: non-scaling-stroke; }]]>    </style>
  </defs>
  <svg id="static_1">
    <defs/>
    <path class="non-scaling-stroke" d="M 0.0 0.0 L 63.25555232965879 0.0 L 74.79065616797901 11.535103838320211 L 74.79065616797901 69.20923884514436 L 74.79065616797901 69.20923884514436 L 11.535103838320211 69.20923884514436 L 0.0 57.674135006824145 L 0.0 0.0 Z" fill="#5b9bd5" stroke="#5b9bd5" stroke-width="3" transform="matrix(1.0,0.0,0.0,1.0,85.23244094488189,170.45396325459316)"/>
  </svg>
  <svg id="static_2">
    <defs/>
    <path class="non-scaling-stroke" d="M 0.0 0.0 L 63.25555232965879 0.0 L 74.79065616797901 11.535103838320211 L 74.79065616797901 69.20923884514436 L 74.79065616797901 69.20923884514436 L 11.535103838320211 69.20923884514436 L 0.0 57.674135006824145 L 0.0 0.0 Z" fill="#5b9bd5" stroke="#5b9bd5" stroke-width="3" transform="matrix(1.0,0.0,0.0,1.0,192.9298687664042,212.7217847769029)"/>
  </svg>
  <svg id="static_3">
    <defs/>
    <path class="non-scaling-stroke" d="M 0.0 0.0 L 63.25555232965879 0.0 L 74.79065616797901 11.535103838320211 L 74.79065616797901 69.20923884514436 L 74.79065616797901 69.20923884514436 L 11.535103838320211 69.20923884514436 L 0.0 57.674135006824145 L 0.0 0.0 Z" fill="#5b9bd5" stroke="#5b9bd5" stroke-width="3" transform="matrix(1.0,0.0,0.0,1.0,303.25543307086616,251.22456692913386)"/>
  </svg>
  <svg id="static_4">
    <defs/>
    <path class="non-scaling-stroke" d="M 0.0 0.0 L 74.79065616797901 0.0 L 74.79065616797901 69.20923884514436 L 0.0 69.20923884514436 Z" fill="#e7e6e6" stroke="#5b9bd5" stroke-width="3" transform="matrix(1.0,0.0,0.0,1.0,857.1628346456692,170.45396325459316)"/>
  </svg>
  <svg id="static_5">
    <defs/>
    <path class="non-scaling-stroke" d="M 0.0 0.0 L 74.79065616797901 0.0 L 74.79065616797901 69.20923884514436 L 0.0 69.20923884514436 Z" fill="#e7e6e6" stroke="#5b9bd5" stroke-width="3" transform="matrix(1.0,0.0,0.0,1.0,964.8602624671915,212.7217847769029)"/>
  </svg>
  <svg id="static_6">
    <defs/>
    <path class="non-scaling-stroke" d="M 0.0 0.0 L 76.18603674540682 0.0 L 76.18603674540682 61.41301837270341 L 0.0 61.41301837270341 Z" fill="#e7e6e6" stroke="#5b9bd5" stroke-width="3" transform="matrix(1.0,0.0,0.0,1.0,1075.1858267716536,255.12262467191601)"/>
  </svg>
  <svg id="dynamic">
    <defs/>
    <path class="non-scaling-stroke" d="M 0.0 0.0 L 63.25555232965879 0.0 L 74.79065616797901 11.535103838320211 L 74.79065616797901 69.20923884514436 L 74.79065616797901 69.20923884514436 L 11.535103838320211 69.20923884514436 L 0.0 57.674135006824145 L 0.0 0.0 Z" fill="#e7e6e6" stroke="#5b9bd5" stroke-width="3" transform="matrix(1.0,0.0,0.0,1.0,592.4649868766404,588.957375328084)"/>
  </svg>
</svg>
