<?xml version="1.0" encoding="utf-8" ?>
<svg baseProfile="full" height="720.0" version="1.1" width="1280.0" xmlns="http://www.w3.org/2000/svg" xmlns:ev="http://www.w3.org/2001/xml-events" xmlns:xlink="http://www.w3.org/1999/xlink">
  <defs>
    <style type="text/css">
<![CDATA[.non-scaling-stroke { vector-effect: non-scaling-stroke; }]]>    </style>
  </defs>
  <svg id="static_1">
    <defs/>
    <path class="non-scaling-stroke" d="M 0.0 27.428556430446193 A 26.746666666666666 27.428556430446193 0 0 1 26.74666666666666 -3.0555202579247984e-15 A 26.746666666666666 27.428556430446193 0 0 1 53.49333333333333 27.428556430446186 A 26.746666666666666 27.428556430446193 0 0 1 26.74666666666667 54.85711286089238 A 26.746666666666666 27.428556430446193 0 0 1 0.0 27.428556430446186 Z" fill="#41efb1" stroke="#5b9bd5" stroke-width="3" transform="matrix(1.0,0.0,0.0,1.0,515.6079790026247,237.20251968503936)"/>
    <path class="non-scaling-stroke" d="M 7.833917292530476 8.033638180319805 L 45.65941604080286 46.82347468057259 M 45.65941604080286 8.033638180319805 L 7.833917292530476 46.82347468057259" fill="#41efb1" stroke="#5b9bd5" stroke-width="3" transform="matrix(1.0,0.0,0.0,1.0,515.6079790026247,237.20251968503936)"/>
    <path class="non-scaling-stroke" d="M 0.0 27.428556430446193 A 26.746666666666666 27.428556430446193 0 0 1 26.74666666666666 -3.0555202579247984e-15 A 26.746666666666666 27.428556430446193 0 0 1 53.49333333333333 27.428556430446186 A 26.746666666666666 27.428556430446193 0 0 1 26.74666666666667 54.85711286089238 A 26.746666666666666 27.428556430446193 0 0 1 0.0 27.428556430446186 Z" fill="#41efb1" stroke="#5b9bd5" stroke-width="3" transform="matrix(1.0,0.0,0.0,1.0,515.6079790026247,237.20251968503936)"/>
  </svg>
  <svg id="static_2">
    <defs/>
    <path class="non-scaling-stroke" d="M 0.0 27.428556430446193 A 26.746666666666666 27.428556430446193 0 0 1 26.74666666666666 -3.0555202579247984e-15 A 26.746666666666666 27.428556430446193 0 0 1 53.49333333333333 27.428556430446186 A 26.746666666666666 27.428556430446193 0 0 1 26.74666666666667 54.85711286089238 A 26.746666666666666 27.428556430446193 0 0 1 0.0 27.428556430446186 Z" fill="#41efb1" stroke="#5b9bd5" stroke-width="3" transform="matrix(1.0,0.0,0.0,1.0,642.01343832021,237.20251968503936)"/>
    <path class="non-scaling-stroke" d="M 7.833917292530476 8.033638180319805 L 45.65941604080286 46.82347468057259 M 45.65941604080286 8.033638180319805 L 7.833917292530476 46.82347468057259" fill="#41efb1" stroke="#5b9bd5" stroke-width="3" transform="matrix(1.0,0.0,0.0,1.0,642.01343832021,237.20251968503936)"/>
    <path class="non-scaling-stroke" d="M 0.0 27.428556430446193 A 26.746666666666666 27.428556430446193 0 0 1 26.74666666666666 -3.0555202579247984e-15 A 26.746666666666666 27.428556430446193 0 0 1 53.49333333333333 27.428556430446186 A 26.746666666666666 27.428556430446193 0 0 1 26.74666666666667 54.85711286089238 A 26.746666666666666 27.428556430446193 0 0 1 0.0 27.428556430446186 Z" fill="#41efb1" stroke="#5b9bd5" stroke-width="3" transform="matrix(1.0,0.0,0.0,1.0,642.01343832021,237.20251968503936)"/>
  </svg>
  <svg id="static_3">
    <defs/>
    <path class="non-scaling-stroke" d="M 0.0 27.428556430446193 A 26.746666666666666 27.428556430446193 0 0 1 26.74666666666666 -3.0555202579247984e-15 A 26.746666666666666 27.428556430446193 0 0 1 53.49333333333333 27.428556430446186 A 26.746666666666666 27.428556430446193 0 0 1 26.74666666666667 54.85711286089238 A 26.746666666666666 27.428556430446193 0 0 1 0.0 27.428556430446186 Z" fill="#41efb1" stroke="#5b9bd5" stroke-width="3" transform="matrix(1.0,0.0,0.0,1.0,580.1537007874016,301.5583202099738)"/>
    <path class="non-scaling-stroke" d="M 7.833917292530476 8.033638180319805 L 45.65941604080286 46.82347468057259 M 45.65941604080286 8.033638180319805 L 7.833917292530476 46.82347468057259" fill="#41efb1" stroke="#5b9bd5" stroke-width="3" transform="matrix(1.0,0.0,0.0,1.0,580.1537007874016,301.5583202099738)"/>
    <path class="non-scaling-stroke" d="M 0.0 27.428556430446193 A 26.746666666666666 27.428556430446193 0 0 1 26.74666666666666 -3.0555202579247984e-15 A 26.746666666666666 27.428556430446193 0 0 1 53.49333333333333 27.428556430446186 A 26.746666666666666 27.428556430446193 0 0 1 26.74666666666667 54.85711286089238 A 26.746666666666666 27.428556430446193 0 0 1 0.0 27.428556430446186 Z" fill="#41efb1" stroke="#5b9bd5" stroke-width="3" transform="matrix(1.0,0.0,0.0,1.0,580.1537007874016,301.5583202099738)"/>
  </svg>
  <svg id="static_4">
    <defs/>
    <path class="non-scaling-stroke" d="M 0.0 27.428556430446193 A 26.746666666666666 27.428556430446193 0 0 1 26.74666666666666 -3.0555202579247984e-15 A 26.746666666666666 27.428556430446193 0 0 1 53.49333333333333 27.428556430446186 A 26.746666666666666 27.428556430446193 0 0 1 26.74666666666667 54.85711286089238 A 26.746666666666666 27.428556430446193 0 0 1 0.0 27.428556430446186 Z" fill="#ffffff" stroke="#5b9bd5" stroke-width="3" transform="matrix(1.0,0.0,0.0,1.0,578.8107086614174,237.20251968503936)"/>
    <path class="non-scaling-stroke" d="M 7.833917292530476 8.033638180319805 L 45.65941604080286 46.82347468057259 M 45.65941604080286 8.033638180319805 L 7.833917292530476 46.82347468057259" fill="#ffffff" stroke="#5b9bd5" stroke-width="3" transform="matrix(1.0,0.0,0.0,1.0,578.8107086614174,237.20251968503936)"/>
    <path class="non-scaling-stroke" d="M 0.0 27.428556430446193 A 26.746666666666666 27.428556430446193 0 0 1 26.74666666666666 -3.0555202579247984e-15 A 26.746666666666666 27.428556430446193 0 0 1 53.49333333333333 27.428556430446186 A 26.746666666666666 27.428556430446193 0 0 1 26.74666666666667 54.85711286089238 A 26.746666666666666 27.428556430446193 0 0 1 0.0 27.428556430446186 Z" fill="#ffffff" stroke="#5b9bd5" stroke-width="3" transform="matrix(1.0,0.0,0.0,1.0,578.8107086614174,237.20251968503936)"/>
  </svg>
  <svg id="static_5">
    <defs/>
    <path class="non-scaling-stroke" d="M 15.0 147.0 L 14.0 38.0 L 0.0 39.0 L 15.0 0.0 L 31.0 38.0 L 10.0 37.0" fill="#ffffff" stroke="#5b9bd5" stroke-width="3" transform="matrix(0.795142847152953,0.6064221735898973,-0.6064221735898973,0.795142847152953,582.2509376752307,566.6574570436145)"/>
  </svg>
  <svg id="dynamic">
    <defs/>
    <path class="non-scaling-stroke" d="M 0.0 27.428556430446193 A 26.746666666666666 27.428556430446193 0 0 1 26.74666666666666 -3.0555202579247984e-15 A 26.746666666666666 27.428556430446193 0 0 1 53.49333333333333 27.428556430446186 A 26.746666666666666 27.428556430446193 0 0 1 26.74666666666667 54.85711286089238 A 26.746666666666666 27.428556430446193 0 0 1 0.0 27.428556430446186 Z" fill="#41efb1" stroke="#5b9bd5" stroke-width="3" transform="matrix(1.0,0.0,0.0,1.0,584.3846719160105,521.1428871391076)"/>
    <path class="non-scaling-stroke" d="M 7.833917292530476 8.033638180319805 L 45.65941604080286 46.82347468057259 M 45.65941604080286 8.033638180319805 L 7.833917292530476 46.82347468057259" fill="#41efb1" stroke="#5b9bd5" stroke-width="3" transform="matrix(1.0,0.0,0.0,1.0,584.3846719160105,521.1428871391076)"/>
    <path class="non-scaling-stroke" d="M 0.0 27.428556430446193 A 26.746666666666666 27.428556430446193 0 0 1 26.74666666666666 -3.0555202579247984e-15 A 26.746666666666666 27.428556430446193 0 0 1 53.49333333333333 27.428556430446186 A 26.746666666666666 27.428556430446193 0 0 1 26.74666666666667 54.85711286089238 A 26.746666666666666 27.428556430446193 0 0 1 0.0 27.428556430446186 Z" fill="#41efb1" stroke="#5b9bd5" stroke-width="3" transform="matrix(1.0,0.0,0.0,1.0,584.3846719160105,521.1428871391076)"/>
    <animate attributeName="opacity" dur="1s" repeatCount="3" values="1;0;1"/>
  </svg>
</svg>
