<?xml version="1.0" encoding="utf-8" ?>
<svg xmlns="http://www.w3.org/2000/svg" xmlns:ev="http://www.w3.org/2001/xml-events" xmlns:xlink="http://www.w3.org/1999/xlink" baseProfile="full" height="720.0" version="1.1" width="1280.0">
  <defs>
    <style type="text/css"><![CDATA[.non-scaling-stroke { vector-effect: non-scaling-stroke; }]]></style>
  </defs>
  <svg id="static_1">
    <defs/>
    <path class="non-scaling-stroke" d="M 0.0 0.0 L 251.15149606299212 0.0 L 251.15149606299212 96.0 L 0.0 96.0 Z" fill="#ff0000" stroke="#ff0000" stroke-width="3" transform="matrix(1.0,0.0,0.0,1.0,520.3895013123359,170.76188976377952)"/>
  </svg>
  <svg id="static_2">
    <defs/>
    <path class="non-scaling-stroke" d="M 0.0 30.060629921259842 L 19.8 0.0 L 39.6 30.060629921259842 L 19.8 60.121259842519684 Z" fill="#f9fbfd" stroke="#ff0000" stroke-width="3" transform="matrix(1.0,0.0,0.0,1.0,620.2,188.70120734908136)"/>
  </svg>
  <svg id="static_3">
    <defs/>
  </svg>
  <svg id="non-dynamic">
    <defs/>
    <path class="non-scaling-stroke" d="M 0.0 30.060629921259842 L 19.8 0.0 L 39.6 30.060629921259842 L 19.8 60.121259842519684 Z" fill="#ff0000" stroke="#ff0000" stroke-width="3" transform="matrix(1.0,0.0,0.0,1.0,660.9562204724409,650.7550656167979)">
      <animateMotion dur="5s" fill="freeze" id="entrance_motion" path="M 0.0 0.0 L 57.02971128608924 2.8514435695538225 L 79.84167979002625 1.900997375328103 L 93.14855643044619 -7.603989501312327 L 108.35653543307086 -28.514855643044598 L 128.31685039370078 -73.18813648293963 L 135.92083989501313 -116.91086614173227 L 141.62383202099738 -151.12871391076115 L 142.5742782152231 -187.2475590551181"/>
      <animateMotion dur="2s" fill="freeze" id="animate_motion" begin="6s;" path="M 142.5742782152231 -187.2475590551181 L 142.5742782152231 -188.2475418889804 L 139.5742782152231 -193.2475418889804 L 134.5742782152231 -202.2475590551181 L 129.5742782152231 -213.2475418889804 L 119.5742782152231 -226.2475418889804 L 110.57424388294771 -240.24752853753998 L 99.57430491810396 -254.24752853753998 L 89.57430491810396 -268.24754188898044 L 78.57430491810396 -282.24754188898044 L 66.57430491810396 -294.24755905511813 L 58.57430491810396 -307.24754188898044 L 49.57430491810396 -319.24755905511813 L 39.57430491810396 -330.24752853754 L 30.574278215223103 -339.24754188898044 L 22.574278215223103 -348.24754188898044 L 14.574304918103962 -358.24754188898044 L 9.574304918103962 -364.24754188898044 L 4.574304918103962 -372.24754188898044 L -0.42569508189603766 -376.24752853754 L -3.4256950818960377 -378.24754188898044 L -6.425695081896038 -380.24752853754 L -9.425721784776897 -382.24754188898044 L -11.425695081896038 -384.24754188898044 L -14.425721784776897 -387.24754188898044 L -16.425695081896038 -389.24754188898044 L -18.425695081896038 -391.24752853754 L -20.425695081896038 -393.24754188898044 L -21.425695081896038 -396.24752853754 L -24.425721784776897 -398.24754188898044 L -26.425695081896038 -400.24752853754 L -28.425695081896038 -402.24754188898044 L -29.425721784776897 -404.24754188898044 L -30.425695081896038 -407.24754188898044 L -33.42569508189604 -409.24754188898044 L -34.4257217847769 -411.24752853754 L -35.42569508189604 -413.24754188898044 L -37.4257217847769 -416.24752853754 L -39.4257217847769 -418.24754188898044 L -40.42569508189604 -420.24755905511813 L -41.42569508189604 -422.24754188898044 L -43.42569508189604 -424.24754188898044 L -43.42569508189604 -427.24754188898044 L -44.4257217847769 -429.24755905511813 L -45.42569508189604 -431.24752853754 L -45.42569508189604 -433.24754188898044 L -46.42569508189604 -438.24754188898044 L -47.4257217847769 -441.24752853754 L -47.4257217847769 -443.24754188898044 L -47.4257217847769 -446.24752853754 L -48.42569508189604 -448.24754188898044 L -49.4257217847769 -450.24754188898044 L -49.4257217847769 -452.24754188898044 L -50.42569508189604 -454.24755905511813 L -50.42569508189604 -457.24754951837497 L -50.42569508189604 -458.24754188898044 L -50.42569508189604 -459.24755905511813 L -51.42569508189604 -459.24755905511813 L -51.42569508189604 -460.24754188898044 L -50.42569508189604 -460.24754188898044 L -50.42569508189604 -460.24754188898044 L -49.4257217847769 -460.24754188898044 L -48.42569508189604 -460.24754188898044 L -47.4257217847769 -460.24754188898044 L -47.4257217847769 -460.24754188898044 L -46.42569508189604 -460.24754188898044 L -45.42569508189604 -460.24754188898044 L -45.42569508189604 -460.24754188898044 L -44.4257217847769 -460.24754188898044 L -44.4257217847769 -460.24754188898044 L -43.42569508189604 -460.24754188898044 L -43.42569508189604 -460.24754188898044 L -41.42569508189604 -460.24754188898044"/>
      <animate attributeName="opacity" dur="1s" repeatCount="5" values="1;0;1"/>
    </path>
    <path transform="matrix(1.0,0.0,0.0,1.0,660.9562204724409,650.7550656167979)" xmlns="http://www.w3.org/2000/svg" fill="#ffffff" stroke="#000000" stroke-width="1" stroke-linejoin="round" d="M12.6,13   c0.5-0.2,1.4-0.1,1.7,0.5c0.2,0.5,0.4,1.2,0.4,1.1c0-0.4,0-1.2,0.1-1.6c0.1-0.3,0.3-0.6,0.7-0.7c0.3-0.1,0.6-0.1,0.9-0.1   c0.3,0.1,0.6,0.3,0.8,0.5c0.4,0.6,0.4,1.9,0.4,1.8c0.1-0.3,0.1-1.2,0.3-1.6c0.1-0.2,0.5-0.4,0.7-0.5c0.3-0.1,0.7-0.1,1,0   c0.2,0,0.6,0.3,0.7,0.5c0.2,0.3,0.3,1.3,0.4,1.7c0,0.1,0.1-0.4,0.3-0.7c0.4-0.6,1.8-0.8,1.9,0.6c0,0.7,0,0.6,0,1.1   c0,0.5,0,0.8,0,1.2c0,0.4-0.1,1.3-0.2,1.7c-0.1,0.3-0.4,1-0.7,1.4c0,0-1.1,1.2-1.2,1.8c-0.1,0.6-0.1,0.6-0.1,1   c0,0.4,0.1,0.9,0.1,0.9s-0.8,0.1-1.2,0c-0.4-0.1-0.9-0.8-1-1.1c-0.2-0.3-0.5-0.3-0.7,0c-0.2,0.4-0.7,1.1-1,1.1   c-0.7,0.1-2.1,0-3.1,0c0,0,0.2-1-0.2-1.4c-0.3-0.3-0.8-0.8-1.1-1.1l-0.8-0.9c-0.3-0.4-1-0.9-1.2-2c-0.2-0.9-0.2-1.4,0-1.8   c0.2-0.4,0.7-0.6,0.9-0.6c0.2,0,0.7,0,0.9,0.1c0.2,0.1,0.3,0.2,0.5,0.4c0.2,0.3,0.3,0.5,0.2,0.1c-0.1-0.3-0.3-0.6-0.4-1   c-0.1-0.4-0.4-0.9-0.4-1.5C11.7,13.9,11.8,13.3,12.6,13z">
            <animate attributeName="opacity" fill="freeze" dur="0s" begin="0;" repeatCount="1" values="0"/>
            <animateMotion dur="0s" fill="freeze" id="animate_motion" begin="5s;" path="M 142.5742782152231 -187.2475590551181"/>
            <animate attributeName="opacity" fill="freeze" dur="0s" begin="5s;" repeatCount="1" values="1"/>
            <animateMotion dur="2s" fill="freeze" id="animate_motion" begin="6s;" path="M 142.5742782152231 -187.2475590551181 L 142.5742782152231 -188.2475418889804 L 139.5742782152231 -193.2475418889804 L 134.5742782152231 -202.2475590551181 L 129.5742782152231 -213.2475418889804 L 119.5742782152231 -226.2475418889804 L 110.57424388294771 -240.24752853753998 L 99.57430491810396 -254.24752853753998 L 89.57430491810396 -268.24754188898044 L 78.57430491810396 -282.24754188898044 L 66.57430491810396 -294.24755905511813 L 58.57430491810396 -307.24754188898044 L 49.57430491810396 -319.24755905511813 L 39.57430491810396 -330.24752853754 L 30.574278215223103 -339.24754188898044 L 22.574278215223103 -348.24754188898044 L 14.574304918103962 -358.24754188898044 L 9.574304918103962 -364.24754188898044 L 4.574304918103962 -372.24754188898044 L -0.42569508189603766 -376.24752853754 L -3.4256950818960377 -378.24754188898044 L -6.425695081896038 -380.24752853754 L -9.425721784776897 -382.24754188898044 L -11.425695081896038 -384.24754188898044 L -14.425721784776897 -387.24754188898044 L -16.425695081896038 -389.24754188898044 L -18.425695081896038 -391.24752853754 L -20.425695081896038 -393.24754188898044 L -21.425695081896038 -396.24752853754 L -24.425721784776897 -398.24754188898044 L -26.425695081896038 -400.24752853754 L -28.425695081896038 -402.24754188898044 L -29.425721784776897 -404.24754188898044 L -30.425695081896038 -407.24754188898044 L -33.42569508189604 -409.24754188898044 L -34.4257217847769 -411.24752853754 L -35.42569508189604 -413.24754188898044 L -37.4257217847769 -416.24752853754 L -39.4257217847769 -418.24754188898044 L -40.42569508189604 -420.24755905511813 L -41.42569508189604 -422.24754188898044 L -43.42569508189604 -424.24754188898044 L -43.42569508189604 -427.24754188898044 L -44.4257217847769 -429.24755905511813 L -45.42569508189604 -431.24752853754 L -45.42569508189604 -433.24754188898044 L -46.42569508189604 -438.24754188898044 L -47.4257217847769 -441.24752853754 L -47.4257217847769 -443.24754188898044 L -47.4257217847769 -446.24752853754 L -48.42569508189604 -448.24754188898044 L -49.4257217847769 -450.24754188898044 L -49.4257217847769 -452.24754188898044 L -50.42569508189604 -454.24755905511813 L -50.42569508189604 -457.24754951837497 L -50.42569508189604 -458.24754188898044 L -50.42569508189604 -459.24755905511813 L -51.42569508189604 -459.24755905511813 L -51.42569508189604 -460.24754188898044 L -50.42569508189604 -460.24754188898044 L -50.42569508189604 -460.24754188898044 L -49.4257217847769 -460.24754188898044 L -48.42569508189604 -460.24754188898044 L -47.4257217847769 -460.24754188898044 L -47.4257217847769 -460.24754188898044 L -46.42569508189604 -460.24754188898044 L -45.42569508189604 -460.24754188898044 L -45.42569508189604 -460.24754188898044 L -44.4257217847769 -460.24754188898044 L -44.4257217847769 -460.24754188898044 L -43.42569508189604 -460.24754188898044 L -43.42569508189604 -460.24754188898044 L -41.42569508189604 -460.24754188898044"/>
            <animate attributeName="opacity" fill="freeze" dur="0s" begin="9s;" repeatCount="1" values="0"/>
      </path>
    <path transform="matrix(1.0,0.0,0.0,1.0,660.9562204724409,650.7550656167979)" d="M8.3,3.213l9.468,8.836c0.475,0.443,0.2,1.24-0.447,1.296L13.2,13.7l2.807,6.21c0.272,0.602,0.006,1.311-0.596,1.585l0,0 c-0.61,0.277-1.33,0-1.596-0.615L11.1,14.6l-2.833,2.695C7.789,17.749,7,17.411,7,16.751V3.778C7,3.102,7.806,2.752,8.3,3.213z" >
            <animateMotion dur="1s" begin="4s;" fill="freeze" id="entrance_motion" path="M 0.0 0.0 L 142.5742782152231 -187.2475590551181"/>
            <animate attributeName="opacity" fill="freeze" dur="0s" begin="5s;" repeatCount="1" values="0"/>
    </path>
  </svg>
  <svg id="dynamic">
  </svg>
</svg>
