<?xml version="1.0" encoding="utf-8" ?>
<svg xmlns="http://www.w3.org/2000/svg" xmlns:ev="http://www.w3.org/2001/xml-events" xmlns:xlink="http://www.w3.org/1999/xlink" baseProfile="full" height="720.0" version="1.1" width="1280.0">
  <defs>
    <style type="text/css"><![CDATA[.non-scaling-stroke { vector-effect: non-scaling-stroke; }]]></style>
  </defs>
  <svg id="static_1">
    <defs/>
    <path class="non-scaling-stroke" d="M 0.0 30.981417322834645 A 29.773700787401573 30.981417322834645 0 0 1 29.77370078740157 -6.111040515849597e-15 A 29.773700787401573 30.981417322834645 0 0 1 59.547401574803146 30.981417322834634 A 29.773700787401573 30.981417322834645 0 0 1 29.773700787401573 61.96283464566928 A 29.773700787401573 30.981417322834645 0 0 1 0.0 30.98141732283464 Z" fill="#ffffff" stroke="#5a9ed6" stroke-width="3" transform="matrix(1.0,0.0,0.0,1.0,610.2259317585302,262.26215223097114)"/>
  </svg>
  <svg id="static_2">
    <defs/>
    <path class="non-scaling-stroke" d="M 0.0 30.981417322834645 A 29.773700787401573 30.981417322834645 0 0 1 29.77370078740157 -6.111040515849597e-15 A 29.773700787401573 30.981417322834645 0 0 1 59.547401574803146 30.981417322834634 A 29.773700787401573 30.981417322834645 0 0 1 29.773700787401573 61.96283464566928 A 29.773700787401573 30.981417322834645 0 0 1 0.0 30.98141732283464 Z" fill="#ffffff" stroke="#5a9ed6" stroke-width="3" transform="matrix(1.0,0.0,0.0,1.0,610.2260367454069,195.05648293963256)"/>
  </svg>
  <svg id="static_3">
    <defs/>
    <path class="non-scaling-stroke" d="M 0.0 30.981417322834645 A 29.773700787401573 30.981417322834645 0 0 1 29.77370078740157 -6.111040515849597e-15 A 29.773700787401573 30.981417322834645 0 0 1 59.547401574803146 30.981417322834634 A 29.773700787401573 30.981417322834645 0 0 1 29.773700787401573 61.96283464566928 A 29.773700787401573 30.981417322834645 0 0 1 0.0 30.98141732283464 Z" fill="#ffffff" stroke="#5a9ed6" stroke-width="3" transform="matrix(1.0,0.0,0.0,1.0,543.0819947506561,198.29858267716534)"/>
  </svg>
  <svg id="static_4">
    <defs/>
    <path class="non-scaling-stroke" d="M 0.0 30.981417322834645 A 29.773700787401573 30.981417322834645 0 0 1 29.77370078740157 -6.111040515849597e-15 A 29.773700787401573 30.981417322834645 0 0 1 59.547401574803146 30.981417322834634 A 29.773700787401573 30.981417322834645 0 0 1 29.773700787401573 61.96283464566928 A 29.773700787401573 30.981417322834645 0 0 1 0.0 30.98141732283464 Z" fill="#ffffff" stroke="#5a9ed6" stroke-width="3" transform="matrix(1.0,0.0,0.0,1.0,677.3700787401575,195.05648293963256)"/>
  </svg>
  <svg id="non-dynamic">
    <defs/>
    <path class="non-scaling-stroke" d="M 0.0 30.981417322834645 A 29.773700787401573 30.981417322834645 0 0 1 29.77370078740157 -6.111040515849597e-15 A 29.773700787401573 30.981417322834645 0 0 1 59.547401574803146 30.981417322834634 A 29.773700787401573 30.981417322834645 0 0 1 29.773700787401573 61.96283464566928 A 29.773700787401573 30.981417322834645 0 0 1 0.0 30.98141732283464 Z" fill="#ffffff" stroke="#5a9ed6" stroke-width="3" transform="matrix(1.0,0.0,0.0,1.0,610.2262467191601,594.9645144356955)">
    <animate attributeName="opacity" dur="1s" repeatCount="5" values="1;0;1"/>
    <animateMotion dur="2s" fill="freeze" id="entrance_motion" begin="6s;" path="M 0.0 0.0 L 0 -1.99993896484375 L -1 -8.99996566772461 L -3 -26.99993896484375 L -5 -45 L -6 -63 L -6 -81.99993896484375 L -6 -101.99993896484375 L -6 -125.00000000000006 L -10 -150.00000000000006 L -10 -174.99996948242193 L -10 -199.00000000000006 L -10 -225.00000000000006 L -10 -249.00000000000006 L -8 -274.00000000000006 L -5 -296.99996948242193 L -6 -319.00000000000006 L -6 -339.00000000000006 L -5 -357.99998283386236 L -5 -375.00000000000006 L -3 -388.99998283386236 L -1.9999732971191406 -401.9999923706055"/>
    </path>

      <path transform="matrix(1.0,0.0,0.0,1.0,610.2262467191601,594.9645144356955)" xmlns="http://www.w3.org/2000/svg" fill="#ffffff" stroke="#000000" stroke-width="1" stroke-linejoin="round" d="M12.6,13   c0.5-0.2,1.4-0.1,1.7,0.5c0.2,0.5,0.4,1.2,0.4,1.1c0-0.4,0-1.2,0.1-1.6c0.1-0.3,0.3-0.6,0.7-0.7c0.3-0.1,0.6-0.1,0.9-0.1   c0.3,0.1,0.6,0.3,0.8,0.5c0.4,0.6,0.4,1.9,0.4,1.8c0.1-0.3,0.1-1.2,0.3-1.6c0.1-0.2,0.5-0.4,0.7-0.5c0.3-0.1,0.7-0.1,1,0   c0.2,0,0.6,0.3,0.7,0.5c0.2,0.3,0.3,1.3,0.4,1.7c0,0.1,0.1-0.4,0.3-0.7c0.4-0.6,1.8-0.8,1.9,0.6c0,0.7,0,0.6,0,1.1   c0,0.5,0,0.8,0,1.2c0,0.4-0.1,1.3-0.2,1.7c-0.1,0.3-0.4,1-0.7,1.4c0,0-1.1,1.2-1.2,1.8c-0.1,0.6-0.1,0.6-0.1,1   c0,0.4,0.1,0.9,0.1,0.9s-0.8,0.1-1.2,0c-0.4-0.1-0.9-0.8-1-1.1c-0.2-0.3-0.5-0.3-0.7,0c-0.2,0.4-0.7,1.1-1,1.1   c-0.7,0.1-2.1,0-3.1,0c0,0,0.2-1-0.2-1.4c-0.3-0.3-0.8-0.8-1.1-1.1l-0.8-0.9c-0.3-0.4-1-0.9-1.2-2c-0.2-0.9-0.2-1.4,0-1.8   c0.2-0.4,0.7-0.6,0.9-0.6c0.2,0,0.7,0,0.9,0.1c0.2,0.1,0.3,0.2,0.5,0.4c0.2,0.3,0.3,0.5,0.2,0.1c-0.1-0.3-0.3-0.6-0.4-1   c-0.1-0.4-0.4-0.9-0.4-1.5C11.7,13.9,11.8,13.3,12.6,13z">
          <animate attributeName="opacity" fill="freeze" dur="0s" begin="0;" repeatCount="1" values="0"/>
          <animate attributeName="opacity" fill="freeze" dur="0s" begin="5s;" repeatCount="1" values="1"/>
          <animateMotion dur="2s" fill="freeze" id="entrance_motion" begin="6s;" path="M 0.0 0.0 L 0 -1.99993896484375 L -1 -8.99996566772461 L -3 -26.99993896484375 L -5 -45 L -6 -63 L -6 -81.99993896484375 L -6 -101.99993896484375 L -6 -125.00000000000006 L -10 -150.00000000000006 L -10 -174.99996948242193 L -10 -199.00000000000006 L -10 -225.00000000000006 L -10 -249.00000000000006 L -8 -274.00000000000006 L -5 -296.99996948242193 L -6 -319.00000000000006 L -6 -339.00000000000006 L -5 -357.99998283386236 L -5 -375.00000000000006 L -3 -388.99998283386236 L -1.9999732971191406 -401.9999923706055"/>
          <animate attributeName="opacity" fill="freeze" dur="0s" begin="8s;" repeatCount="1" values="0"/>
    </path>
    <path  d="M8.3,3.213l9.468,8.836c0.475,0.443,0.2,1.24-0.447,1.296L13.2,13.7l2.807,6.21c0.272,0.602,0.006,1.311-0.596,1.585l0,0 c-0.61,0.277-1.33,0-1.596-0.615L11.1,14.6l-2.833,2.695C7.789,17.749,7,17.411,7,16.751V3.778C7,3.102,7.806,2.752,8.3,3.213z" >
        <animateMotion dur="0s" begin="0s;" fill="freeze" id="entrance_motion" path="M 100 360"/>
        <animateMotion dur="2s" begin="3s;" fill="freeze" id="entrance_motion" path="M 100 360 L 610.2262467191601 594.9645144356955"/>
        <animate attributeName="opacity" fill="freeze" dur="0s" begin="5s;" repeatCount="1" values="0"/>
    </path>
  <svg id="dynamic">
  </svg>
  </svg>
</svg>
